<svg class="main-svg" xmlns="http://www.w3.org/2000/svg" xmlns:xlink="http://www.w3.org/1999/xlink" width="700" height="500" style="" viewBox="0 0 700 500"><rect x="0" y="0" width="700" height="500" style="fill: rgb(255, 255, 255); fill-opacity: 1;"/><defs id="defs-8b4f79"><g class="clips"><clipPath id="clip8b4f79xyplot" class="plotclip"><rect width="512" height="395"/></clipPath><clipPath class="axesclip" id="clip8b4f79x"><rect x="60" y="0" width="512" height="500"/></clipPath><clipPath class="axesclip" id="clip8b4f79y"><rect x="0" y="25" width="700" height="395"/></clipPath><clipPath class="axesclip" id="clip8b4f79xy"><rect x="60" y="25" width="512" height="395"/></clipPath></g><g class="gradients"/><g class="patterns"/></defs><g class="bglayer"/><g class="layer-below"><g class="imagelayer"/><g class="shapelayer"/></g><g class="cartesianlayer"><g class="subplot xy"><g class="layer-subplot"><g class="shapelayer"/><g class="imagelayer"/></g><g class="gridlayer"><g class="x"><path class="xgrid crisp" transform="translate(76.03999999999999,0)" d="M0,25v395" style="stroke: rgb(238, 238, 238); stroke-opacity: 1; stroke-width: 1px;"/><path class="xgrid crisp" transform="translate(92.08,0)" d="M0,25v395" style="stroke: rgb(238, 238, 238); stroke-opacity: 1; stroke-width: 1px;"/><path class="xgrid crisp" transform="translate(108.13,0)" d="M0,25v395" style="stroke: rgb(238, 238, 238); stroke-opacity: 1; stroke-width: 1px;"/><path class="xgrid crisp" transform="translate(124.17,0)" d="M0,25v395" style="stroke: rgb(238, 238, 238); stroke-opacity: 1; stroke-width: 1px;"/><path class="xgrid crisp" transform="translate(140.20999999999998,0)" d="M0,25v395" style="stroke: rgb(238, 238, 238); stroke-opacity: 1; stroke-width: 1px;"/><path class="xgrid crisp" transform="translate(156.25,0)" d="M0,25v395" style="stroke: rgb(238, 238, 238); stroke-opacity: 1; stroke-width: 1px;"/><path class="xgrid crisp" transform="translate(172.29000000000002,0)" d="M0,25v395" style="stroke: rgb(238, 238, 238); stroke-opacity: 1; stroke-width: 1px;"/><path class="xgrid crisp" transform="translate(188.33,0)" d="M0,25v395" style="stroke: rgb(238, 238, 238); stroke-opacity: 1; stroke-width: 1px;"/><path class="xgrid crisp" transform="translate(204.38,0)" d="M0,25v395" style="stroke: rgb(238, 238, 238); stroke-opacity: 1; stroke-width: 1px;"/><path class="xgrid crisp" transform="translate(220.42,0)" d="M0,25v395" style="stroke: rgb(238, 238, 238); stroke-opacity: 1; stroke-width: 1px;"/><path class="xgrid crisp" transform="translate(236.46,0)" d="M0,25v395" style="stroke: rgb(238, 238, 238); stroke-opacity: 1; stroke-width: 1px;"/><path class="xgrid crisp" transform="translate(252.5,0)" d="M0,25v395" style="stroke: rgb(238, 238, 238); stroke-opacity: 1; stroke-width: 1px;"/><path class="xgrid crisp" transform="translate(268.53999999999996,0)" d="M0,25v395" style="stroke: rgb(238, 238, 238); stroke-opacity: 1; stroke-width: 1px;"/><path class="xgrid crisp" transform="translate(284.58000000000004,0)" d="M0,25v395" style="stroke: rgb(238, 238, 238); stroke-opacity: 1; stroke-width: 1px;"/><path class="xgrid crisp" transform="translate(300.63,0)" d="M0,25v395" style="stroke: rgb(238, 238, 238); stroke-opacity: 1; stroke-width: 1px;"/><path class="xgrid crisp" transform="translate(316.67,0)" d="M0,25v395" style="stroke: rgb(238, 238, 238); stroke-opacity: 1; stroke-width: 1px;"/><path class="xgrid crisp" transform="translate(332.71,0)" d="M0,25v395" style="stroke: rgb(238, 238, 238); stroke-opacity: 1; stroke-width: 1px;"/><path class="xgrid crisp" transform="translate(348.75,0)" d="M0,25v395" style="stroke: rgb(238, 238, 238); stroke-opacity: 1; stroke-width: 1px;"/><path class="xgrid crisp" transform="translate(364.79,0)" d="M0,25v395" style="stroke: rgb(238, 238, 238); stroke-opacity: 1; stroke-width: 1px;"/><path class="xgrid crisp" transform="translate(380.84,0)" d="M0,25v395" style="stroke: rgb(238, 238, 238); stroke-opacity: 1; stroke-width: 1px;"/><path class="xgrid crisp" transform="translate(396.88,0)" d="M0,25v395" style="stroke: rgb(238, 238, 238); stroke-opacity: 1; stroke-width: 1px;"/><path class="xgrid crisp" transform="translate(412.92,0)" d="M0,25v395" style="stroke: rgb(238, 238, 238); stroke-opacity: 1; stroke-width: 1px;"/><path class="xgrid crisp" transform="translate(428.96,0)" d="M0,25v395" style="stroke: rgb(238, 238, 238); stroke-opacity: 1; stroke-width: 1px;"/><path class="xgrid crisp" transform="translate(445,0)" d="M0,25v395" style="stroke: rgb(238, 238, 238); stroke-opacity: 1; stroke-width: 1px;"/><path class="xgrid crisp" transform="translate(461.04,0)" d="M0,25v395" style="stroke: rgb(238, 238, 238); stroke-opacity: 1; stroke-width: 1px;"/><path class="xgrid crisp" transform="translate(477.09,0)" d="M0,25v395" style="stroke: rgb(238, 238, 238); stroke-opacity: 1; stroke-width: 1px;"/><path class="xgrid crisp" transform="translate(493.13,0)" d="M0,25v395" style="stroke: rgb(238, 238, 238); stroke-opacity: 1; stroke-width: 1px;"/><path class="xgrid crisp" transform="translate(509.17,0)" d="M0,25v395" style="stroke: rgb(238, 238, 238); stroke-opacity: 1; stroke-width: 1px;"/><path class="xgrid crisp" transform="translate(525.21,0)" d="M0,25v395" style="stroke: rgb(238, 238, 238); stroke-opacity: 1; stroke-width: 1px;"/><path class="xgrid crisp" transform="translate(541.25,0)" d="M0,25v395" style="stroke: rgb(238, 238, 238); stroke-opacity: 1; stroke-width: 1px;"/><path class="xgrid crisp" transform="translate(557.3,0)" d="M0,25v395" style="stroke: rgb(238, 238, 238); stroke-opacity: 1; stroke-width: 1px;"/></g><g class="y"><path class="ygrid crisp" transform="translate(0,371.21)" d="M60,0h512" style="stroke: rgb(238, 238, 238); stroke-opacity: 1; stroke-width: 1px;"/><path class="ygrid crisp" transform="translate(0,322.41)" d="M60,0h512" style="stroke: rgb(238, 238, 238); stroke-opacity: 1; stroke-width: 1px;"/><path class="ygrid crisp" transform="translate(0,273.62)" d="M60,0h512" style="stroke: rgb(238, 238, 238); stroke-opacity: 1; stroke-width: 1px;"/><path class="ygrid crisp" transform="translate(0,224.82)" d="M60,0h512" style="stroke: rgb(238, 238, 238); stroke-opacity: 1; stroke-width: 1px;"/><path class="ygrid crisp" transform="translate(0,176.03)" d="M60,0h512" style="stroke: rgb(238, 238, 238); stroke-opacity: 1; stroke-width: 1px;"/><path class="ygrid crisp" transform="translate(0,127.24)" d="M60,0h512" style="stroke: rgb(238, 238, 238); stroke-opacity: 1; stroke-width: 1px;"/><path class="ygrid crisp" transform="translate(0,78.44)" d="M60,0h512" style="stroke: rgb(238, 238, 238); stroke-opacity: 1; stroke-width: 1px;"/><path class="ygrid crisp" transform="translate(0,29.65)" d="M60,0h512" style="stroke: rgb(238, 238, 238); stroke-opacity: 1; stroke-width: 1px;"/></g></g><g class="zerolinelayer"><path class="yzl zl crisp" transform="translate(0,420)" d="M60,0h512" style="stroke: rgb(68, 68, 68); stroke-opacity: 1; stroke-width: 1px;"/></g><path class="xlines-below"/><path class="ylines-below"/><g class="overlines-below"/><g class="xaxislayer-below"/><g class="yaxislayer-below"/><g class="overaxes-below"/><g class="plot" transform="translate(60,25)" clip-path="url(#clip8b4f79xyplot)"><g class="scatterlayer mlayer"><g class="trace scatter trace191911" style="stroke-miterlimit: 2;"><g class="fills"><g><path class="js-fill" d="M512,395L0,395L0,395L231.27,394.29L232.61,394.19L339.55,393.44L340.89,393.41L512,393.29" style="fill: rgb(139, 0, 0); fill-opacity: 1; stroke-width: 0;"/></g><g><path class="js-fill" d="M0,395L108.28,394.44L109.62,394.05L141.7,393.83L143.04,393.73L148.39,393.29L149.72,393.22L157.74,393.17L159.08,392.34L175.12,390.32L176.46,388.49L179.13,388.49L180.47,386.49L184.48,383.51L185.82,383L191.16,381.12L192.5,379.12L193.84,378.07L195.17,374.09L196.51,374.09L197.85,371.24L200.52,367.6L201.86,367.6L203.2,367.09L204.53,363.33L207.21,359.09L208.54,358.67L209.88,358.62L211.22,357.67L213.89,355.09L215.23,355.04L216.56,355.04L217.9,353.5L221.91,347.62L223.25,342.89L225.92,339.91L227.26,335.54L229.93,328.18L231.27,312.44L233.94,306L235.28,305.66L236.62,304.37L237.95,304.37L239.29,304.37L240.63,299.88L244.64,283.24L245.97,283.24L247.31,278.82L248.65,271.19L249.98,265.23L251.32,263.26L252.66,261.13L253.99,255.57L258.01,248.81L259.34,247.01L262.02,234.98L263.35,234.96L266.03,223.76L267.36,222.83L270.04,215.8L271.37,208L274.05,181.55L275.38,172.26L276.72,169.13L278.06,162.89L279.39,161.69L280.73,157.25L283.4,141.42L284.74,137.12L287.42,128.19L288.75,125.29L292.76,118.85L294.1,117.02L296.77,112.78L298.11,108.38L300.78,103.11L302.12,101.75L306.13,97.82L307.47,96.72L314.15,90.09L315.49,89.53L316.83,88.35L318.16,83.99L323.51,78.84L324.85,77.74L335.54,72.23L336.88,71.59L340.89,69.74L342.22,68.06L348.91,64.69L350.25,63.59L356.93,60.96L358.27,60.57L362.28,58.2L363.61,57.88L366.29,55.03L367.62,54.91L368.96,54.69L370.3,53.56L374.31,52.2L375.64,51.95L386.34,49.17L387.68,48.9L390.35,48.03L391.69,47.1L394.36,46.78L395.7,45.85L405.05,44.63L406.39,44L413.08,42.49L414.41,42.1L421.1,40.37L422.43,40.22L435.8,37.24L437.14,36.49L441.15,34.73L442.49,34.53L450.51,33.8L451.84,33.73L495.96,28.34L497.3,27.8L501.31,26.68L502.64,26.43L507.99,24.82L509.33,24.09L512,22.78L512,393.29L340.89,393.41L339.55,393.44L232.61,394.19L231.27,394.29L0,395Z" style="fill: rgb(0, 255, 0); fill-opacity: 1; stroke-width: 0;"/></g></g><g class="errorbars"/><g class="lines"><path class="js-line" d="M0,395L231.27,394.29L232.61,394.19L339.55,393.44L340.89,393.41L512,393.29" style="vector-effect: non-scaling-stroke; fill: none; stroke: rgb(139, 0, 0); stroke-opacity: 1; stroke-width: 2px; opacity: 1;"/></g><g class="points"/><g class="text"/></g><g class="trace scatter trace3d6026" style="stroke-miterlimit: 2;"><g class="fills"><g><path class="js-fill" d="M0,395L85.56,394.73L86.89,394.24L133.68,393.49L135.02,393.19L153.73,391.76L155.07,391.24L168.44,385.22L169.78,383.97L173.79,379.95L175.12,379.09L179.13,375.7L180.47,375.41L181.81,374.82L183.14,373.41L185.82,370.48L187.15,368.09L191.16,364.53L192.5,362.89L196.51,358.45L197.85,357.94L201.86,354.33L203.2,351.94L205.87,348.04L207.21,347.35L209.88,342.67L211.22,341.18L213.89,335.08L215.23,332.76L217.9,321.78L219.24,317.54L223.25,305.76L224.58,299.39L227.26,297.61L228.6,295.31L229.93,291.85L231.27,285.82L237.95,261.16L239.29,257.45L241.96,251.96L243.3,251.96L244.64,244.01L245.97,241.03L251.32,233.66L252.66,228.83L259.34,209.49L260.68,207.63L262.02,204.65L263.35,197.92L266.03,184.53L267.36,179.28L271.37,148.96L272.71,143.83L275.38,133.98L276.72,130.1L279.39,125.83L280.73,120.31L287.42,108.92L288.75,106.87L292.76,100.65L294.1,98.94L295.44,97.94L296.77,94.97L302.12,90.01L303.46,88.74L306.13,87.16L307.47,84.77L310.14,80.5L311.48,79.74L315.49,76.59L316.83,76.01L319.5,74.35L320.84,74.03L326.18,70.62L327.52,70.18L330.19,68.52L331.53,66.81L334.2,65.62L335.54,64.49L340.89,61.98L342.22,61.01L347.57,59.91L348.91,58.64L355.59,54.08L356.93,53.95L358.27,53.71L359.6,52.47L363.61,51.05L364.95,50.88L375.64,47.98L376.98,47.81L387.68,44.27L389.01,44.17L397.03,41.98L398.37,41.51L403.72,40.51L405.05,40.12L411.74,38.58L413.08,38.34L442.49,32.56L443.82,32.51L459.86,30.97L461.2,30.7L497.3,26.04L498.63,25.58L503.98,23.73L505.32,23.02L512,19.75L512,22.78L509.33,24.09L507.99,24.82L502.64,26.43L501.31,26.68L497.3,27.8L495.96,28.34L451.84,33.73L450.51,33.8L442.49,34.53L441.15,34.73L437.14,36.49L435.8,37.24L422.43,40.22L421.1,40.37L414.41,42.1L413.08,42.49L406.39,44L405.05,44.63L395.7,45.85L394.36,46.78L391.69,47.1L390.35,48.03L387.68,48.9L386.34,49.17L375.64,51.95L374.31,52.2L370.3,53.56L368.96,54.69L367.62,54.91L366.29,55.03L363.61,57.88L362.28,58.2L358.27,60.57L356.93,60.96L350.25,63.59L348.91,64.69L342.22,68.06L340.89,69.74L336.88,71.59L335.54,72.23L324.85,77.74L323.51,78.84L318.16,83.99L316.83,88.35L315.49,89.53L314.15,90.09L307.47,96.72L306.13,97.82L302.12,101.75L300.78,103.11L298.11,108.38L296.77,112.78L294.1,117.02L292.76,118.85L288.75,125.29L287.42,128.19L284.74,137.12L283.4,141.42L280.73,157.25L279.39,161.69L278.06,162.89L276.72,169.13L275.38,172.26L274.05,181.55L271.37,208L270.04,215.8L267.36,222.83L266.03,223.76L263.35,234.96L262.02,234.98L259.34,247.01L258.01,248.81L253.99,255.57L252.66,261.13L251.32,263.26L249.98,265.23L248.65,271.19L247.31,278.82L245.97,283.24L244.64,283.24L240.63,299.88L239.29,304.37L237.95,304.37L236.62,304.37L235.28,305.66L233.94,306L231.27,312.44L229.93,328.18L227.26,335.54L225.92,339.91L223.25,342.89L221.91,347.62L217.9,353.5L216.56,355.04L215.23,355.04L213.89,355.09L211.22,357.67L209.88,358.62L208.54,358.67L207.21,359.09L204.53,363.33L203.2,367.09L201.86,367.6L200.52,367.6L197.85,371.24L196.51,374.09L195.17,374.09L193.84,378.07L192.5,379.12L191.16,381.12L185.82,383L184.48,383.51L180.47,386.49L179.13,388.49L176.46,388.49L175.12,390.32L159.08,392.34L157.74,393.17L149.72,393.22L148.39,393.29L143.04,393.73L141.7,393.83L109.62,394.05L108.28,394.44L0,395Z" style="fill: rgb(255, 165, 0); fill-opacity: 1; stroke-width: 0;"/></g></g><g class="errorbars"/><g class="lines"><path class="js-line" d="M0,395L108.28,394.44L109.62,394.05L141.7,393.83L143.04,393.73L148.39,393.29L149.72,393.22L157.74,393.17L159.08,392.34L175.12,390.32L176.46,388.49L179.13,388.49L180.47,386.49L184.48,383.51L185.82,383L191.16,381.12L192.5,379.12L193.84,378.07L195.17,374.09L196.51,374.09L197.85,371.24L200.52,367.6L201.86,367.6L203.2,367.09L204.53,363.33L207.21,359.09L208.54,358.67L209.88,358.62L211.22,357.67L213.89,355.09L215.23,355.04L216.56,355.04L217.9,353.5L221.91,347.62L223.25,342.89L225.92,339.91L227.26,335.54L229.93,328.18L231.27,312.44L233.94,306L235.28,305.66L236.62,304.37L237.95,304.37L239.29,304.37L240.63,299.88L244.64,283.24L245.97,283.24L247.31,278.82L248.65,271.19L249.98,265.23L251.32,263.26L252.66,261.13L253.99,255.57L258.01,248.81L259.34,247.01L262.02,234.98L263.35,234.96L266.03,223.76L267.36,222.83L270.04,215.8L271.37,208L274.05,181.55L275.38,172.26L276.72,169.13L278.06,162.89L279.39,161.69L280.73,157.25L283.4,141.42L284.74,137.12L287.42,128.19L288.75,125.29L292.76,118.85L294.1,117.02L296.77,112.78L298.11,108.38L300.78,103.11L302.12,101.75L306.13,97.82L307.47,96.72L314.15,90.09L315.49,89.53L316.83,88.35L318.16,83.99L323.51,78.84L324.85,77.74L335.54,72.23L336.88,71.59L340.89,69.74L342.22,68.06L348.91,64.69L350.25,63.59L356.93,60.96L358.27,60.57L362.28,58.2L363.61,57.88L366.29,55.03L367.62,54.91L368.96,54.69L370.3,53.56L374.31,52.2L375.64,51.95L386.34,49.17L387.68,48.9L390.35,48.03L391.69,47.1L394.36,46.78L395.7,45.85L405.05,44.63L406.39,44L413.08,42.49L414.41,42.1L421.1,40.37L422.43,40.22L435.8,37.24L437.14,36.49L441.15,34.73L442.49,34.53L450.51,33.8L451.84,33.73L495.96,28.34L497.3,27.8L501.31,26.68L502.64,26.43L507.99,24.82L509.33,24.09L512,22.78" style="vector-effect: non-scaling-stroke; fill: none; stroke: rgb(0, 255, 0); stroke-opacity: 1; stroke-width: 2px; opacity: 1;"/></g><g class="points"/><g class="text"/></g><g class="trace scatter trace751b05" style="stroke-miterlimit: 2;"><g class="fills"/><g class="errorbars"/><g class="lines"><path class="js-line" d="M0,395L85.56,394.73L86.89,394.24L133.68,393.49L135.02,393.19L153.73,391.76L155.07,391.24L168.44,385.22L169.78,383.97L173.79,379.95L175.12,379.09L179.13,375.7L180.47,375.41L181.81,374.82L183.14,373.41L185.82,370.48L187.15,368.09L191.16,364.53L192.5,362.89L196.51,358.45L197.85,357.94L201.86,354.33L203.2,351.94L205.87,348.04L207.21,347.35L209.88,342.67L211.22,341.18L213.89,335.08L215.23,332.76L217.9,321.78L219.24,317.54L223.25,305.76L224.58,299.39L227.26,297.61L228.6,295.31L229.93,291.85L231.27,285.82L237.95,261.16L239.29,257.45L241.96,251.96L243.3,251.96L244.64,244.01L245.97,241.03L251.32,233.66L252.66,228.83L259.34,209.49L260.68,207.63L262.02,204.65L263.35,197.92L266.03,184.53L267.36,179.28L271.37,148.96L272.71,143.83L275.38,133.98L276.72,130.1L279.39,125.83L280.73,120.31L287.42,108.92L288.75,106.87L292.76,100.65L294.1,98.94L295.44,97.94L296.77,94.97L302.12,90.01L303.46,88.74L306.13,87.16L307.47,84.77L310.14,80.5L311.48,79.74L315.49,76.59L316.83,76.01L319.5,74.35L320.84,74.03L326.18,70.62L327.52,70.18L330.19,68.52L331.53,66.81L334.2,65.62L335.54,64.49L340.89,61.98L342.22,61.01L347.57,59.91L348.91,58.64L355.59,54.08L356.93,53.95L358.27,53.71L359.6,52.47L363.61,51.05L364.95,50.88L375.64,47.98L376.98,47.81L387.68,44.27L389.01,44.17L397.03,41.98L398.37,41.51L403.72,40.51L405.05,40.12L411.74,38.58L413.08,38.34L442.49,32.56L443.82,32.51L459.86,30.97L461.2,30.7L497.3,26.04L498.63,25.58L503.98,23.73L505.32,23.02L512,19.75" style="vector-effect: non-scaling-stroke; fill: none; stroke: rgb(255, 165, 0); stroke-opacity: 1; stroke-width: 2px; opacity: 1;"/></g><g class="points"/><g class="text"/></g></g></g><g class="overplot"/><path class="xlines-above crisp" d="M0,0" style="fill: none;"/><path class="ylines-above crisp" d="M0,0" style="fill: none;"/><g class="overlines-above"/><g class="xaxislayer-above"><g class="xtick"><text text-anchor="end" x="0" y="434" transform="translate(60,0) rotate(-45,0,427.5)" style="font-family: serif; font-size: 13px; fill: rgb(68, 68, 68); fill-opacity: 1; white-space: pre; opacity: 1;">Mar-22-20</text></g><g class="xtick"><text text-anchor="end" x="0" y="434" transform="translate(76.03999999999999,0) rotate(-45,0,427.5)" style="font-family: serif; font-size: 13px; fill: rgb(68, 68, 68); fill-opacity: 1; white-space: pre; opacity: 1;">Apr-03-20</text></g><g class="xtick"><text text-anchor="end" x="0" y="434" transform="translate(92.08,0) rotate(-45,0,427.5)" style="font-family: serif; font-size: 13px; fill: rgb(68, 68, 68); fill-opacity: 1; white-space: pre; opacity: 1;">Apr-15-20</text></g><g class="xtick"><text text-anchor="end" x="0" y="434" transform="translate(108.13,0) rotate(-45,0,427.5)" style="font-family: serif; font-size: 13px; fill: rgb(68, 68, 68); fill-opacity: 1; white-space: pre; opacity: 1;">Apr-27-20</text></g><g class="xtick"><text text-anchor="end" x="0" y="434" transform="translate(124.17,0) rotate(-45,0,427.5)" style="font-family: serif; font-size: 13px; fill: rgb(68, 68, 68); fill-opacity: 1; white-space: pre; opacity: 1;">May-09-20</text></g><g class="xtick"><text text-anchor="end" x="0" y="434" transform="translate(140.20999999999998,0) rotate(-45,0,427.5)" style="font-family: serif; font-size: 13px; fill: rgb(68, 68, 68); fill-opacity: 1; white-space: pre; opacity: 1;">May-21-20</text></g><g class="xtick"><text text-anchor="end" x="0" y="434" transform="translate(156.25,0) rotate(-45,0,427.5)" style="font-family: serif; font-size: 13px; fill: rgb(68, 68, 68); fill-opacity: 1; white-space: pre; opacity: 1;">Jun-02-20</text></g><g class="xtick"><text text-anchor="end" x="0" y="434" transform="translate(172.29000000000002,0) rotate(-45,0,427.5)" style="font-family: serif; font-size: 13px; fill: rgb(68, 68, 68); fill-opacity: 1; white-space: pre; opacity: 1;">Jun-14-20</text></g><g class="xtick"><text text-anchor="end" x="0" y="434" transform="translate(188.33,0) rotate(-45,0,427.5)" style="font-family: serif; font-size: 13px; fill: rgb(68, 68, 68); fill-opacity: 1; white-space: pre; opacity: 1;">Jun-26-20</text></g><g class="xtick"><text text-anchor="end" x="0" y="434" transform="translate(204.38,0) rotate(-45,0,427.5)" style="font-family: serif; font-size: 13px; fill: rgb(68, 68, 68); fill-opacity: 1; white-space: pre; opacity: 1;">Jul-08-20</text></g><g class="xtick"><text text-anchor="end" x="0" y="434" transform="translate(220.42,0) rotate(-45,0,427.5)" style="font-family: serif; font-size: 13px; fill: rgb(68, 68, 68); fill-opacity: 1; white-space: pre; opacity: 1;">Jul-20-20</text></g><g class="xtick"><text text-anchor="end" x="0" y="434" transform="translate(236.46,0) rotate(-45,0,427.5)" style="font-family: serif; font-size: 13px; fill: rgb(68, 68, 68); fill-opacity: 1; white-space: pre; opacity: 1;">Aug-01-20</text></g><g class="xtick"><text text-anchor="end" x="0" y="434" transform="translate(252.5,0) rotate(-45,0,427.5)" style="font-family: serif; font-size: 13px; fill: rgb(68, 68, 68); fill-opacity: 1; white-space: pre; opacity: 1;">Aug-13-20</text></g><g class="xtick"><text text-anchor="end" x="0" y="434" transform="translate(268.53999999999996,0) rotate(-45,0,427.5)" style="font-family: serif; font-size: 13px; fill: rgb(68, 68, 68); fill-opacity: 1; white-space: pre; opacity: 1;">Aug-25-20</text></g><g class="xtick"><text text-anchor="end" x="0" y="434" transform="translate(284.58000000000004,0) rotate(-45,0,427.5)" style="font-family: serif; font-size: 13px; fill: rgb(68, 68, 68); fill-opacity: 1; white-space: pre; opacity: 1;">Sep-06-20</text></g><g class="xtick"><text text-anchor="end" x="0" y="434" transform="translate(300.63,0) rotate(-45,0,427.5)" style="font-family: serif; font-size: 13px; fill: rgb(68, 68, 68); fill-opacity: 1; white-space: pre; opacity: 1;">Sep-18-20</text></g><g class="xtick"><text text-anchor="end" x="0" y="434" transform="translate(316.67,0) rotate(-45,0,427.5)" style="font-family: serif; font-size: 13px; fill: rgb(68, 68, 68); fill-opacity: 1; white-space: pre; opacity: 1;">Sep-30-20</text></g><g class="xtick"><text text-anchor="end" x="0" y="434" transform="translate(332.71,0) rotate(-45,0,427.5)" style="font-family: serif; font-size: 13px; fill: rgb(68, 68, 68); fill-opacity: 1; white-space: pre; opacity: 1;">Oct-12-20</text></g><g class="xtick"><text text-anchor="end" x="0" y="434" transform="translate(348.75,0) rotate(-45,0,427.5)" style="font-family: serif; font-size: 13px; fill: rgb(68, 68, 68); fill-opacity: 1; white-space: pre; opacity: 1;">Oct-24-20</text></g><g class="xtick"><text text-anchor="end" x="0" y="434" transform="translate(364.79,0) rotate(-45,0,427.5)" style="font-family: serif; font-size: 13px; fill: rgb(68, 68, 68); fill-opacity: 1; white-space: pre; opacity: 1;">Nov-05-20</text></g><g class="xtick"><text text-anchor="end" x="0" y="434" transform="translate(380.84,0) rotate(-45,0,427.5)" style="font-family: serif; font-size: 13px; fill: rgb(68, 68, 68); fill-opacity: 1; white-space: pre; opacity: 1;">Nov-17-20</text></g><g class="xtick"><text text-anchor="end" x="0" y="434" transform="translate(396.88,0) rotate(-45,0,427.5)" style="font-family: serif; font-size: 13px; fill: rgb(68, 68, 68); fill-opacity: 1; white-space: pre; opacity: 1;">Nov-29-20</text></g><g class="xtick"><text text-anchor="end" x="0" y="434" transform="translate(412.92,0) rotate(-45,0,427.5)" style="font-family: serif; font-size: 13px; fill: rgb(68, 68, 68); fill-opacity: 1; white-space: pre; opacity: 1;">Dec-11-20</text></g><g class="xtick"><text text-anchor="end" x="0" y="434" transform="translate(428.96,0) rotate(-45,0,427.5)" style="font-family: serif; font-size: 13px; fill: rgb(68, 68, 68); fill-opacity: 1; white-space: pre; opacity: 1;">Dec-23-20</text></g><g class="xtick"><text text-anchor="end" x="0" y="434" transform="translate(445,0) rotate(-45,0,427.5)" style="font-family: serif; font-size: 13px; fill: rgb(68, 68, 68); fill-opacity: 1; white-space: pre; opacity: 1;">Jan-04-21</text></g><g class="xtick"><text text-anchor="end" x="0" y="434" transform="translate(461.04,0) rotate(-45,0,427.5)" style="font-family: serif; font-size: 13px; fill: rgb(68, 68, 68); fill-opacity: 1; white-space: pre; opacity: 1;">Jan-16-21</text></g><g class="xtick"><text text-anchor="end" x="0" y="434" transform="translate(477.09,0) rotate(-45,0,427.5)" style="font-family: serif; font-size: 13px; fill: rgb(68, 68, 68); fill-opacity: 1; white-space: pre; opacity: 1;">Jan-28-21</text></g><g class="xtick"><text text-anchor="end" x="0" y="434" transform="translate(493.13,0) rotate(-45,0,427.5)" style="font-family: serif; font-size: 13px; fill: rgb(68, 68, 68); fill-opacity: 1; white-space: pre; opacity: 1;">Feb-09-21</text></g><g class="xtick"><text text-anchor="end" x="0" y="434" transform="translate(509.17,0) rotate(-45,0,427.5)" style="font-family: serif; font-size: 13px; fill: rgb(68, 68, 68); fill-opacity: 1; white-space: pre; opacity: 1;">Feb-21-21</text></g><g class="xtick"><text text-anchor="end" x="0" y="434" transform="translate(525.21,0) rotate(-45,0,427.5)" style="font-family: serif; font-size: 13px; fill: rgb(68, 68, 68); fill-opacity: 1; white-space: pre; opacity: 1;">Mar-05-21</text></g><g class="xtick"><text text-anchor="end" x="0" y="434" transform="translate(541.25,0) rotate(-45,0,427.5)" style="font-family: serif; font-size: 13px; fill: rgb(68, 68, 68); fill-opacity: 1; white-space: pre; opacity: 1;">Mar-17-21</text></g><g class="xtick"><text text-anchor="end" x="0" y="434" transform="translate(557.3,0) rotate(-45,0,427.5)" style="font-family: serif; font-size: 13px; fill: rgb(68, 68, 68); fill-opacity: 1; white-space: pre; opacity: 1;">Mar-29-21</text></g></g><g class="yaxislayer-above"><g class="ytick"><text text-anchor="end" x="59" y="4.199999999999999" transform="translate(0,420)" style="font-family: 'Open Sans', verdana, arial, sans-serif; font-size: 12px; fill: rgb(68, 68, 68); fill-opacity: 1; white-space: pre; opacity: 1;">0</text></g><g class="ytick"><text text-anchor="end" x="59" y="4.199999999999999" style="font-family: 'Open Sans', verdana, arial, sans-serif; font-size: 12px; fill: rgb(68, 68, 68); fill-opacity: 1; white-space: pre; opacity: 1;" transform="translate(0,371.21)">2k</text></g><g class="ytick"><text text-anchor="end" x="59" y="4.199999999999999" style="font-family: 'Open Sans', verdana, arial, sans-serif; font-size: 12px; fill: rgb(68, 68, 68); fill-opacity: 1; white-space: pre; opacity: 1;" transform="translate(0,322.41)">4k</text></g><g class="ytick"><text text-anchor="end" x="59" y="4.199999999999999" style="font-family: 'Open Sans', verdana, arial, sans-serif; font-size: 12px; fill: rgb(68, 68, 68); fill-opacity: 1; white-space: pre; opacity: 1;" transform="translate(0,273.62)">6k</text></g><g class="ytick"><text text-anchor="end" x="59" y="4.199999999999999" style="font-family: 'Open Sans', verdana, arial, sans-serif; font-size: 12px; fill: rgb(68, 68, 68); fill-opacity: 1; white-space: pre; opacity: 1;" transform="translate(0,224.82)">8k</text></g><g class="ytick"><text text-anchor="end" x="59" y="4.199999999999999" style="font-family: 'Open Sans', verdana, arial, sans-serif; font-size: 12px; fill: rgb(68, 68, 68); fill-opacity: 1; white-space: pre; opacity: 1;" transform="translate(0,176.03)">10k</text></g><g class="ytick"><text text-anchor="end" x="59" y="4.199999999999999" style="font-family: 'Open Sans', verdana, arial, sans-serif; font-size: 12px; fill: rgb(68, 68, 68); fill-opacity: 1; white-space: pre; opacity: 1;" transform="translate(0,127.24)">12k</text></g><g class="ytick"><text text-anchor="end" x="59" y="4.199999999999999" style="font-family: 'Open Sans', verdana, arial, sans-serif; font-size: 12px; fill: rgb(68, 68, 68); fill-opacity: 1; white-space: pre; opacity: 1;" transform="translate(0,78.44)">14k</text></g><g class="ytick"><text text-anchor="end" x="59" y="4.199999999999999" style="font-family: 'Open Sans', verdana, arial, sans-serif; font-size: 12px; fill: rgb(68, 68, 68); fill-opacity: 1; white-space: pre; opacity: 1;" transform="translate(0,29.65)">16k</text></g></g><g class="overaxes-above"/></g></g><g class="polarlayer"/><g class="smithlayer"/><g class="ternarylayer"/><g class="geolayer"/><g class="funnelarealayer"/><g class="pielayer"/><g class="iciclelayer"/><g class="treemaplayer"/><g class="sunburstlayer"/><g class="glimages"/><defs id="topdefs-8b4f79"><g class="clips"/><clipPath id="legend8b4f79"><rect width="108" height="67" x="0" y="0"/></clipPath></defs><g class="layer-above"><g class="imagelayer"/><g class="shapelayer"/></g><g class="infolayer"><g class="legend" pointer-events="all" transform="translate(582.24,25)"><rect class="bg" shape-rendering="crispEdges" style="stroke: rgb(68, 68, 68); stroke-opacity: 1; fill: rgb(255, 255, 255); fill-opacity: 1; stroke-width: 0px;" width="108" height="67" x="0" y="0"/><g class="scrollbox" transform="" clip-path="url(#legend8b4f79)"><g class="groups"><g class="traces" transform="translate(0,14.5)" style="opacity: 1;"><text class="legendtext" text-anchor="start" x="40" y="4.680000000000001" style="font-family: 'Open Sans', verdana, arial, sans-serif; font-size: 12px; fill: rgb(68, 68, 68); fill-opacity: 1; white-space: pre;">Active</text><g class="layers"><g class="legendfill"><path class="js-fill" d="M5,-2h30v6h-30z" style="stroke-width: 0; fill: rgb(255, 165, 0); fill-opacity: 1;"/></g><g class="legendlines"><path class="js-line" d="M5,-2h30" style="fill: none; stroke: rgb(255, 165, 0); stroke-opacity: 1; stroke-width: 2px;"/></g><g class="legendsymbols"><g class="legendpoints"/></g></g><rect class="legendtoggle" x="0" y="-9.5" width="102.546875" height="19" style="fill: rgb(0, 0, 0); fill-opacity: 0;"/></g><g class="traces" transform="translate(0,33.5)" style="opacity: 1;"><text class="legendtext" text-anchor="start" x="40" y="4.680000000000001" style="font-family: 'Open Sans', verdana, arial, sans-serif; font-size: 12px; fill: rgb(68, 68, 68); fill-opacity: 1; white-space: pre;">Recovered</text><g class="layers"><g class="legendfill"><path class="js-fill" d="M5,-2h30v6h-30z" style="stroke-width: 0; fill: rgb(0, 255, 0); fill-opacity: 1;"/></g><g class="legendlines"><path class="js-line" d="M5,-2h30" style="fill: none; stroke: rgb(0, 255, 0); stroke-opacity: 1; stroke-width: 2px;"/></g><g class="legendsymbols"><g class="legendpoints"/></g></g><rect class="legendtoggle" x="0" y="-9.5" width="102.546875" height="19" style="fill: rgb(0, 0, 0); fill-opacity: 0;"/></g><g class="traces" transform="translate(0,52.5)" style="opacity: 1;"><text class="legendtext" text-anchor="start" x="40" y="4.680000000000001" style="font-family: 'Open Sans', verdana, arial, sans-serif; font-size: 12px; fill: rgb(68, 68, 68); fill-opacity: 1; white-space: pre;">Deceased</text><g class="layers"><g class="legendfill"><path class="js-fill" d="M5,-2h30v6h-30z" style="stroke-width: 0; fill: rgb(139, 0, 0); fill-opacity: 1;"/></g><g class="legendlines"><path class="js-line" d="M5,-2h30" style="fill: none; stroke: rgb(139, 0, 0); stroke-opacity: 1; stroke-width: 2px;"/></g><g class="legendsymbols"><g class="legendpoints"/></g></g><rect class="legendtoggle" x="0" y="-9.5" width="102.546875" height="19" style="fill: rgb(0, 0, 0); fill-opacity: 0;"/></g></g></g><rect class="scrollbar" rx="20" ry="3" width="0" height="0" style="fill: rgb(128, 139, 164); fill-opacity: 1;" x="0" y="0"/></g><g class="g-gtitle"><text class="gtitle" x="350" y="12.5" text-anchor="middle" dy="0em" style="font-family: serif; font-size: 18px; fill: rgb(68, 68, 68); opacity: 1; font-weight: normal; white-space: pre;">Chitradurga</text></g><g class="g-xtitle" transform="translate(0,19.2626953125)"><text class="xtitle" x="316" y="472" text-anchor="middle" style="font-family: 'Open Sans', verdana, arial, sans-serif; font-size: 14px; fill: rgb(68, 68, 68); opacity: 1; font-weight: normal; white-space: pre;">Date</text></g><g class="g-ytitle" transform="translate(2,0)"><text class="ytitle" transform="rotate(-90,14,222.5)" x="14" y="222.5" text-anchor="middle" style="font-family: serif; font-size: 18px; fill: rgb(0, 0, 0); opacity: 1; font-weight: normal; white-space: pre;">Number of Cases</text></g></g></svg>