<svg class="main-svg" xmlns="http://www.w3.org/2000/svg" xmlns:xlink="http://www.w3.org/1999/xlink" width="700" height="500" style="" viewBox="0 0 700 500"><rect x="0" y="0" width="700" height="500" style="fill: rgb(255, 255, 255); fill-opacity: 1;"/><defs id="defs-789c40"><g class="clips"><clipPath id="clip789c40xyplot" class="plotclip"><rect width="512" height="395"/></clipPath><clipPath class="axesclip" id="clip789c40x"><rect x="60" y="0" width="512" height="500"/></clipPath><clipPath class="axesclip" id="clip789c40y"><rect x="0" y="25" width="700" height="395"/></clipPath><clipPath class="axesclip" id="clip789c40xy"><rect x="60" y="25" width="512" height="395"/></clipPath></g><g class="gradients"/><g class="patterns"/></defs><g class="bglayer"/><g class="layer-below"><g class="imagelayer"/><g class="shapelayer"/></g><g class="cartesianlayer"><g class="subplot xy"><g class="layer-subplot"><g class="shapelayer"/><g class="imagelayer"/></g><g class="gridlayer"><g class="x"><path class="xgrid crisp" transform="translate(76.03999999999999,0)" d="M0,25v395" style="stroke: rgb(238, 238, 238); stroke-opacity: 1; stroke-width: 1px;"/><path class="xgrid crisp" transform="translate(92.08,0)" d="M0,25v395" style="stroke: rgb(238, 238, 238); stroke-opacity: 1; stroke-width: 1px;"/><path class="xgrid crisp" transform="translate(108.13,0)" d="M0,25v395" style="stroke: rgb(238, 238, 238); stroke-opacity: 1; stroke-width: 1px;"/><path class="xgrid crisp" transform="translate(124.17,0)" d="M0,25v395" style="stroke: rgb(238, 238, 238); stroke-opacity: 1; stroke-width: 1px;"/><path class="xgrid crisp" transform="translate(140.20999999999998,0)" d="M0,25v395" style="stroke: rgb(238, 238, 238); stroke-opacity: 1; stroke-width: 1px;"/><path class="xgrid crisp" transform="translate(156.25,0)" d="M0,25v395" style="stroke: rgb(238, 238, 238); stroke-opacity: 1; stroke-width: 1px;"/><path class="xgrid crisp" transform="translate(172.29000000000002,0)" d="M0,25v395" style="stroke: rgb(238, 238, 238); stroke-opacity: 1; stroke-width: 1px;"/><path class="xgrid crisp" transform="translate(188.33,0)" d="M0,25v395" style="stroke: rgb(238, 238, 238); stroke-opacity: 1; stroke-width: 1px;"/><path class="xgrid crisp" transform="translate(204.38,0)" d="M0,25v395" style="stroke: rgb(238, 238, 238); stroke-opacity: 1; stroke-width: 1px;"/><path class="xgrid crisp" transform="translate(220.42,0)" d="M0,25v395" style="stroke: rgb(238, 238, 238); stroke-opacity: 1; stroke-width: 1px;"/><path class="xgrid crisp" transform="translate(236.46,0)" d="M0,25v395" style="stroke: rgb(238, 238, 238); stroke-opacity: 1; stroke-width: 1px;"/><path class="xgrid crisp" transform="translate(252.5,0)" d="M0,25v395" style="stroke: rgb(238, 238, 238); stroke-opacity: 1; stroke-width: 1px;"/><path class="xgrid crisp" transform="translate(268.53999999999996,0)" d="M0,25v395" style="stroke: rgb(238, 238, 238); stroke-opacity: 1; stroke-width: 1px;"/><path class="xgrid crisp" transform="translate(284.58000000000004,0)" d="M0,25v395" style="stroke: rgb(238, 238, 238); stroke-opacity: 1; stroke-width: 1px;"/><path class="xgrid crisp" transform="translate(300.63,0)" d="M0,25v395" style="stroke: rgb(238, 238, 238); stroke-opacity: 1; stroke-width: 1px;"/><path class="xgrid crisp" transform="translate(316.67,0)" d="M0,25v395" style="stroke: rgb(238, 238, 238); stroke-opacity: 1; stroke-width: 1px;"/><path class="xgrid crisp" transform="translate(332.71,0)" d="M0,25v395" style="stroke: rgb(238, 238, 238); stroke-opacity: 1; stroke-width: 1px;"/><path class="xgrid crisp" transform="translate(348.75,0)" d="M0,25v395" style="stroke: rgb(238, 238, 238); stroke-opacity: 1; stroke-width: 1px;"/><path class="xgrid crisp" transform="translate(364.79,0)" d="M0,25v395" style="stroke: rgb(238, 238, 238); stroke-opacity: 1; stroke-width: 1px;"/><path class="xgrid crisp" transform="translate(380.84,0)" d="M0,25v395" style="stroke: rgb(238, 238, 238); stroke-opacity: 1; stroke-width: 1px;"/><path class="xgrid crisp" transform="translate(396.88,0)" d="M0,25v395" style="stroke: rgb(238, 238, 238); stroke-opacity: 1; stroke-width: 1px;"/><path class="xgrid crisp" transform="translate(412.92,0)" d="M0,25v395" style="stroke: rgb(238, 238, 238); stroke-opacity: 1; stroke-width: 1px;"/><path class="xgrid crisp" transform="translate(428.96,0)" d="M0,25v395" style="stroke: rgb(238, 238, 238); stroke-opacity: 1; stroke-width: 1px;"/><path class="xgrid crisp" transform="translate(445,0)" d="M0,25v395" style="stroke: rgb(238, 238, 238); stroke-opacity: 1; stroke-width: 1px;"/><path class="xgrid crisp" transform="translate(461.04,0)" d="M0,25v395" style="stroke: rgb(238, 238, 238); stroke-opacity: 1; stroke-width: 1px;"/><path class="xgrid crisp" transform="translate(477.09,0)" d="M0,25v395" style="stroke: rgb(238, 238, 238); stroke-opacity: 1; stroke-width: 1px;"/><path class="xgrid crisp" transform="translate(493.13,0)" d="M0,25v395" style="stroke: rgb(238, 238, 238); stroke-opacity: 1; stroke-width: 1px;"/><path class="xgrid crisp" transform="translate(509.17,0)" d="M0,25v395" style="stroke: rgb(238, 238, 238); stroke-opacity: 1; stroke-width: 1px;"/><path class="xgrid crisp" transform="translate(525.21,0)" d="M0,25v395" style="stroke: rgb(238, 238, 238); stroke-opacity: 1; stroke-width: 1px;"/><path class="xgrid crisp" transform="translate(541.25,0)" d="M0,25v395" style="stroke: rgb(238, 238, 238); stroke-opacity: 1; stroke-width: 1px;"/><path class="xgrid crisp" transform="translate(557.3,0)" d="M0,25v395" style="stroke: rgb(238, 238, 238); stroke-opacity: 1; stroke-width: 1px;"/></g><g class="y"><path class="ygrid crisp" transform="translate(0,368.62)" d="M60,0h512" style="stroke: rgb(238, 238, 238); stroke-opacity: 1; stroke-width: 1px;"/><path class="ygrid crisp" transform="translate(0,317.23)" d="M60,0h512" style="stroke: rgb(238, 238, 238); stroke-opacity: 1; stroke-width: 1px;"/><path class="ygrid crisp" transform="translate(0,265.85)" d="M60,0h512" style="stroke: rgb(238, 238, 238); stroke-opacity: 1; stroke-width: 1px;"/><path class="ygrid crisp" transform="translate(0,214.47)" d="M60,0h512" style="stroke: rgb(238, 238, 238); stroke-opacity: 1; stroke-width: 1px;"/><path class="ygrid crisp" transform="translate(0,163.09)" d="M60,0h512" style="stroke: rgb(238, 238, 238); stroke-opacity: 1; stroke-width: 1px;"/><path class="ygrid crisp" transform="translate(0,111.7)" d="M60,0h512" style="stroke: rgb(238, 238, 238); stroke-opacity: 1; stroke-width: 1px;"/><path class="ygrid crisp" transform="translate(0,60.32)" d="M60,0h512" style="stroke: rgb(238, 238, 238); stroke-opacity: 1; stroke-width: 1px;"/></g></g><g class="zerolinelayer"><path class="yzl zl crisp" transform="translate(0,420)" d="M60,0h512" style="stroke: rgb(68, 68, 68); stroke-opacity: 1; stroke-width: 1px;"/></g><path class="xlines-below"/><path class="ylines-below"/><g class="overlines-below"/><g class="xaxislayer-below"/><g class="yaxislayer-below"/><g class="overaxes-below"/><g class="plot" transform="translate(60,25)" clip-path="url(#clip789c40xyplot)"><g class="scatterlayer mlayer"><g class="trace scatter trace6f0634" style="stroke-miterlimit: 2;"><g class="fills"><g><path class="js-fill" d="M512,395L0,395L0,395L161.75,394.25L163.09,394.22L286.08,388.29L287.42,388.25L354.26,387.48L355.59,387.47L512,387.39" style="fill: rgb(139, 0, 0); fill-opacity: 1; stroke-width: 0;"/></g><g><path class="js-fill" d="M0,395L100.26,394.35L101.6,394.2L117.64,393.39L118.98,392.91L125.66,392.4L127,391.49L132.34,390.93L133.68,390.92L139.03,389.52L140.37,389.15L143.04,388.09L144.38,388.08L155.07,384.74L156.41,383.79L163.09,381.57L164.43,378.4L167.1,374.36L168.44,372.78L169.78,371.87L171.11,369.78L175.12,366.57L176.46,365.94L179.13,364.03L180.47,363.18L183.14,361.03L184.48,359.02L187.15,355.01L188.49,349.45L193.84,329.64L195.17,327.5L197.85,323.89L199.19,322.02L203.2,318.1L204.53,314.77L207.21,310.5L208.54,308.22L213.89,296.79L215.23,294.54L220.57,281.05L221.91,278.7L225.92,270.01L227.26,267.59L231.27,260.96L232.61,258.81L233.94,257L235.28,253.89L236.62,250.53L237.95,250.54L244.64,230.63L245.97,228.44L248.65,228.31L249.98,227.61L253.99,222.51L255.33,220.03L263.35,199.97L264.69,195.97L267.36,177.34L268.7,174.57L271.37,165.33L272.71,163.29L278.06,143.96L279.39,141.74L283.4,131.66L284.74,128.47L294.1,110.45L295.44,106.07L298.11,102.24L299.45,101.54L302.12,98.77L303.46,94.5L310.14,86.23L311.48,85.51L315.49,82.41L316.83,81.45L323.51,77.67L324.85,76.95L328.86,74.86L330.19,74.33L338.21,71.87L339.55,71.44L363.61,64.24L364.95,63.96L403.72,54.3L405.05,53.89L410.4,52.85L411.74,52.57L421.1,50.76L422.43,50.57L439.81,46.57L441.15,46.24L489.27,38.48L490.61,37.92L506.65,30.94L507.99,30.58L512,28.7L512,387.39L355.59,387.47L354.26,387.48L287.42,388.25L286.08,388.29L163.09,394.22L161.75,394.25L0,395Z" style="fill: rgb(0, 255, 0); fill-opacity: 1; stroke-width: 0;"/></g></g><g class="errorbars"/><g class="lines"><path class="js-line" d="M0,395L161.75,394.25L163.09,394.22L286.08,388.29L287.42,388.25L354.26,387.48L355.59,387.47L512,387.39" style="vector-effect: non-scaling-stroke; fill: none; stroke: rgb(139, 0, 0); stroke-opacity: 1; stroke-width: 2px; opacity: 1;"/></g><g class="points"/><g class="text"/></g><g class="trace scatter trace3ea4bc" style="stroke-miterlimit: 2;"><g class="fills"><g><path class="js-fill" d="M0,395L92.24,393.86L93.58,393.72L109.62,392.61L110.96,392.3L113.63,392.01L114.97,391.2L128.33,389.67L129.67,389.16L132.34,387.84L133.68,387.39L143.04,381.12L144.38,379.24L152.4,369.88L153.73,369.1L155.07,366.66L156.41,366.26L159.08,358.1L160.42,357.18L165.77,349.9L167.1,347.66L175.12,336.34L176.46,334.91L188.49,319.49L189.83,316.99L204.53,290.83L205.87,288.84L208.54,284.24L209.88,281.01L216.56,264.35L217.9,260.74L224.58,241.61L225.92,240.05L239.29,201.12L240.63,196.44L243.3,188.09L244.64,185.7L249.98,176.65L251.32,172.34L253.99,165.38L255.33,161.66L256.67,159.19L258.01,154.13L263.35,142.64L264.69,139.84L268.7,128.34L270.04,125.1L279.39,105.91L280.73,104.03L283.4,101.43L284.74,99.22L286.08,97.64L287.42,94.26L296.77,85.19L298.11,84.22L306.13,79.03L307.47,78.29L312.81,75.76L314.15,75.21L319.5,73.25L320.84,72.94L344.9,65.04L346.23,64.84L354.26,62.81L355.59,62.44L366.29,59.85L367.62,59.38L376.98,57.74L378.32,57.42L402.38,51.5L403.72,51.37L430.45,45.54L431.79,45.13L446.5,42.66L447.83,42.48L462.54,40.59L463.87,40.4L477.24,37.91L478.58,37.24L491.95,31.38L493.28,30.64L501.31,27.85L502.64,26.77L509.33,22.42L510.66,20.93L512,19.75L512,28.7L507.99,30.58L506.65,30.94L490.61,37.92L489.27,38.48L441.15,46.24L439.81,46.57L422.43,50.57L421.1,50.76L411.74,52.57L410.4,52.85L405.05,53.89L403.72,54.3L364.95,63.96L363.61,64.24L339.55,71.44L338.21,71.87L330.19,74.33L328.86,74.86L324.85,76.95L323.51,77.67L316.83,81.45L315.49,82.41L311.48,85.51L310.14,86.23L303.46,94.5L302.12,98.77L299.45,101.54L298.11,102.24L295.44,106.07L294.1,110.45L284.74,128.47L283.4,131.66L279.39,141.74L278.06,143.96L272.71,163.29L271.37,165.33L268.7,174.57L267.36,177.34L264.69,195.97L263.35,199.97L255.33,220.03L253.99,222.51L249.98,227.61L248.65,228.31L245.97,228.44L244.64,230.63L237.95,250.54L236.62,250.53L235.28,253.89L233.94,257L232.61,258.81L231.27,260.96L227.26,267.59L225.92,270.01L221.91,278.7L220.57,281.05L215.23,294.54L213.89,296.79L208.54,308.22L207.21,310.5L204.53,314.77L203.2,318.1L199.19,322.02L197.85,323.89L195.17,327.5L193.84,329.64L188.49,349.45L187.15,355.01L184.48,359.02L183.14,361.03L180.47,363.18L179.13,364.03L176.46,365.94L175.12,366.57L171.11,369.78L169.78,371.87L168.44,372.78L167.1,374.36L164.43,378.4L163.09,381.57L156.41,383.79L155.07,384.74L144.38,388.08L143.04,388.09L140.37,389.15L139.03,389.52L133.68,390.92L132.34,390.93L127,391.49L125.66,392.4L118.98,392.91L117.64,393.39L101.6,394.2L100.26,394.35L0,395Z" style="fill: rgb(255, 165, 0); fill-opacity: 1; stroke-width: 0;"/></g></g><g class="errorbars"/><g class="lines"><path class="js-line" d="M0,395L100.26,394.35L101.6,394.2L117.64,393.39L118.98,392.91L125.66,392.4L127,391.49L132.34,390.93L133.68,390.92L139.03,389.52L140.37,389.15L143.04,388.09L144.38,388.08L155.07,384.74L156.41,383.79L163.09,381.57L164.43,378.4L167.1,374.36L168.44,372.78L169.78,371.87L171.11,369.78L175.12,366.57L176.46,365.94L179.13,364.03L180.47,363.18L183.14,361.03L184.48,359.02L187.15,355.01L188.49,349.45L193.84,329.64L195.17,327.5L197.85,323.89L199.19,322.02L203.2,318.1L204.53,314.77L207.21,310.5L208.54,308.22L213.89,296.79L215.23,294.54L220.57,281.05L221.91,278.7L225.92,270.01L227.26,267.59L231.27,260.96L232.61,258.81L233.94,257L235.28,253.89L236.62,250.53L237.95,250.54L244.64,230.63L245.97,228.44L248.65,228.31L249.98,227.61L253.99,222.51L255.33,220.03L263.35,199.97L264.69,195.97L267.36,177.34L268.7,174.57L271.37,165.33L272.71,163.29L278.06,143.96L279.39,141.74L283.4,131.66L284.74,128.47L294.1,110.45L295.44,106.07L298.11,102.24L299.45,101.54L302.12,98.77L303.46,94.5L310.14,86.23L311.48,85.51L315.49,82.41L316.83,81.45L323.51,77.67L324.85,76.95L328.86,74.86L330.19,74.33L338.21,71.87L339.55,71.44L363.61,64.24L364.95,63.96L403.72,54.3L405.05,53.89L410.4,52.85L411.74,52.57L421.1,50.76L422.43,50.57L439.81,46.57L441.15,46.24L489.27,38.48L490.61,37.92L506.65,30.94L507.99,30.58L512,28.7" style="vector-effect: non-scaling-stroke; fill: none; stroke: rgb(0, 255, 0); stroke-opacity: 1; stroke-width: 2px; opacity: 1;"/></g><g class="points"/><g class="text"/></g><g class="trace scatter tracea843f2" style="stroke-miterlimit: 2;"><g class="fills"/><g class="errorbars"/><g class="lines"><path class="js-line" d="M0,395L92.24,393.86L93.58,393.72L109.62,392.61L110.96,392.3L113.63,392.01L114.97,391.2L128.33,389.67L129.67,389.16L132.34,387.84L133.68,387.39L143.04,381.12L144.38,379.24L152.4,369.88L153.73,369.1L155.07,366.66L156.41,366.26L159.08,358.1L160.42,357.18L165.77,349.9L167.1,347.66L175.12,336.34L176.46,334.91L188.49,319.49L189.83,316.99L204.53,290.83L205.87,288.84L208.54,284.24L209.88,281.01L216.56,264.35L217.9,260.74L224.58,241.61L225.92,240.05L239.29,201.12L240.63,196.44L243.3,188.09L244.64,185.7L249.98,176.65L251.32,172.34L253.99,165.38L255.33,161.66L256.67,159.19L258.01,154.13L263.35,142.64L264.69,139.84L268.7,128.34L270.04,125.1L279.39,105.91L280.73,104.03L283.4,101.43L284.74,99.22L286.08,97.64L287.42,94.26L296.77,85.19L298.11,84.22L306.13,79.03L307.47,78.29L312.81,75.76L314.15,75.21L319.5,73.25L320.84,72.94L344.9,65.04L346.23,64.84L354.26,62.81L355.59,62.44L366.29,59.85L367.62,59.38L376.98,57.74L378.32,57.42L402.38,51.5L403.72,51.37L430.45,45.54L431.79,45.13L446.5,42.66L447.83,42.48L462.54,40.59L463.87,40.4L477.24,37.91L478.58,37.24L491.95,31.38L493.28,30.64L501.31,27.85L502.64,26.77L509.33,22.42L510.66,20.93L512,19.75" style="vector-effect: non-scaling-stroke; fill: none; stroke: rgb(255, 165, 0); stroke-opacity: 1; stroke-width: 2px; opacity: 1;"/></g><g class="points"/><g class="text"/></g></g></g><g class="overplot"/><path class="xlines-above crisp" d="M0,0" style="fill: none;"/><path class="ylines-above crisp" d="M0,0" style="fill: none;"/><g class="overlines-above"/><g class="xaxislayer-above"><g class="xtick"><text text-anchor="end" x="0" y="434" transform="translate(60,0) rotate(-45,0,427.5)" style="font-family: serif; font-size: 13px; fill: rgb(68, 68, 68); fill-opacity: 1; white-space: pre; opacity: 1;">Mar-22-20</text></g><g class="xtick"><text text-anchor="end" x="0" y="434" transform="translate(76.03999999999999,0) rotate(-45,0,427.5)" style="font-family: serif; font-size: 13px; fill: rgb(68, 68, 68); fill-opacity: 1; white-space: pre; opacity: 1;">Apr-03-20</text></g><g class="xtick"><text text-anchor="end" x="0" y="434" transform="translate(92.08,0) rotate(-45,0,427.5)" style="font-family: serif; font-size: 13px; fill: rgb(68, 68, 68); fill-opacity: 1; white-space: pre; opacity: 1;">Apr-15-20</text></g><g class="xtick"><text text-anchor="end" x="0" y="434" transform="translate(108.13,0) rotate(-45,0,427.5)" style="font-family: serif; font-size: 13px; fill: rgb(68, 68, 68); fill-opacity: 1; white-space: pre; opacity: 1;">Apr-27-20</text></g><g class="xtick"><text text-anchor="end" x="0" y="434" transform="translate(124.17,0) rotate(-45,0,427.5)" style="font-family: serif; font-size: 13px; fill: rgb(68, 68, 68); fill-opacity: 1; white-space: pre; opacity: 1;">May-09-20</text></g><g class="xtick"><text text-anchor="end" x="0" y="434" transform="translate(140.20999999999998,0) rotate(-45,0,427.5)" style="font-family: serif; font-size: 13px; fill: rgb(68, 68, 68); fill-opacity: 1; white-space: pre; opacity: 1;">May-21-20</text></g><g class="xtick"><text text-anchor="end" x="0" y="434" transform="translate(156.25,0) rotate(-45,0,427.5)" style="font-family: serif; font-size: 13px; fill: rgb(68, 68, 68); fill-opacity: 1; white-space: pre; opacity: 1;">Jun-02-20</text></g><g class="xtick"><text text-anchor="end" x="0" y="434" transform="translate(172.29000000000002,0) rotate(-45,0,427.5)" style="font-family: serif; font-size: 13px; fill: rgb(68, 68, 68); fill-opacity: 1; white-space: pre; opacity: 1;">Jun-14-20</text></g><g class="xtick"><text text-anchor="end" x="0" y="434" transform="translate(188.33,0) rotate(-45,0,427.5)" style="font-family: serif; font-size: 13px; fill: rgb(68, 68, 68); fill-opacity: 1; white-space: pre; opacity: 1;">Jun-26-20</text></g><g class="xtick"><text text-anchor="end" x="0" y="434" transform="translate(204.38,0) rotate(-45,0,427.5)" style="font-family: serif; font-size: 13px; fill: rgb(68, 68, 68); fill-opacity: 1; white-space: pre; opacity: 1;">Jul-08-20</text></g><g class="xtick"><text text-anchor="end" x="0" y="434" transform="translate(220.42,0) rotate(-45,0,427.5)" style="font-family: serif; font-size: 13px; fill: rgb(68, 68, 68); fill-opacity: 1; white-space: pre; opacity: 1;">Jul-20-20</text></g><g class="xtick"><text text-anchor="end" x="0" y="434" transform="translate(236.46,0) rotate(-45,0,427.5)" style="font-family: serif; font-size: 13px; fill: rgb(68, 68, 68); fill-opacity: 1; white-space: pre; opacity: 1;">Aug-01-20</text></g><g class="xtick"><text text-anchor="end" x="0" y="434" transform="translate(252.5,0) rotate(-45,0,427.5)" style="font-family: serif; font-size: 13px; fill: rgb(68, 68, 68); fill-opacity: 1; white-space: pre; opacity: 1;">Aug-13-20</text></g><g class="xtick"><text text-anchor="end" x="0" y="434" transform="translate(268.53999999999996,0) rotate(-45,0,427.5)" style="font-family: serif; font-size: 13px; fill: rgb(68, 68, 68); fill-opacity: 1; white-space: pre; opacity: 1;">Aug-25-20</text></g><g class="xtick"><text text-anchor="end" x="0" y="434" transform="translate(284.58000000000004,0) rotate(-45,0,427.5)" style="font-family: serif; font-size: 13px; fill: rgb(68, 68, 68); fill-opacity: 1; white-space: pre; opacity: 1;">Sep-06-20</text></g><g class="xtick"><text text-anchor="end" x="0" y="434" transform="translate(300.63,0) rotate(-45,0,427.5)" style="font-family: serif; font-size: 13px; fill: rgb(68, 68, 68); fill-opacity: 1; white-space: pre; opacity: 1;">Sep-18-20</text></g><g class="xtick"><text text-anchor="end" x="0" y="434" transform="translate(316.67,0) rotate(-45,0,427.5)" style="font-family: serif; font-size: 13px; fill: rgb(68, 68, 68); fill-opacity: 1; white-space: pre; opacity: 1;">Sep-30-20</text></g><g class="xtick"><text text-anchor="end" x="0" y="434" transform="translate(332.71,0) rotate(-45,0,427.5)" style="font-family: serif; font-size: 13px; fill: rgb(68, 68, 68); fill-opacity: 1; white-space: pre; opacity: 1;">Oct-12-20</text></g><g class="xtick"><text text-anchor="end" x="0" y="434" transform="translate(348.75,0) rotate(-45,0,427.5)" style="font-family: serif; font-size: 13px; fill: rgb(68, 68, 68); fill-opacity: 1; white-space: pre; opacity: 1;">Oct-24-20</text></g><g class="xtick"><text text-anchor="end" x="0" y="434" transform="translate(364.79,0) rotate(-45,0,427.5)" style="font-family: serif; font-size: 13px; fill: rgb(68, 68, 68); fill-opacity: 1; white-space: pre; opacity: 1;">Nov-05-20</text></g><g class="xtick"><text text-anchor="end" x="0" y="434" transform="translate(380.84,0) rotate(-45,0,427.5)" style="font-family: serif; font-size: 13px; fill: rgb(68, 68, 68); fill-opacity: 1; white-space: pre; opacity: 1;">Nov-17-20</text></g><g class="xtick"><text text-anchor="end" x="0" y="434" transform="translate(396.88,0) rotate(-45,0,427.5)" style="font-family: serif; font-size: 13px; fill: rgb(68, 68, 68); fill-opacity: 1; white-space: pre; opacity: 1;">Nov-29-20</text></g><g class="xtick"><text text-anchor="end" x="0" y="434" transform="translate(412.92,0) rotate(-45,0,427.5)" style="font-family: serif; font-size: 13px; fill: rgb(68, 68, 68); fill-opacity: 1; white-space: pre; opacity: 1;">Dec-11-20</text></g><g class="xtick"><text text-anchor="end" x="0" y="434" transform="translate(428.96,0) rotate(-45,0,427.5)" style="font-family: serif; font-size: 13px; fill: rgb(68, 68, 68); fill-opacity: 1; white-space: pre; opacity: 1;">Dec-23-20</text></g><g class="xtick"><text text-anchor="end" x="0" y="434" transform="translate(445,0) rotate(-45,0,427.5)" style="font-family: serif; font-size: 13px; fill: rgb(68, 68, 68); fill-opacity: 1; white-space: pre; opacity: 1;">Jan-04-21</text></g><g class="xtick"><text text-anchor="end" x="0" y="434" transform="translate(461.04,0) rotate(-45,0,427.5)" style="font-family: serif; font-size: 13px; fill: rgb(68, 68, 68); fill-opacity: 1; white-space: pre; opacity: 1;">Jan-16-21</text></g><g class="xtick"><text text-anchor="end" x="0" y="434" transform="translate(477.09,0) rotate(-45,0,427.5)" style="font-family: serif; font-size: 13px; fill: rgb(68, 68, 68); fill-opacity: 1; white-space: pre; opacity: 1;">Jan-28-21</text></g><g class="xtick"><text text-anchor="end" x="0" y="434" transform="translate(493.13,0) rotate(-45,0,427.5)" style="font-family: serif; font-size: 13px; fill: rgb(68, 68, 68); fill-opacity: 1; white-space: pre; opacity: 1;">Feb-09-21</text></g><g class="xtick"><text text-anchor="end" x="0" y="434" transform="translate(509.17,0) rotate(-45,0,427.5)" style="font-family: serif; font-size: 13px; fill: rgb(68, 68, 68); fill-opacity: 1; white-space: pre; opacity: 1;">Feb-21-21</text></g><g class="xtick"><text text-anchor="end" x="0" y="434" transform="translate(525.21,0) rotate(-45,0,427.5)" style="font-family: serif; font-size: 13px; fill: rgb(68, 68, 68); fill-opacity: 1; white-space: pre; opacity: 1;">Mar-05-21</text></g><g class="xtick"><text text-anchor="end" x="0" y="434" transform="translate(541.25,0) rotate(-45,0,427.5)" style="font-family: serif; font-size: 13px; fill: rgb(68, 68, 68); fill-opacity: 1; white-space: pre; opacity: 1;">Mar-17-21</text></g><g class="xtick"><text text-anchor="end" x="0" y="434" transform="translate(557.3,0) rotate(-45,0,427.5)" style="font-family: serif; font-size: 13px; fill: rgb(68, 68, 68); fill-opacity: 1; white-space: pre; opacity: 1;">Mar-29-21</text></g></g><g class="yaxislayer-above"><g class="ytick"><text text-anchor="end" x="59" y="4.199999999999999" transform="translate(0,420)" style="font-family: 'Open Sans', verdana, arial, sans-serif; font-size: 12px; fill: rgb(68, 68, 68); fill-opacity: 1; white-space: pre; opacity: 1;">0</text></g><g class="ytick"><text text-anchor="end" x="59" y="4.199999999999999" style="font-family: 'Open Sans', verdana, arial, sans-serif; font-size: 12px; fill: rgb(68, 68, 68); fill-opacity: 1; white-space: pre; opacity: 1;" transform="translate(0,368.62)">5k</text></g><g class="ytick"><text text-anchor="end" x="59" y="4.199999999999999" style="font-family: 'Open Sans', verdana, arial, sans-serif; font-size: 12px; fill: rgb(68, 68, 68); fill-opacity: 1; white-space: pre; opacity: 1;" transform="translate(0,317.23)">10k</text></g><g class="ytick"><text text-anchor="end" x="59" y="4.199999999999999" style="font-family: 'Open Sans', verdana, arial, sans-serif; font-size: 12px; fill: rgb(68, 68, 68); fill-opacity: 1; white-space: pre; opacity: 1;" transform="translate(0,265.85)">15k</text></g><g class="ytick"><text text-anchor="end" x="59" y="4.199999999999999" style="font-family: 'Open Sans', verdana, arial, sans-serif; font-size: 12px; fill: rgb(68, 68, 68); fill-opacity: 1; white-space: pre; opacity: 1;" transform="translate(0,214.47)">20k</text></g><g class="ytick"><text text-anchor="end" x="59" y="4.199999999999999" style="font-family: 'Open Sans', verdana, arial, sans-serif; font-size: 12px; fill: rgb(68, 68, 68); fill-opacity: 1; white-space: pre; opacity: 1;" transform="translate(0,163.09)">25k</text></g><g class="ytick"><text text-anchor="end" x="59" y="4.199999999999999" style="font-family: 'Open Sans', verdana, arial, sans-serif; font-size: 12px; fill: rgb(68, 68, 68); fill-opacity: 1; white-space: pre; opacity: 1;" transform="translate(0,111.7)">30k</text></g><g class="ytick"><text text-anchor="end" x="59" y="4.199999999999999" style="font-family: 'Open Sans', verdana, arial, sans-serif; font-size: 12px; fill: rgb(68, 68, 68); fill-opacity: 1; white-space: pre; opacity: 1;" transform="translate(0,60.32)">35k</text></g></g><g class="overaxes-above"/></g></g><g class="polarlayer"/><g class="smithlayer"/><g class="ternarylayer"/><g class="geolayer"/><g class="funnelarealayer"/><g class="pielayer"/><g class="iciclelayer"/><g class="treemaplayer"/><g class="sunburstlayer"/><g class="glimages"/><defs id="topdefs-789c40"><g class="clips"/><clipPath id="legend789c40"><rect width="108" height="67" x="0" y="0"/></clipPath></defs><g class="layer-above"><g class="imagelayer"/><g class="shapelayer"/></g><g class="infolayer"><g class="legend" pointer-events="all" transform="translate(582.24,25)"><rect class="bg" shape-rendering="crispEdges" style="stroke: rgb(68, 68, 68); stroke-opacity: 1; fill: rgb(255, 255, 255); fill-opacity: 1; stroke-width: 0px;" width="108" height="67" x="0" y="0"/><g class="scrollbox" transform="" clip-path="url(#legend789c40)"><g class="groups"><g class="traces" transform="translate(0,14.5)" style="opacity: 1;"><text class="legendtext" text-anchor="start" x="40" y="4.680000000000001" style="font-family: 'Open Sans', verdana, arial, sans-serif; font-size: 12px; fill: rgb(68, 68, 68); fill-opacity: 1; white-space: pre;">Active</text><g class="layers"><g class="legendfill"><path class="js-fill" d="M5,-2h30v6h-30z" style="stroke-width: 0; fill: rgb(255, 165, 0); fill-opacity: 1;"/></g><g class="legendlines"><path class="js-line" d="M5,-2h30" style="fill: none; stroke: rgb(255, 165, 0); stroke-opacity: 1; stroke-width: 2px;"/></g><g class="legendsymbols"><g class="legendpoints"/></g></g><rect class="legendtoggle" x="0" y="-9.5" width="102.546875" height="19" style="fill: rgb(0, 0, 0); fill-opacity: 0;"/></g><g class="traces" transform="translate(0,33.5)" style="opacity: 1;"><text class="legendtext" text-anchor="start" x="40" y="4.680000000000001" style="font-family: 'Open Sans', verdana, arial, sans-serif; font-size: 12px; fill: rgb(68, 68, 68); fill-opacity: 1; white-space: pre;">Recovered</text><g class="layers"><g class="legendfill"><path class="js-fill" d="M5,-2h30v6h-30z" style="stroke-width: 0; fill: rgb(0, 255, 0); fill-opacity: 1;"/></g><g class="legendlines"><path class="js-line" d="M5,-2h30" style="fill: none; stroke: rgb(0, 255, 0); stroke-opacity: 1; stroke-width: 2px;"/></g><g class="legendsymbols"><g class="legendpoints"/></g></g><rect class="legendtoggle" x="0" y="-9.5" width="102.546875" height="19" style="fill: rgb(0, 0, 0); fill-opacity: 0;"/></g><g class="traces" transform="translate(0,52.5)" style="opacity: 1;"><text class="legendtext" text-anchor="start" x="40" y="4.680000000000001" style="font-family: 'Open Sans', verdana, arial, sans-serif; font-size: 12px; fill: rgb(68, 68, 68); fill-opacity: 1; white-space: pre;">Deceased</text><g class="layers"><g class="legendfill"><path class="js-fill" d="M5,-2h30v6h-30z" style="stroke-width: 0; fill: rgb(139, 0, 0); fill-opacity: 1;"/></g><g class="legendlines"><path class="js-line" d="M5,-2h30" style="fill: none; stroke: rgb(139, 0, 0); stroke-opacity: 1; stroke-width: 2px;"/></g><g class="legendsymbols"><g class="legendpoints"/></g></g><rect class="legendtoggle" x="0" y="-9.5" width="102.546875" height="19" style="fill: rgb(0, 0, 0); fill-opacity: 0;"/></g></g></g><rect class="scrollbar" rx="20" ry="3" width="0" height="0" style="fill: rgb(128, 139, 164); fill-opacity: 1;" x="0" y="0"/></g><g class="g-gtitle"><text class="gtitle" x="350" y="12.5" text-anchor="middle" dy="0em" style="font-family: serif; font-size: 18px; fill: rgb(68, 68, 68); opacity: 1; font-weight: normal; white-space: pre;">Dakshina Kannada</text></g><g class="g-xtitle" transform="translate(0,19.2626953125)"><text class="xtitle" x="316" y="472" text-anchor="middle" style="font-family: 'Open Sans', verdana, arial, sans-serif; font-size: 14px; fill: rgb(68, 68, 68); opacity: 1; font-weight: normal; white-space: pre;">Date</text></g><g class="g-ytitle" transform="translate(2,0)"><text class="ytitle" transform="rotate(-90,14,222.5)" x="14" y="222.5" text-anchor="middle" style="font-family: serif; font-size: 18px; fill: rgb(0, 0, 0); opacity: 1; font-weight: normal; white-space: pre;">Number of Cases</text></g></g></svg>