<svg class="main-svg" xmlns="http://www.w3.org/2000/svg" xmlns:xlink="http://www.w3.org/1999/xlink" width="700" height="500" style="" viewBox="0 0 700 500"><rect x="0" y="0" width="700" height="500" style="fill: rgb(255, 255, 255); fill-opacity: 1;"/><defs id="defs-92ed9c"><g class="clips"><clipPath id="clip92ed9cxyplot" class="plotclip"><rect width="512" height="395"/></clipPath><clipPath class="axesclip" id="clip92ed9cx"><rect x="60" y="0" width="512" height="500"/></clipPath><clipPath class="axesclip" id="clip92ed9cy"><rect x="0" y="25" width="700" height="395"/></clipPath><clipPath class="axesclip" id="clip92ed9cxy"><rect x="60" y="25" width="512" height="395"/></clipPath></g><g class="gradients"/><g class="patterns"/></defs><g class="bglayer"/><g class="layer-below"><g class="imagelayer"/><g class="shapelayer"/></g><g class="cartesianlayer"><g class="subplot xy"><g class="layer-subplot"><g class="shapelayer"/><g class="imagelayer"/></g><g class="gridlayer"><g class="x"><path class="xgrid crisp" transform="translate(76.03999999999999,0)" d="M0,25v395" style="stroke: rgb(238, 238, 238); stroke-opacity: 1; stroke-width: 1px;"/><path class="xgrid crisp" transform="translate(92.08,0)" d="M0,25v395" style="stroke: rgb(238, 238, 238); stroke-opacity: 1; stroke-width: 1px;"/><path class="xgrid crisp" transform="translate(108.13,0)" d="M0,25v395" style="stroke: rgb(238, 238, 238); stroke-opacity: 1; stroke-width: 1px;"/><path class="xgrid crisp" transform="translate(124.17,0)" d="M0,25v395" style="stroke: rgb(238, 238, 238); stroke-opacity: 1; stroke-width: 1px;"/><path class="xgrid crisp" transform="translate(140.20999999999998,0)" d="M0,25v395" style="stroke: rgb(238, 238, 238); stroke-opacity: 1; stroke-width: 1px;"/><path class="xgrid crisp" transform="translate(156.25,0)" d="M0,25v395" style="stroke: rgb(238, 238, 238); stroke-opacity: 1; stroke-width: 1px;"/><path class="xgrid crisp" transform="translate(172.29000000000002,0)" d="M0,25v395" style="stroke: rgb(238, 238, 238); stroke-opacity: 1; stroke-width: 1px;"/><path class="xgrid crisp" transform="translate(188.33,0)" d="M0,25v395" style="stroke: rgb(238, 238, 238); stroke-opacity: 1; stroke-width: 1px;"/><path class="xgrid crisp" transform="translate(204.38,0)" d="M0,25v395" style="stroke: rgb(238, 238, 238); stroke-opacity: 1; stroke-width: 1px;"/><path class="xgrid crisp" transform="translate(220.42,0)" d="M0,25v395" style="stroke: rgb(238, 238, 238); stroke-opacity: 1; stroke-width: 1px;"/><path class="xgrid crisp" transform="translate(236.46,0)" d="M0,25v395" style="stroke: rgb(238, 238, 238); stroke-opacity: 1; stroke-width: 1px;"/><path class="xgrid crisp" transform="translate(252.5,0)" d="M0,25v395" style="stroke: rgb(238, 238, 238); stroke-opacity: 1; stroke-width: 1px;"/><path class="xgrid crisp" transform="translate(268.53999999999996,0)" d="M0,25v395" style="stroke: rgb(238, 238, 238); stroke-opacity: 1; stroke-width: 1px;"/><path class="xgrid crisp" transform="translate(284.58000000000004,0)" d="M0,25v395" style="stroke: rgb(238, 238, 238); stroke-opacity: 1; stroke-width: 1px;"/><path class="xgrid crisp" transform="translate(300.63,0)" d="M0,25v395" style="stroke: rgb(238, 238, 238); stroke-opacity: 1; stroke-width: 1px;"/><path class="xgrid crisp" transform="translate(316.67,0)" d="M0,25v395" style="stroke: rgb(238, 238, 238); stroke-opacity: 1; stroke-width: 1px;"/><path class="xgrid crisp" transform="translate(332.71,0)" d="M0,25v395" style="stroke: rgb(238, 238, 238); stroke-opacity: 1; stroke-width: 1px;"/><path class="xgrid crisp" transform="translate(348.75,0)" d="M0,25v395" style="stroke: rgb(238, 238, 238); stroke-opacity: 1; stroke-width: 1px;"/><path class="xgrid crisp" transform="translate(364.79,0)" d="M0,25v395" style="stroke: rgb(238, 238, 238); stroke-opacity: 1; stroke-width: 1px;"/><path class="xgrid crisp" transform="translate(380.84,0)" d="M0,25v395" style="stroke: rgb(238, 238, 238); stroke-opacity: 1; stroke-width: 1px;"/><path class="xgrid crisp" transform="translate(396.88,0)" d="M0,25v395" style="stroke: rgb(238, 238, 238); stroke-opacity: 1; stroke-width: 1px;"/><path class="xgrid crisp" transform="translate(412.92,0)" d="M0,25v395" style="stroke: rgb(238, 238, 238); stroke-opacity: 1; stroke-width: 1px;"/><path class="xgrid crisp" transform="translate(428.96,0)" d="M0,25v395" style="stroke: rgb(238, 238, 238); stroke-opacity: 1; stroke-width: 1px;"/><path class="xgrid crisp" transform="translate(445,0)" d="M0,25v395" style="stroke: rgb(238, 238, 238); stroke-opacity: 1; stroke-width: 1px;"/><path class="xgrid crisp" transform="translate(461.04,0)" d="M0,25v395" style="stroke: rgb(238, 238, 238); stroke-opacity: 1; stroke-width: 1px;"/><path class="xgrid crisp" transform="translate(477.09,0)" d="M0,25v395" style="stroke: rgb(238, 238, 238); stroke-opacity: 1; stroke-width: 1px;"/><path class="xgrid crisp" transform="translate(493.13,0)" d="M0,25v395" style="stroke: rgb(238, 238, 238); stroke-opacity: 1; stroke-width: 1px;"/><path class="xgrid crisp" transform="translate(509.17,0)" d="M0,25v395" style="stroke: rgb(238, 238, 238); stroke-opacity: 1; stroke-width: 1px;"/><path class="xgrid crisp" transform="translate(525.21,0)" d="M0,25v395" style="stroke: rgb(238, 238, 238); stroke-opacity: 1; stroke-width: 1px;"/><path class="xgrid crisp" transform="translate(541.25,0)" d="M0,25v395" style="stroke: rgb(238, 238, 238); stroke-opacity: 1; stroke-width: 1px;"/><path class="xgrid crisp" transform="translate(557.3,0)" d="M0,25v395" style="stroke: rgb(238, 238, 238); stroke-opacity: 1; stroke-width: 1px;"/></g><g class="y"><path class="ygrid crisp" transform="translate(0,346.81)" d="M60,0h512" style="stroke: rgb(238, 238, 238); stroke-opacity: 1; stroke-width: 1px;"/><path class="ygrid crisp" transform="translate(0,273.63)" d="M60,0h512" style="stroke: rgb(238, 238, 238); stroke-opacity: 1; stroke-width: 1px;"/><path class="ygrid crisp" transform="translate(0,200.44)" d="M60,0h512" style="stroke: rgb(238, 238, 238); stroke-opacity: 1; stroke-width: 1px;"/><path class="ygrid crisp" transform="translate(0,127.26)" d="M60,0h512" style="stroke: rgb(238, 238, 238); stroke-opacity: 1; stroke-width: 1px;"/><path class="ygrid crisp" transform="translate(0,54.07)" d="M60,0h512" style="stroke: rgb(238, 238, 238); stroke-opacity: 1; stroke-width: 1px;"/></g></g><g class="zerolinelayer"><path class="yzl zl crisp" transform="translate(0,420)" d="M60,0h512" style="stroke: rgb(68, 68, 68); stroke-opacity: 1; stroke-width: 1px;"/></g><path class="xlines-below"/><path class="ylines-below"/><g class="overlines-below"/><g class="xaxislayer-below"/><g class="yaxislayer-below"/><g class="overaxes-below"/><g class="plot" transform="translate(60,25)" clip-path="url(#clip92ed9cxyplot)"><g class="scatterlayer mlayer"><g class="trace scatter trace2d5253" style="stroke-miterlimit: 2;"><g class="fills"><g><path class="js-fill" d="M512,395L0,395L0,394.99L164.43,394.28L165.77,394.21L237.95,391.37L239.29,391.37L256.67,390.95L258.01,390.95L344.9,390.32L346.23,390.32L512,389.73" style="fill: rgb(139, 0, 0); fill-opacity: 1; stroke-width: 0;"/></g><g><path class="js-fill" d="M0,394.99L69.51,394.25L70.85,394.22L90.9,393.65L92.24,393.02L102.93,392.47L104.27,391.78L105.61,391.77L106.95,390.8L108.28,390.71L109.62,389.8L114.97,387.92L116.3,386.45L127,382.21L128.33,381.09L132.34,379.4L133.68,378.71L137.69,377.95L139.03,377.23L143.04,375.12L144.38,374.79L149.72,372.85L151.06,372.43L156.41,371.51L157.74,369.62L160.42,367.57L161.75,367.45L165.77,366.09L167.1,363.91L169.78,360.79L171.11,360.13L177.8,350.28L179.13,344.81L180.47,342.56L181.81,337.33L187.15,323.73L188.49,322.14L189.83,319.85L191.16,314.92L193.84,302.65L195.17,299.42L197.85,291.74L199.19,288.11L201.86,281.81L203.2,279.35L211.22,261.58L212.55,260.28L215.23,253.23L216.56,252.61L220.57,247.75L221.91,244.25L229.93,225.03L231.27,222.87L233.94,218.42L235.28,215.32L236.62,214L237.95,214L239.29,214L240.63,210.95L243.3,202.01L244.64,200.31L245.97,194.17L247.31,194.17L251.32,189.61L252.66,189.26L258.01,183.38L259.34,176.31L260.68,171.57L262.02,170.7L266.03,161.98L267.36,160.97L268.7,155.74L270.04,154.5L271.37,142.69L272.71,141.93L275.38,139.31L276.72,138.05L278.06,134.65L279.39,133.74L283.4,125.12L284.74,124.43L290.09,119.15L291.43,118.65L298.11,113.98L299.45,113.6L300.78,113.13L302.12,111.82L307.47,108.95L308.8,108.71L312.81,106.87L314.15,106.3L318.16,104.81L319.5,104.47L334.2,99.79L335.54,99.62L342.22,97.9L343.56,97.28L410.4,83.16L411.74,82.97L478.58,71.29L479.92,70.77L487.94,67.88L489.27,67.42L493.28,65.52L494.62,64.6L498.63,62.5L499.97,61.79L506.65,53.87L507.99,51.13L512,45.6L512,389.73L346.23,390.32L344.9,390.32L258.01,390.95L256.67,390.95L239.29,391.37L237.95,391.37L165.77,394.21L164.43,394.28L0,394.99Z" style="fill: rgb(0, 255, 0); fill-opacity: 1; stroke-width: 0;"/></g></g><g class="errorbars"/><g class="lines"><path class="js-line" d="M0,394.99L164.43,394.28L165.77,394.21L237.95,391.37L239.29,391.37L256.67,390.95L258.01,390.95L344.9,390.32L346.23,390.32L512,389.73" style="vector-effect: non-scaling-stroke; fill: none; stroke: rgb(139, 0, 0); stroke-opacity: 1; stroke-width: 2px; opacity: 1;"/></g><g class="points"/><g class="text"/></g><g class="trace scatter tracee534af" style="stroke-miterlimit: 2;"><g class="fills"><g><path class="js-fill" d="M0,394.96L52.14,394.22L53.47,394.19L74.86,393.48L76.2,393.33L85.56,392.7L86.89,392.7L94.91,390.54L96.25,389.07L97.59,387.54L98.92,387.54L102.93,385.34L104.27,383.89L109.62,383.06L110.96,382.08L113.63,381.18L114.97,380.26L117.64,379.28L118.98,378.52L132.34,374.2L133.68,373.98L136.36,373.22L137.69,372.17L143.04,369.39L144.38,368.42L159.08,354.85L160.42,353.04L163.09,349.03L164.43,345.67L168.44,338.44L169.78,329.21L172.45,322.61L173.79,319.39L176.46,314.07L177.8,310.59L179.13,308.1L180.47,303.93L184.48,294.21L185.82,290.39L192.5,276.12L193.84,272.77L197.85,262.74L199.19,259.39L204.53,249.52L205.87,246.55L209.88,238.02L211.22,234.62L215.23,225.93L216.56,223.57L224.58,206.04L225.92,203.97L229.93,193.97L231.27,190.15L237.95,175.75L239.29,173.19L243.3,166.97L244.64,164.76L247.31,160.84L248.65,159.59L251.32,152.64L252.66,152.49L255.33,146.14L256.67,144.72L259.34,140.08L260.68,138.52L267.36,128.87L268.7,126.76L275.38,119.96L276.72,119.34L291.43,109.31L292.76,108.86L302.12,105.3L303.46,104.64L320.84,99.48L322.17,99.26L328.86,97.87L330.19,97.27L338.21,95.42L339.55,95.31L352.92,92.16L354.26,91.97L362.28,90.33L363.61,89.6L379.66,86.41L380.99,86.25L433.13,76.72L434.46,76.51L454.52,73.73L455.85,73.42L467.89,70.63L469.22,70.31L477.24,67.41L478.58,66.78L483.93,63.46L485.26,62.56L487.94,61.33L489.27,59.45L497.3,48.45L498.63,46.17L506.65,33.17L507.99,29.35L512,19.75L512,45.6L507.99,51.13L506.65,53.87L499.97,61.79L498.63,62.5L494.62,64.6L493.28,65.52L489.27,67.42L487.94,67.88L479.92,70.77L478.58,71.29L411.74,82.97L410.4,83.16L343.56,97.28L342.22,97.9L335.54,99.62L334.2,99.79L319.5,104.47L318.16,104.81L314.15,106.3L312.81,106.87L308.8,108.71L307.47,108.95L302.12,111.82L300.78,113.13L299.45,113.6L298.11,113.98L291.43,118.65L290.09,119.15L284.74,124.43L283.4,125.12L279.39,133.74L278.06,134.65L276.72,138.05L275.38,139.31L272.71,141.93L271.37,142.69L270.04,154.5L268.7,155.74L267.36,160.97L266.03,161.98L262.02,170.7L260.68,171.57L259.34,176.31L258.01,183.38L252.66,189.26L251.32,189.61L247.31,194.17L245.97,194.17L244.64,200.31L243.3,202.01L240.63,210.95L239.29,214L237.95,214L236.62,214L235.28,215.32L233.94,218.42L231.27,222.87L229.93,225.03L221.91,244.25L220.57,247.75L216.56,252.61L215.23,253.23L212.55,260.28L211.22,261.58L203.2,279.35L201.86,281.81L199.19,288.11L197.85,291.74L195.17,299.42L193.84,302.65L191.16,314.92L189.83,319.85L188.49,322.14L187.15,323.73L181.81,337.33L180.47,342.56L179.13,344.81L177.8,350.28L171.11,360.13L169.78,360.79L167.1,363.91L165.77,366.09L161.75,367.45L160.42,367.57L157.74,369.62L156.41,371.51L151.06,372.43L149.72,372.85L144.38,374.79L143.04,375.12L139.03,377.23L137.69,377.95L133.68,378.71L132.34,379.4L128.33,381.09L127,382.21L116.3,386.45L114.97,387.92L109.62,389.8L108.28,390.71L106.95,390.8L105.61,391.77L104.27,391.78L102.93,392.47L92.24,393.02L90.9,393.65L70.85,394.22L69.51,394.25L0,394.99Z" style="fill: rgb(255, 165, 0); fill-opacity: 1; stroke-width: 0;"/></g></g><g class="errorbars"/><g class="lines"><path class="js-line" d="M0,394.99L69.51,394.25L70.85,394.22L90.9,393.65L92.24,393.02L102.93,392.47L104.27,391.78L105.61,391.77L106.95,390.8L108.28,390.71L109.62,389.8L114.97,387.92L116.3,386.45L127,382.21L128.33,381.09L132.34,379.4L133.68,378.71L137.69,377.95L139.03,377.23L143.04,375.12L144.38,374.79L149.72,372.85L151.06,372.43L156.41,371.51L157.74,369.62L160.42,367.57L161.75,367.45L165.77,366.09L167.1,363.91L169.78,360.79L171.11,360.13L177.8,350.28L179.13,344.81L180.47,342.56L181.81,337.33L187.15,323.73L188.49,322.14L189.83,319.85L191.16,314.92L193.84,302.65L195.17,299.42L197.85,291.74L199.19,288.11L201.86,281.81L203.2,279.35L211.22,261.58L212.55,260.28L215.23,253.23L216.56,252.61L220.57,247.75L221.91,244.25L229.93,225.03L231.27,222.87L233.94,218.42L235.28,215.32L236.62,214L237.95,214L239.29,214L240.63,210.95L243.3,202.01L244.64,200.31L245.97,194.17L247.31,194.17L251.32,189.61L252.66,189.26L258.01,183.38L259.34,176.31L260.68,171.57L262.02,170.7L266.03,161.98L267.36,160.97L268.7,155.74L270.04,154.5L271.37,142.69L272.71,141.93L275.38,139.31L276.72,138.05L278.06,134.65L279.39,133.74L283.4,125.12L284.74,124.43L290.09,119.15L291.43,118.65L298.11,113.98L299.45,113.6L300.78,113.13L302.12,111.82L307.47,108.95L308.8,108.71L312.81,106.87L314.15,106.3L318.16,104.81L319.5,104.47L334.2,99.79L335.54,99.62L342.22,97.9L343.56,97.28L410.4,83.16L411.74,82.97L478.58,71.29L479.92,70.77L487.94,67.88L489.27,67.42L493.28,65.52L494.62,64.6L498.63,62.5L499.97,61.79L506.65,53.87L507.99,51.13L512,45.6" style="vector-effect: non-scaling-stroke; fill: none; stroke: rgb(0, 255, 0); stroke-opacity: 1; stroke-width: 2px; opacity: 1;"/></g><g class="points"/><g class="text"/></g><g class="trace scatter trace3d3e61" style="stroke-miterlimit: 2;"><g class="fills"/><g class="errorbars"/><g class="lines"><path class="js-line" d="M0,394.96L52.14,394.22L53.47,394.19L74.86,393.48L76.2,393.33L85.56,392.7L86.89,392.7L94.91,390.54L96.25,389.07L97.59,387.54L98.92,387.54L102.93,385.34L104.27,383.89L109.62,383.06L110.96,382.08L113.63,381.18L114.97,380.26L117.64,379.28L118.98,378.52L132.34,374.2L133.68,373.98L136.36,373.22L137.69,372.17L143.04,369.39L144.38,368.42L159.08,354.85L160.42,353.04L163.09,349.03L164.43,345.67L168.44,338.44L169.78,329.21L172.45,322.61L173.79,319.39L176.46,314.07L177.8,310.59L179.13,308.1L180.47,303.93L184.48,294.21L185.82,290.39L192.5,276.12L193.84,272.77L197.85,262.74L199.19,259.39L204.53,249.52L205.87,246.55L209.88,238.02L211.22,234.62L215.23,225.93L216.56,223.57L224.58,206.04L225.92,203.97L229.93,193.97L231.27,190.15L237.95,175.75L239.29,173.19L243.3,166.97L244.64,164.76L247.31,160.84L248.65,159.59L251.32,152.64L252.66,152.49L255.33,146.14L256.67,144.72L259.34,140.08L260.68,138.52L267.36,128.87L268.7,126.76L275.38,119.96L276.72,119.34L291.43,109.31L292.76,108.86L302.12,105.3L303.46,104.64L320.84,99.48L322.17,99.26L328.86,97.87L330.19,97.27L338.21,95.42L339.55,95.31L352.92,92.16L354.26,91.97L362.28,90.33L363.61,89.6L379.66,86.41L380.99,86.25L433.13,76.72L434.46,76.51L454.52,73.73L455.85,73.42L467.89,70.63L469.22,70.31L477.24,67.41L478.58,66.78L483.93,63.46L485.26,62.56L487.94,61.33L489.27,59.45L497.3,48.45L498.63,46.17L506.65,33.17L507.99,29.35L512,19.75" style="vector-effect: non-scaling-stroke; fill: none; stroke: rgb(255, 165, 0); stroke-opacity: 1; stroke-width: 2px; opacity: 1;"/></g><g class="points"/><g class="text"/></g></g></g><g class="overplot"/><path class="xlines-above crisp" d="M0,0" style="fill: none;"/><path class="ylines-above crisp" d="M0,0" style="fill: none;"/><g class="overlines-above"/><g class="xaxislayer-above"><g class="xtick"><text text-anchor="end" x="0" y="434" transform="translate(60,0) rotate(-45,0,427.5)" style="font-family: serif; font-size: 13px; fill: rgb(68, 68, 68); fill-opacity: 1; white-space: pre; opacity: 1;">Mar-22-20</text></g><g class="xtick"><text text-anchor="end" x="0" y="434" transform="translate(76.03999999999999,0) rotate(-45,0,427.5)" style="font-family: serif; font-size: 13px; fill: rgb(68, 68, 68); fill-opacity: 1; white-space: pre; opacity: 1;">Apr-03-20</text></g><g class="xtick"><text text-anchor="end" x="0" y="434" transform="translate(92.08,0) rotate(-45,0,427.5)" style="font-family: serif; font-size: 13px; fill: rgb(68, 68, 68); fill-opacity: 1; white-space: pre; opacity: 1;">Apr-15-20</text></g><g class="xtick"><text text-anchor="end" x="0" y="434" transform="translate(108.13,0) rotate(-45,0,427.5)" style="font-family: serif; font-size: 13px; fill: rgb(68, 68, 68); fill-opacity: 1; white-space: pre; opacity: 1;">Apr-27-20</text></g><g class="xtick"><text text-anchor="end" x="0" y="434" transform="translate(124.17,0) rotate(-45,0,427.5)" style="font-family: serif; font-size: 13px; fill: rgb(68, 68, 68); fill-opacity: 1; white-space: pre; opacity: 1;">May-09-20</text></g><g class="xtick"><text text-anchor="end" x="0" y="434" transform="translate(140.20999999999998,0) rotate(-45,0,427.5)" style="font-family: serif; font-size: 13px; fill: rgb(68, 68, 68); fill-opacity: 1; white-space: pre; opacity: 1;">May-21-20</text></g><g class="xtick"><text text-anchor="end" x="0" y="434" transform="translate(156.25,0) rotate(-45,0,427.5)" style="font-family: serif; font-size: 13px; fill: rgb(68, 68, 68); fill-opacity: 1; white-space: pre; opacity: 1;">Jun-02-20</text></g><g class="xtick"><text text-anchor="end" x="0" y="434" transform="translate(172.29000000000002,0) rotate(-45,0,427.5)" style="font-family: serif; font-size: 13px; fill: rgb(68, 68, 68); fill-opacity: 1; white-space: pre; opacity: 1;">Jun-14-20</text></g><g class="xtick"><text text-anchor="end" x="0" y="434" transform="translate(188.33,0) rotate(-45,0,427.5)" style="font-family: serif; font-size: 13px; fill: rgb(68, 68, 68); fill-opacity: 1; white-space: pre; opacity: 1;">Jun-26-20</text></g><g class="xtick"><text text-anchor="end" x="0" y="434" transform="translate(204.38,0) rotate(-45,0,427.5)" style="font-family: serif; font-size: 13px; fill: rgb(68, 68, 68); fill-opacity: 1; white-space: pre; opacity: 1;">Jul-08-20</text></g><g class="xtick"><text text-anchor="end" x="0" y="434" transform="translate(220.42,0) rotate(-45,0,427.5)" style="font-family: serif; font-size: 13px; fill: rgb(68, 68, 68); fill-opacity: 1; white-space: pre; opacity: 1;">Jul-20-20</text></g><g class="xtick"><text text-anchor="end" x="0" y="434" transform="translate(236.46,0) rotate(-45,0,427.5)" style="font-family: serif; font-size: 13px; fill: rgb(68, 68, 68); fill-opacity: 1; white-space: pre; opacity: 1;">Aug-01-20</text></g><g class="xtick"><text text-anchor="end" x="0" y="434" transform="translate(252.5,0) rotate(-45,0,427.5)" style="font-family: serif; font-size: 13px; fill: rgb(68, 68, 68); fill-opacity: 1; white-space: pre; opacity: 1;">Aug-13-20</text></g><g class="xtick"><text text-anchor="end" x="0" y="434" transform="translate(268.53999999999996,0) rotate(-45,0,427.5)" style="font-family: serif; font-size: 13px; fill: rgb(68, 68, 68); fill-opacity: 1; white-space: pre; opacity: 1;">Aug-25-20</text></g><g class="xtick"><text text-anchor="end" x="0" y="434" transform="translate(284.58000000000004,0) rotate(-45,0,427.5)" style="font-family: serif; font-size: 13px; fill: rgb(68, 68, 68); fill-opacity: 1; white-space: pre; opacity: 1;">Sep-06-20</text></g><g class="xtick"><text text-anchor="end" x="0" y="434" transform="translate(300.63,0) rotate(-45,0,427.5)" style="font-family: serif; font-size: 13px; fill: rgb(68, 68, 68); fill-opacity: 1; white-space: pre; opacity: 1;">Sep-18-20</text></g><g class="xtick"><text text-anchor="end" x="0" y="434" transform="translate(316.67,0) rotate(-45,0,427.5)" style="font-family: serif; font-size: 13px; fill: rgb(68, 68, 68); fill-opacity: 1; white-space: pre; opacity: 1;">Sep-30-20</text></g><g class="xtick"><text text-anchor="end" x="0" y="434" transform="translate(332.71,0) rotate(-45,0,427.5)" style="font-family: serif; font-size: 13px; fill: rgb(68, 68, 68); fill-opacity: 1; white-space: pre; opacity: 1;">Oct-12-20</text></g><g class="xtick"><text text-anchor="end" x="0" y="434" transform="translate(348.75,0) rotate(-45,0,427.5)" style="font-family: serif; font-size: 13px; fill: rgb(68, 68, 68); fill-opacity: 1; white-space: pre; opacity: 1;">Oct-24-20</text></g><g class="xtick"><text text-anchor="end" x="0" y="434" transform="translate(364.79,0) rotate(-45,0,427.5)" style="font-family: serif; font-size: 13px; fill: rgb(68, 68, 68); fill-opacity: 1; white-space: pre; opacity: 1;">Nov-05-20</text></g><g class="xtick"><text text-anchor="end" x="0" y="434" transform="translate(380.84,0) rotate(-45,0,427.5)" style="font-family: serif; font-size: 13px; fill: rgb(68, 68, 68); fill-opacity: 1; white-space: pre; opacity: 1;">Nov-17-20</text></g><g class="xtick"><text text-anchor="end" x="0" y="434" transform="translate(396.88,0) rotate(-45,0,427.5)" style="font-family: serif; font-size: 13px; fill: rgb(68, 68, 68); fill-opacity: 1; white-space: pre; opacity: 1;">Nov-29-20</text></g><g class="xtick"><text text-anchor="end" x="0" y="434" transform="translate(412.92,0) rotate(-45,0,427.5)" style="font-family: serif; font-size: 13px; fill: rgb(68, 68, 68); fill-opacity: 1; white-space: pre; opacity: 1;">Dec-11-20</text></g><g class="xtick"><text text-anchor="end" x="0" y="434" transform="translate(428.96,0) rotate(-45,0,427.5)" style="font-family: serif; font-size: 13px; fill: rgb(68, 68, 68); fill-opacity: 1; white-space: pre; opacity: 1;">Dec-23-20</text></g><g class="xtick"><text text-anchor="end" x="0" y="434" transform="translate(445,0) rotate(-45,0,427.5)" style="font-family: serif; font-size: 13px; fill: rgb(68, 68, 68); fill-opacity: 1; white-space: pre; opacity: 1;">Jan-04-21</text></g><g class="xtick"><text text-anchor="end" x="0" y="434" transform="translate(461.04,0) rotate(-45,0,427.5)" style="font-family: serif; font-size: 13px; fill: rgb(68, 68, 68); fill-opacity: 1; white-space: pre; opacity: 1;">Jan-16-21</text></g><g class="xtick"><text text-anchor="end" x="0" y="434" transform="translate(477.09,0) rotate(-45,0,427.5)" style="font-family: serif; font-size: 13px; fill: rgb(68, 68, 68); fill-opacity: 1; white-space: pre; opacity: 1;">Jan-28-21</text></g><g class="xtick"><text text-anchor="end" x="0" y="434" transform="translate(493.13,0) rotate(-45,0,427.5)" style="font-family: serif; font-size: 13px; fill: rgb(68, 68, 68); fill-opacity: 1; white-space: pre; opacity: 1;">Feb-09-21</text></g><g class="xtick"><text text-anchor="end" x="0" y="434" transform="translate(509.17,0) rotate(-45,0,427.5)" style="font-family: serif; font-size: 13px; fill: rgb(68, 68, 68); fill-opacity: 1; white-space: pre; opacity: 1;">Feb-21-21</text></g><g class="xtick"><text text-anchor="end" x="0" y="434" transform="translate(525.21,0) rotate(-45,0,427.5)" style="font-family: serif; font-size: 13px; fill: rgb(68, 68, 68); fill-opacity: 1; white-space: pre; opacity: 1;">Mar-05-21</text></g><g class="xtick"><text text-anchor="end" x="0" y="434" transform="translate(541.25,0) rotate(-45,0,427.5)" style="font-family: serif; font-size: 13px; fill: rgb(68, 68, 68); fill-opacity: 1; white-space: pre; opacity: 1;">Mar-17-21</text></g><g class="xtick"><text text-anchor="end" x="0" y="434" transform="translate(557.3,0) rotate(-45,0,427.5)" style="font-family: serif; font-size: 13px; fill: rgb(68, 68, 68); fill-opacity: 1; white-space: pre; opacity: 1;">Mar-29-21</text></g></g><g class="yaxislayer-above"><g class="ytick"><text text-anchor="end" x="59" y="4.199999999999999" transform="translate(0,420)" style="font-family: 'Open Sans', verdana, arial, sans-serif; font-size: 12px; fill: rgb(68, 68, 68); fill-opacity: 1; white-space: pre; opacity: 1;">0</text></g><g class="ytick"><text text-anchor="end" x="59" y="4.199999999999999" style="font-family: 'Open Sans', verdana, arial, sans-serif; font-size: 12px; fill: rgb(68, 68, 68); fill-opacity: 1; white-space: pre; opacity: 1;" transform="translate(0,346.81)">5k</text></g><g class="ytick"><text text-anchor="end" x="59" y="4.199999999999999" style="font-family: 'Open Sans', verdana, arial, sans-serif; font-size: 12px; fill: rgb(68, 68, 68); fill-opacity: 1; white-space: pre; opacity: 1;" transform="translate(0,273.63)">10k</text></g><g class="ytick"><text text-anchor="end" x="59" y="4.199999999999999" style="font-family: 'Open Sans', verdana, arial, sans-serif; font-size: 12px; fill: rgb(68, 68, 68); fill-opacity: 1; white-space: pre; opacity: 1;" transform="translate(0,200.44)">15k</text></g><g class="ytick"><text text-anchor="end" x="59" y="4.199999999999999" style="font-family: 'Open Sans', verdana, arial, sans-serif; font-size: 12px; fill: rgb(68, 68, 68); fill-opacity: 1; white-space: pre; opacity: 1;" transform="translate(0,127.26)">20k</text></g><g class="ytick"><text text-anchor="end" x="59" y="4.199999999999999" style="font-family: 'Open Sans', verdana, arial, sans-serif; font-size: 12px; fill: rgb(68, 68, 68); fill-opacity: 1; white-space: pre; opacity: 1;" transform="translate(0,54.07)">25k</text></g></g><g class="overaxes-above"/></g></g><g class="polarlayer"/><g class="smithlayer"/><g class="ternarylayer"/><g class="geolayer"/><g class="funnelarealayer"/><g class="pielayer"/><g class="iciclelayer"/><g class="treemaplayer"/><g class="sunburstlayer"/><g class="glimages"/><defs id="topdefs-92ed9c"><g class="clips"/><clipPath id="legend92ed9c"><rect width="108" height="67" x="0" y="0"/></clipPath></defs><g class="layer-above"><g class="imagelayer"/><g class="shapelayer"/></g><g class="infolayer"><g class="legend" pointer-events="all" transform="translate(582.24,25)"><rect class="bg" shape-rendering="crispEdges" style="stroke: rgb(68, 68, 68); stroke-opacity: 1; fill: rgb(255, 255, 255); fill-opacity: 1; stroke-width: 0px;" width="108" height="67" x="0" y="0"/><g class="scrollbox" transform="" clip-path="url(#legend92ed9c)"><g class="groups"><g class="traces" transform="translate(0,14.5)" style="opacity: 1;"><text class="legendtext" text-anchor="start" x="40" y="4.680000000000001" style="font-family: 'Open Sans', verdana, arial, sans-serif; font-size: 12px; fill: rgb(68, 68, 68); fill-opacity: 1; white-space: pre;">Active</text><g class="layers"><g class="legendfill"><path class="js-fill" d="M5,-2h30v6h-30z" style="stroke-width: 0; fill: rgb(255, 165, 0); fill-opacity: 1;"/></g><g class="legendlines"><path class="js-line" d="M5,-2h30" style="fill: none; stroke: rgb(255, 165, 0); stroke-opacity: 1; stroke-width: 2px;"/></g><g class="legendsymbols"><g class="legendpoints"/></g></g><rect class="legendtoggle" x="0" y="-9.5" width="102.546875" height="19" style="fill: rgb(0, 0, 0); fill-opacity: 0;"/></g><g class="traces" transform="translate(0,33.5)" style="opacity: 1;"><text class="legendtext" text-anchor="start" x="40" y="4.680000000000001" style="font-family: 'Open Sans', verdana, arial, sans-serif; font-size: 12px; fill: rgb(68, 68, 68); fill-opacity: 1; white-space: pre;">Recovered</text><g class="layers"><g class="legendfill"><path class="js-fill" d="M5,-2h30v6h-30z" style="stroke-width: 0; fill: rgb(0, 255, 0); fill-opacity: 1;"/></g><g class="legendlines"><path class="js-line" d="M5,-2h30" style="fill: none; stroke: rgb(0, 255, 0); stroke-opacity: 1; stroke-width: 2px;"/></g><g class="legendsymbols"><g class="legendpoints"/></g></g><rect class="legendtoggle" x="0" y="-9.5" width="102.546875" height="19" style="fill: rgb(0, 0, 0); fill-opacity: 0;"/></g><g class="traces" transform="translate(0,52.5)" style="opacity: 1;"><text class="legendtext" text-anchor="start" x="40" y="4.680000000000001" style="font-family: 'Open Sans', verdana, arial, sans-serif; font-size: 12px; fill: rgb(68, 68, 68); fill-opacity: 1; white-space: pre;">Deceased</text><g class="layers"><g class="legendfill"><path class="js-fill" d="M5,-2h30v6h-30z" style="stroke-width: 0; fill: rgb(139, 0, 0); fill-opacity: 1;"/></g><g class="legendlines"><path class="js-line" d="M5,-2h30" style="fill: none; stroke: rgb(139, 0, 0); stroke-opacity: 1; stroke-width: 2px;"/></g><g class="legendsymbols"><g class="legendpoints"/></g></g><rect class="legendtoggle" x="0" y="-9.5" width="102.546875" height="19" style="fill: rgb(0, 0, 0); fill-opacity: 0;"/></g></g></g><rect class="scrollbar" rx="20" ry="3" width="0" height="0" style="fill: rgb(128, 139, 164); fill-opacity: 1;" x="0" y="0"/></g><g class="g-gtitle"><text class="gtitle" x="350" y="12.5" text-anchor="middle" dy="0em" style="font-family: serif; font-size: 18px; fill: rgb(68, 68, 68); opacity: 1; font-weight: normal; white-space: pre;">Kalaburagi</text></g><g class="g-xtitle" transform="translate(0,19.2626953125)"><text class="xtitle" x="316" y="472" text-anchor="middle" style="font-family: 'Open Sans', verdana, arial, sans-serif; font-size: 14px; fill: rgb(68, 68, 68); opacity: 1; font-weight: normal; white-space: pre;">Date</text></g><g class="g-ytitle" transform="translate(2,0)"><text class="ytitle" transform="rotate(-90,14,222.5)" x="14" y="222.5" text-anchor="middle" style="font-family: serif; font-size: 18px; fill: rgb(0, 0, 0); opacity: 1; font-weight: normal; white-space: pre;">Number of Cases</text></g></g></svg>