<svg class="main-svg" xmlns="http://www.w3.org/2000/svg" xmlns:xlink="http://www.w3.org/1999/xlink" width="700" height="500" style="" viewBox="0 0 700 500"><rect x="0" y="0" width="700" height="500" style="fill: rgb(255, 255, 255); fill-opacity: 1;"/><defs id="defs-24cd47"><g class="clips"><clipPath id="clip24cd47xyplot" class="plotclip"><rect width="512" height="395"/></clipPath><clipPath class="axesclip" id="clip24cd47x"><rect x="60" y="0" width="512" height="500"/></clipPath><clipPath class="axesclip" id="clip24cd47y"><rect x="0" y="25" width="700" height="395"/></clipPath><clipPath class="axesclip" id="clip24cd47xy"><rect x="60" y="25" width="512" height="395"/></clipPath></g><g class="gradients"/><g class="patterns"/></defs><g class="bglayer"/><g class="layer-below"><g class="imagelayer"/><g class="shapelayer"/></g><g class="cartesianlayer"><g class="subplot xy"><g class="layer-subplot"><g class="shapelayer"/><g class="imagelayer"/></g><g class="gridlayer"><g class="x"><path class="xgrid crisp" transform="translate(76.03999999999999,0)" d="M0,25v395" style="stroke: rgb(238, 238, 238); stroke-opacity: 1; stroke-width: 1px;"/><path class="xgrid crisp" transform="translate(92.08,0)" d="M0,25v395" style="stroke: rgb(238, 238, 238); stroke-opacity: 1; stroke-width: 1px;"/><path class="xgrid crisp" transform="translate(108.13,0)" d="M0,25v395" style="stroke: rgb(238, 238, 238); stroke-opacity: 1; stroke-width: 1px;"/><path class="xgrid crisp" transform="translate(124.17,0)" d="M0,25v395" style="stroke: rgb(238, 238, 238); stroke-opacity: 1; stroke-width: 1px;"/><path class="xgrid crisp" transform="translate(140.20999999999998,0)" d="M0,25v395" style="stroke: rgb(238, 238, 238); stroke-opacity: 1; stroke-width: 1px;"/><path class="xgrid crisp" transform="translate(156.25,0)" d="M0,25v395" style="stroke: rgb(238, 238, 238); stroke-opacity: 1; stroke-width: 1px;"/><path class="xgrid crisp" transform="translate(172.29000000000002,0)" d="M0,25v395" style="stroke: rgb(238, 238, 238); stroke-opacity: 1; stroke-width: 1px;"/><path class="xgrid crisp" transform="translate(188.33,0)" d="M0,25v395" style="stroke: rgb(238, 238, 238); stroke-opacity: 1; stroke-width: 1px;"/><path class="xgrid crisp" transform="translate(204.38,0)" d="M0,25v395" style="stroke: rgb(238, 238, 238); stroke-opacity: 1; stroke-width: 1px;"/><path class="xgrid crisp" transform="translate(220.42,0)" d="M0,25v395" style="stroke: rgb(238, 238, 238); stroke-opacity: 1; stroke-width: 1px;"/><path class="xgrid crisp" transform="translate(236.46,0)" d="M0,25v395" style="stroke: rgb(238, 238, 238); stroke-opacity: 1; stroke-width: 1px;"/><path class="xgrid crisp" transform="translate(252.5,0)" d="M0,25v395" style="stroke: rgb(238, 238, 238); stroke-opacity: 1; stroke-width: 1px;"/><path class="xgrid crisp" transform="translate(268.53999999999996,0)" d="M0,25v395" style="stroke: rgb(238, 238, 238); stroke-opacity: 1; stroke-width: 1px;"/><path class="xgrid crisp" transform="translate(284.58000000000004,0)" d="M0,25v395" style="stroke: rgb(238, 238, 238); stroke-opacity: 1; stroke-width: 1px;"/><path class="xgrid crisp" transform="translate(300.63,0)" d="M0,25v395" style="stroke: rgb(238, 238, 238); stroke-opacity: 1; stroke-width: 1px;"/><path class="xgrid crisp" transform="translate(316.67,0)" d="M0,25v395" style="stroke: rgb(238, 238, 238); stroke-opacity: 1; stroke-width: 1px;"/><path class="xgrid crisp" transform="translate(332.71,0)" d="M0,25v395" style="stroke: rgb(238, 238, 238); stroke-opacity: 1; stroke-width: 1px;"/><path class="xgrid crisp" transform="translate(348.75,0)" d="M0,25v395" style="stroke: rgb(238, 238, 238); stroke-opacity: 1; stroke-width: 1px;"/><path class="xgrid crisp" transform="translate(364.79,0)" d="M0,25v395" style="stroke: rgb(238, 238, 238); stroke-opacity: 1; stroke-width: 1px;"/><path class="xgrid crisp" transform="translate(380.84,0)" d="M0,25v395" style="stroke: rgb(238, 238, 238); stroke-opacity: 1; stroke-width: 1px;"/><path class="xgrid crisp" transform="translate(396.88,0)" d="M0,25v395" style="stroke: rgb(238, 238, 238); stroke-opacity: 1; stroke-width: 1px;"/><path class="xgrid crisp" transform="translate(412.92,0)" d="M0,25v395" style="stroke: rgb(238, 238, 238); stroke-opacity: 1; stroke-width: 1px;"/><path class="xgrid crisp" transform="translate(428.96,0)" d="M0,25v395" style="stroke: rgb(238, 238, 238); stroke-opacity: 1; stroke-width: 1px;"/><path class="xgrid crisp" transform="translate(445,0)" d="M0,25v395" style="stroke: rgb(238, 238, 238); stroke-opacity: 1; stroke-width: 1px;"/><path class="xgrid crisp" transform="translate(461.04,0)" d="M0,25v395" style="stroke: rgb(238, 238, 238); stroke-opacity: 1; stroke-width: 1px;"/><path class="xgrid crisp" transform="translate(477.09,0)" d="M0,25v395" style="stroke: rgb(238, 238, 238); stroke-opacity: 1; stroke-width: 1px;"/><path class="xgrid crisp" transform="translate(493.13,0)" d="M0,25v395" style="stroke: rgb(238, 238, 238); stroke-opacity: 1; stroke-width: 1px;"/><path class="xgrid crisp" transform="translate(509.17,0)" d="M0,25v395" style="stroke: rgb(238, 238, 238); stroke-opacity: 1; stroke-width: 1px;"/><path class="xgrid crisp" transform="translate(525.21,0)" d="M0,25v395" style="stroke: rgb(238, 238, 238); stroke-opacity: 1; stroke-width: 1px;"/><path class="xgrid crisp" transform="translate(541.25,0)" d="M0,25v395" style="stroke: rgb(238, 238, 238); stroke-opacity: 1; stroke-width: 1px;"/><path class="xgrid crisp" transform="translate(557.3,0)" d="M0,25v395" style="stroke: rgb(238, 238, 238); stroke-opacity: 1; stroke-width: 1px;"/></g><g class="y"><path class="ygrid crisp" transform="translate(0,362.21)" d="M60,0h512" style="stroke: rgb(238, 238, 238); stroke-opacity: 1; stroke-width: 1px;"/><path class="ygrid crisp" transform="translate(0,304.41)" d="M60,0h512" style="stroke: rgb(238, 238, 238); stroke-opacity: 1; stroke-width: 1px;"/><path class="ygrid crisp" transform="translate(0,246.62)" d="M60,0h512" style="stroke: rgb(238, 238, 238); stroke-opacity: 1; stroke-width: 1px;"/><path class="ygrid crisp" transform="translate(0,188.83)" d="M60,0h512" style="stroke: rgb(238, 238, 238); stroke-opacity: 1; stroke-width: 1px;"/><path class="ygrid crisp" transform="translate(0,131.03)" d="M60,0h512" style="stroke: rgb(238, 238, 238); stroke-opacity: 1; stroke-width: 1px;"/><path class="ygrid crisp" transform="translate(0,73.24000000000001)" d="M60,0h512" style="stroke: rgb(238, 238, 238); stroke-opacity: 1; stroke-width: 1px;"/></g></g><g class="zerolinelayer"><path class="yzl zl crisp" transform="translate(0,420)" d="M60,0h512" style="stroke: rgb(68, 68, 68); stroke-opacity: 1; stroke-width: 1px;"/></g><path class="xlines-below"/><path class="ylines-below"/><g class="overlines-below"/><g class="xaxislayer-below"/><g class="yaxislayer-below"/><g class="overaxes-below"/><g class="plot" transform="translate(60,25)" clip-path="url(#clip24cd47xyplot)"><g class="scatterlayer mlayer"><g class="trace scatter trace9957d4" style="stroke-miterlimit: 2;"><g class="fills"><g><path class="js-fill" d="M512,395L0,395L0,395L200.52,394.31L201.86,394.19L215.23,393.79L216.56,393.79L253.99,393.04L255.33,392.92L272.71,392.17L274.05,391.99L322.17,391.24L323.51,391.19L512,390.78" style="fill: rgb(139, 0, 0); fill-opacity: 1; stroke-width: 0;"/></g><g><path class="js-fill" d="M0,395L143.04,394.77L144.38,394.08L148.39,393.96L149.72,391.42L152.4,390.9L153.73,390.9L155.07,388.24L156.41,388.18L157.74,388.12L159.08,384.71L161.75,384.19L163.09,382.57L164.43,382.57L165.77,381.07L168.44,380.49L169.78,380.09L172.45,379.28L173.79,379.28L175.12,377.84L176.46,377.84L177.8,377.84L179.13,375.99L180.47,375.99L181.81,374.83L185.82,371.42L187.15,371.42L192.5,363.56L193.84,361.02L196.51,358.13L197.85,358.01L200.52,355.76L201.86,352.81L204.53,342.81L205.87,342.81L209.88,336.74L211.22,333.57L213.89,329.87L215.23,327.5L217.9,326.57L219.24,324.78L220.57,323.74L221.91,321.49L223.25,319.46L224.58,315.3L225.92,315.82L227.26,315.13L229.93,311.6L231.27,305.13L233.94,301.26L235.28,299.53L239.29,299.47L240.63,291.15L244.64,285.71L245.97,281.73L247.31,281.73L248.65,280.11L252.66,272.42L253.99,270.75L258.01,266.41L259.34,260.63L262.02,255.78L263.35,249.71L264.69,249.48L266.03,246.24L267.36,241.21L268.7,229.65L271.37,218.79L272.71,215.15L274.05,212.37L275.38,207.06L279.39,185.38L280.73,182.67L284.74,165.85L286.08,160.71L291.43,139.9L292.76,138.98L299.45,123.84L300.78,121.93L307.47,114.07L308.8,113.32L311.48,111.99L312.81,110.02L319.5,102.91L320.84,102.68L322.17,101.01L323.51,100.66L332.87,95.23L334.2,94.88L339.55,92.92L340.89,91.41L343.56,90.08L344.9,89.97L351.58,87.14L352.92,85.87L356.93,84.42L358.27,84.25L360.94,82.34L362.28,80.55L367.62,76.39L368.96,75L370.3,74.71L371.63,72.63L374.31,70.9L375.64,70.15L383.67,67.66L385,66.91L387.68,64.31L389.01,63.44L399.71,60.21L401.04,59.92L405.05,58.18L406.39,57.49L418.42,52.87L419.76,52.52L429.12,50.73L430.45,49.05L433.13,47.38L434.46,46.62L441.15,45.01L442.49,44.49L451.84,42.81L453.18,42.75L465.21,41.54L466.55,41.31L491.95,36.57L493.28,35.07L495.96,33.68L497.3,32.46L501.31,30.67L502.64,30.21L512,26.57L512,390.78L323.51,391.19L322.17,391.24L274.05,391.99L272.71,392.17L255.33,392.92L253.99,393.04L216.56,393.79L215.23,393.79L201.86,394.19L200.52,394.31L0,395Z" style="fill: rgb(0, 255, 0); fill-opacity: 1; stroke-width: 0;"/></g></g><g class="errorbars"/><g class="lines"><path class="js-line" d="M0,395L200.52,394.31L201.86,394.19L215.23,393.79L216.56,393.79L253.99,393.04L255.33,392.92L272.71,392.17L274.05,391.99L322.17,391.24L323.51,391.19L512,390.78" style="vector-effect: non-scaling-stroke; fill: none; stroke: rgb(139, 0, 0); stroke-opacity: 1; stroke-width: 2px; opacity: 1;"/></g><g class="points"/><g class="text"/></g><g class="trace scatter trace7a5fa9" style="stroke-miterlimit: 2;"><g class="fills"><g><path class="js-fill" d="M0,394.94L125.66,394.54L127,393.5L136.36,391.53L137.69,390.61L141.7,390.49L143.04,389.68L145.71,389.45L147.05,387.54L149.72,385.98L151.06,384.31L153.73,382.4L155.07,381.36L160.42,378.82L161.75,378.76L163.09,378.36L164.43,377.08L167.1,376.39L168.44,375.23L172.45,374.08L173.79,372.69L191.16,350.44L192.5,347.26L195.17,341.02L196.51,339.58L199.19,337.61L200.52,335.42L204.53,327.61L205.87,326.75L207.21,324.72L208.54,324.26L212.55,319.7L213.89,317.04L215.23,313.28L216.56,312.3L221.91,300.45L223.25,298.83L224.58,296.64L225.92,296L227.26,294.32L228.6,290.86L229.93,287.33L231.27,286.29L235.28,280.97L236.62,276.81L243.3,265.14L244.64,264.39L247.31,258.26L248.65,258.15L252.66,246.65L253.99,245.2L255.33,241.91L256.67,236.36L259.34,231.27L260.68,229.13L262.02,220.58L263.35,217.86L267.36,201.68L268.7,199.89L270.04,187.41L271.37,185.1L272.71,181.34L274.05,172.61L278.06,148.17L279.39,143.72L282.07,137.71L283.4,136.32L287.42,128.4L288.75,126.49L294.1,118.87L295.44,118.11L296.77,115.34L298.11,114.36L299.45,112.45L300.78,112.28L303.46,111.18L304.79,109.1L310.14,103.32L311.48,102.91L318.16,97.65L319.5,97.54L322.17,96.33L323.51,95.34L328.86,93.32L330.19,92.34L332.87,91.18L334.2,90.26L343.56,86.44L344.9,85.4L346.23,84.13L347.57,84.07L351.58,82.57L352.92,81.65L355.59,78.81L356.93,76.85L358.27,76.44L359.6,73.79L367.62,68.53L368.96,68.47L374.31,66.62L375.64,65.06L376.98,65L378.32,63.96L383.67,61.25L385,61.13L393.02,57.66L394.36,56.97L397.03,56.22L398.37,55.29L407.73,52.46L409.07,52.17L415.75,50.03L417.09,48.76L421.1,47.78L422.43,46.22L430.45,43.45L431.79,43.39L437.14,42.29L438.48,41.94L455.85,39.92L457.19,39.69L469.22,37.32L470.56,37.26L479.92,35.47L481.25,35.35L486.6,34.31L487.94,32.98L491.95,30.38L493.28,30.04L499.97,27.61L501.31,26.28L503.98,25.47L505.32,24.66L512,19.75L512,26.57L502.64,30.21L501.31,30.67L497.3,32.46L495.96,33.68L493.28,35.07L491.95,36.57L466.55,41.31L465.21,41.54L453.18,42.75L451.84,42.81L442.49,44.49L441.15,45.01L434.46,46.62L433.13,47.38L430.45,49.05L429.12,50.73L419.76,52.52L418.42,52.87L406.39,57.49L405.05,58.18L401.04,59.92L399.71,60.21L389.01,63.44L387.68,64.31L385,66.91L383.67,67.66L375.64,70.15L374.31,70.9L371.63,72.63L370.3,74.71L368.96,75L367.62,76.39L362.28,80.55L360.94,82.34L358.27,84.25L356.93,84.42L352.92,85.87L351.58,87.14L344.9,89.97L343.56,90.08L340.89,91.41L339.55,92.92L334.2,94.88L332.87,95.23L323.51,100.66L322.17,101.01L320.84,102.68L319.5,102.91L312.81,110.02L311.48,111.99L308.8,113.32L307.47,114.07L300.78,121.93L299.45,123.84L292.76,138.98L291.43,139.9L286.08,160.71L284.74,165.85L280.73,182.67L279.39,185.38L275.38,207.06L274.05,212.37L272.71,215.15L271.37,218.79L268.7,229.65L267.36,241.21L266.03,246.24L264.69,249.48L263.35,249.71L262.02,255.78L259.34,260.63L258.01,266.41L253.99,270.75L252.66,272.42L248.65,280.11L247.31,281.73L245.97,281.73L244.64,285.71L240.63,291.15L239.29,299.47L235.28,299.53L233.94,301.26L231.27,305.13L229.93,311.6L227.26,315.13L225.92,315.82L224.58,315.3L223.25,319.46L221.91,321.49L220.57,323.74L219.24,324.78L217.9,326.57L215.23,327.5L213.89,329.87L211.22,333.57L209.88,336.74L205.87,342.81L204.53,342.81L201.86,352.81L200.52,355.76L197.85,358.01L196.51,358.13L193.84,361.02L192.5,363.56L187.15,371.42L185.82,371.42L181.81,374.83L180.47,375.99L179.13,375.99L177.8,377.84L176.46,377.84L175.12,377.84L173.79,379.28L172.45,379.28L169.78,380.09L168.44,380.49L165.77,381.07L164.43,382.57L163.09,382.57L161.75,384.19L159.08,384.71L157.74,388.12L156.41,388.18L155.07,388.24L153.73,390.9L152.4,390.9L149.72,391.42L148.39,393.96L144.38,394.08L143.04,394.77L0,395Z" style="fill: rgb(255, 165, 0); fill-opacity: 1; stroke-width: 0;"/></g></g><g class="errorbars"/><g class="lines"><path class="js-line" d="M0,395L143.04,394.77L144.38,394.08L148.39,393.96L149.72,391.42L152.4,390.9L153.73,390.9L155.07,388.24L156.41,388.18L157.74,388.12L159.08,384.71L161.75,384.19L163.09,382.57L164.43,382.57L165.77,381.07L168.44,380.49L169.78,380.09L172.45,379.28L173.79,379.28L175.12,377.84L176.46,377.84L177.8,377.84L179.13,375.99L180.47,375.99L181.81,374.83L185.82,371.42L187.15,371.42L192.5,363.56L193.84,361.02L196.51,358.13L197.85,358.01L200.52,355.76L201.86,352.81L204.53,342.81L205.87,342.81L209.88,336.74L211.22,333.57L213.89,329.87L215.23,327.5L217.9,326.57L219.24,324.78L220.57,323.74L221.91,321.49L223.25,319.46L224.58,315.3L225.92,315.82L227.26,315.13L229.93,311.6L231.27,305.13L233.94,301.26L235.28,299.53L239.29,299.47L240.63,291.15L244.64,285.71L245.97,281.73L247.31,281.73L248.65,280.11L252.66,272.42L253.99,270.75L258.01,266.41L259.34,260.63L262.02,255.78L263.35,249.71L264.69,249.48L266.03,246.24L267.36,241.21L268.7,229.65L271.37,218.79L272.71,215.15L274.05,212.37L275.38,207.06L279.39,185.38L280.73,182.67L284.74,165.85L286.08,160.71L291.43,139.9L292.76,138.98L299.45,123.84L300.78,121.93L307.47,114.07L308.8,113.32L311.48,111.99L312.81,110.02L319.5,102.91L320.84,102.68L322.17,101.01L323.51,100.66L332.87,95.23L334.2,94.88L339.55,92.92L340.89,91.41L343.56,90.08L344.9,89.97L351.58,87.14L352.92,85.87L356.93,84.42L358.27,84.25L360.94,82.34L362.28,80.55L367.62,76.39L368.96,75L370.3,74.71L371.63,72.63L374.31,70.9L375.64,70.15L383.67,67.66L385,66.91L387.68,64.31L389.01,63.44L399.71,60.21L401.04,59.92L405.05,58.18L406.39,57.49L418.42,52.87L419.76,52.52L429.12,50.73L430.45,49.05L433.13,47.38L434.46,46.62L441.15,45.01L442.49,44.49L451.84,42.81L453.18,42.75L465.21,41.54L466.55,41.31L491.95,36.57L493.28,35.07L495.96,33.68L497.3,32.46L501.31,30.67L502.64,30.21L512,26.57" style="vector-effect: non-scaling-stroke; fill: none; stroke: rgb(0, 255, 0); stroke-opacity: 1; stroke-width: 2px; opacity: 1;"/></g><g class="points"/><g class="text"/></g><g class="trace scatter trace33da87" style="stroke-miterlimit: 2;"><g class="fills"/><g class="errorbars"/><g class="lines"><path class="js-line" d="M0,394.94L125.66,394.54L127,393.5L136.36,391.53L137.69,390.61L141.7,390.49L143.04,389.68L145.71,389.45L147.05,387.54L149.72,385.98L151.06,384.31L153.73,382.4L155.07,381.36L160.42,378.82L161.75,378.76L163.09,378.36L164.43,377.08L167.1,376.39L168.44,375.23L172.45,374.08L173.79,372.69L191.16,350.44L192.5,347.26L195.17,341.02L196.51,339.58L199.19,337.61L200.52,335.42L204.53,327.61L205.87,326.75L207.21,324.72L208.54,324.26L212.55,319.7L213.89,317.04L215.23,313.28L216.56,312.3L221.91,300.45L223.25,298.83L224.58,296.64L225.92,296L227.26,294.32L228.6,290.86L229.93,287.33L231.27,286.29L235.28,280.97L236.62,276.81L243.3,265.14L244.64,264.39L247.31,258.26L248.65,258.15L252.66,246.65L253.99,245.2L255.33,241.91L256.67,236.36L259.34,231.27L260.68,229.13L262.02,220.58L263.35,217.86L267.36,201.68L268.7,199.89L270.04,187.41L271.37,185.1L272.71,181.34L274.05,172.61L278.06,148.17L279.39,143.72L282.07,137.71L283.4,136.32L287.42,128.4L288.75,126.49L294.1,118.87L295.44,118.11L296.77,115.34L298.11,114.36L299.45,112.45L300.78,112.28L303.46,111.18L304.79,109.1L310.14,103.32L311.48,102.91L318.16,97.65L319.5,97.54L322.17,96.33L323.51,95.34L328.86,93.32L330.19,92.34L332.87,91.18L334.2,90.26L343.56,86.44L344.9,85.4L346.23,84.13L347.57,84.07L351.58,82.57L352.92,81.65L355.59,78.81L356.93,76.85L358.27,76.44L359.6,73.79L367.62,68.53L368.96,68.47L374.31,66.62L375.64,65.06L376.98,65L378.32,63.96L383.67,61.25L385,61.13L393.02,57.66L394.36,56.97L397.03,56.22L398.37,55.29L407.73,52.46L409.07,52.17L415.75,50.03L417.09,48.76L421.1,47.78L422.43,46.22L430.45,43.45L431.79,43.39L437.14,42.29L438.48,41.94L455.85,39.92L457.19,39.69L469.22,37.32L470.56,37.26L479.92,35.47L481.25,35.35L486.6,34.31L487.94,32.98L491.95,30.38L493.28,30.04L499.97,27.61L501.31,26.28L503.98,25.47L505.32,24.66L512,19.75" style="vector-effect: non-scaling-stroke; fill: none; stroke: rgb(255, 165, 0); stroke-opacity: 1; stroke-width: 2px; opacity: 1;"/></g><g class="points"/><g class="text"/></g></g></g><g class="overplot"/><path class="xlines-above crisp" d="M0,0" style="fill: none;"/><path class="ylines-above crisp" d="M0,0" style="fill: none;"/><g class="overlines-above"/><g class="xaxislayer-above"><g class="xtick"><text text-anchor="end" x="0" y="434" transform="translate(60,0) rotate(-45,0,427.5)" style="font-family: serif; font-size: 13px; fill: rgb(68, 68, 68); fill-opacity: 1; white-space: pre; opacity: 1;">Mar-22-20</text></g><g class="xtick"><text text-anchor="end" x="0" y="434" transform="translate(76.03999999999999,0) rotate(-45,0,427.5)" style="font-family: serif; font-size: 13px; fill: rgb(68, 68, 68); fill-opacity: 1; white-space: pre; opacity: 1;">Apr-03-20</text></g><g class="xtick"><text text-anchor="end" x="0" y="434" transform="translate(92.08,0) rotate(-45,0,427.5)" style="font-family: serif; font-size: 13px; fill: rgb(68, 68, 68); fill-opacity: 1; white-space: pre; opacity: 1;">Apr-15-20</text></g><g class="xtick"><text text-anchor="end" x="0" y="434" transform="translate(108.13,0) rotate(-45,0,427.5)" style="font-family: serif; font-size: 13px; fill: rgb(68, 68, 68); fill-opacity: 1; white-space: pre; opacity: 1;">Apr-27-20</text></g><g class="xtick"><text text-anchor="end" x="0" y="434" transform="translate(124.17,0) rotate(-45,0,427.5)" style="font-family: serif; font-size: 13px; fill: rgb(68, 68, 68); fill-opacity: 1; white-space: pre; opacity: 1;">May-09-20</text></g><g class="xtick"><text text-anchor="end" x="0" y="434" transform="translate(140.20999999999998,0) rotate(-45,0,427.5)" style="font-family: serif; font-size: 13px; fill: rgb(68, 68, 68); fill-opacity: 1; white-space: pre; opacity: 1;">May-21-20</text></g><g class="xtick"><text text-anchor="end" x="0" y="434" transform="translate(156.25,0) rotate(-45,0,427.5)" style="font-family: serif; font-size: 13px; fill: rgb(68, 68, 68); fill-opacity: 1; white-space: pre; opacity: 1;">Jun-02-20</text></g><g class="xtick"><text text-anchor="end" x="0" y="434" transform="translate(172.29000000000002,0) rotate(-45,0,427.5)" style="font-family: serif; font-size: 13px; fill: rgb(68, 68, 68); fill-opacity: 1; white-space: pre; opacity: 1;">Jun-14-20</text></g><g class="xtick"><text text-anchor="end" x="0" y="434" transform="translate(188.33,0) rotate(-45,0,427.5)" style="font-family: serif; font-size: 13px; fill: rgb(68, 68, 68); fill-opacity: 1; white-space: pre; opacity: 1;">Jun-26-20</text></g><g class="xtick"><text text-anchor="end" x="0" y="434" transform="translate(204.38,0) rotate(-45,0,427.5)" style="font-family: serif; font-size: 13px; fill: rgb(68, 68, 68); fill-opacity: 1; white-space: pre; opacity: 1;">Jul-08-20</text></g><g class="xtick"><text text-anchor="end" x="0" y="434" transform="translate(220.42,0) rotate(-45,0,427.5)" style="font-family: serif; font-size: 13px; fill: rgb(68, 68, 68); fill-opacity: 1; white-space: pre; opacity: 1;">Jul-20-20</text></g><g class="xtick"><text text-anchor="end" x="0" y="434" transform="translate(236.46,0) rotate(-45,0,427.5)" style="font-family: serif; font-size: 13px; fill: rgb(68, 68, 68); fill-opacity: 1; white-space: pre; opacity: 1;">Aug-01-20</text></g><g class="xtick"><text text-anchor="end" x="0" y="434" transform="translate(252.5,0) rotate(-45,0,427.5)" style="font-family: serif; font-size: 13px; fill: rgb(68, 68, 68); fill-opacity: 1; white-space: pre; opacity: 1;">Aug-13-20</text></g><g class="xtick"><text text-anchor="end" x="0" y="434" transform="translate(268.53999999999996,0) rotate(-45,0,427.5)" style="font-family: serif; font-size: 13px; fill: rgb(68, 68, 68); fill-opacity: 1; white-space: pre; opacity: 1;">Aug-25-20</text></g><g class="xtick"><text text-anchor="end" x="0" y="434" transform="translate(284.58000000000004,0) rotate(-45,0,427.5)" style="font-family: serif; font-size: 13px; fill: rgb(68, 68, 68); fill-opacity: 1; white-space: pre; opacity: 1;">Sep-06-20</text></g><g class="xtick"><text text-anchor="end" x="0" y="434" transform="translate(300.63,0) rotate(-45,0,427.5)" style="font-family: serif; font-size: 13px; fill: rgb(68, 68, 68); fill-opacity: 1; white-space: pre; opacity: 1;">Sep-18-20</text></g><g class="xtick"><text text-anchor="end" x="0" y="434" transform="translate(316.67,0) rotate(-45,0,427.5)" style="font-family: serif; font-size: 13px; fill: rgb(68, 68, 68); fill-opacity: 1; white-space: pre; opacity: 1;">Sep-30-20</text></g><g class="xtick"><text text-anchor="end" x="0" y="434" transform="translate(332.71,0) rotate(-45,0,427.5)" style="font-family: serif; font-size: 13px; fill: rgb(68, 68, 68); fill-opacity: 1; white-space: pre; opacity: 1;">Oct-12-20</text></g><g class="xtick"><text text-anchor="end" x="0" y="434" transform="translate(348.75,0) rotate(-45,0,427.5)" style="font-family: serif; font-size: 13px; fill: rgb(68, 68, 68); fill-opacity: 1; white-space: pre; opacity: 1;">Oct-24-20</text></g><g class="xtick"><text text-anchor="end" x="0" y="434" transform="translate(364.79,0) rotate(-45,0,427.5)" style="font-family: serif; font-size: 13px; fill: rgb(68, 68, 68); fill-opacity: 1; white-space: pre; opacity: 1;">Nov-05-20</text></g><g class="xtick"><text text-anchor="end" x="0" y="434" transform="translate(380.84,0) rotate(-45,0,427.5)" style="font-family: serif; font-size: 13px; fill: rgb(68, 68, 68); fill-opacity: 1; white-space: pre; opacity: 1;">Nov-17-20</text></g><g class="xtick"><text text-anchor="end" x="0" y="434" transform="translate(396.88,0) rotate(-45,0,427.5)" style="font-family: serif; font-size: 13px; fill: rgb(68, 68, 68); fill-opacity: 1; white-space: pre; opacity: 1;">Nov-29-20</text></g><g class="xtick"><text text-anchor="end" x="0" y="434" transform="translate(412.92,0) rotate(-45,0,427.5)" style="font-family: serif; font-size: 13px; fill: rgb(68, 68, 68); fill-opacity: 1; white-space: pre; opacity: 1;">Dec-11-20</text></g><g class="xtick"><text text-anchor="end" x="0" y="434" transform="translate(428.96,0) rotate(-45,0,427.5)" style="font-family: serif; font-size: 13px; fill: rgb(68, 68, 68); fill-opacity: 1; white-space: pre; opacity: 1;">Dec-23-20</text></g><g class="xtick"><text text-anchor="end" x="0" y="434" transform="translate(445,0) rotate(-45,0,427.5)" style="font-family: serif; font-size: 13px; fill: rgb(68, 68, 68); fill-opacity: 1; white-space: pre; opacity: 1;">Jan-04-21</text></g><g class="xtick"><text text-anchor="end" x="0" y="434" transform="translate(461.04,0) rotate(-45,0,427.5)" style="font-family: serif; font-size: 13px; fill: rgb(68, 68, 68); fill-opacity: 1; white-space: pre; opacity: 1;">Jan-16-21</text></g><g class="xtick"><text text-anchor="end" x="0" y="434" transform="translate(477.09,0) rotate(-45,0,427.5)" style="font-family: serif; font-size: 13px; fill: rgb(68, 68, 68); fill-opacity: 1; white-space: pre; opacity: 1;">Jan-28-21</text></g><g class="xtick"><text text-anchor="end" x="0" y="434" transform="translate(493.13,0) rotate(-45,0,427.5)" style="font-family: serif; font-size: 13px; fill: rgb(68, 68, 68); fill-opacity: 1; white-space: pre; opacity: 1;">Feb-09-21</text></g><g class="xtick"><text text-anchor="end" x="0" y="434" transform="translate(509.17,0) rotate(-45,0,427.5)" style="font-family: serif; font-size: 13px; fill: rgb(68, 68, 68); fill-opacity: 1; white-space: pre; opacity: 1;">Feb-21-21</text></g><g class="xtick"><text text-anchor="end" x="0" y="434" transform="translate(525.21,0) rotate(-45,0,427.5)" style="font-family: serif; font-size: 13px; fill: rgb(68, 68, 68); fill-opacity: 1; white-space: pre; opacity: 1;">Mar-05-21</text></g><g class="xtick"><text text-anchor="end" x="0" y="434" transform="translate(541.25,0) rotate(-45,0,427.5)" style="font-family: serif; font-size: 13px; fill: rgb(68, 68, 68); fill-opacity: 1; white-space: pre; opacity: 1;">Mar-17-21</text></g><g class="xtick"><text text-anchor="end" x="0" y="434" transform="translate(557.3,0) rotate(-45,0,427.5)" style="font-family: serif; font-size: 13px; fill: rgb(68, 68, 68); fill-opacity: 1; white-space: pre; opacity: 1;">Mar-29-21</text></g></g><g class="yaxislayer-above"><g class="ytick"><text text-anchor="end" x="59" y="4.199999999999999" transform="translate(0,420)" style="font-family: 'Open Sans', verdana, arial, sans-serif; font-size: 12px; fill: rgb(68, 68, 68); fill-opacity: 1; white-space: pre; opacity: 1;">0</text></g><g class="ytick"><text text-anchor="end" x="59" y="4.199999999999999" style="font-family: 'Open Sans', verdana, arial, sans-serif; font-size: 12px; fill: rgb(68, 68, 68); fill-opacity: 1; white-space: pre; opacity: 1;" transform="translate(0,362.21)">1000</text></g><g class="ytick"><text text-anchor="end" x="59" y="4.199999999999999" style="font-family: 'Open Sans', verdana, arial, sans-serif; font-size: 12px; fill: rgb(68, 68, 68); fill-opacity: 1; white-space: pre; opacity: 1;" transform="translate(0,304.41)">2000</text></g><g class="ytick"><text text-anchor="end" x="59" y="4.199999999999999" style="font-family: 'Open Sans', verdana, arial, sans-serif; font-size: 12px; fill: rgb(68, 68, 68); fill-opacity: 1; white-space: pre; opacity: 1;" transform="translate(0,246.62)">3000</text></g><g class="ytick"><text text-anchor="end" x="59" y="4.199999999999999" style="font-family: 'Open Sans', verdana, arial, sans-serif; font-size: 12px; fill: rgb(68, 68, 68); fill-opacity: 1; white-space: pre; opacity: 1;" transform="translate(0,188.83)">4000</text></g><g class="ytick"><text text-anchor="end" x="59" y="4.199999999999999" style="font-family: 'Open Sans', verdana, arial, sans-serif; font-size: 12px; fill: rgb(68, 68, 68); fill-opacity: 1; white-space: pre; opacity: 1;" transform="translate(0,131.03)">5000</text></g><g class="ytick"><text text-anchor="end" x="59" y="4.199999999999999" style="font-family: 'Open Sans', verdana, arial, sans-serif; font-size: 12px; fill: rgb(68, 68, 68); fill-opacity: 1; white-space: pre; opacity: 1;" transform="translate(0,73.24000000000001)">6000</text></g></g><g class="overaxes-above"/></g></g><g class="polarlayer"/><g class="smithlayer"/><g class="ternarylayer"/><g class="geolayer"/><g class="funnelarealayer"/><g class="pielayer"/><g class="iciclelayer"/><g class="treemaplayer"/><g class="sunburstlayer"/><g class="glimages"/><defs id="topdefs-24cd47"><g class="clips"/><clipPath id="legend24cd47"><rect width="108" height="67" x="0" y="0"/></clipPath></defs><g class="layer-above"><g class="imagelayer"/><g class="shapelayer"/></g><g class="infolayer"><g class="legend" pointer-events="all" transform="translate(582.24,25)"><rect class="bg" shape-rendering="crispEdges" style="stroke: rgb(68, 68, 68); stroke-opacity: 1; fill: rgb(255, 255, 255); fill-opacity: 1; stroke-width: 0px;" width="108" height="67" x="0" y="0"/><g class="scrollbox" transform="" clip-path="url(#legend24cd47)"><g class="groups"><g class="traces" transform="translate(0,14.5)" style="opacity: 1;"><text class="legendtext" text-anchor="start" x="40" y="4.680000000000001" style="font-family: 'Open Sans', verdana, arial, sans-serif; font-size: 12px; fill: rgb(68, 68, 68); fill-opacity: 1; white-space: pre;">Active</text><g class="layers"><g class="legendfill"><path class="js-fill" d="M5,-2h30v6h-30z" style="stroke-width: 0; fill: rgb(255, 165, 0); fill-opacity: 1;"/></g><g class="legendlines"><path class="js-line" d="M5,-2h30" style="fill: none; stroke: rgb(255, 165, 0); stroke-opacity: 1; stroke-width: 2px;"/></g><g class="legendsymbols"><g class="legendpoints"/></g></g><rect class="legendtoggle" x="0" y="-9.5" width="102.546875" height="19" style="fill: rgb(0, 0, 0); fill-opacity: 0;"/></g><g class="traces" transform="translate(0,33.5)" style="opacity: 1;"><text class="legendtext" text-anchor="start" x="40" y="4.680000000000001" style="font-family: 'Open Sans', verdana, arial, sans-serif; font-size: 12px; fill: rgb(68, 68, 68); fill-opacity: 1; white-space: pre;">Recovered</text><g class="layers"><g class="legendfill"><path class="js-fill" d="M5,-2h30v6h-30z" style="stroke-width: 0; fill: rgb(0, 255, 0); fill-opacity: 1;"/></g><g class="legendlines"><path class="js-line" d="M5,-2h30" style="fill: none; stroke: rgb(0, 255, 0); stroke-opacity: 1; stroke-width: 2px;"/></g><g class="legendsymbols"><g class="legendpoints"/></g></g><rect class="legendtoggle" x="0" y="-9.5" width="102.546875" height="19" style="fill: rgb(0, 0, 0); fill-opacity: 0;"/></g><g class="traces" transform="translate(0,52.5)" style="opacity: 1;"><text class="legendtext" text-anchor="start" x="40" y="4.680000000000001" style="font-family: 'Open Sans', verdana, arial, sans-serif; font-size: 12px; fill: rgb(68, 68, 68); fill-opacity: 1; white-space: pre;">Deceased</text><g class="layers"><g class="legendfill"><path class="js-fill" d="M5,-2h30v6h-30z" style="stroke-width: 0; fill: rgb(139, 0, 0); fill-opacity: 1;"/></g><g class="legendlines"><path class="js-line" d="M5,-2h30" style="fill: none; stroke: rgb(139, 0, 0); stroke-opacity: 1; stroke-width: 2px;"/></g><g class="legendsymbols"><g class="legendpoints"/></g></g><rect class="legendtoggle" x="0" y="-9.5" width="102.546875" height="19" style="fill: rgb(0, 0, 0); fill-opacity: 0;"/></g></g></g><rect class="scrollbar" rx="20" ry="3" width="0" height="0" style="fill: rgb(128, 139, 164); fill-opacity: 1;" x="0" y="0"/></g><g class="g-gtitle"><text class="gtitle" x="350" y="12.5" text-anchor="middle" dy="0em" style="font-family: serif; font-size: 18px; fill: rgb(68, 68, 68); opacity: 1; font-weight: normal; white-space: pre;">Kodagu</text></g><g class="g-xtitle" transform="translate(0,19.2626953125)"><text class="xtitle" x="316" y="472" text-anchor="middle" style="font-family: 'Open Sans', verdana, arial, sans-serif; font-size: 14px; fill: rgb(68, 68, 68); opacity: 1; font-weight: normal; white-space: pre;">Date</text></g><g class="g-ytitle" transform="translate(2,0)"><text class="ytitle" transform="rotate(-90,14,222.5)" x="14" y="222.5" text-anchor="middle" style="font-family: serif; font-size: 18px; fill: rgb(0, 0, 0); opacity: 1; font-weight: normal; white-space: pre;">Number of Cases</text></g></g></svg>