<svg class="main-svg" xmlns="http://www.w3.org/2000/svg" xmlns:xlink="http://www.w3.org/1999/xlink" width="700" height="500" style="" viewBox="0 0 700 500"><rect x="0" y="0" width="700" height="500" style="fill: rgb(255, 255, 255); fill-opacity: 1;"/><defs id="defs-8f7d5d"><g class="clips"><clipPath id="clip8f7d5dxyplot" class="plotclip"><rect width="512" height="395"/></clipPath><clipPath class="axesclip" id="clip8f7d5dx"><rect x="60" y="0" width="512" height="500"/></clipPath><clipPath class="axesclip" id="clip8f7d5dy"><rect x="0" y="25" width="700" height="395"/></clipPath><clipPath class="axesclip" id="clip8f7d5dxy"><rect x="60" y="25" width="512" height="395"/></clipPath></g><g class="gradients"/><g class="patterns"/></defs><g class="bglayer"/><g class="layer-below"><g class="imagelayer"/><g class="shapelayer"/></g><g class="cartesianlayer"><g class="subplot xy"><g class="layer-subplot"><g class="shapelayer"/><g class="imagelayer"/></g><g class="gridlayer"><g class="x"><path class="xgrid crisp" transform="translate(76.03999999999999,0)" d="M0,25v395" style="stroke: rgb(238, 238, 238); stroke-opacity: 1; stroke-width: 1px;"/><path class="xgrid crisp" transform="translate(92.08,0)" d="M0,25v395" style="stroke: rgb(238, 238, 238); stroke-opacity: 1; stroke-width: 1px;"/><path class="xgrid crisp" transform="translate(108.13,0)" d="M0,25v395" style="stroke: rgb(238, 238, 238); stroke-opacity: 1; stroke-width: 1px;"/><path class="xgrid crisp" transform="translate(124.17,0)" d="M0,25v395" style="stroke: rgb(238, 238, 238); stroke-opacity: 1; stroke-width: 1px;"/><path class="xgrid crisp" transform="translate(140.20999999999998,0)" d="M0,25v395" style="stroke: rgb(238, 238, 238); stroke-opacity: 1; stroke-width: 1px;"/><path class="xgrid crisp" transform="translate(156.25,0)" d="M0,25v395" style="stroke: rgb(238, 238, 238); stroke-opacity: 1; stroke-width: 1px;"/><path class="xgrid crisp" transform="translate(172.29000000000002,0)" d="M0,25v395" style="stroke: rgb(238, 238, 238); stroke-opacity: 1; stroke-width: 1px;"/><path class="xgrid crisp" transform="translate(188.33,0)" d="M0,25v395" style="stroke: rgb(238, 238, 238); stroke-opacity: 1; stroke-width: 1px;"/><path class="xgrid crisp" transform="translate(204.38,0)" d="M0,25v395" style="stroke: rgb(238, 238, 238); stroke-opacity: 1; stroke-width: 1px;"/><path class="xgrid crisp" transform="translate(220.42,0)" d="M0,25v395" style="stroke: rgb(238, 238, 238); stroke-opacity: 1; stroke-width: 1px;"/><path class="xgrid crisp" transform="translate(236.46,0)" d="M0,25v395" style="stroke: rgb(238, 238, 238); stroke-opacity: 1; stroke-width: 1px;"/><path class="xgrid crisp" transform="translate(252.5,0)" d="M0,25v395" style="stroke: rgb(238, 238, 238); stroke-opacity: 1; stroke-width: 1px;"/><path class="xgrid crisp" transform="translate(268.53999999999996,0)" d="M0,25v395" style="stroke: rgb(238, 238, 238); stroke-opacity: 1; stroke-width: 1px;"/><path class="xgrid crisp" transform="translate(284.58000000000004,0)" d="M0,25v395" style="stroke: rgb(238, 238, 238); stroke-opacity: 1; stroke-width: 1px;"/><path class="xgrid crisp" transform="translate(300.63,0)" d="M0,25v395" style="stroke: rgb(238, 238, 238); stroke-opacity: 1; stroke-width: 1px;"/><path class="xgrid crisp" transform="translate(316.67,0)" d="M0,25v395" style="stroke: rgb(238, 238, 238); stroke-opacity: 1; stroke-width: 1px;"/><path class="xgrid crisp" transform="translate(332.71,0)" d="M0,25v395" style="stroke: rgb(238, 238, 238); stroke-opacity: 1; stroke-width: 1px;"/><path class="xgrid crisp" transform="translate(348.75,0)" d="M0,25v395" style="stroke: rgb(238, 238, 238); stroke-opacity: 1; stroke-width: 1px;"/><path class="xgrid crisp" transform="translate(364.79,0)" d="M0,25v395" style="stroke: rgb(238, 238, 238); stroke-opacity: 1; stroke-width: 1px;"/><path class="xgrid crisp" transform="translate(380.84,0)" d="M0,25v395" style="stroke: rgb(238, 238, 238); stroke-opacity: 1; stroke-width: 1px;"/><path class="xgrid crisp" transform="translate(396.88,0)" d="M0,25v395" style="stroke: rgb(238, 238, 238); stroke-opacity: 1; stroke-width: 1px;"/><path class="xgrid crisp" transform="translate(412.92,0)" d="M0,25v395" style="stroke: rgb(238, 238, 238); stroke-opacity: 1; stroke-width: 1px;"/><path class="xgrid crisp" transform="translate(428.96,0)" d="M0,25v395" style="stroke: rgb(238, 238, 238); stroke-opacity: 1; stroke-width: 1px;"/><path class="xgrid crisp" transform="translate(445,0)" d="M0,25v395" style="stroke: rgb(238, 238, 238); stroke-opacity: 1; stroke-width: 1px;"/><path class="xgrid crisp" transform="translate(461.04,0)" d="M0,25v395" style="stroke: rgb(238, 238, 238); stroke-opacity: 1; stroke-width: 1px;"/><path class="xgrid crisp" transform="translate(477.09,0)" d="M0,25v395" style="stroke: rgb(238, 238, 238); stroke-opacity: 1; stroke-width: 1px;"/><path class="xgrid crisp" transform="translate(493.13,0)" d="M0,25v395" style="stroke: rgb(238, 238, 238); stroke-opacity: 1; stroke-width: 1px;"/><path class="xgrid crisp" transform="translate(509.17,0)" d="M0,25v395" style="stroke: rgb(238, 238, 238); stroke-opacity: 1; stroke-width: 1px;"/><path class="xgrid crisp" transform="translate(525.21,0)" d="M0,25v395" style="stroke: rgb(238, 238, 238); stroke-opacity: 1; stroke-width: 1px;"/><path class="xgrid crisp" transform="translate(541.25,0)" d="M0,25v395" style="stroke: rgb(238, 238, 238); stroke-opacity: 1; stroke-width: 1px;"/><path class="xgrid crisp" transform="translate(557.3,0)" d="M0,25v395" style="stroke: rgb(238, 238, 238); stroke-opacity: 1; stroke-width: 1px;"/></g><g class="y"><path class="ygrid crisp" transform="translate(0,351.8)" d="M60,0h512" style="stroke: rgb(238, 238, 238); stroke-opacity: 1; stroke-width: 1px;"/><path class="ygrid crisp" transform="translate(0,283.6)" d="M60,0h512" style="stroke: rgb(238, 238, 238); stroke-opacity: 1; stroke-width: 1px;"/><path class="ygrid crisp" transform="translate(0,215.39)" d="M60,0h512" style="stroke: rgb(238, 238, 238); stroke-opacity: 1; stroke-width: 1px;"/><path class="ygrid crisp" transform="translate(0,147.19)" d="M60,0h512" style="stroke: rgb(238, 238, 238); stroke-opacity: 1; stroke-width: 1px;"/><path class="ygrid crisp" transform="translate(0,78.99000000000001)" d="M60,0h512" style="stroke: rgb(238, 238, 238); stroke-opacity: 1; stroke-width: 1px;"/></g></g><g class="zerolinelayer"><path class="yzl zl crisp" transform="translate(0,420)" d="M60,0h512" style="stroke: rgb(68, 68, 68); stroke-opacity: 1; stroke-width: 1px;"/></g><path class="xlines-below"/><path class="ylines-below"/><g class="overlines-below"/><g class="xaxislayer-below"/><g class="yaxislayer-below"/><g class="overaxes-below"/><g class="plot" transform="translate(60,25)" clip-path="url(#clip8f7d5dxyplot)"><g class="scatterlayer mlayer"><g class="trace scatter tracec29a22" style="stroke-miterlimit: 2;"><g class="fills"><g><path class="js-fill" d="M512,395L0,395L0,395L169.78,394.25L171.11,394.22L189.83,393.5L191.16,393.43L227.26,392.68L228.6,392.65L248.65,392.34L249.98,392.31L272.71,390.94L274.05,390.84L310.14,389.48L311.48,389.48L347.57,389.1L348.91,389.1L512,388.79" style="fill: rgb(139, 0, 0); fill-opacity: 1; stroke-width: 0;"/></g><g><path class="js-fill" d="M0,395L105.61,394.39L106.95,394.11L129.67,393.4L131.01,393.19L140.37,392.48L141.7,392.14L156.41,390.19L157.74,390.19L159.08,390.02L160.42,388.25L163.09,387.74L164.43,386.03L165.77,384.77L167.1,382.38L172.45,382.01L173.79,378.87L175.12,377.44L176.46,377.44L177.8,375.43L179.13,375.43L180.47,374.13L181.81,368.88L184.48,364.65L185.82,364.34L187.15,364.07L188.49,362.77L189.83,361.89L191.16,360.08L193.84,358.03L195.17,355.37L201.86,328.95L203.2,325.98L205.87,321.2L207.21,317.04L209.88,308.93L211.22,308.25L212.55,308.11L213.89,305.38L217.9,299.65L219.24,297.16L221.91,291.88L223.25,286.05L224.58,284.51L225.92,280.86L229.93,274.96L231.27,272.88L240.63,256.07L241.96,252.76L247.31,244.61L248.65,244.61L251.32,243.73L252.66,242.67L253.99,241.17L255.33,237.59L259.34,230.63L260.68,229.78L264.69,219.75L266.03,219.58L267.36,216.82L268.7,211.54L279.39,175.66L280.73,172.05L288.75,144.53L290.09,142.68L292.76,138.8L294.1,135.11L296.77,129.45L298.11,127.71L299.45,126.08L300.78,122.53L303.46,116.02L304.79,114.72L310.14,110.94L311.48,109.06L314.15,106.03L315.49,102.21L322.17,95.52L323.51,94.84L326.18,93.89L327.52,93.2L330.19,92.08L331.53,91.98L334.2,89.69L335.54,88.87L339.55,86.86L340.89,85.94L344.9,83.59L346.23,83.21L351.58,80.31L352.92,79.63L359.6,75.64L360.94,74.93L368.96,70.83L370.3,70.36L376.98,68.79L378.32,68.48L383.67,66.71L385,65.82L410.4,57.23L411.74,57.09L447.83,52.59L449.17,52.35L483.93,48.09L485.26,47.64L493.28,45.36L494.62,44.88L497.3,44.03L498.63,43.04L507.99,35.37L509.33,33.15L510.66,32.16L512,30.22L512,388.79L348.91,389.1L347.57,389.1L311.48,389.48L310.14,389.48L274.05,390.84L272.71,390.94L249.98,392.31L248.65,392.34L228.6,392.65L227.26,392.68L191.16,393.43L189.83,393.5L171.11,394.22L169.78,394.25L0,395Z" style="fill: rgb(0, 255, 0); fill-opacity: 1; stroke-width: 0;"/></g></g><g class="errorbars"/><g class="lines"><path class="js-line" d="M0,395L169.78,394.25L171.11,394.22L189.83,393.5L191.16,393.43L227.26,392.68L228.6,392.65L248.65,392.34L249.98,392.31L272.71,390.94L274.05,390.84L310.14,389.48L311.48,389.48L347.57,389.1L348.91,389.1L512,388.79" style="vector-effect: non-scaling-stroke; fill: none; stroke: rgb(139, 0, 0); stroke-opacity: 1; stroke-width: 2px; opacity: 1;"/></g><g class="points"/><g class="text"/></g><g class="trace scatter trace390bf2" style="stroke-miterlimit: 2;"><g class="fills"><g><path class="js-fill" d="M0,395L92.24,394.25L93.58,394.22L122.99,392.75L124.32,392.48L139.03,389.51L140.37,389.07L144.38,387.98L145.71,386.82L149.72,385.28L151.06,384.57L153.73,383.68L155.07,382.21L157.74,379.28L159.08,378.43L160.42,377.03L161.75,373.52L164.43,369.15L165.77,367.92L168.44,363.93L169.78,359.09L171.11,353.16L172.45,352L177.8,346.75L179.13,345.38L181.81,342.14L183.14,338.49L189.83,324.82L191.16,323.69L196.51,313.36L197.85,309.24L204.53,297.47L205.87,295.87L208.54,292.73L209.88,289.73L212.55,283.52L213.89,281.78L221.91,265.48L223.25,261.66L224.58,257.61L225.92,256.72L227.26,255.7L228.6,252.39L231.27,246.46L232.61,244.65L237.95,234.42L239.29,230.5L241.96,225.24L243.3,221.66L249.98,213.55L251.32,207.92L253.99,200.59L255.33,198.13L258.01,193.67L259.34,192.68L260.68,192L262.02,186.37L271.37,150.8L272.71,148.79L278.06,137.06L279.39,134.4L282.07,130.58L283.4,129.59L299.45,108.99L300.78,108.45L304.79,101.05L306.13,99.41L308.8,98.05L310.14,96.27L318.16,91.7L319.5,91.4L322.17,90.37L323.51,89.69L327.52,87.85L328.86,86.66L334.2,84.2L335.54,84.1L339.55,82.43L340.89,81.41L344.9,78.71L346.23,78.34L351.58,75.4L352.92,74.76L356.93,73.08L358.27,72.2L364.95,68.99L366.29,67.94L370.3,66.43L371.63,66.33L375.64,65.51L376.98,64.46L386.34,62.17L387.68,61.35L390.35,60.19L391.69,58.42L397.03,57.36L398.37,57.16L413.08,54.77L414.41,54.7L473.23,48.74L474.57,47.71L479.92,46.69L481.25,45.91L491.95,41.57L493.28,40.04L497.3,37.48L498.63,36.77L501.31,35.03L502.64,32.5L505.32,30.56L506.65,27.76L510.66,22.61L512,19.75L512,30.22L510.66,32.16L509.33,33.15L507.99,35.37L498.63,43.04L497.3,44.03L494.62,44.88L493.28,45.36L485.26,47.64L483.93,48.09L449.17,52.35L447.83,52.59L411.74,57.09L410.4,57.23L385,65.82L383.67,66.71L378.32,68.48L376.98,68.79L370.3,70.36L368.96,70.83L360.94,74.93L359.6,75.64L352.92,79.63L351.58,80.31L346.23,83.21L344.9,83.59L340.89,85.94L339.55,86.86L335.54,88.87L334.2,89.69L331.53,91.98L330.19,92.08L327.52,93.2L326.18,93.89L323.51,94.84L322.17,95.52L315.49,102.21L314.15,106.03L311.48,109.06L310.14,110.94L304.79,114.72L303.46,116.02L300.78,122.53L299.45,126.08L298.11,127.71L296.77,129.45L294.1,135.11L292.76,138.8L290.09,142.68L288.75,144.53L280.73,172.05L279.39,175.66L268.7,211.54L267.36,216.82L266.03,219.58L264.69,219.75L260.68,229.78L259.34,230.63L255.33,237.59L253.99,241.17L252.66,242.67L251.32,243.73L248.65,244.61L247.31,244.61L241.96,252.76L240.63,256.07L231.27,272.88L229.93,274.96L225.92,280.86L224.58,284.51L223.25,286.05L221.91,291.88L219.24,297.16L217.9,299.65L213.89,305.38L212.55,308.11L211.22,308.25L209.88,308.93L207.21,317.04L205.87,321.2L203.2,325.98L201.86,328.95L195.17,355.37L193.84,358.03L191.16,360.08L189.83,361.89L188.49,362.77L187.15,364.07L185.82,364.34L184.48,364.65L181.81,368.88L180.47,374.13L179.13,375.43L177.8,375.43L176.46,377.44L175.12,377.44L173.79,378.87L172.45,382.01L167.1,382.38L165.77,384.77L164.43,386.03L163.09,387.74L160.42,388.25L159.08,390.02L157.74,390.19L156.41,390.19L141.7,392.14L140.37,392.48L131.01,393.19L129.67,393.4L106.95,394.11L105.61,394.39L0,395Z" style="fill: rgb(255, 165, 0); fill-opacity: 1; stroke-width: 0;"/></g></g><g class="errorbars"/><g class="lines"><path class="js-line" d="M0,395L105.61,394.39L106.95,394.11L129.67,393.4L131.01,393.19L140.37,392.48L141.7,392.14L156.41,390.19L157.74,390.19L159.08,390.02L160.42,388.25L163.09,387.74L164.43,386.03L165.77,384.77L167.1,382.38L172.45,382.01L173.79,378.87L175.12,377.44L176.46,377.44L177.8,375.43L179.13,375.43L180.47,374.13L181.81,368.88L184.48,364.65L185.82,364.34L187.15,364.07L188.49,362.77L189.83,361.89L191.16,360.08L193.84,358.03L195.17,355.37L201.86,328.95L203.2,325.98L205.87,321.2L207.21,317.04L209.88,308.93L211.22,308.25L212.55,308.11L213.89,305.38L217.9,299.65L219.24,297.16L221.91,291.88L223.25,286.05L224.58,284.51L225.92,280.86L229.93,274.96L231.27,272.88L240.63,256.07L241.96,252.76L247.31,244.61L248.65,244.61L251.32,243.73L252.66,242.67L253.99,241.17L255.33,237.59L259.34,230.63L260.68,229.78L264.69,219.75L266.03,219.58L267.36,216.82L268.7,211.54L279.39,175.66L280.73,172.05L288.75,144.53L290.09,142.68L292.76,138.8L294.1,135.11L296.77,129.45L298.11,127.71L299.45,126.08L300.78,122.53L303.46,116.02L304.79,114.72L310.14,110.94L311.48,109.06L314.15,106.03L315.49,102.21L322.17,95.52L323.51,94.84L326.18,93.89L327.52,93.2L330.19,92.08L331.53,91.98L334.2,89.69L335.54,88.87L339.55,86.86L340.89,85.94L344.9,83.59L346.23,83.21L351.58,80.31L352.92,79.63L359.6,75.64L360.94,74.93L368.96,70.83L370.3,70.36L376.98,68.79L378.32,68.48L383.67,66.71L385,65.82L410.4,57.23L411.74,57.09L447.83,52.59L449.17,52.35L483.93,48.09L485.26,47.64L493.28,45.36L494.62,44.88L497.3,44.03L498.63,43.04L507.99,35.37L509.33,33.15L510.66,32.16L512,30.22" style="vector-effect: non-scaling-stroke; fill: none; stroke: rgb(0, 255, 0); stroke-opacity: 1; stroke-width: 2px; opacity: 1;"/></g><g class="points"/><g class="text"/></g><g class="trace scatter trace94bdf6" style="stroke-miterlimit: 2;"><g class="fills"/><g class="errorbars"/><g class="lines"><path class="js-line" d="M0,395L92.24,394.25L93.58,394.22L122.99,392.75L124.32,392.48L139.03,389.51L140.37,389.07L144.38,387.98L145.71,386.82L149.72,385.28L151.06,384.57L153.73,383.68L155.07,382.21L157.74,379.28L159.08,378.43L160.42,377.03L161.75,373.52L164.43,369.15L165.77,367.92L168.44,363.93L169.78,359.09L171.11,353.16L172.45,352L177.8,346.75L179.13,345.38L181.81,342.14L183.14,338.49L189.83,324.82L191.16,323.69L196.51,313.36L197.85,309.24L204.53,297.47L205.87,295.87L208.54,292.73L209.88,289.73L212.55,283.52L213.89,281.78L221.91,265.48L223.25,261.66L224.58,257.61L225.92,256.72L227.26,255.7L228.6,252.39L231.27,246.46L232.61,244.65L237.95,234.42L239.29,230.5L241.96,225.24L243.3,221.66L249.98,213.55L251.32,207.92L253.99,200.59L255.33,198.13L258.01,193.67L259.34,192.68L260.68,192L262.02,186.37L271.37,150.8L272.71,148.79L278.06,137.06L279.39,134.4L282.07,130.58L283.4,129.59L299.45,108.99L300.78,108.45L304.79,101.05L306.13,99.41L308.8,98.05L310.14,96.27L318.16,91.7L319.5,91.4L322.17,90.37L323.51,89.69L327.52,87.85L328.86,86.66L334.2,84.2L335.54,84.1L339.55,82.43L340.89,81.41L344.9,78.71L346.23,78.34L351.58,75.4L352.92,74.76L356.93,73.08L358.27,72.2L364.95,68.99L366.29,67.94L370.3,66.43L371.63,66.33L375.64,65.51L376.98,64.46L386.34,62.17L387.68,61.35L390.35,60.19L391.69,58.42L397.03,57.36L398.37,57.16L413.08,54.77L414.41,54.7L473.23,48.74L474.57,47.71L479.92,46.69L481.25,45.91L491.95,41.57L493.28,40.04L497.3,37.48L498.63,36.77L501.31,35.03L502.64,32.5L505.32,30.56L506.65,27.76L510.66,22.61L512,19.75" style="vector-effect: non-scaling-stroke; fill: none; stroke: rgb(255, 165, 0); stroke-opacity: 1; stroke-width: 2px; opacity: 1;"/></g><g class="points"/><g class="text"/></g></g></g><g class="overplot"/><path class="xlines-above crisp" d="M0,0" style="fill: none;"/><path class="ylines-above crisp" d="M0,0" style="fill: none;"/><g class="overlines-above"/><g class="xaxislayer-above"><g class="xtick"><text text-anchor="end" x="0" y="434" transform="translate(60,0) rotate(-45,0,427.5)" style="font-family: serif; font-size: 13px; fill: rgb(68, 68, 68); fill-opacity: 1; white-space: pre; opacity: 1;">Mar-22-20</text></g><g class="xtick"><text text-anchor="end" x="0" y="434" transform="translate(76.03999999999999,0) rotate(-45,0,427.5)" style="font-family: serif; font-size: 13px; fill: rgb(68, 68, 68); fill-opacity: 1; white-space: pre; opacity: 1;">Apr-03-20</text></g><g class="xtick"><text text-anchor="end" x="0" y="434" transform="translate(92.08,0) rotate(-45,0,427.5)" style="font-family: serif; font-size: 13px; fill: rgb(68, 68, 68); fill-opacity: 1; white-space: pre; opacity: 1;">Apr-15-20</text></g><g class="xtick"><text text-anchor="end" x="0" y="434" transform="translate(108.13,0) rotate(-45,0,427.5)" style="font-family: serif; font-size: 13px; fill: rgb(68, 68, 68); fill-opacity: 1; white-space: pre; opacity: 1;">Apr-27-20</text></g><g class="xtick"><text text-anchor="end" x="0" y="434" transform="translate(124.17,0) rotate(-45,0,427.5)" style="font-family: serif; font-size: 13px; fill: rgb(68, 68, 68); fill-opacity: 1; white-space: pre; opacity: 1;">May-09-20</text></g><g class="xtick"><text text-anchor="end" x="0" y="434" transform="translate(140.20999999999998,0) rotate(-45,0,427.5)" style="font-family: serif; font-size: 13px; fill: rgb(68, 68, 68); fill-opacity: 1; white-space: pre; opacity: 1;">May-21-20</text></g><g class="xtick"><text text-anchor="end" x="0" y="434" transform="translate(156.25,0) rotate(-45,0,427.5)" style="font-family: serif; font-size: 13px; fill: rgb(68, 68, 68); fill-opacity: 1; white-space: pre; opacity: 1;">Jun-02-20</text></g><g class="xtick"><text text-anchor="end" x="0" y="434" transform="translate(172.29000000000002,0) rotate(-45,0,427.5)" style="font-family: serif; font-size: 13px; fill: rgb(68, 68, 68); fill-opacity: 1; white-space: pre; opacity: 1;">Jun-14-20</text></g><g class="xtick"><text text-anchor="end" x="0" y="434" transform="translate(188.33,0) rotate(-45,0,427.5)" style="font-family: serif; font-size: 13px; fill: rgb(68, 68, 68); fill-opacity: 1; white-space: pre; opacity: 1;">Jun-26-20</text></g><g class="xtick"><text text-anchor="end" x="0" y="434" transform="translate(204.38,0) rotate(-45,0,427.5)" style="font-family: serif; font-size: 13px; fill: rgb(68, 68, 68); fill-opacity: 1; white-space: pre; opacity: 1;">Jul-08-20</text></g><g class="xtick"><text text-anchor="end" x="0" y="434" transform="translate(220.42,0) rotate(-45,0,427.5)" style="font-family: serif; font-size: 13px; fill: rgb(68, 68, 68); fill-opacity: 1; white-space: pre; opacity: 1;">Jul-20-20</text></g><g class="xtick"><text text-anchor="end" x="0" y="434" transform="translate(236.46,0) rotate(-45,0,427.5)" style="font-family: serif; font-size: 13px; fill: rgb(68, 68, 68); fill-opacity: 1; white-space: pre; opacity: 1;">Aug-01-20</text></g><g class="xtick"><text text-anchor="end" x="0" y="434" transform="translate(252.5,0) rotate(-45,0,427.5)" style="font-family: serif; font-size: 13px; fill: rgb(68, 68, 68); fill-opacity: 1; white-space: pre; opacity: 1;">Aug-13-20</text></g><g class="xtick"><text text-anchor="end" x="0" y="434" transform="translate(268.53999999999996,0) rotate(-45,0,427.5)" style="font-family: serif; font-size: 13px; fill: rgb(68, 68, 68); fill-opacity: 1; white-space: pre; opacity: 1;">Aug-25-20</text></g><g class="xtick"><text text-anchor="end" x="0" y="434" transform="translate(284.58000000000004,0) rotate(-45,0,427.5)" style="font-family: serif; font-size: 13px; fill: rgb(68, 68, 68); fill-opacity: 1; white-space: pre; opacity: 1;">Sep-06-20</text></g><g class="xtick"><text text-anchor="end" x="0" y="434" transform="translate(300.63,0) rotate(-45,0,427.5)" style="font-family: serif; font-size: 13px; fill: rgb(68, 68, 68); fill-opacity: 1; white-space: pre; opacity: 1;">Sep-18-20</text></g><g class="xtick"><text text-anchor="end" x="0" y="434" transform="translate(316.67,0) rotate(-45,0,427.5)" style="font-family: serif; font-size: 13px; fill: rgb(68, 68, 68); fill-opacity: 1; white-space: pre; opacity: 1;">Sep-30-20</text></g><g class="xtick"><text text-anchor="end" x="0" y="434" transform="translate(332.71,0) rotate(-45,0,427.5)" style="font-family: serif; font-size: 13px; fill: rgb(68, 68, 68); fill-opacity: 1; white-space: pre; opacity: 1;">Oct-12-20</text></g><g class="xtick"><text text-anchor="end" x="0" y="434" transform="translate(348.75,0) rotate(-45,0,427.5)" style="font-family: serif; font-size: 13px; fill: rgb(68, 68, 68); fill-opacity: 1; white-space: pre; opacity: 1;">Oct-24-20</text></g><g class="xtick"><text text-anchor="end" x="0" y="434" transform="translate(364.79,0) rotate(-45,0,427.5)" style="font-family: serif; font-size: 13px; fill: rgb(68, 68, 68); fill-opacity: 1; white-space: pre; opacity: 1;">Nov-05-20</text></g><g class="xtick"><text text-anchor="end" x="0" y="434" transform="translate(380.84,0) rotate(-45,0,427.5)" style="font-family: serif; font-size: 13px; fill: rgb(68, 68, 68); fill-opacity: 1; white-space: pre; opacity: 1;">Nov-17-20</text></g><g class="xtick"><text text-anchor="end" x="0" y="434" transform="translate(396.88,0) rotate(-45,0,427.5)" style="font-family: serif; font-size: 13px; fill: rgb(68, 68, 68); fill-opacity: 1; white-space: pre; opacity: 1;">Nov-29-20</text></g><g class="xtick"><text text-anchor="end" x="0" y="434" transform="translate(412.92,0) rotate(-45,0,427.5)" style="font-family: serif; font-size: 13px; fill: rgb(68, 68, 68); fill-opacity: 1; white-space: pre; opacity: 1;">Dec-11-20</text></g><g class="xtick"><text text-anchor="end" x="0" y="434" transform="translate(428.96,0) rotate(-45,0,427.5)" style="font-family: serif; font-size: 13px; fill: rgb(68, 68, 68); fill-opacity: 1; white-space: pre; opacity: 1;">Dec-23-20</text></g><g class="xtick"><text text-anchor="end" x="0" y="434" transform="translate(445,0) rotate(-45,0,427.5)" style="font-family: serif; font-size: 13px; fill: rgb(68, 68, 68); fill-opacity: 1; white-space: pre; opacity: 1;">Jan-04-21</text></g><g class="xtick"><text text-anchor="end" x="0" y="434" transform="translate(461.04,0) rotate(-45,0,427.5)" style="font-family: serif; font-size: 13px; fill: rgb(68, 68, 68); fill-opacity: 1; white-space: pre; opacity: 1;">Jan-16-21</text></g><g class="xtick"><text text-anchor="end" x="0" y="434" transform="translate(477.09,0) rotate(-45,0,427.5)" style="font-family: serif; font-size: 13px; fill: rgb(68, 68, 68); fill-opacity: 1; white-space: pre; opacity: 1;">Jan-28-21</text></g><g class="xtick"><text text-anchor="end" x="0" y="434" transform="translate(493.13,0) rotate(-45,0,427.5)" style="font-family: serif; font-size: 13px; fill: rgb(68, 68, 68); fill-opacity: 1; white-space: pre; opacity: 1;">Feb-09-21</text></g><g class="xtick"><text text-anchor="end" x="0" y="434" transform="translate(509.17,0) rotate(-45,0,427.5)" style="font-family: serif; font-size: 13px; fill: rgb(68, 68, 68); fill-opacity: 1; white-space: pre; opacity: 1;">Feb-21-21</text></g><g class="xtick"><text text-anchor="end" x="0" y="434" transform="translate(525.21,0) rotate(-45,0,427.5)" style="font-family: serif; font-size: 13px; fill: rgb(68, 68, 68); fill-opacity: 1; white-space: pre; opacity: 1;">Mar-05-21</text></g><g class="xtick"><text text-anchor="end" x="0" y="434" transform="translate(541.25,0) rotate(-45,0,427.5)" style="font-family: serif; font-size: 13px; fill: rgb(68, 68, 68); fill-opacity: 1; white-space: pre; opacity: 1;">Mar-17-21</text></g><g class="xtick"><text text-anchor="end" x="0" y="434" transform="translate(557.3,0) rotate(-45,0,427.5)" style="font-family: serif; font-size: 13px; fill: rgb(68, 68, 68); fill-opacity: 1; white-space: pre; opacity: 1;">Mar-29-21</text></g></g><g class="yaxislayer-above"><g class="ytick"><text text-anchor="end" x="59" y="4.199999999999999" transform="translate(0,420)" style="font-family: 'Open Sans', verdana, arial, sans-serif; font-size: 12px; fill: rgb(68, 68, 68); fill-opacity: 1; white-space: pre; opacity: 1;">0</text></g><g class="ytick"><text text-anchor="end" x="59" y="4.199999999999999" style="font-family: 'Open Sans', verdana, arial, sans-serif; font-size: 12px; fill: rgb(68, 68, 68); fill-opacity: 1; white-space: pre; opacity: 1;" transform="translate(0,351.8)">2k</text></g><g class="ytick"><text text-anchor="end" x="59" y="4.199999999999999" style="font-family: 'Open Sans', verdana, arial, sans-serif; font-size: 12px; fill: rgb(68, 68, 68); fill-opacity: 1; white-space: pre; opacity: 1;" transform="translate(0,283.6)">4k</text></g><g class="ytick"><text text-anchor="end" x="59" y="4.199999999999999" style="font-family: 'Open Sans', verdana, arial, sans-serif; font-size: 12px; fill: rgb(68, 68, 68); fill-opacity: 1; white-space: pre; opacity: 1;" transform="translate(0,215.39)">6k</text></g><g class="ytick"><text text-anchor="end" x="59" y="4.199999999999999" style="font-family: 'Open Sans', verdana, arial, sans-serif; font-size: 12px; fill: rgb(68, 68, 68); fill-opacity: 1; white-space: pre; opacity: 1;" transform="translate(0,147.19)">8k</text></g><g class="ytick"><text text-anchor="end" x="59" y="4.199999999999999" style="font-family: 'Open Sans', verdana, arial, sans-serif; font-size: 12px; fill: rgb(68, 68, 68); fill-opacity: 1; white-space: pre; opacity: 1;" transform="translate(0,78.99000000000001)">10k</text></g></g><g class="overaxes-above"/></g></g><g class="polarlayer"/><g class="smithlayer"/><g class="ternarylayer"/><g class="geolayer"/><g class="funnelarealayer"/><g class="pielayer"/><g class="iciclelayer"/><g class="treemaplayer"/><g class="sunburstlayer"/><g class="glimages"/><defs id="topdefs-8f7d5d"><g class="clips"/><clipPath id="legend8f7d5d"><rect width="108" height="67" x="0" y="0"/></clipPath></defs><g class="layer-above"><g class="imagelayer"/><g class="shapelayer"/></g><g class="infolayer"><g class="legend" pointer-events="all" transform="translate(582.24,25)"><rect class="bg" shape-rendering="crispEdges" style="stroke: rgb(68, 68, 68); stroke-opacity: 1; fill: rgb(255, 255, 255); fill-opacity: 1; stroke-width: 0px;" width="108" height="67" x="0" y="0"/><g class="scrollbox" transform="" clip-path="url(#legend8f7d5d)"><g class="groups"><g class="traces" transform="translate(0,14.5)" style="opacity: 1;"><text class="legendtext" text-anchor="start" x="40" y="4.680000000000001" style="font-family: 'Open Sans', verdana, arial, sans-serif; font-size: 12px; fill: rgb(68, 68, 68); fill-opacity: 1; white-space: pre;">Active</text><g class="layers"><g class="legendfill"><path class="js-fill" d="M5,-2h30v6h-30z" style="stroke-width: 0; fill: rgb(255, 165, 0); fill-opacity: 1;"/></g><g class="legendlines"><path class="js-line" d="M5,-2h30" style="fill: none; stroke: rgb(255, 165, 0); stroke-opacity: 1; stroke-width: 2px;"/></g><g class="legendsymbols"><g class="legendpoints"/></g></g><rect class="legendtoggle" x="0" y="-9.5" width="102.546875" height="19" style="fill: rgb(0, 0, 0); fill-opacity: 0;"/></g><g class="traces" transform="translate(0,33.5)" style="opacity: 1;"><text class="legendtext" text-anchor="start" x="40" y="4.680000000000001" style="font-family: 'Open Sans', verdana, arial, sans-serif; font-size: 12px; fill: rgb(68, 68, 68); fill-opacity: 1; white-space: pre;">Recovered</text><g class="layers"><g class="legendfill"><path class="js-fill" d="M5,-2h30v6h-30z" style="stroke-width: 0; fill: rgb(0, 255, 0); fill-opacity: 1;"/></g><g class="legendlines"><path class="js-line" d="M5,-2h30" style="fill: none; stroke: rgb(0, 255, 0); stroke-opacity: 1; stroke-width: 2px;"/></g><g class="legendsymbols"><g class="legendpoints"/></g></g><rect class="legendtoggle" x="0" y="-9.5" width="102.546875" height="19" style="fill: rgb(0, 0, 0); fill-opacity: 0;"/></g><g class="traces" transform="translate(0,52.5)" style="opacity: 1;"><text class="legendtext" text-anchor="start" x="40" y="4.680000000000001" style="font-family: 'Open Sans', verdana, arial, sans-serif; font-size: 12px; fill: rgb(68, 68, 68); fill-opacity: 1; white-space: pre;">Deceased</text><g class="layers"><g class="legendfill"><path class="js-fill" d="M5,-2h30v6h-30z" style="stroke-width: 0; fill: rgb(139, 0, 0); fill-opacity: 1;"/></g><g class="legendlines"><path class="js-line" d="M5,-2h30" style="fill: none; stroke: rgb(139, 0, 0); stroke-opacity: 1; stroke-width: 2px;"/></g><g class="legendsymbols"><g class="legendpoints"/></g></g><rect class="legendtoggle" x="0" y="-9.5" width="102.546875" height="19" style="fill: rgb(0, 0, 0); fill-opacity: 0;"/></g></g></g><rect class="scrollbar" rx="20" ry="3" width="0" height="0" style="fill: rgb(128, 139, 164); fill-opacity: 1;" x="0" y="0"/></g><g class="g-gtitle"><text class="gtitle" x="350" y="12.5" text-anchor="middle" dy="0em" style="font-family: serif; font-size: 18px; fill: rgb(68, 68, 68); opacity: 1; font-weight: normal; white-space: pre;">Kolar</text></g><g class="g-xtitle" transform="translate(0,19.2626953125)"><text class="xtitle" x="316" y="472" text-anchor="middle" style="font-family: 'Open Sans', verdana, arial, sans-serif; font-size: 14px; fill: rgb(68, 68, 68); opacity: 1; font-weight: normal; white-space: pre;">Date</text></g><g class="g-ytitle" transform="translate(2,0)"><text class="ytitle" transform="rotate(-90,14,222.5)" x="14" y="222.5" text-anchor="middle" style="font-family: serif; font-size: 18px; fill: rgb(0, 0, 0); opacity: 1; font-weight: normal; white-space: pre;">Number of Cases</text></g></g></svg>