<svg class="main-svg" xmlns="http://www.w3.org/2000/svg" xmlns:xlink="http://www.w3.org/1999/xlink" width="700" height="500" style="" viewBox="0 0 700 500"><rect x="0" y="0" width="700" height="500" style="fill: rgb(255, 255, 255); fill-opacity: 1;"/><defs id="defs-55f864"><g class="clips"><clipPath id="clip55f864xyplot" class="plotclip"><rect width="512" height="395"/></clipPath><clipPath class="axesclip" id="clip55f864x"><rect x="60" y="0" width="512" height="500"/></clipPath><clipPath class="axesclip" id="clip55f864y"><rect x="0" y="25" width="700" height="395"/></clipPath><clipPath class="axesclip" id="clip55f864xy"><rect x="60" y="25" width="512" height="395"/></clipPath></g><g class="gradients"/><g class="patterns"/></defs><g class="bglayer"/><g class="layer-below"><g class="imagelayer"/><g class="shapelayer"/></g><g class="cartesianlayer"><g class="subplot xy"><g class="layer-subplot"><g class="shapelayer"/><g class="imagelayer"/></g><g class="gridlayer"><g class="x"><path class="xgrid crisp" transform="translate(76.03999999999999,0)" d="M0,25v395" style="stroke: rgb(238, 238, 238); stroke-opacity: 1; stroke-width: 1px;"/><path class="xgrid crisp" transform="translate(92.08,0)" d="M0,25v395" style="stroke: rgb(238, 238, 238); stroke-opacity: 1; stroke-width: 1px;"/><path class="xgrid crisp" transform="translate(108.13,0)" d="M0,25v395" style="stroke: rgb(238, 238, 238); stroke-opacity: 1; stroke-width: 1px;"/><path class="xgrid crisp" transform="translate(124.17,0)" d="M0,25v395" style="stroke: rgb(238, 238, 238); stroke-opacity: 1; stroke-width: 1px;"/><path class="xgrid crisp" transform="translate(140.20999999999998,0)" d="M0,25v395" style="stroke: rgb(238, 238, 238); stroke-opacity: 1; stroke-width: 1px;"/><path class="xgrid crisp" transform="translate(156.25,0)" d="M0,25v395" style="stroke: rgb(238, 238, 238); stroke-opacity: 1; stroke-width: 1px;"/><path class="xgrid crisp" transform="translate(172.29000000000002,0)" d="M0,25v395" style="stroke: rgb(238, 238, 238); stroke-opacity: 1; stroke-width: 1px;"/><path class="xgrid crisp" transform="translate(188.33,0)" d="M0,25v395" style="stroke: rgb(238, 238, 238); stroke-opacity: 1; stroke-width: 1px;"/><path class="xgrid crisp" transform="translate(204.38,0)" d="M0,25v395" style="stroke: rgb(238, 238, 238); stroke-opacity: 1; stroke-width: 1px;"/><path class="xgrid crisp" transform="translate(220.42,0)" d="M0,25v395" style="stroke: rgb(238, 238, 238); stroke-opacity: 1; stroke-width: 1px;"/><path class="xgrid crisp" transform="translate(236.46,0)" d="M0,25v395" style="stroke: rgb(238, 238, 238); stroke-opacity: 1; stroke-width: 1px;"/><path class="xgrid crisp" transform="translate(252.5,0)" d="M0,25v395" style="stroke: rgb(238, 238, 238); stroke-opacity: 1; stroke-width: 1px;"/><path class="xgrid crisp" transform="translate(268.53999999999996,0)" d="M0,25v395" style="stroke: rgb(238, 238, 238); stroke-opacity: 1; stroke-width: 1px;"/><path class="xgrid crisp" transform="translate(284.58000000000004,0)" d="M0,25v395" style="stroke: rgb(238, 238, 238); stroke-opacity: 1; stroke-width: 1px;"/><path class="xgrid crisp" transform="translate(300.63,0)" d="M0,25v395" style="stroke: rgb(238, 238, 238); stroke-opacity: 1; stroke-width: 1px;"/><path class="xgrid crisp" transform="translate(316.67,0)" d="M0,25v395" style="stroke: rgb(238, 238, 238); stroke-opacity: 1; stroke-width: 1px;"/><path class="xgrid crisp" transform="translate(332.71,0)" d="M0,25v395" style="stroke: rgb(238, 238, 238); stroke-opacity: 1; stroke-width: 1px;"/><path class="xgrid crisp" transform="translate(348.75,0)" d="M0,25v395" style="stroke: rgb(238, 238, 238); stroke-opacity: 1; stroke-width: 1px;"/><path class="xgrid crisp" transform="translate(364.79,0)" d="M0,25v395" style="stroke: rgb(238, 238, 238); stroke-opacity: 1; stroke-width: 1px;"/><path class="xgrid crisp" transform="translate(380.84,0)" d="M0,25v395" style="stroke: rgb(238, 238, 238); stroke-opacity: 1; stroke-width: 1px;"/><path class="xgrid crisp" transform="translate(396.88,0)" d="M0,25v395" style="stroke: rgb(238, 238, 238); stroke-opacity: 1; stroke-width: 1px;"/><path class="xgrid crisp" transform="translate(412.92,0)" d="M0,25v395" style="stroke: rgb(238, 238, 238); stroke-opacity: 1; stroke-width: 1px;"/><path class="xgrid crisp" transform="translate(428.96,0)" d="M0,25v395" style="stroke: rgb(238, 238, 238); stroke-opacity: 1; stroke-width: 1px;"/><path class="xgrid crisp" transform="translate(445,0)" d="M0,25v395" style="stroke: rgb(238, 238, 238); stroke-opacity: 1; stroke-width: 1px;"/><path class="xgrid crisp" transform="translate(461.04,0)" d="M0,25v395" style="stroke: rgb(238, 238, 238); stroke-opacity: 1; stroke-width: 1px;"/><path class="xgrid crisp" transform="translate(477.09,0)" d="M0,25v395" style="stroke: rgb(238, 238, 238); stroke-opacity: 1; stroke-width: 1px;"/><path class="xgrid crisp" transform="translate(493.13,0)" d="M0,25v395" style="stroke: rgb(238, 238, 238); stroke-opacity: 1; stroke-width: 1px;"/><path class="xgrid crisp" transform="translate(509.17,0)" d="M0,25v395" style="stroke: rgb(238, 238, 238); stroke-opacity: 1; stroke-width: 1px;"/><path class="xgrid crisp" transform="translate(525.21,0)" d="M0,25v395" style="stroke: rgb(238, 238, 238); stroke-opacity: 1; stroke-width: 1px;"/><path class="xgrid crisp" transform="translate(541.25,0)" d="M0,25v395" style="stroke: rgb(238, 238, 238); stroke-opacity: 1; stroke-width: 1px;"/><path class="xgrid crisp" transform="translate(557.3,0)" d="M0,25v395" style="stroke: rgb(238, 238, 238); stroke-opacity: 1; stroke-width: 1px;"/></g><g class="y"><path class="ygrid crisp" transform="translate(0,329.85)" d="M60,0h512" style="stroke: rgb(238, 238, 238); stroke-opacity: 1; stroke-width: 1px;"/><path class="ygrid crisp" transform="translate(0,239.7)" d="M60,0h512" style="stroke: rgb(238, 238, 238); stroke-opacity: 1; stroke-width: 1px;"/><path class="ygrid crisp" transform="translate(0,149.56)" d="M60,0h512" style="stroke: rgb(238, 238, 238); stroke-opacity: 1; stroke-width: 1px;"/><path class="ygrid crisp" transform="translate(0,59.41)" d="M60,0h512" style="stroke: rgb(238, 238, 238); stroke-opacity: 1; stroke-width: 1px;"/></g></g><g class="zerolinelayer"><path class="yzl zl crisp" transform="translate(0,420)" d="M60,0h512" style="stroke: rgb(68, 68, 68); stroke-opacity: 1; stroke-width: 1px;"/></g><path class="xlines-below"/><path class="ylines-below"/><g class="overlines-below"/><g class="xaxislayer-below"/><g class="yaxislayer-below"/><g class="overaxes-below"/><g class="plot" transform="translate(60,25)" clip-path="url(#clip55f864xyplot)"><g class="scatterlayer mlayer"><g class="trace scatter tracefb9cba" style="stroke-miterlimit: 2;"><g class="fills"><g><path class="js-fill" d="M512,395L0,395L0,395L203.2,394.28L204.53,394.24L311.48,392.39L312.81,392.39L512,392.06" style="fill: rgb(139, 0, 0); fill-opacity: 1; stroke-width: 0;"/></g><g><path class="js-fill" d="M0,395L92.24,394.41L93.58,393.9L97.59,393.54L98.92,392.6L112.29,390.29L113.63,390.29L120.31,389.21L121.65,389.21L139.03,388.62L140.37,388.38L145.71,387.86L147.05,387.23L155.07,384.52L156.41,384.49L160.42,383.89L161.75,382.34L164.43,382.22L165.77,381.51L168.44,380.25L169.78,380.25L171.11,379.24L172.45,379.24L176.46,377.08L177.8,376.56L181.81,373.33L183.14,372.17L185.82,370.91L187.15,370.28L189.83,369.54L191.16,367.05L192.5,363.97L193.84,362.78L195.17,362.11L196.51,360.09L204.53,350.58L205.87,348.03L208.54,343.96L209.88,340.14L211.22,335.52L212.55,333.93L215.23,327.71L216.56,326.54L221.91,319.13L223.25,313.81L224.58,312.91L225.92,309.85L227.26,302.38L228.6,300.04L231.27,293.49L232.61,290.43L236.62,275.68L237.95,275.66L239.29,275.66L240.63,268.76L241.96,261.29L243.3,260.32L244.64,252.64L245.97,251.65L247.31,251.23L248.65,245.55L253.99,239.31L255.33,238.29L270.04,185.55L271.37,182.07L278.06,165.1L279.39,160.72L283.4,148.25L284.74,146.37L287.42,136.42L288.75,132.56L290.09,130.76L291.43,125.53L292.76,120.55L294.1,118.95L296.77,111.74L298.11,108.76L299.45,108.06L300.78,105.39L303.46,100.81L304.79,100L310.14,92.54L311.48,89.76L314.15,86.91L315.49,85.43L319.5,80.02L320.84,78.33L323.51,76.16L324.85,75.12L328.86,72.02L330.19,71.12L332.87,70L334.2,68.18L340.89,63.69L342.22,63.26L351.58,59.25L352.92,57.94L356.93,55.5L358.27,54.96L363.61,52.58L364.95,52.02L386.34,45.78L387.68,45.5L395.7,43.75L397.03,43.69L410.4,41.98L411.74,41.89L429.12,40.56L430.45,40.54L449.17,39.29L450.51,39.08L493.28,36.39L494.62,35.94L501.31,34.3L502.64,33.81L509.33,30.73L510.66,29.65L512,28.73L512,392.06L312.81,392.39L311.48,392.39L204.53,394.24L203.2,394.28L0,395Z" style="fill: rgb(0, 255, 0); fill-opacity: 1; stroke-width: 0;"/></g></g><g class="errorbars"/><g class="lines"><path class="js-line" d="M0,395L203.2,394.28L204.53,394.24L311.48,392.39L312.81,392.39L512,392.06" style="vector-effect: non-scaling-stroke; fill: none; stroke: rgb(139, 0, 0); stroke-opacity: 1; stroke-width: 2px; opacity: 1;"/></g><g class="points"/><g class="text"/></g><g class="trace scatter traced0f8ee" style="stroke-miterlimit: 2;"><g class="fills"><g><path class="js-fill" d="M0,395L70.85,394.35L72.19,394.12L76.2,393.4L77.54,392.12L81.55,391.23L82.88,390.73L88.23,390.4L89.57,390.4L97.59,389.56L98.92,389.28L104.27,388.98L105.61,388.98L125.66,388.27L127,388.11L136.36,387.07L137.69,386.47L144.38,384.07L145.71,383.64L153.73,380.81L155.07,380.61L163.09,377.69L164.43,376.79L171.11,370.79L172.45,369.52L177.8,363.32L179.13,360.58L185.82,350.02L187.15,348.88L188.49,347.69L189.83,345.15L196.51,334.53L197.85,334.06L201.86,325.62L203.2,323.84L204.53,321.2L205.87,320.29L207.21,318.81L208.54,316.05L212.55,306.31L213.89,302.81L219.24,288.75L220.57,284.44L223.25,276.98L224.58,272.83L225.92,269.78L227.26,264.86L233.94,246.06L235.28,244.09L237.95,237.2L239.29,235.65L241.96,232.72L243.3,229.74L245.97,225.49L247.31,221.83L249.98,218.27L251.32,213.68L259.34,186.43L260.68,182.72L272.71,147.4L274.05,143.52L282.07,119.76L283.4,117.81L288.75,104.65L290.09,103.1L291.43,102.09L292.76,99.87L295.44,96.38L296.77,94.12L314.15,74.29L315.49,73.05L331.53,63.2L332.87,62.77L339.55,59.58L340.89,58.64L343.56,56.33L344.9,55.9L351.58,52.92L352.92,52.46L371.63,46.6L372.97,46.29L385,43.78L386.34,43.64L397.03,42.31L398.37,42.27L427.78,40.03L429.12,39.98L482.59,36.59L483.93,36.14L494.62,32.89L495.96,32.28L503.98,27.32L505.32,25.9L506.65,25.03L507.99,23.19L512,19.75L512,28.73L510.66,29.65L509.33,30.73L502.64,33.81L501.31,34.3L494.62,35.94L493.28,36.39L450.51,39.08L449.17,39.29L430.45,40.54L429.12,40.56L411.74,41.89L410.4,41.98L397.03,43.69L395.7,43.75L387.68,45.5L386.34,45.78L364.95,52.02L363.61,52.58L358.27,54.96L356.93,55.5L352.92,57.94L351.58,59.25L342.22,63.26L340.89,63.69L334.2,68.18L332.87,70L330.19,71.12L328.86,72.02L324.85,75.12L323.51,76.16L320.84,78.33L319.5,80.02L315.49,85.43L314.15,86.91L311.48,89.76L310.14,92.54L304.79,100L303.46,100.81L300.78,105.39L299.45,108.06L298.11,108.76L296.77,111.74L294.1,118.95L292.76,120.55L291.43,125.53L290.09,130.76L288.75,132.56L287.42,136.42L284.74,146.37L283.4,148.25L279.39,160.72L278.06,165.1L271.37,182.07L270.04,185.55L255.33,238.29L253.99,239.31L248.65,245.55L247.31,251.23L245.97,251.65L244.64,252.64L243.3,260.32L241.96,261.29L240.63,268.76L239.29,275.66L237.95,275.66L236.62,275.68L232.61,290.43L231.27,293.49L228.6,300.04L227.26,302.38L225.92,309.85L224.58,312.91L223.25,313.81L221.91,319.13L216.56,326.54L215.23,327.71L212.55,333.93L211.22,335.52L209.88,340.14L208.54,343.96L205.87,348.03L204.53,350.58L196.51,360.09L195.17,362.11L193.84,362.78L192.5,363.97L191.16,367.05L189.83,369.54L187.15,370.28L185.82,370.91L183.14,372.17L181.81,373.33L177.8,376.56L176.46,377.08L172.45,379.24L171.11,379.24L169.78,380.25L168.44,380.25L165.77,381.51L164.43,382.22L161.75,382.34L160.42,383.89L156.41,384.49L155.07,384.52L147.05,387.23L145.71,387.86L140.37,388.38L139.03,388.62L121.65,389.21L120.31,389.21L113.63,390.29L112.29,390.29L98.92,392.6L97.59,393.54L93.58,393.9L92.24,394.41L0,395Z" style="fill: rgb(255, 165, 0); fill-opacity: 1; stroke-width: 0;"/></g></g><g class="errorbars"/><g class="lines"><path class="js-line" d="M0,395L92.24,394.41L93.58,393.9L97.59,393.54L98.92,392.6L112.29,390.29L113.63,390.29L120.31,389.21L121.65,389.21L139.03,388.62L140.37,388.38L145.71,387.86L147.05,387.23L155.07,384.52L156.41,384.49L160.42,383.89L161.75,382.34L164.43,382.22L165.77,381.51L168.44,380.25L169.78,380.25L171.11,379.24L172.45,379.24L176.46,377.08L177.8,376.56L181.81,373.33L183.14,372.17L185.82,370.91L187.15,370.28L189.83,369.54L191.16,367.05L192.5,363.97L193.84,362.78L195.17,362.11L196.51,360.09L204.53,350.58L205.87,348.03L208.54,343.96L209.88,340.14L211.22,335.52L212.55,333.93L215.23,327.71L216.56,326.54L221.91,319.13L223.25,313.81L224.58,312.91L225.92,309.85L227.26,302.38L228.6,300.04L231.27,293.49L232.61,290.43L236.62,275.68L237.95,275.66L239.29,275.66L240.63,268.76L241.96,261.29L243.3,260.32L244.64,252.64L245.97,251.65L247.31,251.23L248.65,245.55L253.99,239.31L255.33,238.29L270.04,185.55L271.37,182.07L278.06,165.1L279.39,160.72L283.4,148.25L284.74,146.37L287.42,136.42L288.75,132.56L290.09,130.76L291.43,125.53L292.76,120.55L294.1,118.95L296.77,111.74L298.11,108.76L299.45,108.06L300.78,105.39L303.46,100.81L304.79,100L310.14,92.54L311.48,89.76L314.15,86.91L315.49,85.43L319.5,80.02L320.84,78.33L323.51,76.16L324.85,75.12L328.86,72.02L330.19,71.12L332.87,70L334.2,68.18L340.89,63.69L342.22,63.26L351.58,59.25L352.92,57.94L356.93,55.5L358.27,54.96L363.61,52.58L364.95,52.02L386.34,45.78L387.68,45.5L395.7,43.75L397.03,43.69L410.4,41.98L411.74,41.89L429.12,40.56L430.45,40.54L449.17,39.29L450.51,39.08L493.28,36.39L494.62,35.94L501.31,34.3L502.64,33.81L509.33,30.73L510.66,29.65L512,28.73" style="vector-effect: non-scaling-stroke; fill: none; stroke: rgb(0, 255, 0); stroke-opacity: 1; stroke-width: 2px; opacity: 1;"/></g><g class="points"/><g class="text"/></g><g class="trace scatter traceb207e4" style="stroke-miterlimit: 2;"><g class="fills"/><g class="errorbars"/><g class="lines"><path class="js-line" d="M0,395L70.85,394.35L72.19,394.12L76.2,393.4L77.54,392.12L81.55,391.23L82.88,390.73L88.23,390.4L89.57,390.4L97.59,389.56L98.92,389.28L104.27,388.98L105.61,388.98L125.66,388.27L127,388.11L136.36,387.07L137.69,386.47L144.38,384.07L145.71,383.64L153.73,380.81L155.07,380.61L163.09,377.69L164.43,376.79L171.11,370.79L172.45,369.52L177.8,363.32L179.13,360.58L185.82,350.02L187.15,348.88L188.49,347.69L189.83,345.15L196.51,334.53L197.85,334.06L201.86,325.62L203.2,323.84L204.53,321.2L205.87,320.29L207.21,318.81L208.54,316.05L212.55,306.31L213.89,302.81L219.24,288.75L220.57,284.44L223.25,276.98L224.58,272.83L225.92,269.78L227.26,264.86L233.94,246.06L235.28,244.09L237.95,237.2L239.29,235.65L241.96,232.72L243.3,229.74L245.97,225.49L247.31,221.83L249.98,218.27L251.32,213.68L259.34,186.43L260.68,182.72L272.71,147.4L274.05,143.52L282.07,119.76L283.4,117.81L288.75,104.65L290.09,103.1L291.43,102.09L292.76,99.87L295.44,96.38L296.77,94.12L314.15,74.29L315.49,73.05L331.53,63.2L332.87,62.77L339.55,59.58L340.89,58.64L343.56,56.33L344.9,55.9L351.58,52.92L352.92,52.46L371.63,46.6L372.97,46.29L385,43.78L386.34,43.64L397.03,42.31L398.37,42.27L427.78,40.03L429.12,39.98L482.59,36.59L483.93,36.14L494.62,32.89L495.96,32.28L503.98,27.32L505.32,25.9L506.65,25.03L507.99,23.19L512,19.75" style="vector-effect: non-scaling-stroke; fill: none; stroke: rgb(255, 165, 0); stroke-opacity: 1; stroke-width: 2px; opacity: 1;"/></g><g class="points"/><g class="text"/></g></g></g><g class="overplot"/><path class="xlines-above crisp" d="M0,0" style="fill: none;"/><path class="ylines-above crisp" d="M0,0" style="fill: none;"/><g class="overlines-above"/><g class="xaxislayer-above"><g class="xtick"><text text-anchor="end" x="0" y="434" transform="translate(60,0) rotate(-45,0,427.5)" style="font-family: serif; font-size: 13px; fill: rgb(68, 68, 68); fill-opacity: 1; white-space: pre; opacity: 1;">Mar-22-20</text></g><g class="xtick"><text text-anchor="end" x="0" y="434" transform="translate(76.03999999999999,0) rotate(-45,0,427.5)" style="font-family: serif; font-size: 13px; fill: rgb(68, 68, 68); fill-opacity: 1; white-space: pre; opacity: 1;">Apr-03-20</text></g><g class="xtick"><text text-anchor="end" x="0" y="434" transform="translate(92.08,0) rotate(-45,0,427.5)" style="font-family: serif; font-size: 13px; fill: rgb(68, 68, 68); fill-opacity: 1; white-space: pre; opacity: 1;">Apr-15-20</text></g><g class="xtick"><text text-anchor="end" x="0" y="434" transform="translate(108.13,0) rotate(-45,0,427.5)" style="font-family: serif; font-size: 13px; fill: rgb(68, 68, 68); fill-opacity: 1; white-space: pre; opacity: 1;">Apr-27-20</text></g><g class="xtick"><text text-anchor="end" x="0" y="434" transform="translate(124.17,0) rotate(-45,0,427.5)" style="font-family: serif; font-size: 13px; fill: rgb(68, 68, 68); fill-opacity: 1; white-space: pre; opacity: 1;">May-09-20</text></g><g class="xtick"><text text-anchor="end" x="0" y="434" transform="translate(140.20999999999998,0) rotate(-45,0,427.5)" style="font-family: serif; font-size: 13px; fill: rgb(68, 68, 68); fill-opacity: 1; white-space: pre; opacity: 1;">May-21-20</text></g><g class="xtick"><text text-anchor="end" x="0" y="434" transform="translate(156.25,0) rotate(-45,0,427.5)" style="font-family: serif; font-size: 13px; fill: rgb(68, 68, 68); fill-opacity: 1; white-space: pre; opacity: 1;">Jun-02-20</text></g><g class="xtick"><text text-anchor="end" x="0" y="434" transform="translate(172.29000000000002,0) rotate(-45,0,427.5)" style="font-family: serif; font-size: 13px; fill: rgb(68, 68, 68); fill-opacity: 1; white-space: pre; opacity: 1;">Jun-14-20</text></g><g class="xtick"><text text-anchor="end" x="0" y="434" transform="translate(188.33,0) rotate(-45,0,427.5)" style="font-family: serif; font-size: 13px; fill: rgb(68, 68, 68); fill-opacity: 1; white-space: pre; opacity: 1;">Jun-26-20</text></g><g class="xtick"><text text-anchor="end" x="0" y="434" transform="translate(204.38,0) rotate(-45,0,427.5)" style="font-family: serif; font-size: 13px; fill: rgb(68, 68, 68); fill-opacity: 1; white-space: pre; opacity: 1;">Jul-08-20</text></g><g class="xtick"><text text-anchor="end" x="0" y="434" transform="translate(220.42,0) rotate(-45,0,427.5)" style="font-family: serif; font-size: 13px; fill: rgb(68, 68, 68); fill-opacity: 1; white-space: pre; opacity: 1;">Jul-20-20</text></g><g class="xtick"><text text-anchor="end" x="0" y="434" transform="translate(236.46,0) rotate(-45,0,427.5)" style="font-family: serif; font-size: 13px; fill: rgb(68, 68, 68); fill-opacity: 1; white-space: pre; opacity: 1;">Aug-01-20</text></g><g class="xtick"><text text-anchor="end" x="0" y="434" transform="translate(252.5,0) rotate(-45,0,427.5)" style="font-family: serif; font-size: 13px; fill: rgb(68, 68, 68); fill-opacity: 1; white-space: pre; opacity: 1;">Aug-13-20</text></g><g class="xtick"><text text-anchor="end" x="0" y="434" transform="translate(268.53999999999996,0) rotate(-45,0,427.5)" style="font-family: serif; font-size: 13px; fill: rgb(68, 68, 68); fill-opacity: 1; white-space: pre; opacity: 1;">Aug-25-20</text></g><g class="xtick"><text text-anchor="end" x="0" y="434" transform="translate(284.58000000000004,0) rotate(-45,0,427.5)" style="font-family: serif; font-size: 13px; fill: rgb(68, 68, 68); fill-opacity: 1; white-space: pre; opacity: 1;">Sep-06-20</text></g><g class="xtick"><text text-anchor="end" x="0" y="434" transform="translate(300.63,0) rotate(-45,0,427.5)" style="font-family: serif; font-size: 13px; fill: rgb(68, 68, 68); fill-opacity: 1; white-space: pre; opacity: 1;">Sep-18-20</text></g><g class="xtick"><text text-anchor="end" x="0" y="434" transform="translate(316.67,0) rotate(-45,0,427.5)" style="font-family: serif; font-size: 13px; fill: rgb(68, 68, 68); fill-opacity: 1; white-space: pre; opacity: 1;">Sep-30-20</text></g><g class="xtick"><text text-anchor="end" x="0" y="434" transform="translate(332.71,0) rotate(-45,0,427.5)" style="font-family: serif; font-size: 13px; fill: rgb(68, 68, 68); fill-opacity: 1; white-space: pre; opacity: 1;">Oct-12-20</text></g><g class="xtick"><text text-anchor="end" x="0" y="434" transform="translate(348.75,0) rotate(-45,0,427.5)" style="font-family: serif; font-size: 13px; fill: rgb(68, 68, 68); fill-opacity: 1; white-space: pre; opacity: 1;">Oct-24-20</text></g><g class="xtick"><text text-anchor="end" x="0" y="434" transform="translate(364.79,0) rotate(-45,0,427.5)" style="font-family: serif; font-size: 13px; fill: rgb(68, 68, 68); fill-opacity: 1; white-space: pre; opacity: 1;">Nov-05-20</text></g><g class="xtick"><text text-anchor="end" x="0" y="434" transform="translate(380.84,0) rotate(-45,0,427.5)" style="font-family: serif; font-size: 13px; fill: rgb(68, 68, 68); fill-opacity: 1; white-space: pre; opacity: 1;">Nov-17-20</text></g><g class="xtick"><text text-anchor="end" x="0" y="434" transform="translate(396.88,0) rotate(-45,0,427.5)" style="font-family: serif; font-size: 13px; fill: rgb(68, 68, 68); fill-opacity: 1; white-space: pre; opacity: 1;">Nov-29-20</text></g><g class="xtick"><text text-anchor="end" x="0" y="434" transform="translate(412.92,0) rotate(-45,0,427.5)" style="font-family: serif; font-size: 13px; fill: rgb(68, 68, 68); fill-opacity: 1; white-space: pre; opacity: 1;">Dec-11-20</text></g><g class="xtick"><text text-anchor="end" x="0" y="434" transform="translate(428.96,0) rotate(-45,0,427.5)" style="font-family: serif; font-size: 13px; fill: rgb(68, 68, 68); fill-opacity: 1; white-space: pre; opacity: 1;">Dec-23-20</text></g><g class="xtick"><text text-anchor="end" x="0" y="434" transform="translate(445,0) rotate(-45,0,427.5)" style="font-family: serif; font-size: 13px; fill: rgb(68, 68, 68); fill-opacity: 1; white-space: pre; opacity: 1;">Jan-04-21</text></g><g class="xtick"><text text-anchor="end" x="0" y="434" transform="translate(461.04,0) rotate(-45,0,427.5)" style="font-family: serif; font-size: 13px; fill: rgb(68, 68, 68); fill-opacity: 1; white-space: pre; opacity: 1;">Jan-16-21</text></g><g class="xtick"><text text-anchor="end" x="0" y="434" transform="translate(477.09,0) rotate(-45,0,427.5)" style="font-family: serif; font-size: 13px; fill: rgb(68, 68, 68); fill-opacity: 1; white-space: pre; opacity: 1;">Jan-28-21</text></g><g class="xtick"><text text-anchor="end" x="0" y="434" transform="translate(493.13,0) rotate(-45,0,427.5)" style="font-family: serif; font-size: 13px; fill: rgb(68, 68, 68); fill-opacity: 1; white-space: pre; opacity: 1;">Feb-09-21</text></g><g class="xtick"><text text-anchor="end" x="0" y="434" transform="translate(509.17,0) rotate(-45,0,427.5)" style="font-family: serif; font-size: 13px; fill: rgb(68, 68, 68); fill-opacity: 1; white-space: pre; opacity: 1;">Feb-21-21</text></g><g class="xtick"><text text-anchor="end" x="0" y="434" transform="translate(525.21,0) rotate(-45,0,427.5)" style="font-family: serif; font-size: 13px; fill: rgb(68, 68, 68); fill-opacity: 1; white-space: pre; opacity: 1;">Mar-05-21</text></g><g class="xtick"><text text-anchor="end" x="0" y="434" transform="translate(541.25,0) rotate(-45,0,427.5)" style="font-family: serif; font-size: 13px; fill: rgb(68, 68, 68); fill-opacity: 1; white-space: pre; opacity: 1;">Mar-17-21</text></g><g class="xtick"><text text-anchor="end" x="0" y="434" transform="translate(557.3,0) rotate(-45,0,427.5)" style="font-family: serif; font-size: 13px; fill: rgb(68, 68, 68); fill-opacity: 1; white-space: pre; opacity: 1;">Mar-29-21</text></g></g><g class="yaxislayer-above"><g class="ytick"><text text-anchor="end" x="59" y="4.199999999999999" transform="translate(0,420)" style="font-family: 'Open Sans', verdana, arial, sans-serif; font-size: 12px; fill: rgb(68, 68, 68); fill-opacity: 1; white-space: pre; opacity: 1;">0</text></g><g class="ytick"><text text-anchor="end" x="59" y="4.199999999999999" style="font-family: 'Open Sans', verdana, arial, sans-serif; font-size: 12px; fill: rgb(68, 68, 68); fill-opacity: 1; white-space: pre; opacity: 1;" transform="translate(0,329.85)">5k</text></g><g class="ytick"><text text-anchor="end" x="59" y="4.199999999999999" style="font-family: 'Open Sans', verdana, arial, sans-serif; font-size: 12px; fill: rgb(68, 68, 68); fill-opacity: 1; white-space: pre; opacity: 1;" transform="translate(0,239.7)">10k</text></g><g class="ytick"><text text-anchor="end" x="59" y="4.199999999999999" style="font-family: 'Open Sans', verdana, arial, sans-serif; font-size: 12px; fill: rgb(68, 68, 68); fill-opacity: 1; white-space: pre; opacity: 1;" transform="translate(0,149.56)">15k</text></g><g class="ytick"><text text-anchor="end" x="59" y="4.199999999999999" style="font-family: 'Open Sans', verdana, arial, sans-serif; font-size: 12px; fill: rgb(68, 68, 68); fill-opacity: 1; white-space: pre; opacity: 1;" transform="translate(0,59.41)">20k</text></g></g><g class="overaxes-above"/></g></g><g class="polarlayer"/><g class="smithlayer"/><g class="ternarylayer"/><g class="geolayer"/><g class="funnelarealayer"/><g class="pielayer"/><g class="iciclelayer"/><g class="treemaplayer"/><g class="sunburstlayer"/><g class="glimages"/><defs id="topdefs-55f864"><g class="clips"/><clipPath id="legend55f864"><rect width="108" height="67" x="0" y="0"/></clipPath></defs><g class="layer-above"><g class="imagelayer"/><g class="shapelayer"/></g><g class="infolayer"><g class="legend" pointer-events="all" transform="translate(582.24,25)"><rect class="bg" shape-rendering="crispEdges" style="stroke: rgb(68, 68, 68); stroke-opacity: 1; fill: rgb(255, 255, 255); fill-opacity: 1; stroke-width: 0px;" width="108" height="67" x="0" y="0"/><g class="scrollbox" transform="" clip-path="url(#legend55f864)"><g class="groups"><g class="traces" transform="translate(0,14.5)" style="opacity: 1;"><text class="legendtext" text-anchor="start" x="40" y="4.680000000000001" style="font-family: 'Open Sans', verdana, arial, sans-serif; font-size: 12px; fill: rgb(68, 68, 68); fill-opacity: 1; white-space: pre;">Active</text><g class="layers"><g class="legendfill"><path class="js-fill" d="M5,-2h30v6h-30z" style="stroke-width: 0; fill: rgb(255, 165, 0); fill-opacity: 1;"/></g><g class="legendlines"><path class="js-line" d="M5,-2h30" style="fill: none; stroke: rgb(255, 165, 0); stroke-opacity: 1; stroke-width: 2px;"/></g><g class="legendsymbols"><g class="legendpoints"/></g></g><rect class="legendtoggle" x="0" y="-9.5" width="102.546875" height="19" style="fill: rgb(0, 0, 0); fill-opacity: 0;"/></g><g class="traces" transform="translate(0,33.5)" style="opacity: 1;"><text class="legendtext" text-anchor="start" x="40" y="4.680000000000001" style="font-family: 'Open Sans', verdana, arial, sans-serif; font-size: 12px; fill: rgb(68, 68, 68); fill-opacity: 1; white-space: pre;">Recovered</text><g class="layers"><g class="legendfill"><path class="js-fill" d="M5,-2h30v6h-30z" style="stroke-width: 0; fill: rgb(0, 255, 0); fill-opacity: 1;"/></g><g class="legendlines"><path class="js-line" d="M5,-2h30" style="fill: none; stroke: rgb(0, 255, 0); stroke-opacity: 1; stroke-width: 2px;"/></g><g class="legendsymbols"><g class="legendpoints"/></g></g><rect class="legendtoggle" x="0" y="-9.5" width="102.546875" height="19" style="fill: rgb(0, 0, 0); fill-opacity: 0;"/></g><g class="traces" transform="translate(0,52.5)" style="opacity: 1;"><text class="legendtext" text-anchor="start" x="40" y="4.680000000000001" style="font-family: 'Open Sans', verdana, arial, sans-serif; font-size: 12px; fill: rgb(68, 68, 68); fill-opacity: 1; white-space: pre;">Deceased</text><g class="layers"><g class="legendfill"><path class="js-fill" d="M5,-2h30v6h-30z" style="stroke-width: 0; fill: rgb(139, 0, 0); fill-opacity: 1;"/></g><g class="legendlines"><path class="js-line" d="M5,-2h30" style="fill: none; stroke: rgb(139, 0, 0); stroke-opacity: 1; stroke-width: 2px;"/></g><g class="legendsymbols"><g class="legendpoints"/></g></g><rect class="legendtoggle" x="0" y="-9.5" width="102.546875" height="19" style="fill: rgb(0, 0, 0); fill-opacity: 0;"/></g></g></g><rect class="scrollbar" rx="20" ry="3" width="0" height="0" style="fill: rgb(128, 139, 164); fill-opacity: 1;" x="0" y="0"/></g><g class="g-gtitle"><text class="gtitle" x="350" y="12.5" text-anchor="middle" dy="0em" style="font-family: serif; font-size: 18px; fill: rgb(68, 68, 68); opacity: 1; font-weight: normal; white-space: pre;">Mandya</text></g><g class="g-xtitle" transform="translate(0,19.2626953125)"><text class="xtitle" x="316" y="472" text-anchor="middle" style="font-family: 'Open Sans', verdana, arial, sans-serif; font-size: 14px; fill: rgb(68, 68, 68); opacity: 1; font-weight: normal; white-space: pre;">Date</text></g><g class="g-ytitle" transform="translate(2,0)"><text class="ytitle" transform="rotate(-90,14,222.5)" x="14" y="222.5" text-anchor="middle" style="font-family: serif; font-size: 18px; fill: rgb(0, 0, 0); opacity: 1; font-weight: normal; white-space: pre;">Number of Cases</text></g></g></svg>