<svg class="main-svg" xmlns="http://www.w3.org/2000/svg" xmlns:xlink="http://www.w3.org/1999/xlink" width="700" height="500" style="" viewBox="0 0 700 500"><rect x="0" y="0" width="700" height="500" style="fill: rgb(255, 255, 255); fill-opacity: 1;"/><defs id="defs-7e4f49"><g class="clips"><clipPath id="clip7e4f49xyplot" class="plotclip"><rect width="512" height="395"/></clipPath><clipPath class="axesclip" id="clip7e4f49x"><rect x="60" y="0" width="512" height="500"/></clipPath><clipPath class="axesclip" id="clip7e4f49y"><rect x="0" y="25" width="700" height="395"/></clipPath><clipPath class="axesclip" id="clip7e4f49xy"><rect x="60" y="25" width="512" height="395"/></clipPath></g><g class="gradients"/><g class="patterns"/></defs><g class="bglayer"/><g class="layer-below"><g class="imagelayer"/><g class="shapelayer"/></g><g class="cartesianlayer"><g class="subplot xy"><g class="layer-subplot"><g class="shapelayer"/><g class="imagelayer"/></g><g class="gridlayer"><g class="x"><path class="xgrid crisp" transform="translate(76.03999999999999,0)" d="M0,25v395" style="stroke: rgb(238, 238, 238); stroke-opacity: 1; stroke-width: 1px;"/><path class="xgrid crisp" transform="translate(92.08,0)" d="M0,25v395" style="stroke: rgb(238, 238, 238); stroke-opacity: 1; stroke-width: 1px;"/><path class="xgrid crisp" transform="translate(108.13,0)" d="M0,25v395" style="stroke: rgb(238, 238, 238); stroke-opacity: 1; stroke-width: 1px;"/><path class="xgrid crisp" transform="translate(124.17,0)" d="M0,25v395" style="stroke: rgb(238, 238, 238); stroke-opacity: 1; stroke-width: 1px;"/><path class="xgrid crisp" transform="translate(140.20999999999998,0)" d="M0,25v395" style="stroke: rgb(238, 238, 238); stroke-opacity: 1; stroke-width: 1px;"/><path class="xgrid crisp" transform="translate(156.25,0)" d="M0,25v395" style="stroke: rgb(238, 238, 238); stroke-opacity: 1; stroke-width: 1px;"/><path class="xgrid crisp" transform="translate(172.29000000000002,0)" d="M0,25v395" style="stroke: rgb(238, 238, 238); stroke-opacity: 1; stroke-width: 1px;"/><path class="xgrid crisp" transform="translate(188.33,0)" d="M0,25v395" style="stroke: rgb(238, 238, 238); stroke-opacity: 1; stroke-width: 1px;"/><path class="xgrid crisp" transform="translate(204.38,0)" d="M0,25v395" style="stroke: rgb(238, 238, 238); stroke-opacity: 1; stroke-width: 1px;"/><path class="xgrid crisp" transform="translate(220.42,0)" d="M0,25v395" style="stroke: rgb(238, 238, 238); stroke-opacity: 1; stroke-width: 1px;"/><path class="xgrid crisp" transform="translate(236.46,0)" d="M0,25v395" style="stroke: rgb(238, 238, 238); stroke-opacity: 1; stroke-width: 1px;"/><path class="xgrid crisp" transform="translate(252.5,0)" d="M0,25v395" style="stroke: rgb(238, 238, 238); stroke-opacity: 1; stroke-width: 1px;"/><path class="xgrid crisp" transform="translate(268.53999999999996,0)" d="M0,25v395" style="stroke: rgb(238, 238, 238); stroke-opacity: 1; stroke-width: 1px;"/><path class="xgrid crisp" transform="translate(284.58000000000004,0)" d="M0,25v395" style="stroke: rgb(238, 238, 238); stroke-opacity: 1; stroke-width: 1px;"/><path class="xgrid crisp" transform="translate(300.63,0)" d="M0,25v395" style="stroke: rgb(238, 238, 238); stroke-opacity: 1; stroke-width: 1px;"/><path class="xgrid crisp" transform="translate(316.67,0)" d="M0,25v395" style="stroke: rgb(238, 238, 238); stroke-opacity: 1; stroke-width: 1px;"/><path class="xgrid crisp" transform="translate(332.71,0)" d="M0,25v395" style="stroke: rgb(238, 238, 238); stroke-opacity: 1; stroke-width: 1px;"/><path class="xgrid crisp" transform="translate(348.75,0)" d="M0,25v395" style="stroke: rgb(238, 238, 238); stroke-opacity: 1; stroke-width: 1px;"/><path class="xgrid crisp" transform="translate(364.79,0)" d="M0,25v395" style="stroke: rgb(238, 238, 238); stroke-opacity: 1; stroke-width: 1px;"/><path class="xgrid crisp" transform="translate(380.84,0)" d="M0,25v395" style="stroke: rgb(238, 238, 238); stroke-opacity: 1; stroke-width: 1px;"/><path class="xgrid crisp" transform="translate(396.88,0)" d="M0,25v395" style="stroke: rgb(238, 238, 238); stroke-opacity: 1; stroke-width: 1px;"/><path class="xgrid crisp" transform="translate(412.92,0)" d="M0,25v395" style="stroke: rgb(238, 238, 238); stroke-opacity: 1; stroke-width: 1px;"/><path class="xgrid crisp" transform="translate(428.96,0)" d="M0,25v395" style="stroke: rgb(238, 238, 238); stroke-opacity: 1; stroke-width: 1px;"/><path class="xgrid crisp" transform="translate(445,0)" d="M0,25v395" style="stroke: rgb(238, 238, 238); stroke-opacity: 1; stroke-width: 1px;"/><path class="xgrid crisp" transform="translate(461.04,0)" d="M0,25v395" style="stroke: rgb(238, 238, 238); stroke-opacity: 1; stroke-width: 1px;"/><path class="xgrid crisp" transform="translate(477.09,0)" d="M0,25v395" style="stroke: rgb(238, 238, 238); stroke-opacity: 1; stroke-width: 1px;"/><path class="xgrid crisp" transform="translate(493.13,0)" d="M0,25v395" style="stroke: rgb(238, 238, 238); stroke-opacity: 1; stroke-width: 1px;"/><path class="xgrid crisp" transform="translate(509.17,0)" d="M0,25v395" style="stroke: rgb(238, 238, 238); stroke-opacity: 1; stroke-width: 1px;"/><path class="xgrid crisp" transform="translate(525.21,0)" d="M0,25v395" style="stroke: rgb(238, 238, 238); stroke-opacity: 1; stroke-width: 1px;"/><path class="xgrid crisp" transform="translate(541.25,0)" d="M0,25v395" style="stroke: rgb(238, 238, 238); stroke-opacity: 1; stroke-width: 1px;"/><path class="xgrid crisp" transform="translate(557.3,0)" d="M0,25v395" style="stroke: rgb(238, 238, 238); stroke-opacity: 1; stroke-width: 1px;"/></g><g class="y"><path class="ygrid crisp" transform="translate(0,371.09)" d="M60,0h512" style="stroke: rgb(238, 238, 238); stroke-opacity: 1; stroke-width: 1px;"/><path class="ygrid crisp" transform="translate(0,322.18)" d="M60,0h512" style="stroke: rgb(238, 238, 238); stroke-opacity: 1; stroke-width: 1px;"/><path class="ygrid crisp" transform="translate(0,273.27)" d="M60,0h512" style="stroke: rgb(238, 238, 238); stroke-opacity: 1; stroke-width: 1px;"/><path class="ygrid crisp" transform="translate(0,224.35)" d="M60,0h512" style="stroke: rgb(238, 238, 238); stroke-opacity: 1; stroke-width: 1px;"/><path class="ygrid crisp" transform="translate(0,175.44)" d="M60,0h512" style="stroke: rgb(238, 238, 238); stroke-opacity: 1; stroke-width: 1px;"/><path class="ygrid crisp" transform="translate(0,126.53)" d="M60,0h512" style="stroke: rgb(238, 238, 238); stroke-opacity: 1; stroke-width: 1px;"/><path class="ygrid crisp" transform="translate(0,77.62)" d="M60,0h512" style="stroke: rgb(238, 238, 238); stroke-opacity: 1; stroke-width: 1px;"/><path class="ygrid crisp" transform="translate(0,28.71)" d="M60,0h512" style="stroke: rgb(238, 238, 238); stroke-opacity: 1; stroke-width: 1px;"/></g></g><g class="zerolinelayer"><path class="yzl zl crisp" transform="translate(0,420)" d="M60,0h512" style="stroke: rgb(68, 68, 68); stroke-opacity: 1; stroke-width: 1px;"/></g><path class="xlines-below"/><path class="ylines-below"/><g class="overlines-below"/><g class="xaxislayer-below"/><g class="yaxislayer-below"/><g class="overaxes-below"/><g class="plot" transform="translate(60,25)" clip-path="url(#clip7e4f49xyplot)"><g class="scatterlayer mlayer"><g class="trace scatter trace4c7e68" style="stroke-miterlimit: 2;"><g class="fills"><g><path class="js-fill" d="M512,395L0,395L0,395L191.16,394.27L192.5,394.17L221.91,393.48L223.25,393.34L262.02,392.65L263.35,392.55L283.4,391.87L284.74,391.82L316.83,391.33L318.16,391.33L512,391.23" style="fill: rgb(139, 0, 0); fill-opacity: 1; stroke-width: 0;"/></g><g><path class="js-fill" d="M0,395L127,394.51L128.33,393.97L131.01,393.78L132.34,391.23L140.37,391.04L141.7,389.72L148.39,387.13L149.72,387.13L152.4,387.13L153.73,385.71L156.41,385.02L157.74,385.02L169.78,384.97L171.11,379.25L176.46,379.2L177.8,374.65L179.13,374.65L180.47,361.98L183.14,360.71L184.48,357.48L185.82,355.82L187.15,355.82L189.83,340.85L191.16,332.34L193.84,330.24L195.17,325.2L199.19,321.73L200.52,315.86L203.2,309.75L204.53,307.4L207.21,304.51L208.54,303.19L209.88,301.97L211.22,297.27L213.89,279.13L215.23,275.9L216.56,275.26L217.9,273.01L220.57,269.35L221.91,267.24L227.26,243.57L228.6,239.71L232.61,220.97L233.94,217.4L235.28,215.05L236.62,210.85L237.95,208.45L239.29,208.45L240.63,202.24L241.96,200.09L245.97,193.78L247.31,193.04L249.98,190.06L251.32,186.44L256.67,172.99L258.01,171.91L259.34,171.18L260.68,166.68L262.02,164.87L263.35,157.34L264.69,154.5L266.03,149.85L270.04,138.36L271.37,135.82L274.05,118.65L275.38,113.71L279.39,98.25L280.73,95.95L283.4,91.31L284.74,73.06L286.08,86.86L287.42,84.26L290.09,80.69L291.43,79.67L295.44,74.68L296.77,73.7L299.45,71.84L300.78,70.76L315.49,58.63L316.83,57.12L323.51,51.15L324.85,50.66L328.86,49.54L330.19,48.66L340.89,43.47L342.22,43.28L346.23,42.4L347.57,42.05L352.92,41.08L354.26,40.93L360.94,38.92L362.28,38.58L370.3,37.36L371.63,36.97L375.64,36.18L376.98,36.04L385,34.81L386.34,34.57L399.71,33.69L401.04,33.69L413.08,33.05L414.41,33.05L499.97,30.17L501.31,30.02L505.32,29.29L506.65,29.24L512,27.82L512,391.23L318.16,391.33L316.83,391.33L284.74,391.82L283.4,391.87L263.35,392.55L262.02,392.65L223.25,393.34L221.91,393.48L192.5,394.17L191.16,394.27L0,395Z" style="fill: rgb(0, 255, 0); fill-opacity: 1; stroke-width: 0;"/></g></g><g class="errorbars"/><g class="lines"><path class="js-line" d="M0,395L191.16,394.27L192.5,394.17L221.91,393.48L223.25,393.34L262.02,392.65L263.35,392.55L283.4,391.87L284.74,391.82L316.83,391.33L318.16,391.33L512,391.23" style="vector-effect: non-scaling-stroke; fill: none; stroke: rgb(139, 0, 0); stroke-opacity: 1; stroke-width: 2px; opacity: 1;"/></g><g class="points"/><g class="text"/></g><g class="trace scatter trace7a38a1" style="stroke-miterlimit: 2;"><g class="fills"><g><path class="js-fill" d="M0,395L109.62,394.27L110.96,394.22L116.3,393.78L117.64,392.75L118.98,392.6L120.31,390.74L124.32,390.5L125.66,389.42L127,387.81L128.33,387.76L133.68,387.08L135.02,386.39L136.36,384.48L137.69,383.99L141.7,383.07L143.04,381.26L145.71,378.76L147.05,377.64L148.39,376.17L149.72,376.02L155.07,375.63L156.41,374.95L159.08,372.89L160.42,370.15L161.75,369.76L163.09,367.56L167.1,364.72L168.44,363.99L169.78,360.96L171.11,356.02L172.45,353.28L173.79,348.09L176.46,341.25L177.8,337.77L181.81,329.07L183.14,327.06L185.82,317.96L187.15,316.11L191.16,304.22L192.5,301.63L195.17,294.78L196.51,293.21L199.19,283.43L200.52,277.27L201.86,275.95L203.2,272.28L209.88,260.15L211.22,255.01L212.55,250.76L213.89,243.28L217.9,229.19L219.24,226.3L224.58,211.63L225.92,211.09L227.26,209.72L228.6,204.39L231.27,194.51L232.61,190.55L233.94,188.69L235.28,183.16L237.95,176.32L239.29,174.26L243.3,165.75L244.64,164.43L249.98,157.04L251.32,153.47L253.99,145.94L255.33,145.45L256.67,143.3L258.01,139.68L259.34,132.34L260.68,129.51L263.35,116.25L264.69,110.82L267.36,102.61L268.7,96.49L270.04,93.17L271.37,91.99L276.72,80.6L278.06,76.93L284.74,71.35L286.08,70.57L288.75,68.96L290.09,67.83L291.43,67.34L292.76,66.02L294.1,65.19L295.44,62.84L299.45,61.23L300.78,60.25L304.79,56.73L306.13,55.16L308.8,53.25L310.14,53.11L312.81,51.25L314.15,50.66L322.17,47.34L323.51,46.85L326.18,44.99L327.52,44.55L339.55,40.88L340.89,40.78L348.91,39.61L350.25,39.22L352.92,38.34L354.26,38.24L367.62,35.25L368.96,34.86L395.7,33.3L397.03,33.05L423.77,32.32L425.11,32.27L459.86,31.54L461.2,31.49L475.91,31.05L477.24,31.05L495.96,29.09L497.3,28.8L499.97,27.87L501.31,27.72L505.32,26.26L506.65,25.47L510.66,22.93L512,19.75L512,27.82L506.65,29.24L505.32,29.29L501.31,30.02L499.97,30.17L414.41,33.05L413.08,33.05L401.04,33.69L399.71,33.69L386.34,34.57L385,34.81L376.98,36.04L375.64,36.18L371.63,36.97L370.3,37.36L362.28,38.58L360.94,38.92L354.26,40.93L352.92,41.08L347.57,42.05L346.23,42.4L342.22,43.28L340.89,43.47L330.19,48.66L328.86,49.54L324.85,50.66L323.51,51.15L316.83,57.12L315.49,58.63L300.78,70.76L299.45,71.84L296.77,73.7L295.44,74.68L291.43,79.67L290.09,80.69L287.42,84.26L286.08,86.86L284.74,73.06L283.4,91.31L280.73,95.95L279.39,98.25L275.38,113.71L274.05,118.65L271.37,135.82L270.04,138.36L266.03,149.85L264.69,154.5L263.35,157.34L262.02,164.87L260.68,166.68L259.34,171.18L258.01,171.91L256.67,172.99L251.32,186.44L249.98,190.06L247.31,193.04L245.97,193.78L241.96,200.09L240.63,202.24L239.29,208.45L237.95,208.45L236.62,210.85L235.28,215.05L233.94,217.4L232.61,220.97L228.6,239.71L227.26,243.57L221.91,267.24L220.57,269.35L217.9,273.01L216.56,275.26L215.23,275.9L213.89,279.13L211.22,297.27L209.88,301.97L208.54,303.19L207.21,304.51L204.53,307.4L203.2,309.75L200.52,315.86L199.19,321.73L195.17,325.2L193.84,330.24L191.16,332.34L189.83,340.85L187.15,355.82L185.82,355.82L184.48,357.48L183.14,360.71L180.47,361.98L179.13,374.65L177.8,374.65L176.46,379.2L171.11,379.25L169.78,384.97L157.74,385.02L156.41,385.02L153.73,385.71L152.4,387.13L149.72,387.13L148.39,387.13L141.7,389.72L140.37,391.04L132.34,391.23L131.01,393.78L128.33,393.97L127,394.51L0,395Z" style="fill: rgb(255, 165, 0); fill-opacity: 1; stroke-width: 0;"/></g></g><g class="errorbars"/><g class="lines"><path class="js-line" d="M0,395L127,394.51L128.33,393.97L131.01,393.78L132.34,391.23L140.37,391.04L141.7,389.72L148.39,387.13L149.72,387.13L152.4,387.13L153.73,385.71L156.41,385.02L157.74,385.02L169.78,384.97L171.11,379.25L176.46,379.2L177.8,374.65L179.13,374.65L180.47,361.98L183.14,360.71L184.48,357.48L185.82,355.82L187.15,355.82L189.83,340.85L191.16,332.34L193.84,330.24L195.17,325.2L199.19,321.73L200.52,315.86L203.2,309.75L204.53,307.4L207.21,304.51L208.54,303.19L209.88,301.97L211.22,297.27L213.89,279.13L215.23,275.9L216.56,275.26L217.9,273.01L220.57,269.35L221.91,267.24L227.26,243.57L228.6,239.71L232.61,220.97L233.94,217.4L235.28,215.05L236.62,210.85L237.95,208.45L239.29,208.45L240.63,202.24L241.96,200.09L245.97,193.78L247.31,193.04L249.98,190.06L251.32,186.44L256.67,172.99L258.01,171.91L259.34,171.18L260.68,166.68L262.02,164.87L263.35,157.34L264.69,154.5L266.03,149.85L270.04,138.36L271.37,135.82L274.05,118.65L275.38,113.71L279.39,98.25L280.73,95.95L283.4,91.31L284.74,73.06L286.08,86.86L287.42,84.26L290.09,80.69L291.43,79.67L295.44,74.68L296.77,73.7L299.45,71.84L300.78,70.76L315.49,58.63L316.83,57.12L323.51,51.15L324.85,50.66L328.86,49.54L330.19,48.66L340.89,43.47L342.22,43.28L346.23,42.4L347.57,42.05L352.92,41.08L354.26,40.93L360.94,38.92L362.28,38.58L370.3,37.36L371.63,36.97L375.64,36.18L376.98,36.04L385,34.81L386.34,34.57L399.71,33.69L401.04,33.69L413.08,33.05L414.41,33.05L499.97,30.17L501.31,30.02L505.32,29.29L506.65,29.24L512,27.82" style="vector-effect: non-scaling-stroke; fill: none; stroke: rgb(0, 255, 0); stroke-opacity: 1; stroke-width: 2px; opacity: 1;"/></g><g class="points"/><g class="text"/></g><g class="trace scatter tracef88487" style="stroke-miterlimit: 2;"><g class="fills"/><g class="errorbars"/><g class="lines"><path class="js-line" d="M0,395L109.62,394.27L110.96,394.22L116.3,393.78L117.64,392.75L118.98,392.6L120.31,390.74L124.32,390.5L125.66,389.42L127,387.81L128.33,387.76L133.68,387.08L135.02,386.39L136.36,384.48L137.69,383.99L141.7,383.07L143.04,381.26L145.71,378.76L147.05,377.64L148.39,376.17L149.72,376.02L155.07,375.63L156.41,374.95L159.08,372.89L160.42,370.15L161.75,369.76L163.09,367.56L167.1,364.72L168.44,363.99L169.78,360.96L171.11,356.02L172.45,353.28L173.79,348.09L176.46,341.25L177.8,337.77L181.81,329.07L183.14,327.06L185.82,317.96L187.15,316.11L191.16,304.22L192.5,301.63L195.17,294.78L196.51,293.21L199.19,283.43L200.52,277.27L201.86,275.95L203.2,272.28L209.88,260.15L211.22,255.01L212.55,250.76L213.89,243.28L217.9,229.19L219.24,226.3L224.58,211.63L225.92,211.09L227.26,209.72L228.6,204.39L231.27,194.51L232.61,190.55L233.94,188.69L235.28,183.16L237.95,176.32L239.29,174.26L243.3,165.75L244.64,164.43L249.98,157.04L251.32,153.47L253.99,145.94L255.33,145.45L256.67,143.3L258.01,139.68L259.34,132.34L260.68,129.51L263.35,116.25L264.69,110.82L267.36,102.61L268.7,96.49L270.04,93.17L271.37,91.99L276.72,80.6L278.06,76.93L284.74,71.35L286.08,70.57L288.75,68.96L290.09,67.83L291.43,67.34L292.76,66.02L294.1,65.19L295.44,62.84L299.45,61.23L300.78,60.25L304.79,56.73L306.13,55.16L308.8,53.25L310.14,53.11L312.81,51.25L314.15,50.66L322.17,47.34L323.51,46.85L326.18,44.99L327.52,44.55L339.55,40.88L340.89,40.78L348.91,39.61L350.25,39.22L352.92,38.34L354.26,38.24L367.62,35.25L368.96,34.86L395.7,33.3L397.03,33.05L423.77,32.32L425.11,32.27L459.86,31.54L461.2,31.49L475.91,31.05L477.24,31.05L495.96,29.09L497.3,28.8L499.97,27.87L501.31,27.72L505.32,26.26L506.65,25.47L510.66,22.93L512,19.75" style="vector-effect: non-scaling-stroke; fill: none; stroke: rgb(255, 165, 0); stroke-opacity: 1; stroke-width: 2px; opacity: 1;"/></g><g class="points"/><g class="text"/></g></g></g><g class="overplot"/><path class="xlines-above crisp" d="M0,0" style="fill: none;"/><path class="ylines-above crisp" d="M0,0" style="fill: none;"/><g class="overlines-above"/><g class="xaxislayer-above"><g class="xtick"><text text-anchor="end" x="0" y="434" transform="translate(60,0) rotate(-45,0,427.5)" style="font-family: serif; font-size: 13px; fill: rgb(68, 68, 68); fill-opacity: 1; white-space: pre; opacity: 1;">Mar-22-20</text></g><g class="xtick"><text text-anchor="end" x="0" y="434" transform="translate(76.03999999999999,0) rotate(-45,0,427.5)" style="font-family: serif; font-size: 13px; fill: rgb(68, 68, 68); fill-opacity: 1; white-space: pre; opacity: 1;">Apr-03-20</text></g><g class="xtick"><text text-anchor="end" x="0" y="434" transform="translate(92.08,0) rotate(-45,0,427.5)" style="font-family: serif; font-size: 13px; fill: rgb(68, 68, 68); fill-opacity: 1; white-space: pre; opacity: 1;">Apr-15-20</text></g><g class="xtick"><text text-anchor="end" x="0" y="434" transform="translate(108.13,0) rotate(-45,0,427.5)" style="font-family: serif; font-size: 13px; fill: rgb(68, 68, 68); fill-opacity: 1; white-space: pre; opacity: 1;">Apr-27-20</text></g><g class="xtick"><text text-anchor="end" x="0" y="434" transform="translate(124.17,0) rotate(-45,0,427.5)" style="font-family: serif; font-size: 13px; fill: rgb(68, 68, 68); fill-opacity: 1; white-space: pre; opacity: 1;">May-09-20</text></g><g class="xtick"><text text-anchor="end" x="0" y="434" transform="translate(140.20999999999998,0) rotate(-45,0,427.5)" style="font-family: serif; font-size: 13px; fill: rgb(68, 68, 68); fill-opacity: 1; white-space: pre; opacity: 1;">May-21-20</text></g><g class="xtick"><text text-anchor="end" x="0" y="434" transform="translate(156.25,0) rotate(-45,0,427.5)" style="font-family: serif; font-size: 13px; fill: rgb(68, 68, 68); fill-opacity: 1; white-space: pre; opacity: 1;">Jun-02-20</text></g><g class="xtick"><text text-anchor="end" x="0" y="434" transform="translate(172.29000000000002,0) rotate(-45,0,427.5)" style="font-family: serif; font-size: 13px; fill: rgb(68, 68, 68); fill-opacity: 1; white-space: pre; opacity: 1;">Jun-14-20</text></g><g class="xtick"><text text-anchor="end" x="0" y="434" transform="translate(188.33,0) rotate(-45,0,427.5)" style="font-family: serif; font-size: 13px; fill: rgb(68, 68, 68); fill-opacity: 1; white-space: pre; opacity: 1;">Jun-26-20</text></g><g class="xtick"><text text-anchor="end" x="0" y="434" transform="translate(204.38,0) rotate(-45,0,427.5)" style="font-family: serif; font-size: 13px; fill: rgb(68, 68, 68); fill-opacity: 1; white-space: pre; opacity: 1;">Jul-08-20</text></g><g class="xtick"><text text-anchor="end" x="0" y="434" transform="translate(220.42,0) rotate(-45,0,427.5)" style="font-family: serif; font-size: 13px; fill: rgb(68, 68, 68); fill-opacity: 1; white-space: pre; opacity: 1;">Jul-20-20</text></g><g class="xtick"><text text-anchor="end" x="0" y="434" transform="translate(236.46,0) rotate(-45,0,427.5)" style="font-family: serif; font-size: 13px; fill: rgb(68, 68, 68); fill-opacity: 1; white-space: pre; opacity: 1;">Aug-01-20</text></g><g class="xtick"><text text-anchor="end" x="0" y="434" transform="translate(252.5,0) rotate(-45,0,427.5)" style="font-family: serif; font-size: 13px; fill: rgb(68, 68, 68); fill-opacity: 1; white-space: pre; opacity: 1;">Aug-13-20</text></g><g class="xtick"><text text-anchor="end" x="0" y="434" transform="translate(268.53999999999996,0) rotate(-45,0,427.5)" style="font-family: serif; font-size: 13px; fill: rgb(68, 68, 68); fill-opacity: 1; white-space: pre; opacity: 1;">Aug-25-20</text></g><g class="xtick"><text text-anchor="end" x="0" y="434" transform="translate(284.58000000000004,0) rotate(-45,0,427.5)" style="font-family: serif; font-size: 13px; fill: rgb(68, 68, 68); fill-opacity: 1; white-space: pre; opacity: 1;">Sep-06-20</text></g><g class="xtick"><text text-anchor="end" x="0" y="434" transform="translate(300.63,0) rotate(-45,0,427.5)" style="font-family: serif; font-size: 13px; fill: rgb(68, 68, 68); fill-opacity: 1; white-space: pre; opacity: 1;">Sep-18-20</text></g><g class="xtick"><text text-anchor="end" x="0" y="434" transform="translate(316.67,0) rotate(-45,0,427.5)" style="font-family: serif; font-size: 13px; fill: rgb(68, 68, 68); fill-opacity: 1; white-space: pre; opacity: 1;">Sep-30-20</text></g><g class="xtick"><text text-anchor="end" x="0" y="434" transform="translate(332.71,0) rotate(-45,0,427.5)" style="font-family: serif; font-size: 13px; fill: rgb(68, 68, 68); fill-opacity: 1; white-space: pre; opacity: 1;">Oct-12-20</text></g><g class="xtick"><text text-anchor="end" x="0" y="434" transform="translate(348.75,0) rotate(-45,0,427.5)" style="font-family: serif; font-size: 13px; fill: rgb(68, 68, 68); fill-opacity: 1; white-space: pre; opacity: 1;">Oct-24-20</text></g><g class="xtick"><text text-anchor="end" x="0" y="434" transform="translate(364.79,0) rotate(-45,0,427.5)" style="font-family: serif; font-size: 13px; fill: rgb(68, 68, 68); fill-opacity: 1; white-space: pre; opacity: 1;">Nov-05-20</text></g><g class="xtick"><text text-anchor="end" x="0" y="434" transform="translate(380.84,0) rotate(-45,0,427.5)" style="font-family: serif; font-size: 13px; fill: rgb(68, 68, 68); fill-opacity: 1; white-space: pre; opacity: 1;">Nov-17-20</text></g><g class="xtick"><text text-anchor="end" x="0" y="434" transform="translate(396.88,0) rotate(-45,0,427.5)" style="font-family: serif; font-size: 13px; fill: rgb(68, 68, 68); fill-opacity: 1; white-space: pre; opacity: 1;">Nov-29-20</text></g><g class="xtick"><text text-anchor="end" x="0" y="434" transform="translate(412.92,0) rotate(-45,0,427.5)" style="font-family: serif; font-size: 13px; fill: rgb(68, 68, 68); fill-opacity: 1; white-space: pre; opacity: 1;">Dec-11-20</text></g><g class="xtick"><text text-anchor="end" x="0" y="434" transform="translate(428.96,0) rotate(-45,0,427.5)" style="font-family: serif; font-size: 13px; fill: rgb(68, 68, 68); fill-opacity: 1; white-space: pre; opacity: 1;">Dec-23-20</text></g><g class="xtick"><text text-anchor="end" x="0" y="434" transform="translate(445,0) rotate(-45,0,427.5)" style="font-family: serif; font-size: 13px; fill: rgb(68, 68, 68); fill-opacity: 1; white-space: pre; opacity: 1;">Jan-04-21</text></g><g class="xtick"><text text-anchor="end" x="0" y="434" transform="translate(461.04,0) rotate(-45,0,427.5)" style="font-family: serif; font-size: 13px; fill: rgb(68, 68, 68); fill-opacity: 1; white-space: pre; opacity: 1;">Jan-16-21</text></g><g class="xtick"><text text-anchor="end" x="0" y="434" transform="translate(477.09,0) rotate(-45,0,427.5)" style="font-family: serif; font-size: 13px; fill: rgb(68, 68, 68); fill-opacity: 1; white-space: pre; opacity: 1;">Jan-28-21</text></g><g class="xtick"><text text-anchor="end" x="0" y="434" transform="translate(493.13,0) rotate(-45,0,427.5)" style="font-family: serif; font-size: 13px; fill: rgb(68, 68, 68); fill-opacity: 1; white-space: pre; opacity: 1;">Feb-09-21</text></g><g class="xtick"><text text-anchor="end" x="0" y="434" transform="translate(509.17,0) rotate(-45,0,427.5)" style="font-family: serif; font-size: 13px; fill: rgb(68, 68, 68); fill-opacity: 1; white-space: pre; opacity: 1;">Feb-21-21</text></g><g class="xtick"><text text-anchor="end" x="0" y="434" transform="translate(525.21,0) rotate(-45,0,427.5)" style="font-family: serif; font-size: 13px; fill: rgb(68, 68, 68); fill-opacity: 1; white-space: pre; opacity: 1;">Mar-05-21</text></g><g class="xtick"><text text-anchor="end" x="0" y="434" transform="translate(541.25,0) rotate(-45,0,427.5)" style="font-family: serif; font-size: 13px; fill: rgb(68, 68, 68); fill-opacity: 1; white-space: pre; opacity: 1;">Mar-17-21</text></g><g class="xtick"><text text-anchor="end" x="0" y="434" transform="translate(557.3,0) rotate(-45,0,427.5)" style="font-family: serif; font-size: 13px; fill: rgb(68, 68, 68); fill-opacity: 1; white-space: pre; opacity: 1;">Mar-29-21</text></g></g><g class="yaxislayer-above"><g class="ytick"><text text-anchor="end" x="59" y="4.199999999999999" transform="translate(0,420)" style="font-family: 'Open Sans', verdana, arial, sans-serif; font-size: 12px; fill: rgb(68, 68, 68); fill-opacity: 1; white-space: pre; opacity: 1;">0</text></g><g class="ytick"><text text-anchor="end" x="59" y="4.199999999999999" style="font-family: 'Open Sans', verdana, arial, sans-serif; font-size: 12px; fill: rgb(68, 68, 68); fill-opacity: 1; white-space: pre; opacity: 1;" transform="translate(0,371.09)">1000</text></g><g class="ytick"><text text-anchor="end" x="59" y="4.199999999999999" style="font-family: 'Open Sans', verdana, arial, sans-serif; font-size: 12px; fill: rgb(68, 68, 68); fill-opacity: 1; white-space: pre; opacity: 1;" transform="translate(0,322.18)">2000</text></g><g class="ytick"><text text-anchor="end" x="59" y="4.199999999999999" style="font-family: 'Open Sans', verdana, arial, sans-serif; font-size: 12px; fill: rgb(68, 68, 68); fill-opacity: 1; white-space: pre; opacity: 1;" transform="translate(0,273.27)">3000</text></g><g class="ytick"><text text-anchor="end" x="59" y="4.199999999999999" style="font-family: 'Open Sans', verdana, arial, sans-serif; font-size: 12px; fill: rgb(68, 68, 68); fill-opacity: 1; white-space: pre; opacity: 1;" transform="translate(0,224.35)">4000</text></g><g class="ytick"><text text-anchor="end" x="59" y="4.199999999999999" style="font-family: 'Open Sans', verdana, arial, sans-serif; font-size: 12px; fill: rgb(68, 68, 68); fill-opacity: 1; white-space: pre; opacity: 1;" transform="translate(0,175.44)">5000</text></g><g class="ytick"><text text-anchor="end" x="59" y="4.199999999999999" style="font-family: 'Open Sans', verdana, arial, sans-serif; font-size: 12px; fill: rgb(68, 68, 68); fill-opacity: 1; white-space: pre; opacity: 1;" transform="translate(0,126.53)">6000</text></g><g class="ytick"><text text-anchor="end" x="59" y="4.199999999999999" style="font-family: 'Open Sans', verdana, arial, sans-serif; font-size: 12px; fill: rgb(68, 68, 68); fill-opacity: 1; white-space: pre; opacity: 1;" transform="translate(0,77.62)">7000</text></g><g class="ytick"><text text-anchor="end" x="59" y="4.199999999999999" style="font-family: 'Open Sans', verdana, arial, sans-serif; font-size: 12px; fill: rgb(68, 68, 68); fill-opacity: 1; white-space: pre; opacity: 1;" transform="translate(0,28.71)">8000</text></g></g><g class="overaxes-above"/></g></g><g class="polarlayer"/><g class="smithlayer"/><g class="ternarylayer"/><g class="geolayer"/><g class="funnelarealayer"/><g class="pielayer"/><g class="iciclelayer"/><g class="treemaplayer"/><g class="sunburstlayer"/><g class="glimages"/><defs id="topdefs-7e4f49"><g class="clips"/><clipPath id="legend7e4f49"><rect width="108" height="67" x="0" y="0"/></clipPath></defs><g class="layer-above"><g class="imagelayer"/><g class="shapelayer"/></g><g class="infolayer"><g class="legend" pointer-events="all" transform="translate(582.24,25)"><rect class="bg" shape-rendering="crispEdges" style="stroke: rgb(68, 68, 68); stroke-opacity: 1; fill: rgb(255, 255, 255); fill-opacity: 1; stroke-width: 0px;" width="108" height="67" x="0" y="0"/><g class="scrollbox" transform="" clip-path="url(#legend7e4f49)"><g class="groups"><g class="traces" transform="translate(0,14.5)" style="opacity: 1;"><text class="legendtext" text-anchor="start" x="40" y="4.680000000000001" style="font-family: 'Open Sans', verdana, arial, sans-serif; font-size: 12px; fill: rgb(68, 68, 68); fill-opacity: 1; white-space: pre;">Active</text><g class="layers"><g class="legendfill"><path class="js-fill" d="M5,-2h30v6h-30z" style="stroke-width: 0; fill: rgb(255, 165, 0); fill-opacity: 1;"/></g><g class="legendlines"><path class="js-line" d="M5,-2h30" style="fill: none; stroke: rgb(255, 165, 0); stroke-opacity: 1; stroke-width: 2px;"/></g><g class="legendsymbols"><g class="legendpoints"/></g></g><rect class="legendtoggle" x="0" y="-9.5" width="102.546875" height="19" style="fill: rgb(0, 0, 0); fill-opacity: 0;"/></g><g class="traces" transform="translate(0,33.5)" style="opacity: 1;"><text class="legendtext" text-anchor="start" x="40" y="4.680000000000001" style="font-family: 'Open Sans', verdana, arial, sans-serif; font-size: 12px; fill: rgb(68, 68, 68); fill-opacity: 1; white-space: pre;">Recovered</text><g class="layers"><g class="legendfill"><path class="js-fill" d="M5,-2h30v6h-30z" style="stroke-width: 0; fill: rgb(0, 255, 0); fill-opacity: 1;"/></g><g class="legendlines"><path class="js-line" d="M5,-2h30" style="fill: none; stroke: rgb(0, 255, 0); stroke-opacity: 1; stroke-width: 2px;"/></g><g class="legendsymbols"><g class="legendpoints"/></g></g><rect class="legendtoggle" x="0" y="-9.5" width="102.546875" height="19" style="fill: rgb(0, 0, 0); fill-opacity: 0;"/></g><g class="traces" transform="translate(0,52.5)" style="opacity: 1;"><text class="legendtext" text-anchor="start" x="40" y="4.680000000000001" style="font-family: 'Open Sans', verdana, arial, sans-serif; font-size: 12px; fill: rgb(68, 68, 68); fill-opacity: 1; white-space: pre;">Deceased</text><g class="layers"><g class="legendfill"><path class="js-fill" d="M5,-2h30v6h-30z" style="stroke-width: 0; fill: rgb(139, 0, 0); fill-opacity: 1;"/></g><g class="legendlines"><path class="js-line" d="M5,-2h30" style="fill: none; stroke: rgb(139, 0, 0); stroke-opacity: 1; stroke-width: 2px;"/></g><g class="legendsymbols"><g class="legendpoints"/></g></g><rect class="legendtoggle" x="0" y="-9.5" width="102.546875" height="19" style="fill: rgb(0, 0, 0); fill-opacity: 0;"/></g></g></g><rect class="scrollbar" rx="20" ry="3" width="0" height="0" style="fill: rgb(128, 139, 164); fill-opacity: 1;" x="0" y="0"/></g><g class="g-gtitle"><text class="gtitle" x="350" y="12.5" text-anchor="middle" dy="0em" style="font-family: serif; font-size: 18px; fill: rgb(68, 68, 68); opacity: 1; font-weight: normal; white-space: pre;">Ramanagara</text></g><g class="g-xtitle" transform="translate(0,19.2626953125)"><text class="xtitle" x="316" y="472" text-anchor="middle" style="font-family: 'Open Sans', verdana, arial, sans-serif; font-size: 14px; fill: rgb(68, 68, 68); opacity: 1; font-weight: normal; white-space: pre;">Date</text></g><g class="g-ytitle" transform="translate(2,0)"><text class="ytitle" transform="rotate(-90,14,222.5)" x="14" y="222.5" text-anchor="middle" style="font-family: serif; font-size: 18px; fill: rgb(0, 0, 0); opacity: 1; font-weight: normal; white-space: pre;">Number of Cases</text></g></g></svg>