<svg class="main-svg" xmlns="http://www.w3.org/2000/svg" xmlns:xlink="http://www.w3.org/1999/xlink" width="700" height="500" style="" viewBox="0 0 700 500"><rect x="0" y="0" width="700" height="500" style="fill: rgb(255, 255, 255); fill-opacity: 1;"/><defs id="defs-512115"><g class="clips"><clipPath id="clip512115xyplot" class="plotclip"><rect width="512" height="395"/></clipPath><clipPath class="axesclip" id="clip512115x"><rect x="60" y="0" width="512" height="500"/></clipPath><clipPath class="axesclip" id="clip512115y"><rect x="0" y="25" width="700" height="395"/></clipPath><clipPath class="axesclip" id="clip512115xy"><rect x="60" y="25" width="512" height="395"/></clipPath></g><g class="gradients"/><g class="patterns"/></defs><g class="bglayer"/><g class="layer-below"><g class="imagelayer"/><g class="shapelayer"/></g><g class="cartesianlayer"><g class="subplot xy"><g class="layer-subplot"><g class="shapelayer"/><g class="imagelayer"/></g><g class="gridlayer"><g class="x"><path class="xgrid crisp" transform="translate(76.03999999999999,0)" d="M0,25v395" style="stroke: rgb(238, 238, 238); stroke-opacity: 1; stroke-width: 1px;"/><path class="xgrid crisp" transform="translate(92.08,0)" d="M0,25v395" style="stroke: rgb(238, 238, 238); stroke-opacity: 1; stroke-width: 1px;"/><path class="xgrid crisp" transform="translate(108.13,0)" d="M0,25v395" style="stroke: rgb(238, 238, 238); stroke-opacity: 1; stroke-width: 1px;"/><path class="xgrid crisp" transform="translate(124.17,0)" d="M0,25v395" style="stroke: rgb(238, 238, 238); stroke-opacity: 1; stroke-width: 1px;"/><path class="xgrid crisp" transform="translate(140.20999999999998,0)" d="M0,25v395" style="stroke: rgb(238, 238, 238); stroke-opacity: 1; stroke-width: 1px;"/><path class="xgrid crisp" transform="translate(156.25,0)" d="M0,25v395" style="stroke: rgb(238, 238, 238); stroke-opacity: 1; stroke-width: 1px;"/><path class="xgrid crisp" transform="translate(172.29000000000002,0)" d="M0,25v395" style="stroke: rgb(238, 238, 238); stroke-opacity: 1; stroke-width: 1px;"/><path class="xgrid crisp" transform="translate(188.33,0)" d="M0,25v395" style="stroke: rgb(238, 238, 238); stroke-opacity: 1; stroke-width: 1px;"/><path class="xgrid crisp" transform="translate(204.38,0)" d="M0,25v395" style="stroke: rgb(238, 238, 238); stroke-opacity: 1; stroke-width: 1px;"/><path class="xgrid crisp" transform="translate(220.42,0)" d="M0,25v395" style="stroke: rgb(238, 238, 238); stroke-opacity: 1; stroke-width: 1px;"/><path class="xgrid crisp" transform="translate(236.46,0)" d="M0,25v395" style="stroke: rgb(238, 238, 238); stroke-opacity: 1; stroke-width: 1px;"/><path class="xgrid crisp" transform="translate(252.5,0)" d="M0,25v395" style="stroke: rgb(238, 238, 238); stroke-opacity: 1; stroke-width: 1px;"/><path class="xgrid crisp" transform="translate(268.53999999999996,0)" d="M0,25v395" style="stroke: rgb(238, 238, 238); stroke-opacity: 1; stroke-width: 1px;"/><path class="xgrid crisp" transform="translate(284.58000000000004,0)" d="M0,25v395" style="stroke: rgb(238, 238, 238); stroke-opacity: 1; stroke-width: 1px;"/><path class="xgrid crisp" transform="translate(300.63,0)" d="M0,25v395" style="stroke: rgb(238, 238, 238); stroke-opacity: 1; stroke-width: 1px;"/><path class="xgrid crisp" transform="translate(316.67,0)" d="M0,25v395" style="stroke: rgb(238, 238, 238); stroke-opacity: 1; stroke-width: 1px;"/><path class="xgrid crisp" transform="translate(332.71,0)" d="M0,25v395" style="stroke: rgb(238, 238, 238); stroke-opacity: 1; stroke-width: 1px;"/><path class="xgrid crisp" transform="translate(348.75,0)" d="M0,25v395" style="stroke: rgb(238, 238, 238); stroke-opacity: 1; stroke-width: 1px;"/><path class="xgrid crisp" transform="translate(364.79,0)" d="M0,25v395" style="stroke: rgb(238, 238, 238); stroke-opacity: 1; stroke-width: 1px;"/><path class="xgrid crisp" transform="translate(380.84,0)" d="M0,25v395" style="stroke: rgb(238, 238, 238); stroke-opacity: 1; stroke-width: 1px;"/><path class="xgrid crisp" transform="translate(396.88,0)" d="M0,25v395" style="stroke: rgb(238, 238, 238); stroke-opacity: 1; stroke-width: 1px;"/><path class="xgrid crisp" transform="translate(412.92,0)" d="M0,25v395" style="stroke: rgb(238, 238, 238); stroke-opacity: 1; stroke-width: 1px;"/><path class="xgrid crisp" transform="translate(428.96,0)" d="M0,25v395" style="stroke: rgb(238, 238, 238); stroke-opacity: 1; stroke-width: 1px;"/><path class="xgrid crisp" transform="translate(445,0)" d="M0,25v395" style="stroke: rgb(238, 238, 238); stroke-opacity: 1; stroke-width: 1px;"/><path class="xgrid crisp" transform="translate(461.04,0)" d="M0,25v395" style="stroke: rgb(238, 238, 238); stroke-opacity: 1; stroke-width: 1px;"/><path class="xgrid crisp" transform="translate(477.09,0)" d="M0,25v395" style="stroke: rgb(238, 238, 238); stroke-opacity: 1; stroke-width: 1px;"/><path class="xgrid crisp" transform="translate(493.13,0)" d="M0,25v395" style="stroke: rgb(238, 238, 238); stroke-opacity: 1; stroke-width: 1px;"/><path class="xgrid crisp" transform="translate(509.17,0)" d="M0,25v395" style="stroke: rgb(238, 238, 238); stroke-opacity: 1; stroke-width: 1px;"/><path class="xgrid crisp" transform="translate(525.21,0)" d="M0,25v395" style="stroke: rgb(238, 238, 238); stroke-opacity: 1; stroke-width: 1px;"/><path class="xgrid crisp" transform="translate(541.25,0)" d="M0,25v395" style="stroke: rgb(238, 238, 238); stroke-opacity: 1; stroke-width: 1px;"/><path class="xgrid crisp" transform="translate(557.3,0)" d="M0,25v395" style="stroke: rgb(238, 238, 238); stroke-opacity: 1; stroke-width: 1px;"/></g><g class="y"><path class="ygrid crisp" transform="translate(0,338.91)" d="M60,0h512" style="stroke: rgb(238, 238, 238); stroke-opacity: 1; stroke-width: 1px;"/><path class="ygrid crisp" transform="translate(0,257.82)" d="M60,0h512" style="stroke: rgb(238, 238, 238); stroke-opacity: 1; stroke-width: 1px;"/><path class="ygrid crisp" transform="translate(0,176.73)" d="M60,0h512" style="stroke: rgb(238, 238, 238); stroke-opacity: 1; stroke-width: 1px;"/><path class="ygrid crisp" transform="translate(0,95.64)" d="M60,0h512" style="stroke: rgb(238, 238, 238); stroke-opacity: 1; stroke-width: 1px;"/></g></g><g class="zerolinelayer"><path class="yzl zl crisp" transform="translate(0,420)" d="M60,0h512" style="stroke: rgb(68, 68, 68); stroke-opacity: 1; stroke-width: 1px;"/></g><path class="xlines-below"/><path class="ylines-below"/><g class="overlines-below"/><g class="xaxislayer-below"/><g class="yaxislayer-below"/><g class="overaxes-below"/><g class="plot" transform="translate(60,25)" clip-path="url(#clip512115xyplot)"><g class="scatterlayer mlayer"><g class="trace scatter trace3acc8f" style="stroke-miterlimit: 2;"><g class="fills"><g><path class="js-fill" d="M512,395L0,395L0,395L181.81,394.27L183.14,394.22L213.89,393.25L215.23,393.17L283.4,389.55L284.74,389.53L512,389.32" style="fill: rgb(139, 0, 0); fill-opacity: 1; stroke-width: 0;"/></g><g><path class="js-fill" d="M0,395L112.29,394.29L113.63,394.12L128.33,393.41L129.67,393.28L145.71,392.65L147.05,392.19L151.06,391.64L152.4,391.12L160.42,390.04L161.75,388.29L167.1,387.8L168.44,386.7L169.78,386.68L171.11,385.69L173.79,385.19L175.12,385.24L176.46,383.05L177.8,382.56L179.13,382.56L180.47,381.8L181.81,381.04L183.14,379.38L185.82,375.88L187.15,375.41L188.49,374.45L189.83,367.11L193.84,360.73L195.17,359.19L196.51,359.06L197.85,357.96L199.19,357.18L200.52,347.9L201.86,347.63L203.2,346.39L204.53,344.22L205.87,339.76L211.22,317.06L212.55,315.6L220.57,294.61L221.91,287.77L225.92,273.63L227.26,269.23L229.93,262.82L231.27,256.35L235.28,243.72L236.62,243.72L239.29,243.75L240.63,224.94L241.96,222.59L243.3,216.86L249.98,199.54L251.32,196.53L256.67,180.62L258.01,179.17L259.34,176.4L260.68,162.31L263.35,154.81L264.69,151.41L266.03,149.53L267.36,145.57L279.39,107.81L280.73,104.36L284.74,94.47L286.08,91.98L288.75,88.29L290.09,85.48L292.76,82.72L294.1,79.59L295.44,78.98L296.77,76.12L298.11,71.87L299.45,70.29L303.46,67.38L304.79,67.04L307.47,64.75L308.8,63.96L314.15,60.86L315.49,58.24L316.83,57.76L318.16,56.31L323.51,54.16L324.85,53.6L327.52,52.36L328.86,51.89L331.53,50.42L332.87,50.29L338.21,49.01L339.55,48.6L350.25,46.09L351.58,45.89L394.36,38.45L395.7,37.25L421.1,33.7L422.43,33.6L437.14,32.59L438.48,32.56L486.6,29.68L487.94,29.63L502.64,28.07L503.98,27.86L512,25.83L512,389.32L284.74,389.53L283.4,389.55L215.23,393.17L213.89,393.25L183.14,394.22L181.81,394.27L0,395Z" style="fill: rgb(0, 255, 0); fill-opacity: 1; stroke-width: 0;"/></g></g><g class="errorbars"/><g class="lines"><path class="js-line" d="M0,395L181.81,394.27L183.14,394.22L213.89,393.25L215.23,393.17L283.4,389.55L284.74,389.53L512,389.32" style="vector-effect: non-scaling-stroke; fill: none; stroke: rgb(139, 0, 0); stroke-opacity: 1; stroke-width: 2px; opacity: 1;"/></g><g class="points"/><g class="text"/></g><g class="trace scatter trace829d38" style="stroke-miterlimit: 2;"><g class="fills"><g><path class="js-fill" d="M0,395L93.58,394.32L94.91,394.17L113.63,393.48L114.97,393.36L135.02,392.15L136.36,391.77L149.72,387.77L151.06,386.57L153.73,385.93L155.07,385.19L156.41,385.03L157.74,383.18L159.08,381.49L160.42,381.18L163.09,379.9L164.43,378.57L171.11,374.06L172.45,371.94L179.13,361.01L180.47,360.76L181.81,360.2L183.14,355.46L187.15,349.41L188.49,349.41L189.83,346.35L191.16,345.23L192.5,343.52L193.84,336.83L195.17,334.67L196.51,334.65L199.19,323.06L200.52,308.22L204.53,297.9L205.87,293.91L211.22,278.21L212.55,273.12L215.23,262.99L216.56,260.26L220.57,246.87L221.91,241.19L224.58,230.24L225.92,227.81L227.26,227.81L228.6,218.81L231.27,204.24L232.61,201.73L240.63,174.89L241.96,173.17L247.31,155.92L248.65,152.12L253.99,139.44L255.33,133.81L259.34,122.57L260.68,117.11L263.35,109.99L264.69,106.35L271.37,90.43L272.71,89.36L276.72,82.51L278.06,80.31L280.73,76.55L282.07,75.51L286.08,69.25L287.42,68.48L290.09,66.68L291.43,66.64L295.44,61.82L296.77,61.27L298.11,60.98L299.45,59.79L308.8,54.63L310.14,54.18L315.49,51.88L316.83,51.26L319.5,50.58L320.84,50.4L323.51,49.27L324.85,48.8L332.87,46.88L334.2,46.49L344.9,44.01L346.23,43.83L355.59,42.28L356.93,42.07L362.28,40.9L363.61,40.41L376.98,38.12L378.32,37.8L386.34,36.63L387.68,36.57L393.02,35.53L394.36,35.47L414.41,33.08L415.75,33.02L425.11,32.5L426.44,32.42L483.93,28.72L485.26,28.49L490.61,27.78L491.95,27.42L499.97,25.31L501.31,24.92L512,19.75L512,25.83L503.98,27.86L502.64,28.07L487.94,29.63L486.6,29.68L438.48,32.56L437.14,32.59L422.43,33.6L421.1,33.7L395.7,37.25L394.36,38.45L351.58,45.89L350.25,46.09L339.55,48.6L338.21,49.01L332.87,50.29L331.53,50.42L328.86,51.89L327.52,52.36L324.85,53.6L323.51,54.16L318.16,56.31L316.83,57.76L315.49,58.24L314.15,60.86L308.8,63.96L307.47,64.75L304.79,67.04L303.46,67.38L299.45,70.29L298.11,71.87L296.77,76.12L295.44,78.98L294.1,79.59L292.76,82.72L290.09,85.48L288.75,88.29L286.08,91.98L284.74,94.47L280.73,104.36L279.39,107.81L267.36,145.57L266.03,149.53L264.69,151.41L263.35,154.81L260.68,162.31L259.34,176.4L258.01,179.17L256.67,180.62L251.32,196.53L249.98,199.54L243.3,216.86L241.96,222.59L240.63,224.94L239.29,243.75L236.62,243.72L235.28,243.72L231.27,256.35L229.93,262.82L227.26,269.23L225.92,273.63L221.91,287.77L220.57,294.61L212.55,315.6L211.22,317.06L205.87,339.76L204.53,344.22L203.2,346.39L201.86,347.63L200.52,347.9L199.19,357.18L197.85,357.96L196.51,359.06L195.17,359.19L193.84,360.73L189.83,367.11L188.49,374.45L187.15,375.41L185.82,375.88L183.14,379.38L181.81,381.04L180.47,381.8L179.13,382.56L177.8,382.56L176.46,383.05L175.12,385.24L173.79,385.19L171.11,385.69L169.78,386.68L168.44,386.7L167.1,387.8L161.75,388.29L160.42,390.04L152.4,391.12L151.06,391.64L147.05,392.19L145.71,392.65L129.67,393.28L128.33,393.41L113.63,394.12L112.29,394.29L0,395Z" style="fill: rgb(255, 165, 0); fill-opacity: 1; stroke-width: 0;"/></g></g><g class="errorbars"/><g class="lines"><path class="js-line" d="M0,395L112.29,394.29L113.63,394.12L128.33,393.41L129.67,393.28L145.71,392.65L147.05,392.19L151.06,391.64L152.4,391.12L160.42,390.04L161.75,388.29L167.1,387.8L168.44,386.7L169.78,386.68L171.11,385.69L173.79,385.19L175.12,385.24L176.46,383.05L177.8,382.56L179.13,382.56L180.47,381.8L181.81,381.04L183.14,379.38L185.82,375.88L187.15,375.41L188.49,374.45L189.83,367.11L193.84,360.73L195.17,359.19L196.51,359.06L197.85,357.96L199.19,357.18L200.52,347.9L201.86,347.63L203.2,346.39L204.53,344.22L205.87,339.76L211.22,317.06L212.55,315.6L220.57,294.61L221.91,287.77L225.92,273.63L227.26,269.23L229.93,262.82L231.27,256.35L235.28,243.72L236.62,243.72L239.29,243.75L240.63,224.94L241.96,222.59L243.3,216.86L249.98,199.54L251.32,196.53L256.67,180.62L258.01,179.17L259.34,176.4L260.68,162.31L263.35,154.81L264.69,151.41L266.03,149.53L267.36,145.57L279.39,107.81L280.73,104.36L284.74,94.47L286.08,91.98L288.75,88.29L290.09,85.48L292.76,82.72L294.1,79.59L295.44,78.98L296.77,76.12L298.11,71.87L299.45,70.29L303.46,67.38L304.79,67.04L307.47,64.75L308.8,63.96L314.15,60.86L315.49,58.24L316.83,57.76L318.16,56.31L323.51,54.16L324.85,53.6L327.52,52.36L328.86,51.89L331.53,50.42L332.87,50.29L338.21,49.01L339.55,48.6L350.25,46.09L351.58,45.89L394.36,38.45L395.7,37.25L421.1,33.7L422.43,33.6L437.14,32.59L438.48,32.56L486.6,29.68L487.94,29.63L502.64,28.07L503.98,27.86L512,25.83" style="vector-effect: non-scaling-stroke; fill: none; stroke: rgb(0, 255, 0); stroke-opacity: 1; stroke-width: 2px; opacity: 1;"/></g><g class="points"/><g class="text"/></g><g class="trace scatter traceb9ca6e" style="stroke-miterlimit: 2;"><g class="fills"/><g class="errorbars"/><g class="lines"><path class="js-line" d="M0,395L93.58,394.32L94.91,394.17L113.63,393.48L114.97,393.36L135.02,392.15L136.36,391.77L149.72,387.77L151.06,386.57L153.73,385.93L155.07,385.19L156.41,385.03L157.74,383.18L159.08,381.49L160.42,381.18L163.09,379.9L164.43,378.57L171.11,374.06L172.45,371.94L179.13,361.01L180.47,360.76L181.81,360.2L183.14,355.46L187.15,349.41L188.49,349.41L189.83,346.35L191.16,345.23L192.5,343.52L193.84,336.83L195.17,334.67L196.51,334.65L199.19,323.06L200.52,308.22L204.53,297.9L205.87,293.91L211.22,278.21L212.55,273.12L215.23,262.99L216.56,260.26L220.57,246.87L221.91,241.19L224.58,230.24L225.92,227.81L227.26,227.81L228.6,218.81L231.27,204.24L232.61,201.73L240.63,174.89L241.96,173.17L247.31,155.92L248.65,152.12L253.99,139.44L255.33,133.81L259.34,122.57L260.68,117.11L263.35,109.99L264.69,106.35L271.37,90.43L272.71,89.36L276.72,82.51L278.06,80.31L280.73,76.55L282.07,75.51L286.08,69.25L287.42,68.48L290.09,66.68L291.43,66.64L295.44,61.82L296.77,61.27L298.11,60.98L299.45,59.79L308.8,54.63L310.14,54.18L315.49,51.88L316.83,51.26L319.5,50.58L320.84,50.4L323.51,49.27L324.85,48.8L332.87,46.88L334.2,46.49L344.9,44.01L346.23,43.83L355.59,42.28L356.93,42.07L362.28,40.9L363.61,40.41L376.98,38.12L378.32,37.8L386.34,36.63L387.68,36.57L393.02,35.53L394.36,35.47L414.41,33.08L415.75,33.02L425.11,32.5L426.44,32.42L483.93,28.72L485.26,28.49L490.61,27.78L491.95,27.42L499.97,25.31L501.31,24.92L512,19.75" style="vector-effect: non-scaling-stroke; fill: none; stroke: rgb(255, 165, 0); stroke-opacity: 1; stroke-width: 2px; opacity: 1;"/></g><g class="points"/><g class="text"/></g></g></g><g class="overplot"/><path class="xlines-above crisp" d="M0,0" style="fill: none;"/><path class="ylines-above crisp" d="M0,0" style="fill: none;"/><g class="overlines-above"/><g class="xaxislayer-above"><g class="xtick"><text text-anchor="end" x="0" y="434" transform="translate(60,0) rotate(-45,0,427.5)" style="font-family: serif; font-size: 13px; fill: rgb(68, 68, 68); fill-opacity: 1; white-space: pre; opacity: 1;">Mar-22-20</text></g><g class="xtick"><text text-anchor="end" x="0" y="434" transform="translate(76.03999999999999,0) rotate(-45,0,427.5)" style="font-family: serif; font-size: 13px; fill: rgb(68, 68, 68); fill-opacity: 1; white-space: pre; opacity: 1;">Apr-03-20</text></g><g class="xtick"><text text-anchor="end" x="0" y="434" transform="translate(92.08,0) rotate(-45,0,427.5)" style="font-family: serif; font-size: 13px; fill: rgb(68, 68, 68); fill-opacity: 1; white-space: pre; opacity: 1;">Apr-15-20</text></g><g class="xtick"><text text-anchor="end" x="0" y="434" transform="translate(108.13,0) rotate(-45,0,427.5)" style="font-family: serif; font-size: 13px; fill: rgb(68, 68, 68); fill-opacity: 1; white-space: pre; opacity: 1;">Apr-27-20</text></g><g class="xtick"><text text-anchor="end" x="0" y="434" transform="translate(124.17,0) rotate(-45,0,427.5)" style="font-family: serif; font-size: 13px; fill: rgb(68, 68, 68); fill-opacity: 1; white-space: pre; opacity: 1;">May-09-20</text></g><g class="xtick"><text text-anchor="end" x="0" y="434" transform="translate(140.20999999999998,0) rotate(-45,0,427.5)" style="font-family: serif; font-size: 13px; fill: rgb(68, 68, 68); fill-opacity: 1; white-space: pre; opacity: 1;">May-21-20</text></g><g class="xtick"><text text-anchor="end" x="0" y="434" transform="translate(156.25,0) rotate(-45,0,427.5)" style="font-family: serif; font-size: 13px; fill: rgb(68, 68, 68); fill-opacity: 1; white-space: pre; opacity: 1;">Jun-02-20</text></g><g class="xtick"><text text-anchor="end" x="0" y="434" transform="translate(172.29000000000002,0) rotate(-45,0,427.5)" style="font-family: serif; font-size: 13px; fill: rgb(68, 68, 68); fill-opacity: 1; white-space: pre; opacity: 1;">Jun-14-20</text></g><g class="xtick"><text text-anchor="end" x="0" y="434" transform="translate(188.33,0) rotate(-45,0,427.5)" style="font-family: serif; font-size: 13px; fill: rgb(68, 68, 68); fill-opacity: 1; white-space: pre; opacity: 1;">Jun-26-20</text></g><g class="xtick"><text text-anchor="end" x="0" y="434" transform="translate(204.38,0) rotate(-45,0,427.5)" style="font-family: serif; font-size: 13px; fill: rgb(68, 68, 68); fill-opacity: 1; white-space: pre; opacity: 1;">Jul-08-20</text></g><g class="xtick"><text text-anchor="end" x="0" y="434" transform="translate(220.42,0) rotate(-45,0,427.5)" style="font-family: serif; font-size: 13px; fill: rgb(68, 68, 68); fill-opacity: 1; white-space: pre; opacity: 1;">Jul-20-20</text></g><g class="xtick"><text text-anchor="end" x="0" y="434" transform="translate(236.46,0) rotate(-45,0,427.5)" style="font-family: serif; font-size: 13px; fill: rgb(68, 68, 68); fill-opacity: 1; white-space: pre; opacity: 1;">Aug-01-20</text></g><g class="xtick"><text text-anchor="end" x="0" y="434" transform="translate(252.5,0) rotate(-45,0,427.5)" style="font-family: serif; font-size: 13px; fill: rgb(68, 68, 68); fill-opacity: 1; white-space: pre; opacity: 1;">Aug-13-20</text></g><g class="xtick"><text text-anchor="end" x="0" y="434" transform="translate(268.53999999999996,0) rotate(-45,0,427.5)" style="font-family: serif; font-size: 13px; fill: rgb(68, 68, 68); fill-opacity: 1; white-space: pre; opacity: 1;">Aug-25-20</text></g><g class="xtick"><text text-anchor="end" x="0" y="434" transform="translate(284.58000000000004,0) rotate(-45,0,427.5)" style="font-family: serif; font-size: 13px; fill: rgb(68, 68, 68); fill-opacity: 1; white-space: pre; opacity: 1;">Sep-06-20</text></g><g class="xtick"><text text-anchor="end" x="0" y="434" transform="translate(300.63,0) rotate(-45,0,427.5)" style="font-family: serif; font-size: 13px; fill: rgb(68, 68, 68); fill-opacity: 1; white-space: pre; opacity: 1;">Sep-18-20</text></g><g class="xtick"><text text-anchor="end" x="0" y="434" transform="translate(316.67,0) rotate(-45,0,427.5)" style="font-family: serif; font-size: 13px; fill: rgb(68, 68, 68); fill-opacity: 1; white-space: pre; opacity: 1;">Sep-30-20</text></g><g class="xtick"><text text-anchor="end" x="0" y="434" transform="translate(332.71,0) rotate(-45,0,427.5)" style="font-family: serif; font-size: 13px; fill: rgb(68, 68, 68); fill-opacity: 1; white-space: pre; opacity: 1;">Oct-12-20</text></g><g class="xtick"><text text-anchor="end" x="0" y="434" transform="translate(348.75,0) rotate(-45,0,427.5)" style="font-family: serif; font-size: 13px; fill: rgb(68, 68, 68); fill-opacity: 1; white-space: pre; opacity: 1;">Oct-24-20</text></g><g class="xtick"><text text-anchor="end" x="0" y="434" transform="translate(364.79,0) rotate(-45,0,427.5)" style="font-family: serif; font-size: 13px; fill: rgb(68, 68, 68); fill-opacity: 1; white-space: pre; opacity: 1;">Nov-05-20</text></g><g class="xtick"><text text-anchor="end" x="0" y="434" transform="translate(380.84,0) rotate(-45,0,427.5)" style="font-family: serif; font-size: 13px; fill: rgb(68, 68, 68); fill-opacity: 1; white-space: pre; opacity: 1;">Nov-17-20</text></g><g class="xtick"><text text-anchor="end" x="0" y="434" transform="translate(396.88,0) rotate(-45,0,427.5)" style="font-family: serif; font-size: 13px; fill: rgb(68, 68, 68); fill-opacity: 1; white-space: pre; opacity: 1;">Nov-29-20</text></g><g class="xtick"><text text-anchor="end" x="0" y="434" transform="translate(412.92,0) rotate(-45,0,427.5)" style="font-family: serif; font-size: 13px; fill: rgb(68, 68, 68); fill-opacity: 1; white-space: pre; opacity: 1;">Dec-11-20</text></g><g class="xtick"><text text-anchor="end" x="0" y="434" transform="translate(428.96,0) rotate(-45,0,427.5)" style="font-family: serif; font-size: 13px; fill: rgb(68, 68, 68); fill-opacity: 1; white-space: pre; opacity: 1;">Dec-23-20</text></g><g class="xtick"><text text-anchor="end" x="0" y="434" transform="translate(445,0) rotate(-45,0,427.5)" style="font-family: serif; font-size: 13px; fill: rgb(68, 68, 68); fill-opacity: 1; white-space: pre; opacity: 1;">Jan-04-21</text></g><g class="xtick"><text text-anchor="end" x="0" y="434" transform="translate(461.04,0) rotate(-45,0,427.5)" style="font-family: serif; font-size: 13px; fill: rgb(68, 68, 68); fill-opacity: 1; white-space: pre; opacity: 1;">Jan-16-21</text></g><g class="xtick"><text text-anchor="end" x="0" y="434" transform="translate(477.09,0) rotate(-45,0,427.5)" style="font-family: serif; font-size: 13px; fill: rgb(68, 68, 68); fill-opacity: 1; white-space: pre; opacity: 1;">Jan-28-21</text></g><g class="xtick"><text text-anchor="end" x="0" y="434" transform="translate(493.13,0) rotate(-45,0,427.5)" style="font-family: serif; font-size: 13px; fill: rgb(68, 68, 68); fill-opacity: 1; white-space: pre; opacity: 1;">Feb-09-21</text></g><g class="xtick"><text text-anchor="end" x="0" y="434" transform="translate(509.17,0) rotate(-45,0,427.5)" style="font-family: serif; font-size: 13px; fill: rgb(68, 68, 68); fill-opacity: 1; white-space: pre; opacity: 1;">Feb-21-21</text></g><g class="xtick"><text text-anchor="end" x="0" y="434" transform="translate(525.21,0) rotate(-45,0,427.5)" style="font-family: serif; font-size: 13px; fill: rgb(68, 68, 68); fill-opacity: 1; white-space: pre; opacity: 1;">Mar-05-21</text></g><g class="xtick"><text text-anchor="end" x="0" y="434" transform="translate(541.25,0) rotate(-45,0,427.5)" style="font-family: serif; font-size: 13px; fill: rgb(68, 68, 68); fill-opacity: 1; white-space: pre; opacity: 1;">Mar-17-21</text></g><g class="xtick"><text text-anchor="end" x="0" y="434" transform="translate(557.3,0) rotate(-45,0,427.5)" style="font-family: serif; font-size: 13px; fill: rgb(68, 68, 68); fill-opacity: 1; white-space: pre; opacity: 1;">Mar-29-21</text></g></g><g class="yaxislayer-above"><g class="ytick"><text text-anchor="end" x="59" y="4.199999999999999" transform="translate(0,420)" style="font-family: 'Open Sans', verdana, arial, sans-serif; font-size: 12px; fill: rgb(68, 68, 68); fill-opacity: 1; white-space: pre; opacity: 1;">0</text></g><g class="ytick"><text text-anchor="end" x="59" y="4.199999999999999" style="font-family: 'Open Sans', verdana, arial, sans-serif; font-size: 12px; fill: rgb(68, 68, 68); fill-opacity: 1; white-space: pre; opacity: 1;" transform="translate(0,338.91)">5k</text></g><g class="ytick"><text text-anchor="end" x="59" y="4.199999999999999" style="font-family: 'Open Sans', verdana, arial, sans-serif; font-size: 12px; fill: rgb(68, 68, 68); fill-opacity: 1; white-space: pre; opacity: 1;" transform="translate(0,257.82)">10k</text></g><g class="ytick"><text text-anchor="end" x="59" y="4.199999999999999" style="font-family: 'Open Sans', verdana, arial, sans-serif; font-size: 12px; fill: rgb(68, 68, 68); fill-opacity: 1; white-space: pre; opacity: 1;" transform="translate(0,176.73)">15k</text></g><g class="ytick"><text text-anchor="end" x="59" y="4.199999999999999" style="font-family: 'Open Sans', verdana, arial, sans-serif; font-size: 12px; fill: rgb(68, 68, 68); fill-opacity: 1; white-space: pre; opacity: 1;" transform="translate(0,95.64)">20k</text></g></g><g class="overaxes-above"/></g></g><g class="polarlayer"/><g class="smithlayer"/><g class="ternarylayer"/><g class="geolayer"/><g class="funnelarealayer"/><g class="pielayer"/><g class="iciclelayer"/><g class="treemaplayer"/><g class="sunburstlayer"/><g class="glimages"/><defs id="topdefs-512115"><g class="clips"/><clipPath id="legend512115"><rect width="108" height="67" x="0" y="0"/></clipPath></defs><g class="layer-above"><g class="imagelayer"/><g class="shapelayer"/></g><g class="infolayer"><g class="legend" pointer-events="all" transform="translate(582.24,25)"><rect class="bg" shape-rendering="crispEdges" style="stroke: rgb(68, 68, 68); stroke-opacity: 1; fill: rgb(255, 255, 255); fill-opacity: 1; stroke-width: 0px;" width="108" height="67" x="0" y="0"/><g class="scrollbox" transform="" clip-path="url(#legend512115)"><g class="groups"><g class="traces" transform="translate(0,14.5)" style="opacity: 1;"><text class="legendtext" text-anchor="start" x="40" y="4.680000000000001" style="font-family: 'Open Sans', verdana, arial, sans-serif; font-size: 12px; fill: rgb(68, 68, 68); fill-opacity: 1; white-space: pre;">Active</text><g class="layers"><g class="legendfill"><path class="js-fill" d="M5,-2h30v6h-30z" style="stroke-width: 0; fill: rgb(255, 165, 0); fill-opacity: 1;"/></g><g class="legendlines"><path class="js-line" d="M5,-2h30" style="fill: none; stroke: rgb(255, 165, 0); stroke-opacity: 1; stroke-width: 2px;"/></g><g class="legendsymbols"><g class="legendpoints"/></g></g><rect class="legendtoggle" x="0" y="-9.5" width="102.546875" height="19" style="fill: rgb(0, 0, 0); fill-opacity: 0;"/></g><g class="traces" transform="translate(0,33.5)" style="opacity: 1;"><text class="legendtext" text-anchor="start" x="40" y="4.680000000000001" style="font-family: 'Open Sans', verdana, arial, sans-serif; font-size: 12px; fill: rgb(68, 68, 68); fill-opacity: 1; white-space: pre;">Recovered</text><g class="layers"><g class="legendfill"><path class="js-fill" d="M5,-2h30v6h-30z" style="stroke-width: 0; fill: rgb(0, 255, 0); fill-opacity: 1;"/></g><g class="legendlines"><path class="js-line" d="M5,-2h30" style="fill: none; stroke: rgb(0, 255, 0); stroke-opacity: 1; stroke-width: 2px;"/></g><g class="legendsymbols"><g class="legendpoints"/></g></g><rect class="legendtoggle" x="0" y="-9.5" width="102.546875" height="19" style="fill: rgb(0, 0, 0); fill-opacity: 0;"/></g><g class="traces" transform="translate(0,52.5)" style="opacity: 1;"><text class="legendtext" text-anchor="start" x="40" y="4.680000000000001" style="font-family: 'Open Sans', verdana, arial, sans-serif; font-size: 12px; fill: rgb(68, 68, 68); fill-opacity: 1; white-space: pre;">Deceased</text><g class="layers"><g class="legendfill"><path class="js-fill" d="M5,-2h30v6h-30z" style="stroke-width: 0; fill: rgb(139, 0, 0); fill-opacity: 1;"/></g><g class="legendlines"><path class="js-line" d="M5,-2h30" style="fill: none; stroke: rgb(139, 0, 0); stroke-opacity: 1; stroke-width: 2px;"/></g><g class="legendsymbols"><g class="legendpoints"/></g></g><rect class="legendtoggle" x="0" y="-9.5" width="102.546875" height="19" style="fill: rgb(0, 0, 0); fill-opacity: 0;"/></g></g></g><rect class="scrollbar" rx="20" ry="3" width="0" height="0" style="fill: rgb(128, 139, 164); fill-opacity: 1;" x="0" y="0"/></g><g class="g-gtitle"><text class="gtitle" x="350" y="12.5" text-anchor="middle" dy="0em" style="font-family: serif; font-size: 18px; fill: rgb(68, 68, 68); opacity: 1; font-weight: normal; white-space: pre;">Shivamogga</text></g><g class="g-xtitle" transform="translate(0,19.2626953125)"><text class="xtitle" x="316" y="472" text-anchor="middle" style="font-family: 'Open Sans', verdana, arial, sans-serif; font-size: 14px; fill: rgb(68, 68, 68); opacity: 1; font-weight: normal; white-space: pre;">Date</text></g><g class="g-ytitle" transform="translate(2,0)"><text class="ytitle" transform="rotate(-90,14,222.5)" x="14" y="222.5" text-anchor="middle" style="font-family: serif; font-size: 18px; fill: rgb(0, 0, 0); opacity: 1; font-weight: normal; white-space: pre;">Number of Cases</text></g></g></svg>