<svg class="main-svg" xmlns="http://www.w3.org/2000/svg" xmlns:xlink="http://www.w3.org/1999/xlink" width="700" height="500" style="" viewBox="0 0 700 500"><rect x="0" y="0" width="700" height="500" style="fill: rgb(255, 255, 255); fill-opacity: 1;"/><defs id="defs-d3d3d7"><g class="clips"><clipPath id="clipd3d3d7xyplot" class="plotclip"><rect width="512" height="395"/></clipPath><clipPath class="axesclip" id="clipd3d3d7x"><rect x="60" y="0" width="512" height="500"/></clipPath><clipPath class="axesclip" id="clipd3d3d7y"><rect x="0" y="25" width="700" height="395"/></clipPath><clipPath class="axesclip" id="clipd3d3d7xy"><rect x="60" y="25" width="512" height="395"/></clipPath></g><g class="gradients"/><g class="patterns"/></defs><g class="bglayer"/><g class="layer-below"><g class="imagelayer"/><g class="shapelayer"/></g><g class="cartesianlayer"><g class="subplot xy"><g class="layer-subplot"><g class="shapelayer"/><g class="imagelayer"/></g><g class="gridlayer"><g class="x"><path class="xgrid crisp" transform="translate(76.03999999999999,0)" d="M0,25v395" style="stroke: rgb(238, 238, 238); stroke-opacity: 1; stroke-width: 1px;"/><path class="xgrid crisp" transform="translate(92.08,0)" d="M0,25v395" style="stroke: rgb(238, 238, 238); stroke-opacity: 1; stroke-width: 1px;"/><path class="xgrid crisp" transform="translate(108.13,0)" d="M0,25v395" style="stroke: rgb(238, 238, 238); stroke-opacity: 1; stroke-width: 1px;"/><path class="xgrid crisp" transform="translate(124.17,0)" d="M0,25v395" style="stroke: rgb(238, 238, 238); stroke-opacity: 1; stroke-width: 1px;"/><path class="xgrid crisp" transform="translate(140.20999999999998,0)" d="M0,25v395" style="stroke: rgb(238, 238, 238); stroke-opacity: 1; stroke-width: 1px;"/><path class="xgrid crisp" transform="translate(156.25,0)" d="M0,25v395" style="stroke: rgb(238, 238, 238); stroke-opacity: 1; stroke-width: 1px;"/><path class="xgrid crisp" transform="translate(172.29000000000002,0)" d="M0,25v395" style="stroke: rgb(238, 238, 238); stroke-opacity: 1; stroke-width: 1px;"/><path class="xgrid crisp" transform="translate(188.33,0)" d="M0,25v395" style="stroke: rgb(238, 238, 238); stroke-opacity: 1; stroke-width: 1px;"/><path class="xgrid crisp" transform="translate(204.38,0)" d="M0,25v395" style="stroke: rgb(238, 238, 238); stroke-opacity: 1; stroke-width: 1px;"/><path class="xgrid crisp" transform="translate(220.42,0)" d="M0,25v395" style="stroke: rgb(238, 238, 238); stroke-opacity: 1; stroke-width: 1px;"/><path class="xgrid crisp" transform="translate(236.46,0)" d="M0,25v395" style="stroke: rgb(238, 238, 238); stroke-opacity: 1; stroke-width: 1px;"/><path class="xgrid crisp" transform="translate(252.5,0)" d="M0,25v395" style="stroke: rgb(238, 238, 238); stroke-opacity: 1; stroke-width: 1px;"/><path class="xgrid crisp" transform="translate(268.53999999999996,0)" d="M0,25v395" style="stroke: rgb(238, 238, 238); stroke-opacity: 1; stroke-width: 1px;"/><path class="xgrid crisp" transform="translate(284.58000000000004,0)" d="M0,25v395" style="stroke: rgb(238, 238, 238); stroke-opacity: 1; stroke-width: 1px;"/><path class="xgrid crisp" transform="translate(300.63,0)" d="M0,25v395" style="stroke: rgb(238, 238, 238); stroke-opacity: 1; stroke-width: 1px;"/><path class="xgrid crisp" transform="translate(316.67,0)" d="M0,25v395" style="stroke: rgb(238, 238, 238); stroke-opacity: 1; stroke-width: 1px;"/><path class="xgrid crisp" transform="translate(332.71,0)" d="M0,25v395" style="stroke: rgb(238, 238, 238); stroke-opacity: 1; stroke-width: 1px;"/><path class="xgrid crisp" transform="translate(348.75,0)" d="M0,25v395" style="stroke: rgb(238, 238, 238); stroke-opacity: 1; stroke-width: 1px;"/><path class="xgrid crisp" transform="translate(364.79,0)" d="M0,25v395" style="stroke: rgb(238, 238, 238); stroke-opacity: 1; stroke-width: 1px;"/><path class="xgrid crisp" transform="translate(380.84,0)" d="M0,25v395" style="stroke: rgb(238, 238, 238); stroke-opacity: 1; stroke-width: 1px;"/><path class="xgrid crisp" transform="translate(396.88,0)" d="M0,25v395" style="stroke: rgb(238, 238, 238); stroke-opacity: 1; stroke-width: 1px;"/><path class="xgrid crisp" transform="translate(412.92,0)" d="M0,25v395" style="stroke: rgb(238, 238, 238); stroke-opacity: 1; stroke-width: 1px;"/><path class="xgrid crisp" transform="translate(428.96,0)" d="M0,25v395" style="stroke: rgb(238, 238, 238); stroke-opacity: 1; stroke-width: 1px;"/><path class="xgrid crisp" transform="translate(445,0)" d="M0,25v395" style="stroke: rgb(238, 238, 238); stroke-opacity: 1; stroke-width: 1px;"/><path class="xgrid crisp" transform="translate(461.04,0)" d="M0,25v395" style="stroke: rgb(238, 238, 238); stroke-opacity: 1; stroke-width: 1px;"/><path class="xgrid crisp" transform="translate(477.09,0)" d="M0,25v395" style="stroke: rgb(238, 238, 238); stroke-opacity: 1; stroke-width: 1px;"/><path class="xgrid crisp" transform="translate(493.13,0)" d="M0,25v395" style="stroke: rgb(238, 238, 238); stroke-opacity: 1; stroke-width: 1px;"/><path class="xgrid crisp" transform="translate(509.17,0)" d="M0,25v395" style="stroke: rgb(238, 238, 238); stroke-opacity: 1; stroke-width: 1px;"/><path class="xgrid crisp" transform="translate(525.21,0)" d="M0,25v395" style="stroke: rgb(238, 238, 238); stroke-opacity: 1; stroke-width: 1px;"/><path class="xgrid crisp" transform="translate(541.25,0)" d="M0,25v395" style="stroke: rgb(238, 238, 238); stroke-opacity: 1; stroke-width: 1px;"/><path class="xgrid crisp" transform="translate(557.3,0)" d="M0,25v395" style="stroke: rgb(238, 238, 238); stroke-opacity: 1; stroke-width: 1px;"/></g><g class="y"><path class="ygrid crisp" transform="translate(0,353.76)" d="M60,0h512" style="stroke: rgb(238, 238, 238); stroke-opacity: 1; stroke-width: 1px;"/><path class="ygrid crisp" transform="translate(0,287.52)" d="M60,0h512" style="stroke: rgb(238, 238, 238); stroke-opacity: 1; stroke-width: 1px;"/><path class="ygrid crisp" transform="translate(0,221.29)" d="M60,0h512" style="stroke: rgb(238, 238, 238); stroke-opacity: 1; stroke-width: 1px;"/><path class="ygrid crisp" transform="translate(0,155.05)" d="M60,0h512" style="stroke: rgb(238, 238, 238); stroke-opacity: 1; stroke-width: 1px;"/><path class="ygrid crisp" transform="translate(0,88.81)" d="M60,0h512" style="stroke: rgb(238, 238, 238); stroke-opacity: 1; stroke-width: 1px;"/></g></g><g class="zerolinelayer"><path class="yzl zl crisp" transform="translate(0,420)" d="M60,0h512" style="stroke: rgb(68, 68, 68); stroke-opacity: 1; stroke-width: 1px;"/></g><path class="xlines-below"/><path class="ylines-below"/><g class="overlines-below"/><g class="xaxislayer-below"/><g class="yaxislayer-below"/><g class="overaxes-below"/><g class="plot" transform="translate(60,25)" clip-path="url(#clipd3d3d7xyplot)"><g class="scatterlayer mlayer"><g class="trace scatter trace64e7a7" style="stroke-miterlimit: 2;"><g class="fills"><g><path class="js-fill" d="M512,395L0,395L0,395L180.47,394.26L181.81,394.21L221.91,392.85L223.25,392.83L326.18,390.18L327.52,390.18L512,389.63" style="fill: rgb(139, 0, 0); fill-opacity: 1; stroke-width: 0;"/></g><g><path class="js-fill" d="M0,395L137.69,394.27L139.03,394.13L151.06,393.15L152.4,392.85L161.75,390.95L163.09,390.92L172.45,389.17L173.79,388.36L175.12,388.19L176.46,385.18L177.8,383.2L179.13,382.89L181.81,381.92L183.14,381.69L187.15,380.14L188.49,378.11L192.5,376.55L193.84,372.9L197.85,366.01L199.19,363.86L201.86,362.2L203.2,358.66L207.21,355.93L208.54,353.67L212.55,350.46L213.89,348.5L219.24,338.42L220.57,331.36L224.58,326.31L225.92,325.29L231.27,315.73L232.61,309.37L235.28,303.43L236.62,303.37L237.95,298.31L239.29,298.31L240.63,293.29L241.96,291.74L244.64,285.46L245.97,281.27L247.31,281.27L248.65,279.55L253.99,275.69L255.33,268.78L256.67,266.86L258.01,263.21L259.34,258.03L260.68,245.2L264.69,233.64L266.03,230.73L270.04,218.24L271.37,204L279.39,192.02L280.73,190.35L282.07,181.6L283.4,178.81L286.08,168.65L287.42,165.23L292.76,153.74L294.1,150.21L300.78,137.15L302.12,135.94L303.46,134.51L304.79,129.85L314.15,116.36L315.49,113.05L320.84,105.82L322.17,104.75L324.85,102.8L326.18,100.98L330.19,97.2L331.53,96.24L332.87,95.66L334.2,94.15L338.21,92.2L339.55,90.74L346.23,88.21L347.57,87.18L355.59,84.27L356.93,83.8L360.94,81.7L362.28,80.6L367.62,78.77L368.96,78.22L385,72.21L386.34,71.57L393.02,69.87L394.36,69.38L411.74,66.26L413.08,66.1L427.78,63.64L429.12,63.4L457.19,58.95L458.53,58.05L466.55,55.85L467.89,55.53L479.92,53.03L481.25,52.91L485.26,51.77L486.6,51.29L507.99,42.5L509.33,41.49L512,39.81L512,389.63L327.52,390.18L326.18,390.18L223.25,392.83L221.91,392.85L181.81,394.21L180.47,394.26L0,395Z" style="fill: rgb(0, 255, 0); fill-opacity: 1; stroke-width: 0;"/></g></g><g class="errorbars"/><g class="lines"><path class="js-line" d="M0,395L180.47,394.26L181.81,394.21L221.91,392.85L223.25,392.83L326.18,390.18L327.52,390.18L512,389.63" style="vector-effect: non-scaling-stroke; fill: none; stroke: rgb(139, 0, 0); stroke-opacity: 1; stroke-width: 2px; opacity: 1;"/></g><g class="points"/><g class="text"/></g><g class="trace scatter trace0ad144" style="stroke-miterlimit: 2;"><g class="fills"><g><path class="js-fill" d="M0,395L124.32,394.26L125.66,394.24L135.02,393.5L136.36,393.16L139.03,392.24L140.37,392.07L151.06,388.63L152.4,388.01L160.42,385.75L161.75,385.13L169.78,380.77L171.11,378.03L176.46,372.39L177.8,371.92L180.47,369.27L181.81,368.86L185.82,363.39L187.15,362.36L192.5,357.15L193.84,354.7L197.85,348.61L199.19,348L201.86,344.92L203.2,343.12L207.21,339.15L208.54,336.19L211.22,333.35L212.55,330.03L213.89,328.21L215.23,324.05L221.91,303.43L223.25,300.89L224.58,296.86L225.92,296.53L228.6,291.3L229.93,286.46L233.94,273.31L235.28,270.76L236.62,267.81L237.95,262.5L240.63,254.7L241.96,252.59L245.97,242.2L247.31,241.01L249.98,237.37L251.32,235.5L258.01,216.93L259.34,211.56L266.03,190.82L267.36,184.07L275.38,157.3L276.72,153.96L280.73,146.63L282.07,143.28L284.74,137.06L286.08,134.62L287.42,133.29L288.75,130.22L291.43,127.6L292.76,126.38L298.11,120.42L299.45,119.04L304.79,112.32L306.13,110.19L307.47,108.01L308.8,107.4L310.14,106.53L311.48,104.73L314.15,102.89L315.49,100.45L322.17,96.08L323.51,94.72L328.86,91.5L330.19,90.24L339.55,85.63L340.89,84.57L346.23,81.43L347.57,81.01L354.26,78.73L355.59,78.36L376.98,70.71L378.32,70.34L391.69,67.36L393.02,67.15L401.04,65.61L402.38,65.27L422.43,60.76L423.77,60.53L435.8,58.22L437.14,58.08L451.84,55.84L453.18,55.62L462.54,54.09L463.87,53.94L482.59,48.85L483.93,48.19L491.95,44.28L493.28,42.62L497.3,39.98L498.63,39.41L509.33,24.1L510.66,21.67L512,19.75L512,39.81L509.33,41.49L507.99,42.5L486.6,51.29L485.26,51.77L481.25,52.91L479.92,53.03L467.89,55.53L466.55,55.85L458.53,58.05L457.19,58.95L429.12,63.4L427.78,63.64L413.08,66.1L411.74,66.26L394.36,69.38L393.02,69.87L386.34,71.57L385,72.21L368.96,78.22L367.62,78.77L362.28,80.6L360.94,81.7L356.93,83.8L355.59,84.27L347.57,87.18L346.23,88.21L339.55,90.74L338.21,92.2L334.2,94.15L332.87,95.66L331.53,96.24L330.19,97.2L326.18,100.98L324.85,102.8L322.17,104.75L320.84,105.82L315.49,113.05L314.15,116.36L304.79,129.85L303.46,134.51L302.12,135.94L300.78,137.15L294.1,150.21L292.76,153.74L287.42,165.23L286.08,168.65L283.4,178.81L282.07,181.6L280.73,190.35L279.39,192.02L271.37,204L270.04,218.24L266.03,230.73L264.69,233.64L260.68,245.2L259.34,258.03L258.01,263.21L256.67,266.86L255.33,268.78L253.99,275.69L248.65,279.55L247.31,281.27L245.97,281.27L244.64,285.46L241.96,291.74L240.63,293.29L239.29,298.31L237.95,298.31L236.62,303.37L235.28,303.43L232.61,309.37L231.27,315.73L225.92,325.29L224.58,326.31L220.57,331.36L219.24,338.42L213.89,348.5L212.55,350.46L208.54,353.67L207.21,355.93L203.2,358.66L201.86,362.2L199.19,363.86L197.85,366.01L193.84,372.9L192.5,376.55L188.49,378.11L187.15,380.14L183.14,381.69L181.81,381.92L179.13,382.89L177.8,383.2L176.46,385.18L175.12,388.19L173.79,388.36L172.45,389.17L163.09,390.92L161.75,390.95L152.4,392.85L151.06,393.15L139.03,394.13L137.69,394.27L0,395Z" style="fill: rgb(255, 165, 0); fill-opacity: 1; stroke-width: 0;"/></g></g><g class="errorbars"/><g class="lines"><path class="js-line" d="M0,395L137.69,394.27L139.03,394.13L151.06,393.15L152.4,392.85L161.75,390.95L163.09,390.92L172.45,389.17L173.79,388.36L175.12,388.19L176.46,385.18L177.8,383.2L179.13,382.89L181.81,381.92L183.14,381.69L187.15,380.14L188.49,378.11L192.5,376.55L193.84,372.9L197.85,366.01L199.19,363.86L201.86,362.2L203.2,358.66L207.21,355.93L208.54,353.67L212.55,350.46L213.89,348.5L219.24,338.42L220.57,331.36L224.58,326.31L225.92,325.29L231.27,315.73L232.61,309.37L235.28,303.43L236.62,303.37L237.95,298.31L239.29,298.31L240.63,293.29L241.96,291.74L244.64,285.46L245.97,281.27L247.31,281.27L248.65,279.55L253.99,275.69L255.33,268.78L256.67,266.86L258.01,263.21L259.34,258.03L260.68,245.2L264.69,233.64L266.03,230.73L270.04,218.24L271.37,204L279.39,192.02L280.73,190.35L282.07,181.6L283.4,178.81L286.08,168.65L287.42,165.23L292.76,153.74L294.1,150.21L300.78,137.15L302.12,135.94L303.46,134.51L304.79,129.85L314.15,116.36L315.49,113.05L320.84,105.82L322.17,104.75L324.85,102.8L326.18,100.98L330.19,97.2L331.53,96.24L332.87,95.66L334.2,94.15L338.21,92.2L339.55,90.74L346.23,88.21L347.57,87.18L355.59,84.27L356.93,83.8L360.94,81.7L362.28,80.6L367.62,78.77L368.96,78.22L385,72.21L386.34,71.57L393.02,69.87L394.36,69.38L411.74,66.26L413.08,66.1L427.78,63.64L429.12,63.4L457.19,58.95L458.53,58.05L466.55,55.85L467.89,55.53L479.92,53.03L481.25,52.91L485.26,51.77L486.6,51.29L507.99,42.5L509.33,41.49L512,39.81" style="vector-effect: non-scaling-stroke; fill: none; stroke: rgb(0, 255, 0); stroke-opacity: 1; stroke-width: 2px; opacity: 1;"/></g><g class="points"/><g class="text"/></g><g class="trace scatter trace613580" style="stroke-miterlimit: 2;"><g class="fills"/><g class="errorbars"/><g class="lines"><path class="js-line" d="M0,395L124.32,394.26L125.66,394.24L135.02,393.5L136.36,393.16L139.03,392.24L140.37,392.07L151.06,388.63L152.4,388.01L160.42,385.75L161.75,385.13L169.78,380.77L171.11,378.03L176.46,372.39L177.8,371.92L180.47,369.27L181.81,368.86L185.82,363.39L187.15,362.36L192.5,357.15L193.84,354.7L197.85,348.61L199.19,348L201.86,344.92L203.2,343.12L207.21,339.15L208.54,336.19L211.22,333.35L212.55,330.03L213.89,328.21L215.23,324.05L221.91,303.43L223.25,300.89L224.58,296.86L225.92,296.53L228.6,291.3L229.93,286.46L233.94,273.31L235.28,270.76L236.62,267.81L237.95,262.5L240.63,254.7L241.96,252.59L245.97,242.2L247.31,241.01L249.98,237.37L251.32,235.5L258.01,216.93L259.34,211.56L266.03,190.82L267.36,184.07L275.38,157.3L276.72,153.96L280.73,146.63L282.07,143.28L284.74,137.06L286.08,134.62L287.42,133.29L288.75,130.22L291.43,127.6L292.76,126.38L298.11,120.42L299.45,119.04L304.79,112.32L306.13,110.19L307.47,108.01L308.8,107.4L310.14,106.53L311.48,104.73L314.15,102.89L315.49,100.45L322.17,96.08L323.51,94.72L328.86,91.5L330.19,90.24L339.55,85.63L340.89,84.57L346.23,81.43L347.57,81.01L354.26,78.73L355.59,78.36L376.98,70.71L378.32,70.34L391.69,67.36L393.02,67.15L401.04,65.61L402.38,65.27L422.43,60.76L423.77,60.53L435.8,58.22L437.14,58.08L451.84,55.84L453.18,55.62L462.54,54.09L463.87,53.94L482.59,48.85L483.93,48.19L491.95,44.28L493.28,42.62L497.3,39.98L498.63,39.41L509.33,24.1L510.66,21.67L512,19.75" style="vector-effect: non-scaling-stroke; fill: none; stroke: rgb(255, 165, 0); stroke-opacity: 1; stroke-width: 2px; opacity: 1;"/></g><g class="points"/><g class="text"/></g></g></g><g class="overplot"/><path class="xlines-above crisp" d="M0,0" style="fill: none;"/><path class="ylines-above crisp" d="M0,0" style="fill: none;"/><g class="overlines-above"/><g class="xaxislayer-above"><g class="xtick"><text text-anchor="end" x="0" y="434" transform="translate(60,0) rotate(-45,0,427.5)" style="font-family: serif; font-size: 13px; fill: rgb(68, 68, 68); fill-opacity: 1; white-space: pre; opacity: 1;">Mar-22-20</text></g><g class="xtick"><text text-anchor="end" x="0" y="434" transform="translate(76.03999999999999,0) rotate(-45,0,427.5)" style="font-family: serif; font-size: 13px; fill: rgb(68, 68, 68); fill-opacity: 1; white-space: pre; opacity: 1;">Apr-03-20</text></g><g class="xtick"><text text-anchor="end" x="0" y="434" transform="translate(92.08,0) rotate(-45,0,427.5)" style="font-family: serif; font-size: 13px; fill: rgb(68, 68, 68); fill-opacity: 1; white-space: pre; opacity: 1;">Apr-15-20</text></g><g class="xtick"><text text-anchor="end" x="0" y="434" transform="translate(108.13,0) rotate(-45,0,427.5)" style="font-family: serif; font-size: 13px; fill: rgb(68, 68, 68); fill-opacity: 1; white-space: pre; opacity: 1;">Apr-27-20</text></g><g class="xtick"><text text-anchor="end" x="0" y="434" transform="translate(124.17,0) rotate(-45,0,427.5)" style="font-family: serif; font-size: 13px; fill: rgb(68, 68, 68); fill-opacity: 1; white-space: pre; opacity: 1;">May-09-20</text></g><g class="xtick"><text text-anchor="end" x="0" y="434" transform="translate(140.20999999999998,0) rotate(-45,0,427.5)" style="font-family: serif; font-size: 13px; fill: rgb(68, 68, 68); fill-opacity: 1; white-space: pre; opacity: 1;">May-21-20</text></g><g class="xtick"><text text-anchor="end" x="0" y="434" transform="translate(156.25,0) rotate(-45,0,427.5)" style="font-family: serif; font-size: 13px; fill: rgb(68, 68, 68); fill-opacity: 1; white-space: pre; opacity: 1;">Jun-02-20</text></g><g class="xtick"><text text-anchor="end" x="0" y="434" transform="translate(172.29000000000002,0) rotate(-45,0,427.5)" style="font-family: serif; font-size: 13px; fill: rgb(68, 68, 68); fill-opacity: 1; white-space: pre; opacity: 1;">Jun-14-20</text></g><g class="xtick"><text text-anchor="end" x="0" y="434" transform="translate(188.33,0) rotate(-45,0,427.5)" style="font-family: serif; font-size: 13px; fill: rgb(68, 68, 68); fill-opacity: 1; white-space: pre; opacity: 1;">Jun-26-20</text></g><g class="xtick"><text text-anchor="end" x="0" y="434" transform="translate(204.38,0) rotate(-45,0,427.5)" style="font-family: serif; font-size: 13px; fill: rgb(68, 68, 68); fill-opacity: 1; white-space: pre; opacity: 1;">Jul-08-20</text></g><g class="xtick"><text text-anchor="end" x="0" y="434" transform="translate(220.42,0) rotate(-45,0,427.5)" style="font-family: serif; font-size: 13px; fill: rgb(68, 68, 68); fill-opacity: 1; white-space: pre; opacity: 1;">Jul-20-20</text></g><g class="xtick"><text text-anchor="end" x="0" y="434" transform="translate(236.46,0) rotate(-45,0,427.5)" style="font-family: serif; font-size: 13px; fill: rgb(68, 68, 68); fill-opacity: 1; white-space: pre; opacity: 1;">Aug-01-20</text></g><g class="xtick"><text text-anchor="end" x="0" y="434" transform="translate(252.5,0) rotate(-45,0,427.5)" style="font-family: serif; font-size: 13px; fill: rgb(68, 68, 68); fill-opacity: 1; white-space: pre; opacity: 1;">Aug-13-20</text></g><g class="xtick"><text text-anchor="end" x="0" y="434" transform="translate(268.53999999999996,0) rotate(-45,0,427.5)" style="font-family: serif; font-size: 13px; fill: rgb(68, 68, 68); fill-opacity: 1; white-space: pre; opacity: 1;">Aug-25-20</text></g><g class="xtick"><text text-anchor="end" x="0" y="434" transform="translate(284.58000000000004,0) rotate(-45,0,427.5)" style="font-family: serif; font-size: 13px; fill: rgb(68, 68, 68); fill-opacity: 1; white-space: pre; opacity: 1;">Sep-06-20</text></g><g class="xtick"><text text-anchor="end" x="0" y="434" transform="translate(300.63,0) rotate(-45,0,427.5)" style="font-family: serif; font-size: 13px; fill: rgb(68, 68, 68); fill-opacity: 1; white-space: pre; opacity: 1;">Sep-18-20</text></g><g class="xtick"><text text-anchor="end" x="0" y="434" transform="translate(316.67,0) rotate(-45,0,427.5)" style="font-family: serif; font-size: 13px; fill: rgb(68, 68, 68); fill-opacity: 1; white-space: pre; opacity: 1;">Sep-30-20</text></g><g class="xtick"><text text-anchor="end" x="0" y="434" transform="translate(332.71,0) rotate(-45,0,427.5)" style="font-family: serif; font-size: 13px; fill: rgb(68, 68, 68); fill-opacity: 1; white-space: pre; opacity: 1;">Oct-12-20</text></g><g class="xtick"><text text-anchor="end" x="0" y="434" transform="translate(348.75,0) rotate(-45,0,427.5)" style="font-family: serif; font-size: 13px; fill: rgb(68, 68, 68); fill-opacity: 1; white-space: pre; opacity: 1;">Oct-24-20</text></g><g class="xtick"><text text-anchor="end" x="0" y="434" transform="translate(364.79,0) rotate(-45,0,427.5)" style="font-family: serif; font-size: 13px; fill: rgb(68, 68, 68); fill-opacity: 1; white-space: pre; opacity: 1;">Nov-05-20</text></g><g class="xtick"><text text-anchor="end" x="0" y="434" transform="translate(380.84,0) rotate(-45,0,427.5)" style="font-family: serif; font-size: 13px; fill: rgb(68, 68, 68); fill-opacity: 1; white-space: pre; opacity: 1;">Nov-17-20</text></g><g class="xtick"><text text-anchor="end" x="0" y="434" transform="translate(396.88,0) rotate(-45,0,427.5)" style="font-family: serif; font-size: 13px; fill: rgb(68, 68, 68); fill-opacity: 1; white-space: pre; opacity: 1;">Nov-29-20</text></g><g class="xtick"><text text-anchor="end" x="0" y="434" transform="translate(412.92,0) rotate(-45,0,427.5)" style="font-family: serif; font-size: 13px; fill: rgb(68, 68, 68); fill-opacity: 1; white-space: pre; opacity: 1;">Dec-11-20</text></g><g class="xtick"><text text-anchor="end" x="0" y="434" transform="translate(428.96,0) rotate(-45,0,427.5)" style="font-family: serif; font-size: 13px; fill: rgb(68, 68, 68); fill-opacity: 1; white-space: pre; opacity: 1;">Dec-23-20</text></g><g class="xtick"><text text-anchor="end" x="0" y="434" transform="translate(445,0) rotate(-45,0,427.5)" style="font-family: serif; font-size: 13px; fill: rgb(68, 68, 68); fill-opacity: 1; white-space: pre; opacity: 1;">Jan-04-21</text></g><g class="xtick"><text text-anchor="end" x="0" y="434" transform="translate(461.04,0) rotate(-45,0,427.5)" style="font-family: serif; font-size: 13px; fill: rgb(68, 68, 68); fill-opacity: 1; white-space: pre; opacity: 1;">Jan-16-21</text></g><g class="xtick"><text text-anchor="end" x="0" y="434" transform="translate(477.09,0) rotate(-45,0,427.5)" style="font-family: serif; font-size: 13px; fill: rgb(68, 68, 68); fill-opacity: 1; white-space: pre; opacity: 1;">Jan-28-21</text></g><g class="xtick"><text text-anchor="end" x="0" y="434" transform="translate(493.13,0) rotate(-45,0,427.5)" style="font-family: serif; font-size: 13px; fill: rgb(68, 68, 68); fill-opacity: 1; white-space: pre; opacity: 1;">Feb-09-21</text></g><g class="xtick"><text text-anchor="end" x="0" y="434" transform="translate(509.17,0) rotate(-45,0,427.5)" style="font-family: serif; font-size: 13px; fill: rgb(68, 68, 68); fill-opacity: 1; white-space: pre; opacity: 1;">Feb-21-21</text></g><g class="xtick"><text text-anchor="end" x="0" y="434" transform="translate(525.21,0) rotate(-45,0,427.5)" style="font-family: serif; font-size: 13px; fill: rgb(68, 68, 68); fill-opacity: 1; white-space: pre; opacity: 1;">Mar-05-21</text></g><g class="xtick"><text text-anchor="end" x="0" y="434" transform="translate(541.25,0) rotate(-45,0,427.5)" style="font-family: serif; font-size: 13px; fill: rgb(68, 68, 68); fill-opacity: 1; white-space: pre; opacity: 1;">Mar-17-21</text></g><g class="xtick"><text text-anchor="end" x="0" y="434" transform="translate(557.3,0) rotate(-45,0,427.5)" style="font-family: serif; font-size: 13px; fill: rgb(68, 68, 68); fill-opacity: 1; white-space: pre; opacity: 1;">Mar-29-21</text></g></g><g class="yaxislayer-above"><g class="ytick"><text text-anchor="end" x="59" y="4.199999999999999" transform="translate(0,420)" style="font-family: 'Open Sans', verdana, arial, sans-serif; font-size: 12px; fill: rgb(68, 68, 68); fill-opacity: 1; white-space: pre; opacity: 1;">0</text></g><g class="ytick"><text text-anchor="end" x="59" y="4.199999999999999" style="font-family: 'Open Sans', verdana, arial, sans-serif; font-size: 12px; fill: rgb(68, 68, 68); fill-opacity: 1; white-space: pre; opacity: 1;" transform="translate(0,353.76)">5k</text></g><g class="ytick"><text text-anchor="end" x="59" y="4.199999999999999" style="font-family: 'Open Sans', verdana, arial, sans-serif; font-size: 12px; fill: rgb(68, 68, 68); fill-opacity: 1; white-space: pre; opacity: 1;" transform="translate(0,287.52)">10k</text></g><g class="ytick"><text text-anchor="end" x="59" y="4.199999999999999" style="font-family: 'Open Sans', verdana, arial, sans-serif; font-size: 12px; fill: rgb(68, 68, 68); fill-opacity: 1; white-space: pre; opacity: 1;" transform="translate(0,221.29)">15k</text></g><g class="ytick"><text text-anchor="end" x="59" y="4.199999999999999" style="font-family: 'Open Sans', verdana, arial, sans-serif; font-size: 12px; fill: rgb(68, 68, 68); fill-opacity: 1; white-space: pre; opacity: 1;" transform="translate(0,155.05)">20k</text></g><g class="ytick"><text text-anchor="end" x="59" y="4.199999999999999" style="font-family: 'Open Sans', verdana, arial, sans-serif; font-size: 12px; fill: rgb(68, 68, 68); fill-opacity: 1; white-space: pre; opacity: 1;" transform="translate(0,88.81)">25k</text></g></g><g class="overaxes-above"/></g></g><g class="polarlayer"/><g class="smithlayer"/><g class="ternarylayer"/><g class="geolayer"/><g class="funnelarealayer"/><g class="pielayer"/><g class="iciclelayer"/><g class="treemaplayer"/><g class="sunburstlayer"/><g class="glimages"/><defs id="topdefs-d3d3d7"><g class="clips"/><clipPath id="legendd3d3d7"><rect width="108" height="67" x="0" y="0"/></clipPath></defs><g class="layer-above"><g class="imagelayer"/><g class="shapelayer"/></g><g class="infolayer"><g class="legend" pointer-events="all" transform="translate(582.24,25)"><rect class="bg" shape-rendering="crispEdges" style="stroke: rgb(68, 68, 68); stroke-opacity: 1; fill: rgb(255, 255, 255); fill-opacity: 1; stroke-width: 0px;" width="108" height="67" x="0" y="0"/><g class="scrollbox" transform="" clip-path="url(#legendd3d3d7)"><g class="groups"><g class="traces" transform="translate(0,14.5)" style="opacity: 1;"><text class="legendtext" text-anchor="start" x="40" y="4.680000000000001" style="font-family: 'Open Sans', verdana, arial, sans-serif; font-size: 12px; fill: rgb(68, 68, 68); fill-opacity: 1; white-space: pre;">Active</text><g class="layers"><g class="legendfill"><path class="js-fill" d="M5,-2h30v6h-30z" style="stroke-width: 0; fill: rgb(255, 165, 0); fill-opacity: 1;"/></g><g class="legendlines"><path class="js-line" d="M5,-2h30" style="fill: none; stroke: rgb(255, 165, 0); stroke-opacity: 1; stroke-width: 2px;"/></g><g class="legendsymbols"><g class="legendpoints"/></g></g><rect class="legendtoggle" x="0" y="-9.5" width="102.546875" height="19" style="fill: rgb(0, 0, 0); fill-opacity: 0;"/></g><g class="traces" transform="translate(0,33.5)" style="opacity: 1;"><text class="legendtext" text-anchor="start" x="40" y="4.680000000000001" style="font-family: 'Open Sans', verdana, arial, sans-serif; font-size: 12px; fill: rgb(68, 68, 68); fill-opacity: 1; white-space: pre;">Recovered</text><g class="layers"><g class="legendfill"><path class="js-fill" d="M5,-2h30v6h-30z" style="stroke-width: 0; fill: rgb(0, 255, 0); fill-opacity: 1;"/></g><g class="legendlines"><path class="js-line" d="M5,-2h30" style="fill: none; stroke: rgb(0, 255, 0); stroke-opacity: 1; stroke-width: 2px;"/></g><g class="legendsymbols"><g class="legendpoints"/></g></g><rect class="legendtoggle" x="0" y="-9.5" width="102.546875" height="19" style="fill: rgb(0, 0, 0); fill-opacity: 0;"/></g><g class="traces" transform="translate(0,52.5)" style="opacity: 1;"><text class="legendtext" text-anchor="start" x="40" y="4.680000000000001" style="font-family: 'Open Sans', verdana, arial, sans-serif; font-size: 12px; fill: rgb(68, 68, 68); fill-opacity: 1; white-space: pre;">Deceased</text><g class="layers"><g class="legendfill"><path class="js-fill" d="M5,-2h30v6h-30z" style="stroke-width: 0; fill: rgb(139, 0, 0); fill-opacity: 1;"/></g><g class="legendlines"><path class="js-line" d="M5,-2h30" style="fill: none; stroke: rgb(139, 0, 0); stroke-opacity: 1; stroke-width: 2px;"/></g><g class="legendsymbols"><g class="legendpoints"/></g></g><rect class="legendtoggle" x="0" y="-9.5" width="102.546875" height="19" style="fill: rgb(0, 0, 0); fill-opacity: 0;"/></g></g></g><rect class="scrollbar" rx="20" ry="3" width="0" height="0" style="fill: rgb(128, 139, 164); fill-opacity: 1;" x="0" y="0"/></g><g class="g-gtitle"><text class="gtitle" x="350" y="12.5" text-anchor="middle" dy="0em" style="font-family: serif; font-size: 18px; fill: rgb(68, 68, 68); opacity: 1; font-weight: normal; white-space: pre;">Tumakuru</text></g><g class="g-xtitle" transform="translate(0,19.2626953125)"><text class="xtitle" x="316" y="472" text-anchor="middle" style="font-family: 'Open Sans', verdana, arial, sans-serif; font-size: 14px; fill: rgb(68, 68, 68); opacity: 1; font-weight: normal; white-space: pre;">Date</text></g><g class="g-ytitle" transform="translate(2,0)"><text class="ytitle" transform="rotate(-90,14,222.5)" x="14" y="222.5" text-anchor="middle" style="font-family: serif; font-size: 18px; fill: rgb(0, 0, 0); opacity: 1; font-weight: normal; white-space: pre;">Number of Cases</text></g></g></svg>