<svg class="main-svg" xmlns="http://www.w3.org/2000/svg" xmlns:xlink="http://www.w3.org/1999/xlink" width="700" height="500" style="" viewBox="0 0 700 500"><rect x="0" y="0" width="700" height="500" style="fill: rgb(255, 255, 255); fill-opacity: 1;"/><defs id="defs-21926b"><g class="clips"><clipPath id="clip21926bxyplot" class="plotclip"><rect width="512" height="395"/></clipPath><clipPath class="axesclip" id="clip21926bx"><rect x="60" y="0" width="512" height="500"/></clipPath><clipPath class="axesclip" id="clip21926by"><rect x="0" y="25" width="700" height="395"/></clipPath><clipPath class="axesclip" id="clip21926bxy"><rect x="60" y="25" width="512" height="395"/></clipPath></g><g class="gradients"/><g class="patterns"/></defs><g class="bglayer"/><g class="layer-below"><g class="imagelayer"/><g class="shapelayer"/></g><g class="cartesianlayer"><g class="subplot xy"><g class="layer-subplot"><g class="shapelayer"/><g class="imagelayer"/></g><g class="gridlayer"><g class="x"><path class="xgrid crisp" transform="translate(76.03999999999999,0)" d="M0,25v395" style="stroke: rgb(238, 238, 238); stroke-opacity: 1; stroke-width: 1px;"/><path class="xgrid crisp" transform="translate(92.08,0)" d="M0,25v395" style="stroke: rgb(238, 238, 238); stroke-opacity: 1; stroke-width: 1px;"/><path class="xgrid crisp" transform="translate(108.13,0)" d="M0,25v395" style="stroke: rgb(238, 238, 238); stroke-opacity: 1; stroke-width: 1px;"/><path class="xgrid crisp" transform="translate(124.17,0)" d="M0,25v395" style="stroke: rgb(238, 238, 238); stroke-opacity: 1; stroke-width: 1px;"/><path class="xgrid crisp" transform="translate(140.20999999999998,0)" d="M0,25v395" style="stroke: rgb(238, 238, 238); stroke-opacity: 1; stroke-width: 1px;"/><path class="xgrid crisp" transform="translate(156.25,0)" d="M0,25v395" style="stroke: rgb(238, 238, 238); stroke-opacity: 1; stroke-width: 1px;"/><path class="xgrid crisp" transform="translate(172.29000000000002,0)" d="M0,25v395" style="stroke: rgb(238, 238, 238); stroke-opacity: 1; stroke-width: 1px;"/><path class="xgrid crisp" transform="translate(188.33,0)" d="M0,25v395" style="stroke: rgb(238, 238, 238); stroke-opacity: 1; stroke-width: 1px;"/><path class="xgrid crisp" transform="translate(204.38,0)" d="M0,25v395" style="stroke: rgb(238, 238, 238); stroke-opacity: 1; stroke-width: 1px;"/><path class="xgrid crisp" transform="translate(220.42,0)" d="M0,25v395" style="stroke: rgb(238, 238, 238); stroke-opacity: 1; stroke-width: 1px;"/><path class="xgrid crisp" transform="translate(236.46,0)" d="M0,25v395" style="stroke: rgb(238, 238, 238); stroke-opacity: 1; stroke-width: 1px;"/><path class="xgrid crisp" transform="translate(252.5,0)" d="M0,25v395" style="stroke: rgb(238, 238, 238); stroke-opacity: 1; stroke-width: 1px;"/><path class="xgrid crisp" transform="translate(268.53999999999996,0)" d="M0,25v395" style="stroke: rgb(238, 238, 238); stroke-opacity: 1; stroke-width: 1px;"/><path class="xgrid crisp" transform="translate(284.58000000000004,0)" d="M0,25v395" style="stroke: rgb(238, 238, 238); stroke-opacity: 1; stroke-width: 1px;"/><path class="xgrid crisp" transform="translate(300.63,0)" d="M0,25v395" style="stroke: rgb(238, 238, 238); stroke-opacity: 1; stroke-width: 1px;"/><path class="xgrid crisp" transform="translate(316.67,0)" d="M0,25v395" style="stroke: rgb(238, 238, 238); stroke-opacity: 1; stroke-width: 1px;"/><path class="xgrid crisp" transform="translate(332.71,0)" d="M0,25v395" style="stroke: rgb(238, 238, 238); stroke-opacity: 1; stroke-width: 1px;"/><path class="xgrid crisp" transform="translate(348.75,0)" d="M0,25v395" style="stroke: rgb(238, 238, 238); stroke-opacity: 1; stroke-width: 1px;"/><path class="xgrid crisp" transform="translate(364.79,0)" d="M0,25v395" style="stroke: rgb(238, 238, 238); stroke-opacity: 1; stroke-width: 1px;"/><path class="xgrid crisp" transform="translate(380.84,0)" d="M0,25v395" style="stroke: rgb(238, 238, 238); stroke-opacity: 1; stroke-width: 1px;"/><path class="xgrid crisp" transform="translate(396.88,0)" d="M0,25v395" style="stroke: rgb(238, 238, 238); stroke-opacity: 1; stroke-width: 1px;"/><path class="xgrid crisp" transform="translate(412.92,0)" d="M0,25v395" style="stroke: rgb(238, 238, 238); stroke-opacity: 1; stroke-width: 1px;"/><path class="xgrid crisp" transform="translate(428.96,0)" d="M0,25v395" style="stroke: rgb(238, 238, 238); stroke-opacity: 1; stroke-width: 1px;"/><path class="xgrid crisp" transform="translate(445,0)" d="M0,25v395" style="stroke: rgb(238, 238, 238); stroke-opacity: 1; stroke-width: 1px;"/><path class="xgrid crisp" transform="translate(461.04,0)" d="M0,25v395" style="stroke: rgb(238, 238, 238); stroke-opacity: 1; stroke-width: 1px;"/><path class="xgrid crisp" transform="translate(477.09,0)" d="M0,25v395" style="stroke: rgb(238, 238, 238); stroke-opacity: 1; stroke-width: 1px;"/><path class="xgrid crisp" transform="translate(493.13,0)" d="M0,25v395" style="stroke: rgb(238, 238, 238); stroke-opacity: 1; stroke-width: 1px;"/><path class="xgrid crisp" transform="translate(509.17,0)" d="M0,25v395" style="stroke: rgb(238, 238, 238); stroke-opacity: 1; stroke-width: 1px;"/><path class="xgrid crisp" transform="translate(525.21,0)" d="M0,25v395" style="stroke: rgb(238, 238, 238); stroke-opacity: 1; stroke-width: 1px;"/><path class="xgrid crisp" transform="translate(541.25,0)" d="M0,25v395" style="stroke: rgb(238, 238, 238); stroke-opacity: 1; stroke-width: 1px;"/><path class="xgrid crisp" transform="translate(557.3,0)" d="M0,25v395" style="stroke: rgb(238, 238, 238); stroke-opacity: 1; stroke-width: 1px;"/></g><g class="y"><path class="ygrid crisp" transform="translate(0,347.36)" d="M60,0h512" style="stroke: rgb(238, 238, 238); stroke-opacity: 1; stroke-width: 1px;"/><path class="ygrid crisp" transform="translate(0,274.72)" d="M60,0h512" style="stroke: rgb(238, 238, 238); stroke-opacity: 1; stroke-width: 1px;"/><path class="ygrid crisp" transform="translate(0,202.08)" d="M60,0h512" style="stroke: rgb(238, 238, 238); stroke-opacity: 1; stroke-width: 1px;"/><path class="ygrid crisp" transform="translate(0,129.44)" d="M60,0h512" style="stroke: rgb(238, 238, 238); stroke-opacity: 1; stroke-width: 1px;"/><path class="ygrid crisp" transform="translate(0,56.79)" d="M60,0h512" style="stroke: rgb(238, 238, 238); stroke-opacity: 1; stroke-width: 1px;"/></g></g><g class="zerolinelayer"><path class="yzl zl crisp" transform="translate(0,420)" d="M60,0h512" style="stroke: rgb(68, 68, 68); stroke-opacity: 1; stroke-width: 1px;"/></g><path class="xlines-below"/><path class="ylines-below"/><g class="overlines-below"/><g class="xaxislayer-below"/><g class="yaxislayer-below"/><g class="overaxes-below"/><g class="plot" transform="translate(60,25)" clip-path="url(#clip21926bxyplot)"><g class="scatterlayer mlayer"><g class="trace scatter trace513a0b" style="stroke-miterlimit: 2;"><g class="fills"><g><path class="js-fill" d="M512,395L0,395L0,395L183.14,394.27L184.48,394.2L208.54,393.69L209.88,393.68L336.88,392.28L338.21,392.28L512,392.21" style="fill: rgb(139, 0, 0); fill-opacity: 1; stroke-width: 0;"/></g><g><path class="js-fill" d="M0,395L92.24,394.9L93.58,394.07L102.93,393.49L104.27,390.37L105.61,391.59L106.95,390.23L108.28,389.92L109.62,388.1L112.29,384.63L113.63,384.29L117.64,381.3L118.98,381.27L141.7,378.35L143.04,377.94L148.39,377.03L149.72,376.62L151.06,376.52L152.4,375.36L153.73,375.04L155.07,373.88L157.74,372L159.08,371.38L160.42,371.36L161.75,369.71L164.43,368.25L165.77,366.93L173.79,360.12L175.12,359.3L188.49,343.74L189.83,341.41L192.5,333.87L193.84,324.84L197.85,313.8L199.19,309.14L200.52,306.51L201.86,301.26L205.87,288.03L207.21,285.7L212.55,273.6L213.89,270.42L216.56,263.16L217.9,259.5L220.57,251.14L221.91,246.29L229.93,227.29L231.27,225.57L233.94,218.16L235.28,218.16L237.95,218.16L239.29,205.55L244.64,189.85L245.97,189.85L247.31,189.85L248.65,186.97L252.66,182L253.99,179.17L255.33,178.14L256.67,175.41L258.01,170.58L259.34,169.58L260.68,165.22L262.02,164.36L263.35,163.99L264.69,158.36L266.03,155.65L267.36,150.13L274.05,134.86L275.38,132.49L279.39,122.58L280.73,120.34L284.74,111.98L286.08,108.08L294.1,92.65L295.44,91.03L299.45,85.88L300.78,83.88L303.46,81.39L304.79,80.42L311.48,76.44L312.81,75.99L315.49,74.96L316.83,74.3L320.84,72.62L322.17,72.21L332.87,69.86L334.2,69.51L359.6,63.7L360.94,63.54L379.66,61.08L380.99,61L407.73,57.74L409.07,57.7L446.5,54.27L447.83,54.05L465.21,52.18L466.55,51.93L473.23,51.06L474.57,50.85L481.25,49.3L482.59,49.13L487.94,47.93L489.27,47.31L493.28,45.62L494.62,43.14L495.96,42.73L497.3,41.05L499.97,37.84L501.31,34.79L503.98,30.82L505.32,29.83L512,25.27L512,392.21L338.21,392.28L336.88,392.28L209.88,393.68L208.54,393.69L184.48,394.2L183.14,394.27L0,395Z" style="fill: rgb(0, 255, 0); fill-opacity: 1; stroke-width: 0;"/></g></g><g class="errorbars"/><g class="lines"><path class="js-line" d="M0,395L183.14,394.27L184.48,394.2L208.54,393.69L209.88,393.68L336.88,392.28L338.21,392.28L512,392.21" style="vector-effect: non-scaling-stroke; fill: none; stroke: rgb(139, 0, 0); stroke-opacity: 1; stroke-width: 2px; opacity: 1;"/></g><g class="points"/><g class="text"/></g><g class="trace scatter tracea378e9" style="stroke-miterlimit: 2;"><g class="fills"><g><path class="js-fill" d="M0,395L81.55,394.27L82.88,394.23L92.24,392.43L93.58,392.28L94.91,391.22L96.25,389.04L98.92,386.81L100.26,383.84L101.6,382.08L102.93,381.9L105.61,381.24L106.95,381.24L114.97,379.96L116.3,379.91L124.32,379.19L125.66,378.99L139.03,376.46L140.37,375.81L149.72,371.62L151.06,370.85L156.41,366.23L157.74,364.65L161.75,360.06L163.09,355.98L168.44,345.79L169.78,342.52L172.45,338.43L173.79,334.82L177.8,327.11L179.13,325.28L183.14,317.14L184.48,313.57L187.15,304.92L188.49,303.62L191.16,296.61L192.5,290.77L196.51,279.15L197.85,275.26L201.86,258.59L203.2,254.56L204.53,249.5L205.87,247.8L207.21,246.29L208.54,243.14L212.55,233.9L213.89,231.4L215.23,227.71L216.56,226.5L221.91,215.68L223.25,213.14L232.61,192.77L233.94,190.94L236.62,190.34L237.95,187.57L239.29,185.82L240.63,178.66L245.97,166.35L247.31,164.87L251.32,162.05L252.66,157.41L255.33,147.95L256.67,145.93L259.34,138.85L260.68,136.56L264.69,128.23L266.03,125.2L274.05,106.18L275.38,103.29L280.73,92.7L282.07,91.23L290.09,82.38L291.43,81.74L295.44,78.59L296.77,77.95L306.13,73.52L307.47,73.26L312.81,71.56L314.15,71.11L335.54,66.12L336.88,65.57L368.96,61.08L370.3,61L397.03,57.9L398.37,57.87L441.15,53.96L442.49,53.8L455.85,52.47L457.19,52.21L479.92,47.98L481.25,47.37L485.26,45.67L486.6,43.2L487.94,41.56L489.27,41.15L491.95,37.9L493.28,34.84L495.96,30.91L497.3,29.88L503.98,25.37L505.32,24.31L512,19.75L512,25.27L505.32,29.83L503.98,30.82L501.31,34.79L499.97,37.84L497.3,41.05L495.96,42.73L494.62,43.14L493.28,45.62L489.27,47.31L487.94,47.93L482.59,49.13L481.25,49.3L474.57,50.85L473.23,51.06L466.55,51.93L465.21,52.18L447.83,54.05L446.5,54.27L409.07,57.7L407.73,57.74L380.99,61L379.66,61.08L360.94,63.54L359.6,63.7L334.2,69.51L332.87,69.86L322.17,72.21L320.84,72.62L316.83,74.3L315.49,74.96L312.81,75.99L311.48,76.44L304.79,80.42L303.46,81.39L300.78,83.88L299.45,85.88L295.44,91.03L294.1,92.65L286.08,108.08L284.74,111.98L280.73,120.34L279.39,122.58L275.38,132.49L274.05,134.86L267.36,150.13L266.03,155.65L264.69,158.36L263.35,163.99L262.02,164.36L260.68,165.22L259.34,169.58L258.01,170.58L256.67,175.41L255.33,178.14L253.99,179.17L252.66,182L248.65,186.97L247.31,189.85L245.97,189.85L244.64,189.85L239.29,205.55L237.95,218.16L235.28,218.16L233.94,218.16L231.27,225.57L229.93,227.29L221.91,246.29L220.57,251.14L217.9,259.5L216.56,263.16L213.89,270.42L212.55,273.6L207.21,285.7L205.87,288.03L201.86,301.26L200.52,306.51L199.19,309.14L197.85,313.8L193.84,324.84L192.5,333.87L189.83,341.41L188.49,343.74L175.12,359.3L173.79,360.12L165.77,366.93L164.43,368.25L161.75,369.71L160.42,371.36L159.08,371.38L157.74,372L155.07,373.88L153.73,375.04L152.4,375.36L151.06,376.52L149.72,376.62L148.39,377.03L143.04,377.94L141.7,378.35L118.98,381.27L117.64,381.3L113.63,384.29L112.29,384.63L109.62,388.1L108.28,389.92L106.95,390.23L105.61,391.59L104.27,390.37L102.93,393.49L93.58,394.07L92.24,394.9L0,395Z" style="fill: rgb(255, 165, 0); fill-opacity: 1; stroke-width: 0;"/></g></g><g class="errorbars"/><g class="lines"><path class="js-line" d="M0,395L92.24,394.9L93.58,394.07L102.93,393.49L104.27,390.37L105.61,391.59L106.95,390.23L108.28,389.92L109.62,388.1L112.29,384.63L113.63,384.29L117.64,381.3L118.98,381.27L141.7,378.35L143.04,377.94L148.39,377.03L149.72,376.62L151.06,376.52L152.4,375.36L153.73,375.04L155.07,373.88L157.74,372L159.08,371.38L160.42,371.36L161.75,369.71L164.43,368.25L165.77,366.93L173.79,360.12L175.12,359.3L188.49,343.74L189.83,341.41L192.5,333.87L193.84,324.84L197.85,313.8L199.19,309.14L200.52,306.51L201.86,301.26L205.87,288.03L207.21,285.7L212.55,273.6L213.89,270.42L216.56,263.16L217.9,259.5L220.57,251.14L221.91,246.29L229.93,227.29L231.27,225.57L233.94,218.16L235.28,218.16L237.95,218.16L239.29,205.55L244.64,189.85L245.97,189.85L247.31,189.85L248.65,186.97L252.66,182L253.99,179.17L255.33,178.14L256.67,175.41L258.01,170.58L259.34,169.58L260.68,165.22L262.02,164.36L263.35,163.99L264.69,158.36L266.03,155.65L267.36,150.13L274.05,134.86L275.38,132.49L279.39,122.58L280.73,120.34L284.74,111.98L286.08,108.08L294.1,92.65L295.44,91.03L299.45,85.88L300.78,83.88L303.46,81.39L304.79,80.42L311.48,76.44L312.81,75.99L315.49,74.96L316.83,74.3L320.84,72.62L322.17,72.21L332.87,69.86L334.2,69.51L359.6,63.7L360.94,63.54L379.66,61.08L380.99,61L407.73,57.74L409.07,57.7L446.5,54.27L447.83,54.05L465.21,52.18L466.55,51.93L473.23,51.06L474.57,50.85L481.25,49.3L482.59,49.13L487.94,47.93L489.27,47.31L493.28,45.62L494.62,43.14L495.96,42.73L497.3,41.05L499.97,37.84L501.31,34.79L503.98,30.82L505.32,29.83L512,25.27" style="vector-effect: non-scaling-stroke; fill: none; stroke: rgb(0, 255, 0); stroke-opacity: 1; stroke-width: 2px; opacity: 1;"/></g><g class="points"/><g class="text"/></g><g class="trace scatter trace4e943b" style="stroke-miterlimit: 2;"><g class="fills"/><g class="errorbars"/><g class="lines"><path class="js-line" d="M0,395L81.55,394.27L82.88,394.23L92.24,392.43L93.58,392.28L94.91,391.22L96.25,389.04L98.92,386.81L100.26,383.84L101.6,382.08L102.93,381.9L105.61,381.24L106.95,381.24L114.97,379.96L116.3,379.91L124.32,379.19L125.66,378.99L139.03,376.46L140.37,375.81L149.72,371.62L151.06,370.85L156.41,366.23L157.74,364.65L161.75,360.06L163.09,355.98L168.44,345.79L169.78,342.52L172.45,338.43L173.79,334.82L177.8,327.11L179.13,325.28L183.14,317.14L184.48,313.57L187.15,304.92L188.49,303.62L191.16,296.61L192.5,290.77L196.51,279.15L197.85,275.26L201.86,258.59L203.2,254.56L204.53,249.5L205.87,247.8L207.21,246.29L208.54,243.14L212.55,233.9L213.89,231.4L215.23,227.71L216.56,226.5L221.91,215.68L223.25,213.14L232.61,192.77L233.94,190.94L236.62,190.34L237.95,187.57L239.29,185.82L240.63,178.66L245.97,166.35L247.31,164.87L251.32,162.05L252.66,157.41L255.33,147.95L256.67,145.93L259.34,138.85L260.68,136.56L264.69,128.23L266.03,125.2L274.05,106.18L275.38,103.29L280.73,92.7L282.07,91.23L290.09,82.38L291.43,81.74L295.44,78.59L296.77,77.95L306.13,73.52L307.47,73.26L312.81,71.56L314.15,71.11L335.54,66.12L336.88,65.57L368.96,61.08L370.3,61L397.03,57.9L398.37,57.87L441.15,53.96L442.49,53.8L455.85,52.47L457.19,52.21L479.92,47.98L481.25,47.37L485.26,45.67L486.6,43.2L487.94,41.56L489.27,41.15L491.95,37.9L493.28,34.84L495.96,30.91L497.3,29.88L503.98,25.37L505.32,24.31L512,19.75" style="vector-effect: non-scaling-stroke; fill: none; stroke: rgb(255, 165, 0); stroke-opacity: 1; stroke-width: 2px; opacity: 1;"/></g><g class="points"/><g class="text"/></g></g></g><g class="overplot"/><path class="xlines-above crisp" d="M0,0" style="fill: none;"/><path class="ylines-above crisp" d="M0,0" style="fill: none;"/><g class="overlines-above"/><g class="xaxislayer-above"><g class="xtick"><text text-anchor="end" x="0" y="434" transform="translate(60,0) rotate(-45,0,427.5)" style="font-family: serif; font-size: 13px; fill: rgb(68, 68, 68); fill-opacity: 1; white-space: pre; opacity: 1;">Mar-22-20</text></g><g class="xtick"><text text-anchor="end" x="0" y="434" transform="translate(76.03999999999999,0) rotate(-45,0,427.5)" style="font-family: serif; font-size: 13px; fill: rgb(68, 68, 68); fill-opacity: 1; white-space: pre; opacity: 1;">Apr-03-20</text></g><g class="xtick"><text text-anchor="end" x="0" y="434" transform="translate(92.08,0) rotate(-45,0,427.5)" style="font-family: serif; font-size: 13px; fill: rgb(68, 68, 68); fill-opacity: 1; white-space: pre; opacity: 1;">Apr-15-20</text></g><g class="xtick"><text text-anchor="end" x="0" y="434" transform="translate(108.13,0) rotate(-45,0,427.5)" style="font-family: serif; font-size: 13px; fill: rgb(68, 68, 68); fill-opacity: 1; white-space: pre; opacity: 1;">Apr-27-20</text></g><g class="xtick"><text text-anchor="end" x="0" y="434" transform="translate(124.17,0) rotate(-45,0,427.5)" style="font-family: serif; font-size: 13px; fill: rgb(68, 68, 68); fill-opacity: 1; white-space: pre; opacity: 1;">May-09-20</text></g><g class="xtick"><text text-anchor="end" x="0" y="434" transform="translate(140.20999999999998,0) rotate(-45,0,427.5)" style="font-family: serif; font-size: 13px; fill: rgb(68, 68, 68); fill-opacity: 1; white-space: pre; opacity: 1;">May-21-20</text></g><g class="xtick"><text text-anchor="end" x="0" y="434" transform="translate(156.25,0) rotate(-45,0,427.5)" style="font-family: serif; font-size: 13px; fill: rgb(68, 68, 68); fill-opacity: 1; white-space: pre; opacity: 1;">Jun-02-20</text></g><g class="xtick"><text text-anchor="end" x="0" y="434" transform="translate(172.29000000000002,0) rotate(-45,0,427.5)" style="font-family: serif; font-size: 13px; fill: rgb(68, 68, 68); fill-opacity: 1; white-space: pre; opacity: 1;">Jun-14-20</text></g><g class="xtick"><text text-anchor="end" x="0" y="434" transform="translate(188.33,0) rotate(-45,0,427.5)" style="font-family: serif; font-size: 13px; fill: rgb(68, 68, 68); fill-opacity: 1; white-space: pre; opacity: 1;">Jun-26-20</text></g><g class="xtick"><text text-anchor="end" x="0" y="434" transform="translate(204.38,0) rotate(-45,0,427.5)" style="font-family: serif; font-size: 13px; fill: rgb(68, 68, 68); fill-opacity: 1; white-space: pre; opacity: 1;">Jul-08-20</text></g><g class="xtick"><text text-anchor="end" x="0" y="434" transform="translate(220.42,0) rotate(-45,0,427.5)" style="font-family: serif; font-size: 13px; fill: rgb(68, 68, 68); fill-opacity: 1; white-space: pre; opacity: 1;">Jul-20-20</text></g><g class="xtick"><text text-anchor="end" x="0" y="434" transform="translate(236.46,0) rotate(-45,0,427.5)" style="font-family: serif; font-size: 13px; fill: rgb(68, 68, 68); fill-opacity: 1; white-space: pre; opacity: 1;">Aug-01-20</text></g><g class="xtick"><text text-anchor="end" x="0" y="434" transform="translate(252.5,0) rotate(-45,0,427.5)" style="font-family: serif; font-size: 13px; fill: rgb(68, 68, 68); fill-opacity: 1; white-space: pre; opacity: 1;">Aug-13-20</text></g><g class="xtick"><text text-anchor="end" x="0" y="434" transform="translate(268.53999999999996,0) rotate(-45,0,427.5)" style="font-family: serif; font-size: 13px; fill: rgb(68, 68, 68); fill-opacity: 1; white-space: pre; opacity: 1;">Aug-25-20</text></g><g class="xtick"><text text-anchor="end" x="0" y="434" transform="translate(284.58000000000004,0) rotate(-45,0,427.5)" style="font-family: serif; font-size: 13px; fill: rgb(68, 68, 68); fill-opacity: 1; white-space: pre; opacity: 1;">Sep-06-20</text></g><g class="xtick"><text text-anchor="end" x="0" y="434" transform="translate(300.63,0) rotate(-45,0,427.5)" style="font-family: serif; font-size: 13px; fill: rgb(68, 68, 68); fill-opacity: 1; white-space: pre; opacity: 1;">Sep-18-20</text></g><g class="xtick"><text text-anchor="end" x="0" y="434" transform="translate(316.67,0) rotate(-45,0,427.5)" style="font-family: serif; font-size: 13px; fill: rgb(68, 68, 68); fill-opacity: 1; white-space: pre; opacity: 1;">Sep-30-20</text></g><g class="xtick"><text text-anchor="end" x="0" y="434" transform="translate(332.71,0) rotate(-45,0,427.5)" style="font-family: serif; font-size: 13px; fill: rgb(68, 68, 68); fill-opacity: 1; white-space: pre; opacity: 1;">Oct-12-20</text></g><g class="xtick"><text text-anchor="end" x="0" y="434" transform="translate(348.75,0) rotate(-45,0,427.5)" style="font-family: serif; font-size: 13px; fill: rgb(68, 68, 68); fill-opacity: 1; white-space: pre; opacity: 1;">Oct-24-20</text></g><g class="xtick"><text text-anchor="end" x="0" y="434" transform="translate(364.79,0) rotate(-45,0,427.5)" style="font-family: serif; font-size: 13px; fill: rgb(68, 68, 68); fill-opacity: 1; white-space: pre; opacity: 1;">Nov-05-20</text></g><g class="xtick"><text text-anchor="end" x="0" y="434" transform="translate(380.84,0) rotate(-45,0,427.5)" style="font-family: serif; font-size: 13px; fill: rgb(68, 68, 68); fill-opacity: 1; white-space: pre; opacity: 1;">Nov-17-20</text></g><g class="xtick"><text text-anchor="end" x="0" y="434" transform="translate(396.88,0) rotate(-45,0,427.5)" style="font-family: serif; font-size: 13px; fill: rgb(68, 68, 68); fill-opacity: 1; white-space: pre; opacity: 1;">Nov-29-20</text></g><g class="xtick"><text text-anchor="end" x="0" y="434" transform="translate(412.92,0) rotate(-45,0,427.5)" style="font-family: serif; font-size: 13px; fill: rgb(68, 68, 68); fill-opacity: 1; white-space: pre; opacity: 1;">Dec-11-20</text></g><g class="xtick"><text text-anchor="end" x="0" y="434" transform="translate(428.96,0) rotate(-45,0,427.5)" style="font-family: serif; font-size: 13px; fill: rgb(68, 68, 68); fill-opacity: 1; white-space: pre; opacity: 1;">Dec-23-20</text></g><g class="xtick"><text text-anchor="end" x="0" y="434" transform="translate(445,0) rotate(-45,0,427.5)" style="font-family: serif; font-size: 13px; fill: rgb(68, 68, 68); fill-opacity: 1; white-space: pre; opacity: 1;">Jan-04-21</text></g><g class="xtick"><text text-anchor="end" x="0" y="434" transform="translate(461.04,0) rotate(-45,0,427.5)" style="font-family: serif; font-size: 13px; fill: rgb(68, 68, 68); fill-opacity: 1; white-space: pre; opacity: 1;">Jan-16-21</text></g><g class="xtick"><text text-anchor="end" x="0" y="434" transform="translate(477.09,0) rotate(-45,0,427.5)" style="font-family: serif; font-size: 13px; fill: rgb(68, 68, 68); fill-opacity: 1; white-space: pre; opacity: 1;">Jan-28-21</text></g><g class="xtick"><text text-anchor="end" x="0" y="434" transform="translate(493.13,0) rotate(-45,0,427.5)" style="font-family: serif; font-size: 13px; fill: rgb(68, 68, 68); fill-opacity: 1; white-space: pre; opacity: 1;">Feb-09-21</text></g><g class="xtick"><text text-anchor="end" x="0" y="434" transform="translate(509.17,0) rotate(-45,0,427.5)" style="font-family: serif; font-size: 13px; fill: rgb(68, 68, 68); fill-opacity: 1; white-space: pre; opacity: 1;">Feb-21-21</text></g><g class="xtick"><text text-anchor="end" x="0" y="434" transform="translate(525.21,0) rotate(-45,0,427.5)" style="font-family: serif; font-size: 13px; fill: rgb(68, 68, 68); fill-opacity: 1; white-space: pre; opacity: 1;">Mar-05-21</text></g><g class="xtick"><text text-anchor="end" x="0" y="434" transform="translate(541.25,0) rotate(-45,0,427.5)" style="font-family: serif; font-size: 13px; fill: rgb(68, 68, 68); fill-opacity: 1; white-space: pre; opacity: 1;">Mar-17-21</text></g><g class="xtick"><text text-anchor="end" x="0" y="434" transform="translate(557.3,0) rotate(-45,0,427.5)" style="font-family: serif; font-size: 13px; fill: rgb(68, 68, 68); fill-opacity: 1; white-space: pre; opacity: 1;">Mar-29-21</text></g></g><g class="yaxislayer-above"><g class="ytick"><text text-anchor="end" x="59" y="4.199999999999999" transform="translate(0,420)" style="font-family: 'Open Sans', verdana, arial, sans-serif; font-size: 12px; fill: rgb(68, 68, 68); fill-opacity: 1; white-space: pre; opacity: 1;">0</text></g><g class="ytick"><text text-anchor="end" x="59" y="4.199999999999999" style="font-family: 'Open Sans', verdana, arial, sans-serif; font-size: 12px; fill: rgb(68, 68, 68); fill-opacity: 1; white-space: pre; opacity: 1;" transform="translate(0,347.36)">5k</text></g><g class="ytick"><text text-anchor="end" x="59" y="4.199999999999999" style="font-family: 'Open Sans', verdana, arial, sans-serif; font-size: 12px; fill: rgb(68, 68, 68); fill-opacity: 1; white-space: pre; opacity: 1;" transform="translate(0,274.72)">10k</text></g><g class="ytick"><text text-anchor="end" x="59" y="4.199999999999999" style="font-family: 'Open Sans', verdana, arial, sans-serif; font-size: 12px; fill: rgb(68, 68, 68); fill-opacity: 1; white-space: pre; opacity: 1;" transform="translate(0,202.08)">15k</text></g><g class="ytick"><text text-anchor="end" x="59" y="4.199999999999999" style="font-family: 'Open Sans', verdana, arial, sans-serif; font-size: 12px; fill: rgb(68, 68, 68); fill-opacity: 1; white-space: pre; opacity: 1;" transform="translate(0,129.44)">20k</text></g><g class="ytick"><text text-anchor="end" x="59" y="4.199999999999999" style="font-family: 'Open Sans', verdana, arial, sans-serif; font-size: 12px; fill: rgb(68, 68, 68); fill-opacity: 1; white-space: pre; opacity: 1;" transform="translate(0,56.79)">25k</text></g></g><g class="overaxes-above"/></g></g><g class="polarlayer"/><g class="smithlayer"/><g class="ternarylayer"/><g class="geolayer"/><g class="funnelarealayer"/><g class="pielayer"/><g class="iciclelayer"/><g class="treemaplayer"/><g class="sunburstlayer"/><g class="glimages"/><defs id="topdefs-21926b"><g class="clips"/><clipPath id="legend21926b"><rect width="108" height="67" x="0" y="0"/></clipPath></defs><g class="layer-above"><g class="imagelayer"/><g class="shapelayer"/></g><g class="infolayer"><g class="legend" pointer-events="all" transform="translate(582.24,25)"><rect class="bg" shape-rendering="crispEdges" style="stroke: rgb(68, 68, 68); stroke-opacity: 1; fill: rgb(255, 255, 255); fill-opacity: 1; stroke-width: 0px;" width="108" height="67" x="0" y="0"/><g class="scrollbox" transform="" clip-path="url(#legend21926b)"><g class="groups"><g class="traces" transform="translate(0,14.5)" style="opacity: 1;"><text class="legendtext" text-anchor="start" x="40" y="4.680000000000001" style="font-family: 'Open Sans', verdana, arial, sans-serif; font-size: 12px; fill: rgb(68, 68, 68); fill-opacity: 1; white-space: pre;">Active</text><g class="layers"><g class="legendfill"><path class="js-fill" d="M5,-2h30v6h-30z" style="stroke-width: 0; fill: rgb(255, 165, 0); fill-opacity: 1;"/></g><g class="legendlines"><path class="js-line" d="M5,-2h30" style="fill: none; stroke: rgb(255, 165, 0); stroke-opacity: 1; stroke-width: 2px;"/></g><g class="legendsymbols"><g class="legendpoints"/></g></g><rect class="legendtoggle" x="0" y="-9.5" width="102.546875" height="19" style="fill: rgb(0, 0, 0); fill-opacity: 0;"/></g><g class="traces" transform="translate(0,33.5)" style="opacity: 1;"><text class="legendtext" text-anchor="start" x="40" y="4.680000000000001" style="font-family: 'Open Sans', verdana, arial, sans-serif; font-size: 12px; fill: rgb(68, 68, 68); fill-opacity: 1; white-space: pre;">Recovered</text><g class="layers"><g class="legendfill"><path class="js-fill" d="M5,-2h30v6h-30z" style="stroke-width: 0; fill: rgb(0, 255, 0); fill-opacity: 1;"/></g><g class="legendlines"><path class="js-line" d="M5,-2h30" style="fill: none; stroke: rgb(0, 255, 0); stroke-opacity: 1; stroke-width: 2px;"/></g><g class="legendsymbols"><g class="legendpoints"/></g></g><rect class="legendtoggle" x="0" y="-9.5" width="102.546875" height="19" style="fill: rgb(0, 0, 0); fill-opacity: 0;"/></g><g class="traces" transform="translate(0,52.5)" style="opacity: 1;"><text class="legendtext" text-anchor="start" x="40" y="4.680000000000001" style="font-family: 'Open Sans', verdana, arial, sans-serif; font-size: 12px; fill: rgb(68, 68, 68); fill-opacity: 1; white-space: pre;">Deceased</text><g class="layers"><g class="legendfill"><path class="js-fill" d="M5,-2h30v6h-30z" style="stroke-width: 0; fill: rgb(139, 0, 0); fill-opacity: 1;"/></g><g class="legendlines"><path class="js-line" d="M5,-2h30" style="fill: none; stroke: rgb(139, 0, 0); stroke-opacity: 1; stroke-width: 2px;"/></g><g class="legendsymbols"><g class="legendpoints"/></g></g><rect class="legendtoggle" x="0" y="-9.5" width="102.546875" height="19" style="fill: rgb(0, 0, 0); fill-opacity: 0;"/></g></g></g><rect class="scrollbar" rx="20" ry="3" width="0" height="0" style="fill: rgb(128, 139, 164); fill-opacity: 1;" x="0" y="0"/></g><g class="g-gtitle"><text class="gtitle" x="350" y="12.5" text-anchor="middle" dy="0em" style="font-family: serif; font-size: 18px; fill: rgb(68, 68, 68); opacity: 1; font-weight: normal; white-space: pre;">Udupi</text></g><g class="g-xtitle" transform="translate(0,19.2626953125)"><text class="xtitle" x="316" y="472" text-anchor="middle" style="font-family: 'Open Sans', verdana, arial, sans-serif; font-size: 14px; fill: rgb(68, 68, 68); opacity: 1; font-weight: normal; white-space: pre;">Date</text></g><g class="g-ytitle" transform="translate(2,0)"><text class="ytitle" transform="rotate(-90,14,222.5)" x="14" y="222.5" text-anchor="middle" style="font-family: serif; font-size: 18px; fill: rgb(0, 0, 0); opacity: 1; font-weight: normal; white-space: pre;">Number of Cases</text></g></g></svg>