<svg class="main-svg" xmlns="http://www.w3.org/2000/svg" xmlns:xlink="http://www.w3.org/1999/xlink" width="700" height="500" style="" viewBox="0 0 700 500"><rect x="0" y="0" width="700" height="500" style="fill: rgb(255, 255, 255); fill-opacity: 1;"/><defs id="defs-a04706"><g class="clips"><clipPath id="clipa04706xyplot" class="plotclip"><rect width="512" height="395"/></clipPath><clipPath class="axesclip" id="clipa04706x"><rect x="60" y="0" width="512" height="500"/></clipPath><clipPath class="axesclip" id="clipa04706y"><rect x="0" y="25" width="700" height="395"/></clipPath><clipPath class="axesclip" id="clipa04706xy"><rect x="60" y="25" width="512" height="395"/></clipPath></g><g class="gradients"/><g class="patterns"/></defs><g class="bglayer"/><g class="layer-below"><g class="imagelayer"/><g class="shapelayer"/></g><g class="cartesianlayer"><g class="subplot xy"><g class="layer-subplot"><g class="shapelayer"/><g class="imagelayer"/></g><g class="gridlayer"><g class="x"><path class="xgrid crisp" transform="translate(76.03999999999999,0)" d="M0,25v395" style="stroke: rgb(238, 238, 238); stroke-opacity: 1; stroke-width: 1px;"/><path class="xgrid crisp" transform="translate(92.08,0)" d="M0,25v395" style="stroke: rgb(238, 238, 238); stroke-opacity: 1; stroke-width: 1px;"/><path class="xgrid crisp" transform="translate(108.13,0)" d="M0,25v395" style="stroke: rgb(238, 238, 238); stroke-opacity: 1; stroke-width: 1px;"/><path class="xgrid crisp" transform="translate(124.17,0)" d="M0,25v395" style="stroke: rgb(238, 238, 238); stroke-opacity: 1; stroke-width: 1px;"/><path class="xgrid crisp" transform="translate(140.20999999999998,0)" d="M0,25v395" style="stroke: rgb(238, 238, 238); stroke-opacity: 1; stroke-width: 1px;"/><path class="xgrid crisp" transform="translate(156.25,0)" d="M0,25v395" style="stroke: rgb(238, 238, 238); stroke-opacity: 1; stroke-width: 1px;"/><path class="xgrid crisp" transform="translate(172.29000000000002,0)" d="M0,25v395" style="stroke: rgb(238, 238, 238); stroke-opacity: 1; stroke-width: 1px;"/><path class="xgrid crisp" transform="translate(188.33,0)" d="M0,25v395" style="stroke: rgb(238, 238, 238); stroke-opacity: 1; stroke-width: 1px;"/><path class="xgrid crisp" transform="translate(204.38,0)" d="M0,25v395" style="stroke: rgb(238, 238, 238); stroke-opacity: 1; stroke-width: 1px;"/><path class="xgrid crisp" transform="translate(220.42,0)" d="M0,25v395" style="stroke: rgb(238, 238, 238); stroke-opacity: 1; stroke-width: 1px;"/><path class="xgrid crisp" transform="translate(236.46,0)" d="M0,25v395" style="stroke: rgb(238, 238, 238); stroke-opacity: 1; stroke-width: 1px;"/><path class="xgrid crisp" transform="translate(252.5,0)" d="M0,25v395" style="stroke: rgb(238, 238, 238); stroke-opacity: 1; stroke-width: 1px;"/><path class="xgrid crisp" transform="translate(268.53999999999996,0)" d="M0,25v395" style="stroke: rgb(238, 238, 238); stroke-opacity: 1; stroke-width: 1px;"/><path class="xgrid crisp" transform="translate(284.58000000000004,0)" d="M0,25v395" style="stroke: rgb(238, 238, 238); stroke-opacity: 1; stroke-width: 1px;"/><path class="xgrid crisp" transform="translate(300.63,0)" d="M0,25v395" style="stroke: rgb(238, 238, 238); stroke-opacity: 1; stroke-width: 1px;"/><path class="xgrid crisp" transform="translate(316.67,0)" d="M0,25v395" style="stroke: rgb(238, 238, 238); stroke-opacity: 1; stroke-width: 1px;"/><path class="xgrid crisp" transform="translate(332.71,0)" d="M0,25v395" style="stroke: rgb(238, 238, 238); stroke-opacity: 1; stroke-width: 1px;"/><path class="xgrid crisp" transform="translate(348.75,0)" d="M0,25v395" style="stroke: rgb(238, 238, 238); stroke-opacity: 1; stroke-width: 1px;"/><path class="xgrid crisp" transform="translate(364.79,0)" d="M0,25v395" style="stroke: rgb(238, 238, 238); stroke-opacity: 1; stroke-width: 1px;"/><path class="xgrid crisp" transform="translate(380.84,0)" d="M0,25v395" style="stroke: rgb(238, 238, 238); stroke-opacity: 1; stroke-width: 1px;"/><path class="xgrid crisp" transform="translate(396.88,0)" d="M0,25v395" style="stroke: rgb(238, 238, 238); stroke-opacity: 1; stroke-width: 1px;"/><path class="xgrid crisp" transform="translate(412.92,0)" d="M0,25v395" style="stroke: rgb(238, 238, 238); stroke-opacity: 1; stroke-width: 1px;"/><path class="xgrid crisp" transform="translate(428.96,0)" d="M0,25v395" style="stroke: rgb(238, 238, 238); stroke-opacity: 1; stroke-width: 1px;"/><path class="xgrid crisp" transform="translate(445,0)" d="M0,25v395" style="stroke: rgb(238, 238, 238); stroke-opacity: 1; stroke-width: 1px;"/><path class="xgrid crisp" transform="translate(461.04,0)" d="M0,25v395" style="stroke: rgb(238, 238, 238); stroke-opacity: 1; stroke-width: 1px;"/><path class="xgrid crisp" transform="translate(477.09,0)" d="M0,25v395" style="stroke: rgb(238, 238, 238); stroke-opacity: 1; stroke-width: 1px;"/><path class="xgrid crisp" transform="translate(493.13,0)" d="M0,25v395" style="stroke: rgb(238, 238, 238); stroke-opacity: 1; stroke-width: 1px;"/><path class="xgrid crisp" transform="translate(509.17,0)" d="M0,25v395" style="stroke: rgb(238, 238, 238); stroke-opacity: 1; stroke-width: 1px;"/><path class="xgrid crisp" transform="translate(525.21,0)" d="M0,25v395" style="stroke: rgb(238, 238, 238); stroke-opacity: 1; stroke-width: 1px;"/><path class="xgrid crisp" transform="translate(541.25,0)" d="M0,25v395" style="stroke: rgb(238, 238, 238); stroke-opacity: 1; stroke-width: 1px;"/><path class="xgrid crisp" transform="translate(557.3,0)" d="M0,25v395" style="stroke: rgb(238, 238, 238); stroke-opacity: 1; stroke-width: 1px;"/></g><g class="y"><path class="ygrid crisp" transform="translate(0,371.58)" d="M60,0h512" style="stroke: rgb(238, 238, 238); stroke-opacity: 1; stroke-width: 1px;"/><path class="ygrid crisp" transform="translate(0,323.16)" d="M60,0h512" style="stroke: rgb(238, 238, 238); stroke-opacity: 1; stroke-width: 1px;"/><path class="ygrid crisp" transform="translate(0,274.73)" d="M60,0h512" style="stroke: rgb(238, 238, 238); stroke-opacity: 1; stroke-width: 1px;"/><path class="ygrid crisp" transform="translate(0,226.31)" d="M60,0h512" style="stroke: rgb(238, 238, 238); stroke-opacity: 1; stroke-width: 1px;"/><path class="ygrid crisp" transform="translate(0,177.89)" d="M60,0h512" style="stroke: rgb(238, 238, 238); stroke-opacity: 1; stroke-width: 1px;"/><path class="ygrid crisp" transform="translate(0,129.47)" d="M60,0h512" style="stroke: rgb(238, 238, 238); stroke-opacity: 1; stroke-width: 1px;"/><path class="ygrid crisp" transform="translate(0,81.03999999999999)" d="M60,0h512" style="stroke: rgb(238, 238, 238); stroke-opacity: 1; stroke-width: 1px;"/><path class="ygrid crisp" transform="translate(0,32.62)" d="M60,0h512" style="stroke: rgb(238, 238, 238); stroke-opacity: 1; stroke-width: 1px;"/></g></g><g class="zerolinelayer"><path class="yzl zl crisp" transform="translate(0,420)" d="M60,0h512" style="stroke: rgb(68, 68, 68); stroke-opacity: 1; stroke-width: 1px;"/></g><path class="xlines-below"/><path class="ylines-below"/><g class="overlines-below"/><g class="xaxislayer-below"/><g class="yaxislayer-below"/><g class="overaxes-below"/><g class="plot" transform="translate(60,25)" clip-path="url(#clipa04706xyplot)"><g class="scatterlayer mlayer"><g class="trace scatter traceb9a713" style="stroke-miterlimit: 2;"><g class="fills"><g><path class="js-fill" d="M512,395L0,395L0,395L195.17,394.27L196.51,394.23L244.64,392.53L245.97,392.36L276.72,391.61L278.06,391.51L291.43,391.32L292.76,391.27L378.32,390.74L379.66,390.74L512,390.62" style="fill: rgb(139, 0, 0); fill-opacity: 1; stroke-width: 0;"/></g><g><path class="js-fill" d="M0,395L82.88,394.71L84.22,394.23L110.96,392.94L112.29,392.75L128.33,392.05L129.67,391.83L133.68,391.54L135.02,391.54L144.38,390.81L145.71,389.87L152.4,388.56L153.73,387.35L157.74,386.41L159.08,384.03L161.75,382.22L163.09,379.82L165.77,376.48L167.1,375.15L175.12,362.75L176.46,361.15L179.13,357.86L180.47,357.86L185.82,350.65L187.15,349.8L189.83,347.16L191.16,345.37L192.5,344.28L193.84,341.42L195.17,340.38L196.51,337.67L197.85,336.7L199.19,333.94L204.53,323.09L205.87,321.54L207.21,320.31L208.54,317.65L209.88,316.7L211.22,313.94L213.89,310.5L215.23,306.14L220.57,298.35L221.91,295.06L228.6,285.23L229.93,282.22L232.61,275.59L233.94,274.69L236.62,268.28L237.95,264.94L239.29,263.61L240.63,260.99L241.96,250.99L243.3,247.55L244.64,247.05L245.97,235.84L247.31,235.84L248.65,234.92L252.66,231.02L253.99,229.93L255.33,228.62L256.67,225.18L263.35,221.07L264.69,214.14L266.03,194.17L267.36,186.01L270.04,173.06L271.37,158.55L275.38,146.59L276.72,144.1L280.73,135.09L282.07,133.69L288.75,118.63L290.09,117.39L291.43,115.26L292.76,111.1L294.1,107.85L295.44,106.6L296.77,104.37L298.11,103.76L299.45,103.18L300.78,97.2L303.46,89.28L304.79,87.9L307.47,86.38L308.8,86.02L310.14,85.63L311.48,84.13L312.81,83.43L314.15,81.83L316.83,79.72L318.16,78.2L322.17,74.1L323.51,73.67L330.19,71.2L331.53,69.89L336.88,66.41L338.21,66.04L342.22,63.84L343.56,63.52L350.25,60.81L351.58,60.38L366.29,55.51L367.62,55.34L371.63,54.3L372.97,53.96L386.34,50.81L387.68,50.3L406.39,46.5L407.73,46.38L421.1,43.69L422.43,43.57L427.78,42.63L429.12,42.36L449.17,40.38L450.51,40.31L497.3,36.26L498.63,36.04L505.32,34.45L506.65,33.62L510.66,32.34L512,30.43L512,390.62L379.66,390.74L378.32,390.74L292.76,391.27L291.43,391.32L278.06,391.51L276.72,391.61L245.97,392.36L244.64,392.53L196.51,394.23L195.17,394.27L0,395Z" style="fill: rgb(0, 255, 0); fill-opacity: 1; stroke-width: 0;"/></g></g><g class="errorbars"/><g class="lines"><path class="js-line" d="M0,395L195.17,394.27L196.51,394.23L244.64,392.53L245.97,392.36L276.72,391.61L278.06,391.51L291.43,391.32L292.76,391.27L378.32,390.74L379.66,390.74L512,390.62" style="vector-effect: non-scaling-stroke; fill: none; stroke: rgb(139, 0, 0); stroke-opacity: 1; stroke-width: 2px; opacity: 1;"/></g><g class="points"/><g class="text"/></g><g class="trace scatter traceb808a1" style="stroke-miterlimit: 2;"><g class="fills"><g><path class="js-fill" d="M0,394.98L64.17,394.23L65.5,394.06L86.89,393.33L88.23,393.18L109.62,392.51L110.96,392.39L132.34,389.84L133.68,388.87L140.37,386.43L141.7,384.47L148.39,380.84L149.72,380.55L152.4,378.1L153.73,376.94L160.42,366.84L161.75,364.2L165.77,358.54L167.1,354.79L169.78,351.95L171.11,350.81L173.79,346.09L175.12,343.87L177.8,342L179.13,341.25L180.47,339.87L181.81,336.84L184.48,332.07L185.82,329.24L192.5,321.18L193.84,319.07L199.19,311.69L200.52,308.81L203.2,303.82L204.53,302.27L209.88,290.92L211.22,286.95L215.23,277.5L216.56,275.42L219.24,269.61L220.57,265.2L225.92,248.04L227.26,247.46L229.93,235.98L231.27,233.22L235.28,222.03L236.62,217.31L237.95,210.2L239.29,207.12L241.96,199.62L243.3,197L247.31,186.01L248.65,183.37L252.66,176.2L253.99,171.94L258.01,163.27L259.34,161.34L264.69,151.89L266.03,140.71L268.7,130.81L270.04,128.65L274.05,119.43L275.38,114.78L276.72,113.4L278.06,110.71L280.73,105.51L282.07,104.83L283.4,100.47L284.74,98.68L286.08,97.23L287.42,94.49L294.1,88.34L295.44,85.94L304.79,78.2L306.13,77.78L323.51,68.29L324.85,67.49L332.87,63.96L334.2,63.16L350.25,57.35L351.58,57.06L360.94,54.4L362.28,53.94L370.3,52.14L371.63,51.81L395.7,46.7L397.03,46.58L417.09,42.75L418.42,42.61L426.44,41.61L427.78,41.2L433.13,40.67L434.46,40.6L449.17,39.36L450.51,39.36L463.87,38.66L465.21,38.59L469.22,37.98L470.56,37.91L495.96,34.28L497.3,33.91L506.65,27.26L507.99,25.66L509.33,24.81L510.66,21.37L512,19.75L512,30.43L510.66,32.34L506.65,33.62L505.32,34.45L498.63,36.04L497.3,36.26L450.51,40.31L449.17,40.38L429.12,42.36L427.78,42.63L422.43,43.57L421.1,43.69L407.73,46.38L406.39,46.5L387.68,50.3L386.34,50.81L372.97,53.96L371.63,54.3L367.62,55.34L366.29,55.51L351.58,60.38L350.25,60.81L343.56,63.52L342.22,63.84L338.21,66.04L336.88,66.41L331.53,69.89L330.19,71.2L323.51,73.67L322.17,74.1L318.16,78.2L316.83,79.72L314.15,81.83L312.81,83.43L311.48,84.13L310.14,85.63L308.8,86.02L307.47,86.38L304.79,87.9L303.46,89.28L300.78,97.2L299.45,103.18L298.11,103.76L296.77,104.37L295.44,106.6L294.1,107.85L292.76,111.1L291.43,115.26L290.09,117.39L288.75,118.63L282.07,133.69L280.73,135.09L276.72,144.1L275.38,146.59L271.37,158.55L270.04,173.06L267.36,186.01L266.03,194.17L264.69,214.14L263.35,221.07L256.67,225.18L255.33,228.62L253.99,229.93L252.66,231.02L248.65,234.92L247.31,235.84L245.97,235.84L244.64,247.05L243.3,247.55L241.96,250.99L240.63,260.99L239.29,263.61L237.95,264.94L236.62,268.28L233.94,274.69L232.61,275.59L229.93,282.22L228.6,285.23L221.91,295.06L220.57,298.35L215.23,306.14L213.89,310.5L211.22,313.94L209.88,316.7L208.54,317.65L207.21,320.31L205.87,321.54L204.53,323.09L199.19,333.94L197.85,336.7L196.51,337.67L195.17,340.38L193.84,341.42L192.5,344.28L191.16,345.37L189.83,347.16L187.15,349.8L185.82,350.65L180.47,357.86L179.13,357.86L176.46,361.15L175.12,362.75L167.1,375.15L165.77,376.48L163.09,379.82L161.75,382.22L159.08,384.03L157.74,386.41L153.73,387.35L152.4,388.56L145.71,389.87L144.38,390.81L135.02,391.54L133.68,391.54L129.67,391.83L128.33,392.05L112.29,392.75L110.96,392.94L84.22,394.23L82.88,394.71L0,395Z" style="fill: rgb(255, 165, 0); fill-opacity: 1; stroke-width: 0;"/></g></g><g class="errorbars"/><g class="lines"><path class="js-line" d="M0,395L82.88,394.71L84.22,394.23L110.96,392.94L112.29,392.75L128.33,392.05L129.67,391.83L133.68,391.54L135.02,391.54L144.38,390.81L145.71,389.87L152.4,388.56L153.73,387.35L157.74,386.41L159.08,384.03L161.75,382.22L163.09,379.82L165.77,376.48L167.1,375.15L175.12,362.75L176.46,361.15L179.13,357.86L180.47,357.86L185.82,350.65L187.15,349.8L189.83,347.16L191.16,345.37L192.5,344.28L193.84,341.42L195.17,340.38L196.51,337.67L197.85,336.7L199.19,333.94L204.53,323.09L205.87,321.54L207.21,320.31L208.54,317.65L209.88,316.7L211.22,313.94L213.89,310.5L215.23,306.14L220.57,298.35L221.91,295.06L228.6,285.23L229.93,282.22L232.61,275.59L233.94,274.69L236.62,268.28L237.95,264.94L239.29,263.61L240.63,260.99L241.96,250.99L243.3,247.55L244.64,247.05L245.97,235.84L247.31,235.84L248.65,234.92L252.66,231.02L253.99,229.93L255.33,228.62L256.67,225.18L263.35,221.07L264.69,214.14L266.03,194.17L267.36,186.01L270.04,173.06L271.37,158.55L275.38,146.59L276.72,144.1L280.73,135.09L282.07,133.69L288.75,118.63L290.09,117.39L291.43,115.26L292.76,111.1L294.1,107.85L295.44,106.6L296.77,104.37L298.11,103.76L299.45,103.18L300.78,97.2L303.46,89.28L304.79,87.9L307.47,86.38L308.8,86.02L310.14,85.63L311.48,84.13L312.81,83.43L314.15,81.83L316.83,79.72L318.16,78.2L322.17,74.1L323.51,73.67L330.19,71.2L331.53,69.89L336.88,66.41L338.21,66.04L342.22,63.84L343.56,63.52L350.25,60.81L351.58,60.38L366.29,55.51L367.62,55.34L371.63,54.3L372.97,53.96L386.34,50.81L387.68,50.3L406.39,46.5L407.73,46.38L421.1,43.69L422.43,43.57L427.78,42.63L429.12,42.36L449.17,40.38L450.51,40.31L497.3,36.26L498.63,36.04L505.32,34.45L506.65,33.62L510.66,32.34L512,30.43" style="vector-effect: non-scaling-stroke; fill: none; stroke: rgb(0, 255, 0); stroke-opacity: 1; stroke-width: 2px; opacity: 1;"/></g><g class="points"/><g class="text"/></g><g class="trace scatter trace9dbddb" style="stroke-miterlimit: 2;"><g class="fills"/><g class="errorbars"/><g class="lines"><path class="js-line" d="M0,394.98L64.17,394.23L65.5,394.06L86.89,393.33L88.23,393.18L109.62,392.51L110.96,392.39L132.34,389.84L133.68,388.87L140.37,386.43L141.7,384.47L148.39,380.84L149.72,380.55L152.4,378.1L153.73,376.94L160.42,366.84L161.75,364.2L165.77,358.54L167.1,354.79L169.78,351.95L171.11,350.81L173.79,346.09L175.12,343.87L177.8,342L179.13,341.25L180.47,339.87L181.81,336.84L184.48,332.07L185.82,329.24L192.5,321.18L193.84,319.07L199.19,311.69L200.52,308.81L203.2,303.82L204.53,302.27L209.88,290.92L211.22,286.95L215.23,277.5L216.56,275.42L219.24,269.61L220.57,265.2L225.92,248.04L227.26,247.46L229.93,235.98L231.27,233.22L235.28,222.03L236.62,217.31L237.95,210.2L239.29,207.12L241.96,199.62L243.3,197L247.31,186.01L248.65,183.37L252.66,176.2L253.99,171.94L258.01,163.27L259.34,161.34L264.69,151.89L266.03,140.71L268.7,130.81L270.04,128.65L274.05,119.43L275.38,114.78L276.72,113.4L278.06,110.71L280.73,105.51L282.07,104.83L283.4,100.47L284.74,98.68L286.08,97.23L287.42,94.49L294.1,88.34L295.44,85.94L304.79,78.2L306.13,77.78L323.51,68.29L324.85,67.49L332.87,63.96L334.2,63.16L350.25,57.35L351.58,57.06L360.94,54.4L362.28,53.94L370.3,52.14L371.63,51.81L395.7,46.7L397.03,46.58L417.09,42.75L418.42,42.61L426.44,41.61L427.78,41.2L433.13,40.67L434.46,40.6L449.17,39.36L450.51,39.36L463.87,38.66L465.21,38.59L469.22,37.98L470.56,37.91L495.96,34.28L497.3,33.91L506.65,27.26L507.99,25.66L509.33,24.81L510.66,21.37L512,19.75" style="vector-effect: non-scaling-stroke; fill: none; stroke: rgb(255, 165, 0); stroke-opacity: 1; stroke-width: 2px; opacity: 1;"/></g><g class="points"/><g class="text"/></g></g></g><g class="overplot"/><path class="xlines-above crisp" d="M0,0" style="fill: none;"/><path class="ylines-above crisp" d="M0,0" style="fill: none;"/><g class="overlines-above"/><g class="xaxislayer-above"><g class="xtick"><text text-anchor="end" x="0" y="434" transform="translate(60,0) rotate(-45,0,427.5)" style="font-family: serif; font-size: 13px; fill: rgb(68, 68, 68); fill-opacity: 1; white-space: pre; opacity: 1;">Mar-22-20</text></g><g class="xtick"><text text-anchor="end" x="0" y="434" transform="translate(76.03999999999999,0) rotate(-45,0,427.5)" style="font-family: serif; font-size: 13px; fill: rgb(68, 68, 68); fill-opacity: 1; white-space: pre; opacity: 1;">Apr-03-20</text></g><g class="xtick"><text text-anchor="end" x="0" y="434" transform="translate(92.08,0) rotate(-45,0,427.5)" style="font-family: serif; font-size: 13px; fill: rgb(68, 68, 68); fill-opacity: 1; white-space: pre; opacity: 1;">Apr-15-20</text></g><g class="xtick"><text text-anchor="end" x="0" y="434" transform="translate(108.13,0) rotate(-45,0,427.5)" style="font-family: serif; font-size: 13px; fill: rgb(68, 68, 68); fill-opacity: 1; white-space: pre; opacity: 1;">Apr-27-20</text></g><g class="xtick"><text text-anchor="end" x="0" y="434" transform="translate(124.17,0) rotate(-45,0,427.5)" style="font-family: serif; font-size: 13px; fill: rgb(68, 68, 68); fill-opacity: 1; white-space: pre; opacity: 1;">May-09-20</text></g><g class="xtick"><text text-anchor="end" x="0" y="434" transform="translate(140.20999999999998,0) rotate(-45,0,427.5)" style="font-family: serif; font-size: 13px; fill: rgb(68, 68, 68); fill-opacity: 1; white-space: pre; opacity: 1;">May-21-20</text></g><g class="xtick"><text text-anchor="end" x="0" y="434" transform="translate(156.25,0) rotate(-45,0,427.5)" style="font-family: serif; font-size: 13px; fill: rgb(68, 68, 68); fill-opacity: 1; white-space: pre; opacity: 1;">Jun-02-20</text></g><g class="xtick"><text text-anchor="end" x="0" y="434" transform="translate(172.29000000000002,0) rotate(-45,0,427.5)" style="font-family: serif; font-size: 13px; fill: rgb(68, 68, 68); fill-opacity: 1; white-space: pre; opacity: 1;">Jun-14-20</text></g><g class="xtick"><text text-anchor="end" x="0" y="434" transform="translate(188.33,0) rotate(-45,0,427.5)" style="font-family: serif; font-size: 13px; fill: rgb(68, 68, 68); fill-opacity: 1; white-space: pre; opacity: 1;">Jun-26-20</text></g><g class="xtick"><text text-anchor="end" x="0" y="434" transform="translate(204.38,0) rotate(-45,0,427.5)" style="font-family: serif; font-size: 13px; fill: rgb(68, 68, 68); fill-opacity: 1; white-space: pre; opacity: 1;">Jul-08-20</text></g><g class="xtick"><text text-anchor="end" x="0" y="434" transform="translate(220.42,0) rotate(-45,0,427.5)" style="font-family: serif; font-size: 13px; fill: rgb(68, 68, 68); fill-opacity: 1; white-space: pre; opacity: 1;">Jul-20-20</text></g><g class="xtick"><text text-anchor="end" x="0" y="434" transform="translate(236.46,0) rotate(-45,0,427.5)" style="font-family: serif; font-size: 13px; fill: rgb(68, 68, 68); fill-opacity: 1; white-space: pre; opacity: 1;">Aug-01-20</text></g><g class="xtick"><text text-anchor="end" x="0" y="434" transform="translate(252.5,0) rotate(-45,0,427.5)" style="font-family: serif; font-size: 13px; fill: rgb(68, 68, 68); fill-opacity: 1; white-space: pre; opacity: 1;">Aug-13-20</text></g><g class="xtick"><text text-anchor="end" x="0" y="434" transform="translate(268.53999999999996,0) rotate(-45,0,427.5)" style="font-family: serif; font-size: 13px; fill: rgb(68, 68, 68); fill-opacity: 1; white-space: pre; opacity: 1;">Aug-25-20</text></g><g class="xtick"><text text-anchor="end" x="0" y="434" transform="translate(284.58000000000004,0) rotate(-45,0,427.5)" style="font-family: serif; font-size: 13px; fill: rgb(68, 68, 68); fill-opacity: 1; white-space: pre; opacity: 1;">Sep-06-20</text></g><g class="xtick"><text text-anchor="end" x="0" y="434" transform="translate(300.63,0) rotate(-45,0,427.5)" style="font-family: serif; font-size: 13px; fill: rgb(68, 68, 68); fill-opacity: 1; white-space: pre; opacity: 1;">Sep-18-20</text></g><g class="xtick"><text text-anchor="end" x="0" y="434" transform="translate(316.67,0) rotate(-45,0,427.5)" style="font-family: serif; font-size: 13px; fill: rgb(68, 68, 68); fill-opacity: 1; white-space: pre; opacity: 1;">Sep-30-20</text></g><g class="xtick"><text text-anchor="end" x="0" y="434" transform="translate(332.71,0) rotate(-45,0,427.5)" style="font-family: serif; font-size: 13px; fill: rgb(68, 68, 68); fill-opacity: 1; white-space: pre; opacity: 1;">Oct-12-20</text></g><g class="xtick"><text text-anchor="end" x="0" y="434" transform="translate(348.75,0) rotate(-45,0,427.5)" style="font-family: serif; font-size: 13px; fill: rgb(68, 68, 68); fill-opacity: 1; white-space: pre; opacity: 1;">Oct-24-20</text></g><g class="xtick"><text text-anchor="end" x="0" y="434" transform="translate(364.79,0) rotate(-45,0,427.5)" style="font-family: serif; font-size: 13px; fill: rgb(68, 68, 68); fill-opacity: 1; white-space: pre; opacity: 1;">Nov-05-20</text></g><g class="xtick"><text text-anchor="end" x="0" y="434" transform="translate(380.84,0) rotate(-45,0,427.5)" style="font-family: serif; font-size: 13px; fill: rgb(68, 68, 68); fill-opacity: 1; white-space: pre; opacity: 1;">Nov-17-20</text></g><g class="xtick"><text text-anchor="end" x="0" y="434" transform="translate(396.88,0) rotate(-45,0,427.5)" style="font-family: serif; font-size: 13px; fill: rgb(68, 68, 68); fill-opacity: 1; white-space: pre; opacity: 1;">Nov-29-20</text></g><g class="xtick"><text text-anchor="end" x="0" y="434" transform="translate(412.92,0) rotate(-45,0,427.5)" style="font-family: serif; font-size: 13px; fill: rgb(68, 68, 68); fill-opacity: 1; white-space: pre; opacity: 1;">Dec-11-20</text></g><g class="xtick"><text text-anchor="end" x="0" y="434" transform="translate(428.96,0) rotate(-45,0,427.5)" style="font-family: serif; font-size: 13px; fill: rgb(68, 68, 68); fill-opacity: 1; white-space: pre; opacity: 1;">Dec-23-20</text></g><g class="xtick"><text text-anchor="end" x="0" y="434" transform="translate(445,0) rotate(-45,0,427.5)" style="font-family: serif; font-size: 13px; fill: rgb(68, 68, 68); fill-opacity: 1; white-space: pre; opacity: 1;">Jan-04-21</text></g><g class="xtick"><text text-anchor="end" x="0" y="434" transform="translate(461.04,0) rotate(-45,0,427.5)" style="font-family: serif; font-size: 13px; fill: rgb(68, 68, 68); fill-opacity: 1; white-space: pre; opacity: 1;">Jan-16-21</text></g><g class="xtick"><text text-anchor="end" x="0" y="434" transform="translate(477.09,0) rotate(-45,0,427.5)" style="font-family: serif; font-size: 13px; fill: rgb(68, 68, 68); fill-opacity: 1; white-space: pre; opacity: 1;">Jan-28-21</text></g><g class="xtick"><text text-anchor="end" x="0" y="434" transform="translate(493.13,0) rotate(-45,0,427.5)" style="font-family: serif; font-size: 13px; fill: rgb(68, 68, 68); fill-opacity: 1; white-space: pre; opacity: 1;">Feb-09-21</text></g><g class="xtick"><text text-anchor="end" x="0" y="434" transform="translate(509.17,0) rotate(-45,0,427.5)" style="font-family: serif; font-size: 13px; fill: rgb(68, 68, 68); fill-opacity: 1; white-space: pre; opacity: 1;">Feb-21-21</text></g><g class="xtick"><text text-anchor="end" x="0" y="434" transform="translate(525.21,0) rotate(-45,0,427.5)" style="font-family: serif; font-size: 13px; fill: rgb(68, 68, 68); fill-opacity: 1; white-space: pre; opacity: 1;">Mar-05-21</text></g><g class="xtick"><text text-anchor="end" x="0" y="434" transform="translate(541.25,0) rotate(-45,0,427.5)" style="font-family: serif; font-size: 13px; fill: rgb(68, 68, 68); fill-opacity: 1; white-space: pre; opacity: 1;">Mar-17-21</text></g><g class="xtick"><text text-anchor="end" x="0" y="434" transform="translate(557.3,0) rotate(-45,0,427.5)" style="font-family: serif; font-size: 13px; fill: rgb(68, 68, 68); fill-opacity: 1; white-space: pre; opacity: 1;">Mar-29-21</text></g></g><g class="yaxislayer-above"><g class="ytick"><text text-anchor="end" x="59" y="4.199999999999999" transform="translate(0,420)" style="font-family: 'Open Sans', verdana, arial, sans-serif; font-size: 12px; fill: rgb(68, 68, 68); fill-opacity: 1; white-space: pre; opacity: 1;">0</text></g><g class="ytick"><text text-anchor="end" x="59" y="4.199999999999999" style="font-family: 'Open Sans', verdana, arial, sans-serif; font-size: 12px; fill: rgb(68, 68, 68); fill-opacity: 1; white-space: pre; opacity: 1;" transform="translate(0,371.58)">2k</text></g><g class="ytick"><text text-anchor="end" x="59" y="4.199999999999999" style="font-family: 'Open Sans', verdana, arial, sans-serif; font-size: 12px; fill: rgb(68, 68, 68); fill-opacity: 1; white-space: pre; opacity: 1;" transform="translate(0,323.16)">4k</text></g><g class="ytick"><text text-anchor="end" x="59" y="4.199999999999999" style="font-family: 'Open Sans', verdana, arial, sans-serif; font-size: 12px; fill: rgb(68, 68, 68); fill-opacity: 1; white-space: pre; opacity: 1;" transform="translate(0,274.73)">6k</text></g><g class="ytick"><text text-anchor="end" x="59" y="4.199999999999999" style="font-family: 'Open Sans', verdana, arial, sans-serif; font-size: 12px; fill: rgb(68, 68, 68); fill-opacity: 1; white-space: pre; opacity: 1;" transform="translate(0,226.31)">8k</text></g><g class="ytick"><text text-anchor="end" x="59" y="4.199999999999999" style="font-family: 'Open Sans', verdana, arial, sans-serif; font-size: 12px; fill: rgb(68, 68, 68); fill-opacity: 1; white-space: pre; opacity: 1;" transform="translate(0,177.89)">10k</text></g><g class="ytick"><text text-anchor="end" x="59" y="4.199999999999999" style="font-family: 'Open Sans', verdana, arial, sans-serif; font-size: 12px; fill: rgb(68, 68, 68); fill-opacity: 1; white-space: pre; opacity: 1;" transform="translate(0,129.47)">12k</text></g><g class="ytick"><text text-anchor="end" x="59" y="4.199999999999999" style="font-family: 'Open Sans', verdana, arial, sans-serif; font-size: 12px; fill: rgb(68, 68, 68); fill-opacity: 1; white-space: pre; opacity: 1;" transform="translate(0,81.03999999999999)">14k</text></g><g class="ytick"><text text-anchor="end" x="59" y="4.199999999999999" style="font-family: 'Open Sans', verdana, arial, sans-serif; font-size: 12px; fill: rgb(68, 68, 68); fill-opacity: 1; white-space: pre; opacity: 1;" transform="translate(0,32.62)">16k</text></g></g><g class="overaxes-above"/></g></g><g class="polarlayer"/><g class="smithlayer"/><g class="ternarylayer"/><g class="geolayer"/><g class="funnelarealayer"/><g class="pielayer"/><g class="iciclelayer"/><g class="treemaplayer"/><g class="sunburstlayer"/><g class="glimages"/><defs id="topdefs-a04706"><g class="clips"/><clipPath id="legenda04706"><rect width="108" height="67" x="0" y="0"/></clipPath></defs><g class="layer-above"><g class="imagelayer"/><g class="shapelayer"/></g><g class="infolayer"><g class="legend" pointer-events="all" transform="translate(582.24,25)"><rect class="bg" shape-rendering="crispEdges" style="stroke: rgb(68, 68, 68); stroke-opacity: 1; fill: rgb(255, 255, 255); fill-opacity: 1; stroke-width: 0px;" width="108" height="67" x="0" y="0"/><g class="scrollbox" transform="" clip-path="url(#legenda04706)"><g class="groups"><g class="traces" transform="translate(0,14.5)" style="opacity: 1;"><text class="legendtext" text-anchor="start" x="40" y="4.680000000000001" style="font-family: 'Open Sans', verdana, arial, sans-serif; font-size: 12px; fill: rgb(68, 68, 68); fill-opacity: 1; white-space: pre;">Active</text><g class="layers"><g class="legendfill"><path class="js-fill" d="M5,-2h30v6h-30z" style="stroke-width: 0; fill: rgb(255, 165, 0); fill-opacity: 1;"/></g><g class="legendlines"><path class="js-line" d="M5,-2h30" style="fill: none; stroke: rgb(255, 165, 0); stroke-opacity: 1; stroke-width: 2px;"/></g><g class="legendsymbols"><g class="legendpoints"/></g></g><rect class="legendtoggle" x="0" y="-9.5" width="102.546875" height="19" style="fill: rgb(0, 0, 0); fill-opacity: 0;"/></g><g class="traces" transform="translate(0,33.5)" style="opacity: 1;"><text class="legendtext" text-anchor="start" x="40" y="4.680000000000001" style="font-family: 'Open Sans', verdana, arial, sans-serif; font-size: 12px; fill: rgb(68, 68, 68); fill-opacity: 1; white-space: pre;">Recovered</text><g class="layers"><g class="legendfill"><path class="js-fill" d="M5,-2h30v6h-30z" style="stroke-width: 0; fill: rgb(0, 255, 0); fill-opacity: 1;"/></g><g class="legendlines"><path class="js-line" d="M5,-2h30" style="fill: none; stroke: rgb(0, 255, 0); stroke-opacity: 1; stroke-width: 2px;"/></g><g class="legendsymbols"><g class="legendpoints"/></g></g><rect class="legendtoggle" x="0" y="-9.5" width="102.546875" height="19" style="fill: rgb(0, 0, 0); fill-opacity: 0;"/></g><g class="traces" transform="translate(0,52.5)" style="opacity: 1;"><text class="legendtext" text-anchor="start" x="40" y="4.680000000000001" style="font-family: 'Open Sans', verdana, arial, sans-serif; font-size: 12px; fill: rgb(68, 68, 68); fill-opacity: 1; white-space: pre;">Deceased</text><g class="layers"><g class="legendfill"><path class="js-fill" d="M5,-2h30v6h-30z" style="stroke-width: 0; fill: rgb(139, 0, 0); fill-opacity: 1;"/></g><g class="legendlines"><path class="js-line" d="M5,-2h30" style="fill: none; stroke: rgb(139, 0, 0); stroke-opacity: 1; stroke-width: 2px;"/></g><g class="legendsymbols"><g class="legendpoints"/></g></g><rect class="legendtoggle" x="0" y="-9.5" width="102.546875" height="19" style="fill: rgb(0, 0, 0); fill-opacity: 0;"/></g></g></g><rect class="scrollbar" rx="20" ry="3" width="0" height="0" style="fill: rgb(128, 139, 164); fill-opacity: 1;" x="0" y="0"/></g><g class="g-gtitle"><text class="gtitle" x="350" y="12.5" text-anchor="middle" dy="0em" style="font-family: serif; font-size: 18px; fill: rgb(68, 68, 68); opacity: 1; font-weight: normal; white-space: pre;">Uttara Kannada</text></g><g class="g-xtitle" transform="translate(0,19.2626953125)"><text class="xtitle" x="316" y="472" text-anchor="middle" style="font-family: 'Open Sans', verdana, arial, sans-serif; font-size: 14px; fill: rgb(68, 68, 68); opacity: 1; font-weight: normal; white-space: pre;">Date</text></g><g class="g-ytitle" transform="translate(2,0)"><text class="ytitle" transform="rotate(-90,14,222.5)" x="14" y="222.5" text-anchor="middle" style="font-family: serif; font-size: 18px; fill: rgb(0, 0, 0); opacity: 1; font-weight: normal; white-space: pre;">Number of Cases</text></g></g></svg>