<svg class="main-svg" xmlns="http://www.w3.org/2000/svg" xmlns:xlink="http://www.w3.org/1999/xlink" width="700" height="500" style="" viewBox="0 0 700 500"><rect x="0" y="0" width="700" height="500" style="fill: rgb(255, 255, 255); fill-opacity: 1;"/><defs id="defs-9cc30d"><g class="clips"><clipPath id="clip9cc30dxyplot" class="plotclip"><rect width="512" height="395"/></clipPath><clipPath class="axesclip" id="clip9cc30dx"><rect x="60" y="0" width="512" height="500"/></clipPath><clipPath class="axesclip" id="clip9cc30dy"><rect x="0" y="25" width="700" height="395"/></clipPath><clipPath class="axesclip" id="clip9cc30dxy"><rect x="60" y="25" width="512" height="395"/></clipPath></g><g class="gradients"/><g class="patterns"/></defs><g class="bglayer"/><g class="layer-below"><g class="imagelayer"/><g class="shapelayer"/></g><g class="cartesianlayer"><g class="subplot xy"><g class="layer-subplot"><g class="shapelayer"/><g class="imagelayer"/></g><g class="gridlayer"><g class="x"><path class="xgrid crisp" transform="translate(76.03999999999999,0)" d="M0,25v395" style="stroke: rgb(238, 238, 238); stroke-opacity: 1; stroke-width: 1px;"/><path class="xgrid crisp" transform="translate(92.08,0)" d="M0,25v395" style="stroke: rgb(238, 238, 238); stroke-opacity: 1; stroke-width: 1px;"/><path class="xgrid crisp" transform="translate(108.13,0)" d="M0,25v395" style="stroke: rgb(238, 238, 238); stroke-opacity: 1; stroke-width: 1px;"/><path class="xgrid crisp" transform="translate(124.17,0)" d="M0,25v395" style="stroke: rgb(238, 238, 238); stroke-opacity: 1; stroke-width: 1px;"/><path class="xgrid crisp" transform="translate(140.20999999999998,0)" d="M0,25v395" style="stroke: rgb(238, 238, 238); stroke-opacity: 1; stroke-width: 1px;"/><path class="xgrid crisp" transform="translate(156.25,0)" d="M0,25v395" style="stroke: rgb(238, 238, 238); stroke-opacity: 1; stroke-width: 1px;"/><path class="xgrid crisp" transform="translate(172.29000000000002,0)" d="M0,25v395" style="stroke: rgb(238, 238, 238); stroke-opacity: 1; stroke-width: 1px;"/><path class="xgrid crisp" transform="translate(188.33,0)" d="M0,25v395" style="stroke: rgb(238, 238, 238); stroke-opacity: 1; stroke-width: 1px;"/><path class="xgrid crisp" transform="translate(204.38,0)" d="M0,25v395" style="stroke: rgb(238, 238, 238); stroke-opacity: 1; stroke-width: 1px;"/><path class="xgrid crisp" transform="translate(220.42,0)" d="M0,25v395" style="stroke: rgb(238, 238, 238); stroke-opacity: 1; stroke-width: 1px;"/><path class="xgrid crisp" transform="translate(236.46,0)" d="M0,25v395" style="stroke: rgb(238, 238, 238); stroke-opacity: 1; stroke-width: 1px;"/><path class="xgrid crisp" transform="translate(252.5,0)" d="M0,25v395" style="stroke: rgb(238, 238, 238); stroke-opacity: 1; stroke-width: 1px;"/><path class="xgrid crisp" transform="translate(268.53999999999996,0)" d="M0,25v395" style="stroke: rgb(238, 238, 238); stroke-opacity: 1; stroke-width: 1px;"/><path class="xgrid crisp" transform="translate(284.58000000000004,0)" d="M0,25v395" style="stroke: rgb(238, 238, 238); stroke-opacity: 1; stroke-width: 1px;"/><path class="xgrid crisp" transform="translate(300.63,0)" d="M0,25v395" style="stroke: rgb(238, 238, 238); stroke-opacity: 1; stroke-width: 1px;"/><path class="xgrid crisp" transform="translate(316.67,0)" d="M0,25v395" style="stroke: rgb(238, 238, 238); stroke-opacity: 1; stroke-width: 1px;"/><path class="xgrid crisp" transform="translate(332.71,0)" d="M0,25v395" style="stroke: rgb(238, 238, 238); stroke-opacity: 1; stroke-width: 1px;"/><path class="xgrid crisp" transform="translate(348.75,0)" d="M0,25v395" style="stroke: rgb(238, 238, 238); stroke-opacity: 1; stroke-width: 1px;"/><path class="xgrid crisp" transform="translate(364.79,0)" d="M0,25v395" style="stroke: rgb(238, 238, 238); stroke-opacity: 1; stroke-width: 1px;"/><path class="xgrid crisp" transform="translate(380.84,0)" d="M0,25v395" style="stroke: rgb(238, 238, 238); stroke-opacity: 1; stroke-width: 1px;"/><path class="xgrid crisp" transform="translate(396.88,0)" d="M0,25v395" style="stroke: rgb(238, 238, 238); stroke-opacity: 1; stroke-width: 1px;"/><path class="xgrid crisp" transform="translate(412.92,0)" d="M0,25v395" style="stroke: rgb(238, 238, 238); stroke-opacity: 1; stroke-width: 1px;"/><path class="xgrid crisp" transform="translate(428.96,0)" d="M0,25v395" style="stroke: rgb(238, 238, 238); stroke-opacity: 1; stroke-width: 1px;"/><path class="xgrid crisp" transform="translate(445,0)" d="M0,25v395" style="stroke: rgb(238, 238, 238); stroke-opacity: 1; stroke-width: 1px;"/><path class="xgrid crisp" transform="translate(461.04,0)" d="M0,25v395" style="stroke: rgb(238, 238, 238); stroke-opacity: 1; stroke-width: 1px;"/><path class="xgrid crisp" transform="translate(477.09,0)" d="M0,25v395" style="stroke: rgb(238, 238, 238); stroke-opacity: 1; stroke-width: 1px;"/><path class="xgrid crisp" transform="translate(493.13,0)" d="M0,25v395" style="stroke: rgb(238, 238, 238); stroke-opacity: 1; stroke-width: 1px;"/><path class="xgrid crisp" transform="translate(509.17,0)" d="M0,25v395" style="stroke: rgb(238, 238, 238); stroke-opacity: 1; stroke-width: 1px;"/><path class="xgrid crisp" transform="translate(525.21,0)" d="M0,25v395" style="stroke: rgb(238, 238, 238); stroke-opacity: 1; stroke-width: 1px;"/><path class="xgrid crisp" transform="translate(541.25,0)" d="M0,25v395" style="stroke: rgb(238, 238, 238); stroke-opacity: 1; stroke-width: 1px;"/><path class="xgrid crisp" transform="translate(557.3,0)" d="M0,25v395" style="stroke: rgb(238, 238, 238); stroke-opacity: 1; stroke-width: 1px;"/></g><g class="y"><path class="ygrid crisp" transform="translate(0,371.33)" d="M60,0h512" style="stroke: rgb(238, 238, 238); stroke-opacity: 1; stroke-width: 1px;"/><path class="ygrid crisp" transform="translate(0,322.65)" d="M60,0h512" style="stroke: rgb(238, 238, 238); stroke-opacity: 1; stroke-width: 1px;"/><path class="ygrid crisp" transform="translate(0,273.98)" d="M60,0h512" style="stroke: rgb(238, 238, 238); stroke-opacity: 1; stroke-width: 1px;"/><path class="ygrid crisp" transform="translate(0,225.31)" d="M60,0h512" style="stroke: rgb(238, 238, 238); stroke-opacity: 1; stroke-width: 1px;"/><path class="ygrid crisp" transform="translate(0,176.63)" d="M60,0h512" style="stroke: rgb(238, 238, 238); stroke-opacity: 1; stroke-width: 1px;"/><path class="ygrid crisp" transform="translate(0,127.96)" d="M60,0h512" style="stroke: rgb(238, 238, 238); stroke-opacity: 1; stroke-width: 1px;"/><path class="ygrid crisp" transform="translate(0,79.28)" d="M60,0h512" style="stroke: rgb(238, 238, 238); stroke-opacity: 1; stroke-width: 1px;"/><path class="ygrid crisp" transform="translate(0,30.61)" d="M60,0h512" style="stroke: rgb(238, 238, 238); stroke-opacity: 1; stroke-width: 1px;"/></g></g><g class="zerolinelayer"><path class="yzl zl crisp" transform="translate(0,420)" d="M60,0h512" style="stroke: rgb(68, 68, 68); stroke-opacity: 1; stroke-width: 1px;"/></g><path class="xlines-below"/><path class="ylines-below"/><g class="overlines-below"/><g class="xaxislayer-below"/><g class="yaxislayer-below"/><g class="overaxes-below"/><g class="plot" transform="translate(60,25)" clip-path="url(#clip9cc30dxyplot)"><g class="scatterlayer mlayer"><g class="trace scatter trace20f2d3" style="stroke-miterlimit: 2;"><g class="fills"><g><path class="js-fill" d="M512,395L0,395L0,395L173.79,394.29L175.12,394.17L207.21,393.03L208.54,392.93L256.67,391.01L258.01,390.98L356.93,390.06L358.27,390.06L512,389.89" style="fill: rgb(139, 0, 0); fill-opacity: 1; stroke-width: 0;"/></g><g><path class="js-fill" d="M0,395L64.17,394.32L65.5,394.12L98.92,393.37L100.26,393.3L104.27,392.49L105.61,391.67L110.96,391.15L112.29,390.91L117.64,390.06L118.98,389.82L129.67,389.18L131.01,387.87L136.36,386.94L137.69,386.21L144.38,383.88L145.71,383.73L149.72,382.69L151.06,380.64L152.4,378.62L153.73,378.62L156.41,374.97L157.74,372.46L160.42,367.91L161.75,365.41L165.77,360.66L167.1,355.94L168.44,352.43L169.78,351.9L171.11,346.98L172.45,346.01L175.12,344.01L176.46,342.65L177.8,340.97L179.13,340.7L184.48,332.6L185.82,328.51L188.49,323.38L189.83,318.53L192.5,312.62L193.84,309.6L197.85,297.65L199.19,292.23L200.52,291.71L201.86,287.97L205.87,276.24L207.21,273.95L211.22,264.31L212.55,260.51L213.89,258.32L215.23,253.46L227.26,228.66L228.6,228.1L231.27,224.3L232.61,222.5L247.31,199.53L248.65,196.12L251.32,188.7L252.66,186.36L259.34,177.57L260.68,174.36L263.35,171.34L264.69,169.93L267.36,164.97L268.7,161.15L271.37,151.95L272.71,149.76L275.38,143.19L276.72,137.88L283.4,120.65L284.74,118.8L290.09,110.36L291.43,108.92L299.45,100.16L300.78,96.58L304.79,92.76L306.13,89.23L308.8,86.51L310.14,84.95L316.83,79.55L318.16,77.77L320.84,75.31L322.17,74.51L324.85,72.97L326.18,72.46L327.52,71.9L328.86,67.38L332.87,66.23L334.2,65.21L336.88,63.26L338.21,62.78L347.57,59.57L348.91,59.32L372.97,53.48L374.31,52.87L395.7,47.98L397.03,47.88L410.4,45.69L411.74,45.55L422.43,44.5L423.77,44.45L442.49,43.43L443.82,43.38L450.51,42.89L451.84,42.82L461.2,41.97L462.54,41.85L490.61,38.15L491.95,37.1L498.63,34.04L499.97,33.6L507.99,29.51L509.33,29.29L512,28.46L512,389.89L358.27,390.06L356.93,390.06L258.01,390.98L256.67,391.01L208.54,392.93L207.21,393.03L175.12,394.17L173.79,394.29L0,395Z" style="fill: rgb(0, 255, 0); fill-opacity: 1; stroke-width: 0;"/></g></g><g class="errorbars"/><g class="lines"><path class="js-line" d="M0,395L173.79,394.29L175.12,394.17L207.21,393.03L208.54,392.93L256.67,391.01L258.01,390.98L356.93,390.06L358.27,390.06L512,389.89" style="vector-effect: non-scaling-stroke; fill: none; stroke: rgb(139, 0, 0); stroke-opacity: 1; stroke-width: 2px; opacity: 1;"/></g><g class="points"/><g class="text"/></g><g class="trace scatter tracea6063f" style="stroke-miterlimit: 2;"><g class="fills"><g><path class="js-fill" d="M0,395L37.43,394.49L38.77,394.22L60.16,393.83L61.49,393.83L88.23,393.08L89.57,393.03L98.92,391.74L100.26,390.45L116.3,389.26L117.64,389.21L120.31,388.99L121.65,388.04L128.33,386.9L129.67,386.9L132.34,386.24L133.68,385.29L140.37,381.42L141.7,380.54L144.38,379.91L145.71,379.89L148.39,376.55L149.72,376.55L153.73,371.25L155.07,367.74L157.74,360.59L159.08,356.43L160.42,352.53L161.75,352.22L164.43,350.46L165.77,346.62L168.44,339.15L169.78,336.47L172.45,330.56L173.79,327.54L179.13,316.54L180.47,314.81L183.14,311.79L184.48,308.31L193.84,285.97L195.17,280.32L197.85,273.9L199.19,272.34L204.53,260.32L205.87,257.06L215.23,234.64L216.56,232.6L217.9,230.97L219.24,228L223.25,220.24L224.58,217.9L227.26,213.69L228.6,212.3L233.94,206.39L235.28,202.11L239.29,193.52L240.63,191.42L248.65,178.99L249.98,174.53L252.66,172.05L253.99,169.2L256.67,163.9L258.01,157.64L263.35,144.72L264.69,142.77L267.36,138.32L268.7,136.08L272.71,126.69L274.05,124.57L278.06,115.78L279.39,114.1L282.07,110.72L283.4,108.77L284.74,107.85L286.08,105.83L288.75,102.08L290.09,100.89L291.43,99.36L292.76,96.24L295.44,93.61L296.77,91.79L299.45,86.7L300.78,85.58L315.49,73.12L316.83,72.32L320.84,71.3L322.17,68.35L323.51,66.45L324.85,65.97L327.52,63.78L328.86,63.36L331.53,61.9L332.87,61.66L336.88,60.37L338.21,59.64L360.94,54.26L362.28,53.65L368.96,51.87L370.3,51.36L395.7,46.4L397.03,46.33L457.19,41.24L458.53,40.97L467.89,39.68L469.22,39.61L478.58,38.64L479.92,38.32L482.59,36.79L483.93,36.06L487.94,34.62L489.27,34.33L497.3,29.44L498.63,29.07L505.32,26.71L506.65,26.05L509.33,24.3L510.66,22.84L512,19.75L512,28.46L509.33,29.29L507.99,29.51L499.97,33.6L498.63,34.04L491.95,37.1L490.61,38.15L462.54,41.85L461.2,41.97L451.84,42.82L450.51,42.89L443.82,43.38L442.49,43.43L423.77,44.45L422.43,44.5L411.74,45.55L410.4,45.69L397.03,47.88L395.7,47.98L374.31,52.87L372.97,53.48L348.91,59.32L347.57,59.57L338.21,62.78L336.88,63.26L334.2,65.21L332.87,66.23L328.86,67.38L327.52,71.9L326.18,72.46L324.85,72.97L322.17,74.51L320.84,75.31L318.16,77.77L316.83,79.55L310.14,84.95L308.8,86.51L306.13,89.23L304.79,92.76L300.78,96.58L299.45,100.16L291.43,108.92L290.09,110.36L284.74,118.8L283.4,120.65L276.72,137.88L275.38,143.19L272.71,149.76L271.37,151.95L268.7,161.15L267.36,164.97L264.69,169.93L263.35,171.34L260.68,174.36L259.34,177.57L252.66,186.36L251.32,188.7L248.65,196.12L247.31,199.53L232.61,222.5L231.27,224.3L228.6,228.1L227.26,228.66L215.23,253.46L213.89,258.32L212.55,260.51L211.22,264.31L207.21,273.95L205.87,276.24L201.86,287.97L200.52,291.71L199.19,292.23L197.85,297.65L193.84,309.6L192.5,312.62L189.83,318.53L188.49,323.38L185.82,328.51L184.48,332.6L179.13,340.7L177.8,340.97L176.46,342.65L175.12,344.01L172.45,346.01L171.11,346.98L169.78,351.9L168.44,352.43L167.1,355.94L165.77,360.66L161.75,365.41L160.42,367.91L157.74,372.46L156.41,374.97L153.73,378.62L152.4,378.62L151.06,380.64L149.72,382.69L145.71,383.73L144.38,383.88L137.69,386.21L136.36,386.94L131.01,387.87L129.67,389.18L118.98,389.82L117.64,390.06L112.29,390.91L110.96,391.15L105.61,391.67L104.27,392.49L100.26,393.3L98.92,393.37L65.5,394.12L64.17,394.32L0,395Z" style="fill: rgb(255, 165, 0); fill-opacity: 1; stroke-width: 0;"/></g></g><g class="errorbars"/><g class="lines"><path class="js-line" d="M0,395L64.17,394.32L65.5,394.12L98.92,393.37L100.26,393.3L104.27,392.49L105.61,391.67L110.96,391.15L112.29,390.91L117.64,390.06L118.98,389.82L129.67,389.18L131.01,387.87L136.36,386.94L137.69,386.21L144.38,383.88L145.71,383.73L149.72,382.69L151.06,380.64L152.4,378.62L153.73,378.62L156.41,374.97L157.74,372.46L160.42,367.91L161.75,365.41L165.77,360.66L167.1,355.94L168.44,352.43L169.78,351.9L171.11,346.98L172.45,346.01L175.12,344.01L176.46,342.65L177.8,340.97L179.13,340.7L184.48,332.6L185.82,328.51L188.49,323.38L189.83,318.53L192.5,312.62L193.84,309.6L197.85,297.65L199.19,292.23L200.52,291.71L201.86,287.97L205.87,276.24L207.21,273.95L211.22,264.31L212.55,260.51L213.89,258.32L215.23,253.46L227.26,228.66L228.6,228.1L231.27,224.3L232.61,222.5L247.31,199.53L248.65,196.12L251.32,188.7L252.66,186.36L259.34,177.57L260.68,174.36L263.35,171.34L264.69,169.93L267.36,164.97L268.7,161.15L271.37,151.95L272.71,149.76L275.38,143.19L276.72,137.88L283.4,120.65L284.74,118.8L290.09,110.36L291.43,108.92L299.45,100.16L300.78,96.58L304.79,92.76L306.13,89.23L308.8,86.51L310.14,84.95L316.83,79.55L318.16,77.77L320.84,75.31L322.17,74.51L324.85,72.97L326.18,72.46L327.52,71.9L328.86,67.38L332.87,66.23L334.2,65.21L336.88,63.26L338.21,62.78L347.57,59.57L348.91,59.32L372.97,53.48L374.31,52.87L395.7,47.98L397.03,47.88L410.4,45.69L411.74,45.55L422.43,44.5L423.77,44.45L442.49,43.43L443.82,43.38L450.51,42.89L451.84,42.82L461.2,41.97L462.54,41.85L490.61,38.15L491.95,37.1L498.63,34.04L499.97,33.6L507.99,29.51L509.33,29.29L512,28.46" style="vector-effect: non-scaling-stroke; fill: none; stroke: rgb(0, 255, 0); stroke-opacity: 1; stroke-width: 2px; opacity: 1;"/></g><g class="points"/><g class="text"/></g><g class="trace scatter trace156c37" style="stroke-miterlimit: 2;"><g class="fills"/><g class="errorbars"/><g class="lines"><path class="js-line" d="M0,395L37.43,394.49L38.77,394.22L60.16,393.83L61.49,393.83L88.23,393.08L89.57,393.03L98.92,391.74L100.26,390.45L116.3,389.26L117.64,389.21L120.31,388.99L121.65,388.04L128.33,386.9L129.67,386.9L132.34,386.24L133.68,385.29L140.37,381.42L141.7,380.54L144.38,379.91L145.71,379.89L148.39,376.55L149.72,376.55L153.73,371.25L155.07,367.74L157.74,360.59L159.08,356.43L160.42,352.53L161.75,352.22L164.43,350.46L165.77,346.62L168.44,339.15L169.78,336.47L172.45,330.56L173.79,327.54L179.13,316.54L180.47,314.81L183.14,311.79L184.48,308.31L193.84,285.97L195.17,280.32L197.85,273.9L199.19,272.34L204.53,260.32L205.87,257.06L215.23,234.64L216.56,232.6L217.9,230.97L219.24,228L223.25,220.24L224.58,217.9L227.26,213.69L228.6,212.3L233.94,206.39L235.28,202.11L239.29,193.52L240.63,191.42L248.65,178.99L249.98,174.53L252.66,172.05L253.99,169.2L256.67,163.9L258.01,157.64L263.35,144.72L264.69,142.77L267.36,138.32L268.7,136.08L272.71,126.69L274.05,124.57L278.06,115.78L279.39,114.1L282.07,110.72L283.4,108.77L284.74,107.85L286.08,105.83L288.75,102.08L290.09,100.89L291.43,99.36L292.76,96.24L295.44,93.61L296.77,91.79L299.45,86.7L300.78,85.58L315.49,73.12L316.83,72.32L320.84,71.3L322.17,68.35L323.51,66.45L324.85,65.97L327.52,63.78L328.86,63.36L331.53,61.9L332.87,61.66L336.88,60.37L338.21,59.64L360.94,54.26L362.28,53.65L368.96,51.87L370.3,51.36L395.7,46.4L397.03,46.33L457.19,41.24L458.53,40.97L467.89,39.68L469.22,39.61L478.58,38.64L479.92,38.32L482.59,36.79L483.93,36.06L487.94,34.62L489.27,34.33L497.3,29.44L498.63,29.07L505.32,26.71L506.65,26.05L509.33,24.3L510.66,22.84L512,19.75" style="vector-effect: non-scaling-stroke; fill: none; stroke: rgb(255, 165, 0); stroke-opacity: 1; stroke-width: 2px; opacity: 1;"/></g><g class="points"/><g class="text"/></g></g></g><g class="overplot"/><path class="xlines-above crisp" d="M0,0" style="fill: none;"/><path class="ylines-above crisp" d="M0,0" style="fill: none;"/><g class="overlines-above"/><g class="xaxislayer-above"><g class="xtick"><text text-anchor="end" x="0" y="434" transform="translate(60,0) rotate(-45,0,427.5)" style="font-family: serif; font-size: 13px; fill: rgb(68, 68, 68); fill-opacity: 1; white-space: pre; opacity: 1;">Mar-22-20</text></g><g class="xtick"><text text-anchor="end" x="0" y="434" transform="translate(76.03999999999999,0) rotate(-45,0,427.5)" style="font-family: serif; font-size: 13px; fill: rgb(68, 68, 68); fill-opacity: 1; white-space: pre; opacity: 1;">Apr-03-20</text></g><g class="xtick"><text text-anchor="end" x="0" y="434" transform="translate(92.08,0) rotate(-45,0,427.5)" style="font-family: serif; font-size: 13px; fill: rgb(68, 68, 68); fill-opacity: 1; white-space: pre; opacity: 1;">Apr-15-20</text></g><g class="xtick"><text text-anchor="end" x="0" y="434" transform="translate(108.13,0) rotate(-45,0,427.5)" style="font-family: serif; font-size: 13px; fill: rgb(68, 68, 68); fill-opacity: 1; white-space: pre; opacity: 1;">Apr-27-20</text></g><g class="xtick"><text text-anchor="end" x="0" y="434" transform="translate(124.17,0) rotate(-45,0,427.5)" style="font-family: serif; font-size: 13px; fill: rgb(68, 68, 68); fill-opacity: 1; white-space: pre; opacity: 1;">May-09-20</text></g><g class="xtick"><text text-anchor="end" x="0" y="434" transform="translate(140.20999999999998,0) rotate(-45,0,427.5)" style="font-family: serif; font-size: 13px; fill: rgb(68, 68, 68); fill-opacity: 1; white-space: pre; opacity: 1;">May-21-20</text></g><g class="xtick"><text text-anchor="end" x="0" y="434" transform="translate(156.25,0) rotate(-45,0,427.5)" style="font-family: serif; font-size: 13px; fill: rgb(68, 68, 68); fill-opacity: 1; white-space: pre; opacity: 1;">Jun-02-20</text></g><g class="xtick"><text text-anchor="end" x="0" y="434" transform="translate(172.29000000000002,0) rotate(-45,0,427.5)" style="font-family: serif; font-size: 13px; fill: rgb(68, 68, 68); fill-opacity: 1; white-space: pre; opacity: 1;">Jun-14-20</text></g><g class="xtick"><text text-anchor="end" x="0" y="434" transform="translate(188.33,0) rotate(-45,0,427.5)" style="font-family: serif; font-size: 13px; fill: rgb(68, 68, 68); fill-opacity: 1; white-space: pre; opacity: 1;">Jun-26-20</text></g><g class="xtick"><text text-anchor="end" x="0" y="434" transform="translate(204.38,0) rotate(-45,0,427.5)" style="font-family: serif; font-size: 13px; fill: rgb(68, 68, 68); fill-opacity: 1; white-space: pre; opacity: 1;">Jul-08-20</text></g><g class="xtick"><text text-anchor="end" x="0" y="434" transform="translate(220.42,0) rotate(-45,0,427.5)" style="font-family: serif; font-size: 13px; fill: rgb(68, 68, 68); fill-opacity: 1; white-space: pre; opacity: 1;">Jul-20-20</text></g><g class="xtick"><text text-anchor="end" x="0" y="434" transform="translate(236.46,0) rotate(-45,0,427.5)" style="font-family: serif; font-size: 13px; fill: rgb(68, 68, 68); fill-opacity: 1; white-space: pre; opacity: 1;">Aug-01-20</text></g><g class="xtick"><text text-anchor="end" x="0" y="434" transform="translate(252.5,0) rotate(-45,0,427.5)" style="font-family: serif; font-size: 13px; fill: rgb(68, 68, 68); fill-opacity: 1; white-space: pre; opacity: 1;">Aug-13-20</text></g><g class="xtick"><text text-anchor="end" x="0" y="434" transform="translate(268.53999999999996,0) rotate(-45,0,427.5)" style="font-family: serif; font-size: 13px; fill: rgb(68, 68, 68); fill-opacity: 1; white-space: pre; opacity: 1;">Aug-25-20</text></g><g class="xtick"><text text-anchor="end" x="0" y="434" transform="translate(284.58000000000004,0) rotate(-45,0,427.5)" style="font-family: serif; font-size: 13px; fill: rgb(68, 68, 68); fill-opacity: 1; white-space: pre; opacity: 1;">Sep-06-20</text></g><g class="xtick"><text text-anchor="end" x="0" y="434" transform="translate(300.63,0) rotate(-45,0,427.5)" style="font-family: serif; font-size: 13px; fill: rgb(68, 68, 68); fill-opacity: 1; white-space: pre; opacity: 1;">Sep-18-20</text></g><g class="xtick"><text text-anchor="end" x="0" y="434" transform="translate(316.67,0) rotate(-45,0,427.5)" style="font-family: serif; font-size: 13px; fill: rgb(68, 68, 68); fill-opacity: 1; white-space: pre; opacity: 1;">Sep-30-20</text></g><g class="xtick"><text text-anchor="end" x="0" y="434" transform="translate(332.71,0) rotate(-45,0,427.5)" style="font-family: serif; font-size: 13px; fill: rgb(68, 68, 68); fill-opacity: 1; white-space: pre; opacity: 1;">Oct-12-20</text></g><g class="xtick"><text text-anchor="end" x="0" y="434" transform="translate(348.75,0) rotate(-45,0,427.5)" style="font-family: serif; font-size: 13px; fill: rgb(68, 68, 68); fill-opacity: 1; white-space: pre; opacity: 1;">Oct-24-20</text></g><g class="xtick"><text text-anchor="end" x="0" y="434" transform="translate(364.79,0) rotate(-45,0,427.5)" style="font-family: serif; font-size: 13px; fill: rgb(68, 68, 68); fill-opacity: 1; white-space: pre; opacity: 1;">Nov-05-20</text></g><g class="xtick"><text text-anchor="end" x="0" y="434" transform="translate(380.84,0) rotate(-45,0,427.5)" style="font-family: serif; font-size: 13px; fill: rgb(68, 68, 68); fill-opacity: 1; white-space: pre; opacity: 1;">Nov-17-20</text></g><g class="xtick"><text text-anchor="end" x="0" y="434" transform="translate(396.88,0) rotate(-45,0,427.5)" style="font-family: serif; font-size: 13px; fill: rgb(68, 68, 68); fill-opacity: 1; white-space: pre; opacity: 1;">Nov-29-20</text></g><g class="xtick"><text text-anchor="end" x="0" y="434" transform="translate(412.92,0) rotate(-45,0,427.5)" style="font-family: serif; font-size: 13px; fill: rgb(68, 68, 68); fill-opacity: 1; white-space: pre; opacity: 1;">Dec-11-20</text></g><g class="xtick"><text text-anchor="end" x="0" y="434" transform="translate(428.96,0) rotate(-45,0,427.5)" style="font-family: serif; font-size: 13px; fill: rgb(68, 68, 68); fill-opacity: 1; white-space: pre; opacity: 1;">Dec-23-20</text></g><g class="xtick"><text text-anchor="end" x="0" y="434" transform="translate(445,0) rotate(-45,0,427.5)" style="font-family: serif; font-size: 13px; fill: rgb(68, 68, 68); fill-opacity: 1; white-space: pre; opacity: 1;">Jan-04-21</text></g><g class="xtick"><text text-anchor="end" x="0" y="434" transform="translate(461.04,0) rotate(-45,0,427.5)" style="font-family: serif; font-size: 13px; fill: rgb(68, 68, 68); fill-opacity: 1; white-space: pre; opacity: 1;">Jan-16-21</text></g><g class="xtick"><text text-anchor="end" x="0" y="434" transform="translate(477.09,0) rotate(-45,0,427.5)" style="font-family: serif; font-size: 13px; fill: rgb(68, 68, 68); fill-opacity: 1; white-space: pre; opacity: 1;">Jan-28-21</text></g><g class="xtick"><text text-anchor="end" x="0" y="434" transform="translate(493.13,0) rotate(-45,0,427.5)" style="font-family: serif; font-size: 13px; fill: rgb(68, 68, 68); fill-opacity: 1; white-space: pre; opacity: 1;">Feb-09-21</text></g><g class="xtick"><text text-anchor="end" x="0" y="434" transform="translate(509.17,0) rotate(-45,0,427.5)" style="font-family: serif; font-size: 13px; fill: rgb(68, 68, 68); fill-opacity: 1; white-space: pre; opacity: 1;">Feb-21-21</text></g><g class="xtick"><text text-anchor="end" x="0" y="434" transform="translate(525.21,0) rotate(-45,0,427.5)" style="font-family: serif; font-size: 13px; fill: rgb(68, 68, 68); fill-opacity: 1; white-space: pre; opacity: 1;">Mar-05-21</text></g><g class="xtick"><text text-anchor="end" x="0" y="434" transform="translate(541.25,0) rotate(-45,0,427.5)" style="font-family: serif; font-size: 13px; fill: rgb(68, 68, 68); fill-opacity: 1; white-space: pre; opacity: 1;">Mar-17-21</text></g><g class="xtick"><text text-anchor="end" x="0" y="434" transform="translate(557.3,0) rotate(-45,0,427.5)" style="font-family: serif; font-size: 13px; fill: rgb(68, 68, 68); fill-opacity: 1; white-space: pre; opacity: 1;">Mar-29-21</text></g></g><g class="yaxislayer-above"><g class="ytick"><text text-anchor="end" x="59" y="4.199999999999999" transform="translate(0,420)" style="font-family: 'Open Sans', verdana, arial, sans-serif; font-size: 12px; fill: rgb(68, 68, 68); fill-opacity: 1; white-space: pre; opacity: 1;">0</text></g><g class="ytick"><text text-anchor="end" x="59" y="4.199999999999999" style="font-family: 'Open Sans', verdana, arial, sans-serif; font-size: 12px; fill: rgb(68, 68, 68); fill-opacity: 1; white-space: pre; opacity: 1;" transform="translate(0,371.33)">2k</text></g><g class="ytick"><text text-anchor="end" x="59" y="4.199999999999999" style="font-family: 'Open Sans', verdana, arial, sans-serif; font-size: 12px; fill: rgb(68, 68, 68); fill-opacity: 1; white-space: pre; opacity: 1;" transform="translate(0,322.65)">4k</text></g><g class="ytick"><text text-anchor="end" x="59" y="4.199999999999999" style="font-family: 'Open Sans', verdana, arial, sans-serif; font-size: 12px; fill: rgb(68, 68, 68); fill-opacity: 1; white-space: pre; opacity: 1;" transform="translate(0,273.98)">6k</text></g><g class="ytick"><text text-anchor="end" x="59" y="4.199999999999999" style="font-family: 'Open Sans', verdana, arial, sans-serif; font-size: 12px; fill: rgb(68, 68, 68); fill-opacity: 1; white-space: pre; opacity: 1;" transform="translate(0,225.31)">8k</text></g><g class="ytick"><text text-anchor="end" x="59" y="4.199999999999999" style="font-family: 'Open Sans', verdana, arial, sans-serif; font-size: 12px; fill: rgb(68, 68, 68); fill-opacity: 1; white-space: pre; opacity: 1;" transform="translate(0,176.63)">10k</text></g><g class="ytick"><text text-anchor="end" x="59" y="4.199999999999999" style="font-family: 'Open Sans', verdana, arial, sans-serif; font-size: 12px; fill: rgb(68, 68, 68); fill-opacity: 1; white-space: pre; opacity: 1;" transform="translate(0,127.96)">12k</text></g><g class="ytick"><text text-anchor="end" x="59" y="4.199999999999999" style="font-family: 'Open Sans', verdana, arial, sans-serif; font-size: 12px; fill: rgb(68, 68, 68); fill-opacity: 1; white-space: pre; opacity: 1;" transform="translate(0,79.28)">14k</text></g><g class="ytick"><text text-anchor="end" x="59" y="4.199999999999999" style="font-family: 'Open Sans', verdana, arial, sans-serif; font-size: 12px; fill: rgb(68, 68, 68); fill-opacity: 1; white-space: pre; opacity: 1;" transform="translate(0,30.61)">16k</text></g></g><g class="overaxes-above"/></g></g><g class="polarlayer"/><g class="smithlayer"/><g class="ternarylayer"/><g class="geolayer"/><g class="funnelarealayer"/><g class="pielayer"/><g class="iciclelayer"/><g class="treemaplayer"/><g class="sunburstlayer"/><g class="glimages"/><defs id="topdefs-9cc30d"><g class="clips"/><clipPath id="legend9cc30d"><rect width="108" height="67" x="0" y="0"/></clipPath></defs><g class="layer-above"><g class="imagelayer"/><g class="shapelayer"/></g><g class="infolayer"><g class="legend" pointer-events="all" transform="translate(582.24,25)"><rect class="bg" shape-rendering="crispEdges" style="stroke: rgb(68, 68, 68); stroke-opacity: 1; fill: rgb(255, 255, 255); fill-opacity: 1; stroke-width: 0px;" width="108" height="67" x="0" y="0"/><g class="scrollbox" transform="" clip-path="url(#legend9cc30d)"><g class="groups"><g class="traces" transform="translate(0,14.5)" style="opacity: 1;"><text class="legendtext" text-anchor="start" x="40" y="4.680000000000001" style="font-family: 'Open Sans', verdana, arial, sans-serif; font-size: 12px; fill: rgb(68, 68, 68); fill-opacity: 1; white-space: pre;">Active</text><g class="layers"><g class="legendfill"><path class="js-fill" d="M5,-2h30v6h-30z" style="stroke-width: 0; fill: rgb(255, 165, 0); fill-opacity: 1;"/></g><g class="legendlines"><path class="js-line" d="M5,-2h30" style="fill: none; stroke: rgb(255, 165, 0); stroke-opacity: 1; stroke-width: 2px;"/></g><g class="legendsymbols"><g class="legendpoints"/></g></g><rect class="legendtoggle" x="0" y="-9.5" width="102.546875" height="19" style="fill: rgb(0, 0, 0); fill-opacity: 0;"/></g><g class="traces" transform="translate(0,33.5)" style="opacity: 1;"><text class="legendtext" text-anchor="start" x="40" y="4.680000000000001" style="font-family: 'Open Sans', verdana, arial, sans-serif; font-size: 12px; fill: rgb(68, 68, 68); fill-opacity: 1; white-space: pre;">Recovered</text><g class="layers"><g class="legendfill"><path class="js-fill" d="M5,-2h30v6h-30z" style="stroke-width: 0; fill: rgb(0, 255, 0); fill-opacity: 1;"/></g><g class="legendlines"><path class="js-line" d="M5,-2h30" style="fill: none; stroke: rgb(0, 255, 0); stroke-opacity: 1; stroke-width: 2px;"/></g><g class="legendsymbols"><g class="legendpoints"/></g></g><rect class="legendtoggle" x="0" y="-9.5" width="102.546875" height="19" style="fill: rgb(0, 0, 0); fill-opacity: 0;"/></g><g class="traces" transform="translate(0,52.5)" style="opacity: 1;"><text class="legendtext" text-anchor="start" x="40" y="4.680000000000001" style="font-family: 'Open Sans', verdana, arial, sans-serif; font-size: 12px; fill: rgb(68, 68, 68); fill-opacity: 1; white-space: pre;">Deceased</text><g class="layers"><g class="legendfill"><path class="js-fill" d="M5,-2h30v6h-30z" style="stroke-width: 0; fill: rgb(139, 0, 0); fill-opacity: 1;"/></g><g class="legendlines"><path class="js-line" d="M5,-2h30" style="fill: none; stroke: rgb(139, 0, 0); stroke-opacity: 1; stroke-width: 2px;"/></g><g class="legendsymbols"><g class="legendpoints"/></g></g><rect class="legendtoggle" x="0" y="-9.5" width="102.546875" height="19" style="fill: rgb(0, 0, 0); fill-opacity: 0;"/></g></g></g><rect class="scrollbar" rx="20" ry="3" width="0" height="0" style="fill: rgb(128, 139, 164); fill-opacity: 1;" x="0" y="0"/></g><g class="g-gtitle"><text class="gtitle" x="350" y="12.5" text-anchor="middle" dy="0em" style="font-family: serif; font-size: 18px; fill: rgb(68, 68, 68); opacity: 1; font-weight: normal; white-space: pre;">Vijayapura</text></g><g class="g-xtitle" transform="translate(0,19.2626953125)"><text class="xtitle" x="316" y="472" text-anchor="middle" style="font-family: 'Open Sans', verdana, arial, sans-serif; font-size: 14px; fill: rgb(68, 68, 68); opacity: 1; font-weight: normal; white-space: pre;">Date</text></g><g class="g-ytitle" transform="translate(2,0)"><text class="ytitle" transform="rotate(-90,14,222.5)" x="14" y="222.5" text-anchor="middle" style="font-family: serif; font-size: 18px; fill: rgb(0, 0, 0); opacity: 1; font-weight: normal; white-space: pre;">Number of Cases</text></g></g></svg>