<svg class="main-svg" xmlns="http://www.w3.org/2000/svg" xmlns:xlink="http://www.w3.org/1999/xlink" width="700" height="500" style="" viewBox="0 0 700 500"><rect x="0" y="0" width="700" height="500" style="fill: rgb(255, 255, 255); fill-opacity: 1;"/><defs id="defs-25ee8e"><g class="clips"><clipPath id="clip25ee8exyplot" class="plotclip"><rect width="512" height="395"/></clipPath><clipPath class="axesclip" id="clip25ee8ex"><rect x="60" y="0" width="512" height="500"/></clipPath><clipPath class="axesclip" id="clip25ee8ey"><rect x="0" y="25" width="700" height="395"/></clipPath><clipPath class="axesclip" id="clip25ee8exy"><rect x="60" y="25" width="512" height="395"/></clipPath></g><g class="gradients"/><g class="patterns"/></defs><g class="bglayer"/><g class="layer-below"><g class="imagelayer"/><g class="shapelayer"/></g><g class="cartesianlayer"><g class="subplot xy"><g class="layer-subplot"><g class="shapelayer"/><g class="imagelayer"/></g><g class="gridlayer"><g class="x"><path class="xgrid crisp" transform="translate(76.03999999999999,0)" d="M0,25v395" style="stroke: rgb(238, 238, 238); stroke-opacity: 1; stroke-width: 1px;"/><path class="xgrid crisp" transform="translate(92.08,0)" d="M0,25v395" style="stroke: rgb(238, 238, 238); stroke-opacity: 1; stroke-width: 1px;"/><path class="xgrid crisp" transform="translate(108.13,0)" d="M0,25v395" style="stroke: rgb(238, 238, 238); stroke-opacity: 1; stroke-width: 1px;"/><path class="xgrid crisp" transform="translate(124.17,0)" d="M0,25v395" style="stroke: rgb(238, 238, 238); stroke-opacity: 1; stroke-width: 1px;"/><path class="xgrid crisp" transform="translate(140.20999999999998,0)" d="M0,25v395" style="stroke: rgb(238, 238, 238); stroke-opacity: 1; stroke-width: 1px;"/><path class="xgrid crisp" transform="translate(156.25,0)" d="M0,25v395" style="stroke: rgb(238, 238, 238); stroke-opacity: 1; stroke-width: 1px;"/><path class="xgrid crisp" transform="translate(172.29000000000002,0)" d="M0,25v395" style="stroke: rgb(238, 238, 238); stroke-opacity: 1; stroke-width: 1px;"/><path class="xgrid crisp" transform="translate(188.33,0)" d="M0,25v395" style="stroke: rgb(238, 238, 238); stroke-opacity: 1; stroke-width: 1px;"/><path class="xgrid crisp" transform="translate(204.38,0)" d="M0,25v395" style="stroke: rgb(238, 238, 238); stroke-opacity: 1; stroke-width: 1px;"/><path class="xgrid crisp" transform="translate(220.42,0)" d="M0,25v395" style="stroke: rgb(238, 238, 238); stroke-opacity: 1; stroke-width: 1px;"/><path class="xgrid crisp" transform="translate(236.46,0)" d="M0,25v395" style="stroke: rgb(238, 238, 238); stroke-opacity: 1; stroke-width: 1px;"/><path class="xgrid crisp" transform="translate(252.5,0)" d="M0,25v395" style="stroke: rgb(238, 238, 238); stroke-opacity: 1; stroke-width: 1px;"/><path class="xgrid crisp" transform="translate(268.53999999999996,0)" d="M0,25v395" style="stroke: rgb(238, 238, 238); stroke-opacity: 1; stroke-width: 1px;"/><path class="xgrid crisp" transform="translate(284.58000000000004,0)" d="M0,25v395" style="stroke: rgb(238, 238, 238); stroke-opacity: 1; stroke-width: 1px;"/><path class="xgrid crisp" transform="translate(300.63,0)" d="M0,25v395" style="stroke: rgb(238, 238, 238); stroke-opacity: 1; stroke-width: 1px;"/><path class="xgrid crisp" transform="translate(316.67,0)" d="M0,25v395" style="stroke: rgb(238, 238, 238); stroke-opacity: 1; stroke-width: 1px;"/><path class="xgrid crisp" transform="translate(332.71,0)" d="M0,25v395" style="stroke: rgb(238, 238, 238); stroke-opacity: 1; stroke-width: 1px;"/><path class="xgrid crisp" transform="translate(348.75,0)" d="M0,25v395" style="stroke: rgb(238, 238, 238); stroke-opacity: 1; stroke-width: 1px;"/><path class="xgrid crisp" transform="translate(364.79,0)" d="M0,25v395" style="stroke: rgb(238, 238, 238); stroke-opacity: 1; stroke-width: 1px;"/><path class="xgrid crisp" transform="translate(380.84,0)" d="M0,25v395" style="stroke: rgb(238, 238, 238); stroke-opacity: 1; stroke-width: 1px;"/><path class="xgrid crisp" transform="translate(396.88,0)" d="M0,25v395" style="stroke: rgb(238, 238, 238); stroke-opacity: 1; stroke-width: 1px;"/><path class="xgrid crisp" transform="translate(412.92,0)" d="M0,25v395" style="stroke: rgb(238, 238, 238); stroke-opacity: 1; stroke-width: 1px;"/><path class="xgrid crisp" transform="translate(428.96,0)" d="M0,25v395" style="stroke: rgb(238, 238, 238); stroke-opacity: 1; stroke-width: 1px;"/><path class="xgrid crisp" transform="translate(445,0)" d="M0,25v395" style="stroke: rgb(238, 238, 238); stroke-opacity: 1; stroke-width: 1px;"/><path class="xgrid crisp" transform="translate(461.04,0)" d="M0,25v395" style="stroke: rgb(238, 238, 238); stroke-opacity: 1; stroke-width: 1px;"/><path class="xgrid crisp" transform="translate(477.09,0)" d="M0,25v395" style="stroke: rgb(238, 238, 238); stroke-opacity: 1; stroke-width: 1px;"/><path class="xgrid crisp" transform="translate(493.13,0)" d="M0,25v395" style="stroke: rgb(238, 238, 238); stroke-opacity: 1; stroke-width: 1px;"/><path class="xgrid crisp" transform="translate(509.17,0)" d="M0,25v395" style="stroke: rgb(238, 238, 238); stroke-opacity: 1; stroke-width: 1px;"/><path class="xgrid crisp" transform="translate(525.21,0)" d="M0,25v395" style="stroke: rgb(238, 238, 238); stroke-opacity: 1; stroke-width: 1px;"/><path class="xgrid crisp" transform="translate(541.25,0)" d="M0,25v395" style="stroke: rgb(238, 238, 238); stroke-opacity: 1; stroke-width: 1px;"/><path class="xgrid crisp" transform="translate(557.3,0)" d="M0,25v395" style="stroke: rgb(238, 238, 238); stroke-opacity: 1; stroke-width: 1px;"/></g><g class="y"><path class="ygrid crisp" transform="translate(0,351.72)" d="M60,0h512" style="stroke: rgb(238, 238, 238); stroke-opacity: 1; stroke-width: 1px;"/><path class="ygrid crisp" transform="translate(0,283.45)" d="M60,0h512" style="stroke: rgb(238, 238, 238); stroke-opacity: 1; stroke-width: 1px;"/><path class="ygrid crisp" transform="translate(0,215.17)" d="M60,0h512" style="stroke: rgb(238, 238, 238); stroke-opacity: 1; stroke-width: 1px;"/><path class="ygrid crisp" transform="translate(0,146.89)" d="M60,0h512" style="stroke: rgb(238, 238, 238); stroke-opacity: 1; stroke-width: 1px;"/><path class="ygrid crisp" transform="translate(0,78.62)" d="M60,0h512" style="stroke: rgb(238, 238, 238); stroke-opacity: 1; stroke-width: 1px;"/></g></g><g class="zerolinelayer"><path class="yzl zl crisp" transform="translate(0,420)" d="M60,0h512" style="stroke: rgb(68, 68, 68); stroke-opacity: 1; stroke-width: 1px;"/></g><path class="xlines-below"/><path class="ylines-below"/><g class="overlines-below"/><g class="xaxislayer-below"/><g class="yaxislayer-below"/><g class="overaxes-below"/><g class="plot" transform="translate(60,25)" clip-path="url(#clip25ee8exyplot)"><g class="scatterlayer mlayer"><g class="trace scatter trace8c06d2" style="stroke-miterlimit: 2;"><g class="fills"><g><path class="js-fill" d="M512,395L0,395L0,395L195.17,394.32L196.51,394.21L228.6,393.46L229.93,393.43L512,392.88" style="fill: rgb(139, 0, 0); fill-opacity: 1; stroke-width: 0;"/></g><g><path class="js-fill" d="M0,395L93.58,394.66L94.91,394.04L100.26,394.04L101.6,392.64L105.61,391.86L106.95,391.28L108.28,391.28L109.62,386.88L110.96,386.88L112.29,385.68L114.97,382.85L116.3,379.02L118.98,378.68L120.31,378L125.66,375.61L127,371.58L128.33,371.58L129.67,368.1L137.69,365.78L139.03,365.78L143.04,365.3L144.38,365.2L152.4,364.45L153.73,359.53L156.41,355.95L157.74,351.27L161.75,344.44L163.09,343.52L167.1,342.77L168.44,341.2L171.11,340.62L172.45,339.66L173.79,338.84L175.12,330.72L181.81,327.44L183.14,326.55L185.82,323.17L187.15,322.08L188.49,321.57L189.83,318.77L192.5,316.24L193.84,314.77L195.17,309.65L196.51,308.25L199.19,300.85L200.52,298.63L203.2,295.59L204.53,294.39L205.87,286.23L207.21,285.18L208.54,284.56L209.88,281.83L211.22,277.36L212.55,276.33L213.89,274.08L215.23,262.65L216.56,251.79L217.9,248.38L221.91,246.7L223.25,235.27L224.58,234.17L225.92,226.53L229.93,213.35L231.27,212.33L232.61,211.57L233.94,197.51L235.28,195.15L236.62,190.48L239.29,178.97L240.63,176.41L245.97,160.95L247.31,154.49L249.98,149.41L251.32,147.91L253.99,140.16L255.33,135.82L256.67,131.96L258.01,130.73L262.02,126.43L263.35,123.36L266.03,116.84L267.36,114.59L272.71,101.48L274.05,96.6L284.74,71.67L286.08,69.35L288.75,66.66L290.09,66.31L291.43,65.26L292.76,62.94L304.79,54.33L306.13,53.68L310.14,51.77L311.48,51.09L320.84,47.61L322.17,46.69L323.51,46.62L324.85,45.76L330.19,44.53L331.53,44.26L338.21,43.24L339.55,42.86L350.25,40.85L351.58,40.71L358.27,38.7L359.6,38.15L363.61,36.41L364.95,36.34L410.4,31.97L411.74,31.97L427.78,31.29L429.12,31.15L457.19,30.37L458.53,30.37L494.62,28.66L495.96,28.52L505.32,27.67L506.65,27.29L512,26.13L512,392.88L229.93,393.43L228.6,393.46L196.51,394.21L195.17,394.32L0,395Z" style="fill: rgb(0, 255, 0); fill-opacity: 1; stroke-width: 0;"/></g></g><g class="errorbars"/><g class="lines"><path class="js-line" d="M0,395L195.17,394.32L196.51,394.21L228.6,393.46L229.93,393.43L512,392.88" style="vector-effect: non-scaling-stroke; fill: none; stroke: rgb(139, 0, 0); stroke-opacity: 1; stroke-width: 2px; opacity: 1;"/></g><g class="points"/><g class="text"/></g><g class="trace scatter trace8e5d71" style="stroke-miterlimit: 2;"><g class="fills"><g><path class="js-fill" d="M0,395L81.55,394.49L82.88,392.03L86.89,390.22L88.23,389.67L89.57,389.44L90.9,387.39L92.24,386.77L93.58,385.27L98.92,384.79L100.26,382.27L101.6,378.75L102.93,377.42L105.61,373.08L106.95,372.16L108.28,369.91L109.62,369.91L112.29,367.38L113.63,366.94L114.97,366.73L116.3,365.47L121.65,364.96L122.99,364.92L129.67,363.29L131.01,363.25L139.03,361.85L140.37,361.85L143.04,360.32L144.38,359.94L145.71,359.39L147.05,357.65L148.39,355.13L149.72,351.03L151.06,345.5L152.4,345.43L155.07,342.6L156.41,342.46L159.08,341.98L160.42,340.52L161.75,336.52L163.09,335.05L171.11,322.66L172.45,318.77L176.46,313.55L177.8,312.21L181.81,304.09L183.14,302.83L184.48,300.44L185.82,293.61L195.17,272.07L196.51,264.01L201.86,254.28L203.2,245.58L209.88,226.73L211.22,222.91L215.23,215.02L216.56,210.86L220.57,198.57L221.91,195.36L227.26,178.53L228.6,175.28L232.61,163.27L233.94,155.25L237.95,145.38L239.29,143.67L243.3,130.5L244.64,128.99L249.98,122.06L251.32,117.52L252.66,116.02L253.99,113.22L258.01,101.78L259.34,96.83L262.02,88.4L263.35,86.83L270.04,74.17L271.37,70.75L275.38,66.86L276.72,66.62L278.06,65.46L279.39,62.87L284.74,59.21L286.08,57.99L290.09,54.74L291.43,54.43L306.13,47.95L307.47,47.68L311.48,45.83L312.81,45.35L346.23,38.73L347.57,37.84L351.58,36.92L352.92,36.82L359.6,35.39L360.94,35.21L372.97,34.16L374.31,34.12L383.67,33.37L385,33.06L407.73,31.46L409.07,31.39L438.48,30.57L439.81,30.54L461.2,29.82L462.54,29.72L479.92,29.1L481.25,28.93L497.3,26.44L498.63,26.2L505.32,24.02L506.65,23.44L509.33,21.73L510.66,20.84L512,19.75L512,26.13L506.65,27.29L505.32,27.67L495.96,28.52L494.62,28.66L458.53,30.37L457.19,30.37L429.12,31.15L427.78,31.29L411.74,31.97L410.4,31.97L364.95,36.34L363.61,36.41L359.6,38.15L358.27,38.7L351.58,40.71L350.25,40.85L339.55,42.86L338.21,43.24L331.53,44.26L330.19,44.53L324.85,45.76L323.51,46.62L322.17,46.69L320.84,47.61L311.48,51.09L310.14,51.77L306.13,53.68L304.79,54.33L292.76,62.94L291.43,65.26L290.09,66.31L288.75,66.66L286.08,69.35L284.74,71.67L274.05,96.6L272.71,101.48L267.36,114.59L266.03,116.84L263.35,123.36L262.02,126.43L258.01,130.73L256.67,131.96L255.33,135.82L253.99,140.16L251.32,147.91L249.98,149.41L247.31,154.49L245.97,160.95L240.63,176.41L239.29,178.97L236.62,190.48L235.28,195.15L233.94,197.51L232.61,211.57L231.27,212.33L229.93,213.35L225.92,226.53L224.58,234.17L223.25,235.27L221.91,246.7L217.9,248.38L216.56,251.79L215.23,262.65L213.89,274.08L212.55,276.33L211.22,277.36L209.88,281.83L208.54,284.56L207.21,285.18L205.87,286.23L204.53,294.39L203.2,295.59L200.52,298.63L199.19,300.85L196.51,308.25L195.17,309.65L193.84,314.77L192.5,316.24L189.83,318.77L188.49,321.57L187.15,322.08L185.82,323.17L183.14,326.55L181.81,327.44L175.12,330.72L173.79,338.84L172.45,339.66L171.11,340.62L168.44,341.2L167.1,342.77L163.09,343.52L161.75,344.44L157.74,351.27L156.41,355.95L153.73,359.53L152.4,364.45L144.38,365.2L143.04,365.3L139.03,365.78L137.69,365.78L129.67,368.1L128.33,371.58L127,371.58L125.66,375.61L120.31,378L118.98,378.68L116.3,379.02L114.97,382.85L112.29,385.68L110.96,386.88L109.62,386.88L108.28,391.28L106.95,391.28L105.61,391.86L101.6,392.64L100.26,394.04L94.91,394.04L93.58,394.66L0,395Z" style="fill: rgb(255, 165, 0); fill-opacity: 1; stroke-width: 0;"/></g></g><g class="errorbars"/><g class="lines"><path class="js-line" d="M0,395L93.58,394.66L94.91,394.04L100.26,394.04L101.6,392.64L105.61,391.86L106.95,391.28L108.28,391.28L109.62,386.88L110.96,386.88L112.29,385.68L114.97,382.85L116.3,379.02L118.98,378.68L120.31,378L125.66,375.61L127,371.58L128.33,371.58L129.67,368.1L137.69,365.78L139.03,365.78L143.04,365.3L144.38,365.2L152.4,364.45L153.73,359.53L156.41,355.95L157.74,351.27L161.75,344.44L163.09,343.52L167.1,342.77L168.44,341.2L171.11,340.62L172.45,339.66L173.79,338.84L175.12,330.72L181.81,327.44L183.14,326.55L185.82,323.17L187.15,322.08L188.49,321.57L189.83,318.77L192.5,316.24L193.84,314.77L195.17,309.65L196.51,308.25L199.19,300.85L200.52,298.63L203.2,295.59L204.53,294.39L205.87,286.23L207.21,285.18L208.54,284.56L209.88,281.83L211.22,277.36L212.55,276.33L213.89,274.08L215.23,262.65L216.56,251.79L217.9,248.38L221.91,246.7L223.25,235.27L224.58,234.17L225.92,226.53L229.93,213.35L231.27,212.33L232.61,211.57L233.94,197.51L235.28,195.15L236.62,190.48L239.29,178.97L240.63,176.41L245.97,160.95L247.31,154.49L249.98,149.41L251.32,147.91L253.99,140.16L255.33,135.82L256.67,131.96L258.01,130.73L262.02,126.43L263.35,123.36L266.03,116.84L267.36,114.59L272.71,101.48L274.05,96.6L284.74,71.67L286.08,69.35L288.75,66.66L290.09,66.31L291.43,65.26L292.76,62.94L304.79,54.33L306.13,53.68L310.14,51.77L311.48,51.09L320.84,47.61L322.17,46.69L323.51,46.62L324.85,45.76L330.19,44.53L331.53,44.26L338.21,43.24L339.55,42.86L350.25,40.85L351.58,40.71L358.27,38.7L359.6,38.15L363.61,36.41L364.95,36.34L410.4,31.97L411.74,31.97L427.78,31.29L429.12,31.15L457.19,30.37L458.53,30.37L494.62,28.66L495.96,28.52L505.32,27.67L506.65,27.29L512,26.13" style="vector-effect: non-scaling-stroke; fill: none; stroke: rgb(0, 255, 0); stroke-opacity: 1; stroke-width: 2px; opacity: 1;"/></g><g class="points"/><g class="text"/></g><g class="trace scatter trace38309b" style="stroke-miterlimit: 2;"><g class="fills"/><g class="errorbars"/><g class="lines"><path class="js-line" d="M0,395L81.55,394.49L82.88,392.03L86.89,390.22L88.23,389.67L89.57,389.44L90.9,387.39L92.24,386.77L93.58,385.27L98.92,384.79L100.26,382.27L101.6,378.75L102.93,377.42L105.61,373.08L106.95,372.16L108.28,369.91L109.62,369.91L112.29,367.38L113.63,366.94L114.97,366.73L116.3,365.47L121.65,364.96L122.99,364.92L129.67,363.29L131.01,363.25L139.03,361.85L140.37,361.85L143.04,360.32L144.38,359.94L145.71,359.39L147.05,357.65L148.39,355.13L149.72,351.03L151.06,345.5L152.4,345.43L155.07,342.6L156.41,342.46L159.08,341.98L160.42,340.52L161.75,336.52L163.09,335.05L171.11,322.66L172.45,318.77L176.46,313.55L177.8,312.21L181.81,304.09L183.14,302.83L184.48,300.44L185.82,293.61L195.17,272.07L196.51,264.01L201.86,254.28L203.2,245.58L209.88,226.73L211.22,222.91L215.23,215.02L216.56,210.86L220.57,198.57L221.91,195.36L227.26,178.53L228.6,175.28L232.61,163.27L233.94,155.25L237.95,145.38L239.29,143.67L243.3,130.5L244.64,128.99L249.98,122.06L251.32,117.52L252.66,116.02L253.99,113.22L258.01,101.78L259.34,96.83L262.02,88.4L263.35,86.83L270.04,74.17L271.37,70.75L275.38,66.86L276.72,66.62L278.06,65.46L279.39,62.87L284.74,59.21L286.08,57.99L290.09,54.74L291.43,54.43L306.13,47.95L307.47,47.68L311.48,45.83L312.81,45.35L346.23,38.73L347.57,37.84L351.58,36.92L352.92,36.82L359.6,35.39L360.94,35.21L372.97,34.16L374.31,34.12L383.67,33.37L385,33.06L407.73,31.46L409.07,31.39L438.48,30.57L439.81,30.54L461.2,29.82L462.54,29.72L479.92,29.1L481.25,28.93L497.3,26.44L498.63,26.2L505.32,24.02L506.65,23.44L509.33,21.73L510.66,20.84L512,19.75" style="vector-effect: non-scaling-stroke; fill: none; stroke: rgb(255, 165, 0); stroke-opacity: 1; stroke-width: 2px; opacity: 1;"/></g><g class="points"/><g class="text"/></g></g></g><g class="overplot"/><path class="xlines-above crisp" d="M0,0" style="fill: none;"/><path class="ylines-above crisp" d="M0,0" style="fill: none;"/><g class="overlines-above"/><g class="xaxislayer-above"><g class="xtick"><text text-anchor="end" x="0" y="434" transform="translate(60,0) rotate(-45,0,427.5)" style="font-family: serif; font-size: 13px; fill: rgb(68, 68, 68); fill-opacity: 1; white-space: pre; opacity: 1;">Mar-22-20</text></g><g class="xtick"><text text-anchor="end" x="0" y="434" transform="translate(76.03999999999999,0) rotate(-45,0,427.5)" style="font-family: serif; font-size: 13px; fill: rgb(68, 68, 68); fill-opacity: 1; white-space: pre; opacity: 1;">Apr-03-20</text></g><g class="xtick"><text text-anchor="end" x="0" y="434" transform="translate(92.08,0) rotate(-45,0,427.5)" style="font-family: serif; font-size: 13px; fill: rgb(68, 68, 68); fill-opacity: 1; white-space: pre; opacity: 1;">Apr-15-20</text></g><g class="xtick"><text text-anchor="end" x="0" y="434" transform="translate(108.13,0) rotate(-45,0,427.5)" style="font-family: serif; font-size: 13px; fill: rgb(68, 68, 68); fill-opacity: 1; white-space: pre; opacity: 1;">Apr-27-20</text></g><g class="xtick"><text text-anchor="end" x="0" y="434" transform="translate(124.17,0) rotate(-45,0,427.5)" style="font-family: serif; font-size: 13px; fill: rgb(68, 68, 68); fill-opacity: 1; white-space: pre; opacity: 1;">May-09-20</text></g><g class="xtick"><text text-anchor="end" x="0" y="434" transform="translate(140.20999999999998,0) rotate(-45,0,427.5)" style="font-family: serif; font-size: 13px; fill: rgb(68, 68, 68); fill-opacity: 1; white-space: pre; opacity: 1;">May-21-20</text></g><g class="xtick"><text text-anchor="end" x="0" y="434" transform="translate(156.25,0) rotate(-45,0,427.5)" style="font-family: serif; font-size: 13px; fill: rgb(68, 68, 68); fill-opacity: 1; white-space: pre; opacity: 1;">Jun-02-20</text></g><g class="xtick"><text text-anchor="end" x="0" y="434" transform="translate(172.29000000000002,0) rotate(-45,0,427.5)" style="font-family: serif; font-size: 13px; fill: rgb(68, 68, 68); fill-opacity: 1; white-space: pre; opacity: 1;">Jun-14-20</text></g><g class="xtick"><text text-anchor="end" x="0" y="434" transform="translate(188.33,0) rotate(-45,0,427.5)" style="font-family: serif; font-size: 13px; fill: rgb(68, 68, 68); fill-opacity: 1; white-space: pre; opacity: 1;">Jun-26-20</text></g><g class="xtick"><text text-anchor="end" x="0" y="434" transform="translate(204.38,0) rotate(-45,0,427.5)" style="font-family: serif; font-size: 13px; fill: rgb(68, 68, 68); fill-opacity: 1; white-space: pre; opacity: 1;">Jul-08-20</text></g><g class="xtick"><text text-anchor="end" x="0" y="434" transform="translate(220.42,0) rotate(-45,0,427.5)" style="font-family: serif; font-size: 13px; fill: rgb(68, 68, 68); fill-opacity: 1; white-space: pre; opacity: 1;">Jul-20-20</text></g><g class="xtick"><text text-anchor="end" x="0" y="434" transform="translate(236.46,0) rotate(-45,0,427.5)" style="font-family: serif; font-size: 13px; fill: rgb(68, 68, 68); fill-opacity: 1; white-space: pre; opacity: 1;">Aug-01-20</text></g><g class="xtick"><text text-anchor="end" x="0" y="434" transform="translate(252.5,0) rotate(-45,0,427.5)" style="font-family: serif; font-size: 13px; fill: rgb(68, 68, 68); fill-opacity: 1; white-space: pre; opacity: 1;">Aug-13-20</text></g><g class="xtick"><text text-anchor="end" x="0" y="434" transform="translate(268.53999999999996,0) rotate(-45,0,427.5)" style="font-family: serif; font-size: 13px; fill: rgb(68, 68, 68); fill-opacity: 1; white-space: pre; opacity: 1;">Aug-25-20</text></g><g class="xtick"><text text-anchor="end" x="0" y="434" transform="translate(284.58000000000004,0) rotate(-45,0,427.5)" style="font-family: serif; font-size: 13px; fill: rgb(68, 68, 68); fill-opacity: 1; white-space: pre; opacity: 1;">Sep-06-20</text></g><g class="xtick"><text text-anchor="end" x="0" y="434" transform="translate(300.63,0) rotate(-45,0,427.5)" style="font-family: serif; font-size: 13px; fill: rgb(68, 68, 68); fill-opacity: 1; white-space: pre; opacity: 1;">Sep-18-20</text></g><g class="xtick"><text text-anchor="end" x="0" y="434" transform="translate(316.67,0) rotate(-45,0,427.5)" style="font-family: serif; font-size: 13px; fill: rgb(68, 68, 68); fill-opacity: 1; white-space: pre; opacity: 1;">Sep-30-20</text></g><g class="xtick"><text text-anchor="end" x="0" y="434" transform="translate(332.71,0) rotate(-45,0,427.5)" style="font-family: serif; font-size: 13px; fill: rgb(68, 68, 68); fill-opacity: 1; white-space: pre; opacity: 1;">Oct-12-20</text></g><g class="xtick"><text text-anchor="end" x="0" y="434" transform="translate(348.75,0) rotate(-45,0,427.5)" style="font-family: serif; font-size: 13px; fill: rgb(68, 68, 68); fill-opacity: 1; white-space: pre; opacity: 1;">Oct-24-20</text></g><g class="xtick"><text text-anchor="end" x="0" y="434" transform="translate(364.79,0) rotate(-45,0,427.5)" style="font-family: serif; font-size: 13px; fill: rgb(68, 68, 68); fill-opacity: 1; white-space: pre; opacity: 1;">Nov-05-20</text></g><g class="xtick"><text text-anchor="end" x="0" y="434" transform="translate(380.84,0) rotate(-45,0,427.5)" style="font-family: serif; font-size: 13px; fill: rgb(68, 68, 68); fill-opacity: 1; white-space: pre; opacity: 1;">Nov-17-20</text></g><g class="xtick"><text text-anchor="end" x="0" y="434" transform="translate(396.88,0) rotate(-45,0,427.5)" style="font-family: serif; font-size: 13px; fill: rgb(68, 68, 68); fill-opacity: 1; white-space: pre; opacity: 1;">Nov-29-20</text></g><g class="xtick"><text text-anchor="end" x="0" y="434" transform="translate(412.92,0) rotate(-45,0,427.5)" style="font-family: serif; font-size: 13px; fill: rgb(68, 68, 68); fill-opacity: 1; white-space: pre; opacity: 1;">Dec-11-20</text></g><g class="xtick"><text text-anchor="end" x="0" y="434" transform="translate(428.96,0) rotate(-45,0,427.5)" style="font-family: serif; font-size: 13px; fill: rgb(68, 68, 68); fill-opacity: 1; white-space: pre; opacity: 1;">Dec-23-20</text></g><g class="xtick"><text text-anchor="end" x="0" y="434" transform="translate(445,0) rotate(-45,0,427.5)" style="font-family: serif; font-size: 13px; fill: rgb(68, 68, 68); fill-opacity: 1; white-space: pre; opacity: 1;">Jan-04-21</text></g><g class="xtick"><text text-anchor="end" x="0" y="434" transform="translate(461.04,0) rotate(-45,0,427.5)" style="font-family: serif; font-size: 13px; fill: rgb(68, 68, 68); fill-opacity: 1; white-space: pre; opacity: 1;">Jan-16-21</text></g><g class="xtick"><text text-anchor="end" x="0" y="434" transform="translate(477.09,0) rotate(-45,0,427.5)" style="font-family: serif; font-size: 13px; fill: rgb(68, 68, 68); fill-opacity: 1; white-space: pre; opacity: 1;">Jan-28-21</text></g><g class="xtick"><text text-anchor="end" x="0" y="434" transform="translate(493.13,0) rotate(-45,0,427.5)" style="font-family: serif; font-size: 13px; fill: rgb(68, 68, 68); fill-opacity: 1; white-space: pre; opacity: 1;">Feb-09-21</text></g><g class="xtick"><text text-anchor="end" x="0" y="434" transform="translate(509.17,0) rotate(-45,0,427.5)" style="font-family: serif; font-size: 13px; fill: rgb(68, 68, 68); fill-opacity: 1; white-space: pre; opacity: 1;">Feb-21-21</text></g><g class="xtick"><text text-anchor="end" x="0" y="434" transform="translate(525.21,0) rotate(-45,0,427.5)" style="font-family: serif; font-size: 13px; fill: rgb(68, 68, 68); fill-opacity: 1; white-space: pre; opacity: 1;">Mar-05-21</text></g><g class="xtick"><text text-anchor="end" x="0" y="434" transform="translate(541.25,0) rotate(-45,0,427.5)" style="font-family: serif; font-size: 13px; fill: rgb(68, 68, 68); fill-opacity: 1; white-space: pre; opacity: 1;">Mar-17-21</text></g><g class="xtick"><text text-anchor="end" x="0" y="434" transform="translate(557.3,0) rotate(-45,0,427.5)" style="font-family: serif; font-size: 13px; fill: rgb(68, 68, 68); fill-opacity: 1; white-space: pre; opacity: 1;">Mar-29-21</text></g></g><g class="yaxislayer-above"><g class="ytick"><text text-anchor="end" x="59" y="4.199999999999999" transform="translate(0,420)" style="font-family: 'Open Sans', verdana, arial, sans-serif; font-size: 12px; fill: rgb(68, 68, 68); fill-opacity: 1; white-space: pre; opacity: 1;">0</text></g><g class="ytick"><text text-anchor="end" x="59" y="4.199999999999999" style="font-family: 'Open Sans', verdana, arial, sans-serif; font-size: 12px; fill: rgb(68, 68, 68); fill-opacity: 1; white-space: pre; opacity: 1;" transform="translate(0,351.72)">2k</text></g><g class="ytick"><text text-anchor="end" x="59" y="4.199999999999999" style="font-family: 'Open Sans', verdana, arial, sans-serif; font-size: 12px; fill: rgb(68, 68, 68); fill-opacity: 1; white-space: pre; opacity: 1;" transform="translate(0,283.45)">4k</text></g><g class="ytick"><text text-anchor="end" x="59" y="4.199999999999999" style="font-family: 'Open Sans', verdana, arial, sans-serif; font-size: 12px; fill: rgb(68, 68, 68); fill-opacity: 1; white-space: pre; opacity: 1;" transform="translate(0,215.17)">6k</text></g><g class="ytick"><text text-anchor="end" x="59" y="4.199999999999999" style="font-family: 'Open Sans', verdana, arial, sans-serif; font-size: 12px; fill: rgb(68, 68, 68); fill-opacity: 1; white-space: pre; opacity: 1;" transform="translate(0,146.89)">8k</text></g><g class="ytick"><text text-anchor="end" x="59" y="4.199999999999999" style="font-family: 'Open Sans', verdana, arial, sans-serif; font-size: 12px; fill: rgb(68, 68, 68); fill-opacity: 1; white-space: pre; opacity: 1;" transform="translate(0,78.62)">10k</text></g></g><g class="overaxes-above"/></g></g><g class="polarlayer"/><g class="smithlayer"/><g class="ternarylayer"/><g class="geolayer"/><g class="funnelarealayer"/><g class="pielayer"/><g class="iciclelayer"/><g class="treemaplayer"/><g class="sunburstlayer"/><g class="glimages"/><defs id="topdefs-25ee8e"><g class="clips"/><clipPath id="legend25ee8e"><rect width="108" height="67" x="0" y="0"/></clipPath></defs><g class="layer-above"><g class="imagelayer"/><g class="shapelayer"/></g><g class="infolayer"><g class="legend" pointer-events="all" transform="translate(582.24,25)"><rect class="bg" shape-rendering="crispEdges" style="stroke: rgb(68, 68, 68); stroke-opacity: 1; fill: rgb(255, 255, 255); fill-opacity: 1; stroke-width: 0px;" width="108" height="67" x="0" y="0"/><g class="scrollbox" transform="" clip-path="url(#legend25ee8e)"><g class="groups"><g class="traces" transform="translate(0,14.5)" style="opacity: 1;"><text class="legendtext" text-anchor="start" x="40" y="4.680000000000001" style="font-family: 'Open Sans', verdana, arial, sans-serif; font-size: 12px; fill: rgb(68, 68, 68); fill-opacity: 1; white-space: pre;">Active</text><g class="layers"><g class="legendfill"><path class="js-fill" d="M5,-2h30v6h-30z" style="stroke-width: 0; fill: rgb(255, 165, 0); fill-opacity: 1;"/></g><g class="legendlines"><path class="js-line" d="M5,-2h30" style="fill: none; stroke: rgb(255, 165, 0); stroke-opacity: 1; stroke-width: 2px;"/></g><g class="legendsymbols"><g class="legendpoints"/></g></g><rect class="legendtoggle" x="0" y="-9.5" width="102.546875" height="19" style="fill: rgb(0, 0, 0); fill-opacity: 0;"/></g><g class="traces" transform="translate(0,33.5)" style="opacity: 1;"><text class="legendtext" text-anchor="start" x="40" y="4.680000000000001" style="font-family: 'Open Sans', verdana, arial, sans-serif; font-size: 12px; fill: rgb(68, 68, 68); fill-opacity: 1; white-space: pre;">Recovered</text><g class="layers"><g class="legendfill"><path class="js-fill" d="M5,-2h30v6h-30z" style="stroke-width: 0; fill: rgb(0, 255, 0); fill-opacity: 1;"/></g><g class="legendlines"><path class="js-line" d="M5,-2h30" style="fill: none; stroke: rgb(0, 255, 0); stroke-opacity: 1; stroke-width: 2px;"/></g><g class="legendsymbols"><g class="legendpoints"/></g></g><rect class="legendtoggle" x="0" y="-9.5" width="102.546875" height="19" style="fill: rgb(0, 0, 0); fill-opacity: 0;"/></g><g class="traces" transform="translate(0,52.5)" style="opacity: 1;"><text class="legendtext" text-anchor="start" x="40" y="4.680000000000001" style="font-family: 'Open Sans', verdana, arial, sans-serif; font-size: 12px; fill: rgb(68, 68, 68); fill-opacity: 1; white-space: pre;">Deceased</text><g class="layers"><g class="legendfill"><path class="js-fill" d="M5,-2h30v6h-30z" style="stroke-width: 0; fill: rgb(139, 0, 0); fill-opacity: 1;"/></g><g class="legendlines"><path class="js-line" d="M5,-2h30" style="fill: none; stroke: rgb(139, 0, 0); stroke-opacity: 1; stroke-width: 2px;"/></g><g class="legendsymbols"><g class="legendpoints"/></g></g><rect class="legendtoggle" x="0" y="-9.5" width="102.546875" height="19" style="fill: rgb(0, 0, 0); fill-opacity: 0;"/></g></g></g><rect class="scrollbar" rx="20" ry="3" width="0" height="0" style="fill: rgb(128, 139, 164); fill-opacity: 1;" x="0" y="0"/></g><g class="g-gtitle"><text class="gtitle" x="350" y="12.5" text-anchor="middle" dy="0em" style="font-family: serif; font-size: 18px; fill: rgb(68, 68, 68); opacity: 1; font-weight: normal; white-space: pre;">Yadgiri</text></g><g class="g-xtitle" transform="translate(0,19.2626953125)"><text class="xtitle" x="316" y="472" text-anchor="middle" style="font-family: 'Open Sans', verdana, arial, sans-serif; font-size: 14px; fill: rgb(68, 68, 68); opacity: 1; font-weight: normal; white-space: pre;">Date</text></g><g class="g-ytitle" transform="translate(2,0)"><text class="ytitle" transform="rotate(-90,14,222.5)" x="14" y="222.5" text-anchor="middle" style="font-family: serif; font-size: 18px; fill: rgb(0, 0, 0); opacity: 1; font-weight: normal; white-space: pre;">Number of Cases</text></g></g></svg>