<svg class="main-svg" xmlns="http://www.w3.org/2000/svg" xmlns:xlink="http://www.w3.org/1999/xlink" width="700" height="500" style="" viewBox="0 0 700 500"><rect x="0" y="0" width="700" height="500" style="fill: rgb(255, 255, 255); fill-opacity: 1;"/><defs id="defs-66aa6b"><g class="clips"><clipPath id="clip66aa6bxyplot" class="plotclip"><rect width="512" height="395"/></clipPath><clipPath class="axesclip" id="clip66aa6bx"><rect x="60" y="0" width="512" height="500"/></clipPath><clipPath class="axesclip" id="clip66aa6by"><rect x="0" y="25" width="700" height="395"/></clipPath><clipPath class="axesclip" id="clip66aa6bxy"><rect x="60" y="25" width="512" height="395"/></clipPath></g><g class="gradients"/><g class="patterns"/></defs><g class="bglayer"/><g class="layer-below"><g class="imagelayer"/><g class="shapelayer"/></g><g class="cartesianlayer"><g class="subplot xy"><g class="layer-subplot"><g class="shapelayer"/><g class="imagelayer"/></g><g class="gridlayer"><g class="x"><path class="xgrid crisp" transform="translate(76.03999999999999,0)" d="M0,25v395" style="stroke: rgb(238, 238, 238); stroke-opacity: 1; stroke-width: 1px;"/><path class="xgrid crisp" transform="translate(92.08,0)" d="M0,25v395" style="stroke: rgb(238, 238, 238); stroke-opacity: 1; stroke-width: 1px;"/><path class="xgrid crisp" transform="translate(108.13,0)" d="M0,25v395" style="stroke: rgb(238, 238, 238); stroke-opacity: 1; stroke-width: 1px;"/><path class="xgrid crisp" transform="translate(124.17,0)" d="M0,25v395" style="stroke: rgb(238, 238, 238); stroke-opacity: 1; stroke-width: 1px;"/><path class="xgrid crisp" transform="translate(140.20999999999998,0)" d="M0,25v395" style="stroke: rgb(238, 238, 238); stroke-opacity: 1; stroke-width: 1px;"/><path class="xgrid crisp" transform="translate(156.25,0)" d="M0,25v395" style="stroke: rgb(238, 238, 238); stroke-opacity: 1; stroke-width: 1px;"/><path class="xgrid crisp" transform="translate(172.29000000000002,0)" d="M0,25v395" style="stroke: rgb(238, 238, 238); stroke-opacity: 1; stroke-width: 1px;"/><path class="xgrid crisp" transform="translate(188.33,0)" d="M0,25v395" style="stroke: rgb(238, 238, 238); stroke-opacity: 1; stroke-width: 1px;"/><path class="xgrid crisp" transform="translate(204.38,0)" d="M0,25v395" style="stroke: rgb(238, 238, 238); stroke-opacity: 1; stroke-width: 1px;"/><path class="xgrid crisp" transform="translate(220.42,0)" d="M0,25v395" style="stroke: rgb(238, 238, 238); stroke-opacity: 1; stroke-width: 1px;"/><path class="xgrid crisp" transform="translate(236.46,0)" d="M0,25v395" style="stroke: rgb(238, 238, 238); stroke-opacity: 1; stroke-width: 1px;"/><path class="xgrid crisp" transform="translate(252.5,0)" d="M0,25v395" style="stroke: rgb(238, 238, 238); stroke-opacity: 1; stroke-width: 1px;"/><path class="xgrid crisp" transform="translate(268.53999999999996,0)" d="M0,25v395" style="stroke: rgb(238, 238, 238); stroke-opacity: 1; stroke-width: 1px;"/><path class="xgrid crisp" transform="translate(284.58000000000004,0)" d="M0,25v395" style="stroke: rgb(238, 238, 238); stroke-opacity: 1; stroke-width: 1px;"/><path class="xgrid crisp" transform="translate(300.63,0)" d="M0,25v395" style="stroke: rgb(238, 238, 238); stroke-opacity: 1; stroke-width: 1px;"/><path class="xgrid crisp" transform="translate(316.67,0)" d="M0,25v395" style="stroke: rgb(238, 238, 238); stroke-opacity: 1; stroke-width: 1px;"/><path class="xgrid crisp" transform="translate(332.71,0)" d="M0,25v395" style="stroke: rgb(238, 238, 238); stroke-opacity: 1; stroke-width: 1px;"/><path class="xgrid crisp" transform="translate(348.75,0)" d="M0,25v395" style="stroke: rgb(238, 238, 238); stroke-opacity: 1; stroke-width: 1px;"/><path class="xgrid crisp" transform="translate(364.79,0)" d="M0,25v395" style="stroke: rgb(238, 238, 238); stroke-opacity: 1; stroke-width: 1px;"/><path class="xgrid crisp" transform="translate(380.84,0)" d="M0,25v395" style="stroke: rgb(238, 238, 238); stroke-opacity: 1; stroke-width: 1px;"/><path class="xgrid crisp" transform="translate(396.88,0)" d="M0,25v395" style="stroke: rgb(238, 238, 238); stroke-opacity: 1; stroke-width: 1px;"/><path class="xgrid crisp" transform="translate(412.92,0)" d="M0,25v395" style="stroke: rgb(238, 238, 238); stroke-opacity: 1; stroke-width: 1px;"/><path class="xgrid crisp" transform="translate(428.96,0)" d="M0,25v395" style="stroke: rgb(238, 238, 238); stroke-opacity: 1; stroke-width: 1px;"/><path class="xgrid crisp" transform="translate(445,0)" d="M0,25v395" style="stroke: rgb(238, 238, 238); stroke-opacity: 1; stroke-width: 1px;"/><path class="xgrid crisp" transform="translate(461.04,0)" d="M0,25v395" style="stroke: rgb(238, 238, 238); stroke-opacity: 1; stroke-width: 1px;"/><path class="xgrid crisp" transform="translate(477.09,0)" d="M0,25v395" style="stroke: rgb(238, 238, 238); stroke-opacity: 1; stroke-width: 1px;"/><path class="xgrid crisp" transform="translate(493.13,0)" d="M0,25v395" style="stroke: rgb(238, 238, 238); stroke-opacity: 1; stroke-width: 1px;"/><path class="xgrid crisp" transform="translate(509.17,0)" d="M0,25v395" style="stroke: rgb(238, 238, 238); stroke-opacity: 1; stroke-width: 1px;"/><path class="xgrid crisp" transform="translate(525.21,0)" d="M0,25v395" style="stroke: rgb(238, 238, 238); stroke-opacity: 1; stroke-width: 1px;"/><path class="xgrid crisp" transform="translate(541.25,0)" d="M0,25v395" style="stroke: rgb(238, 238, 238); stroke-opacity: 1; stroke-width: 1px;"/><path class="xgrid crisp" transform="translate(557.3,0)" d="M0,25v395" style="stroke: rgb(238, 238, 238); stroke-opacity: 1; stroke-width: 1px;"/></g><g class="y"><path class="ygrid crisp" transform="translate(0,327.27)" d="M60,0h512" style="stroke: rgb(238, 238, 238); stroke-opacity: 1; stroke-width: 1px;"/><path class="ygrid crisp" transform="translate(0,234.54)" d="M60,0h512" style="stroke: rgb(238, 238, 238); stroke-opacity: 1; stroke-width: 1px;"/><path class="ygrid crisp" transform="translate(0,141.82)" d="M60,0h512" style="stroke: rgb(238, 238, 238); stroke-opacity: 1; stroke-width: 1px;"/><path class="ygrid crisp" transform="translate(0,49.09)" d="M60,0h512" style="stroke: rgb(238, 238, 238); stroke-opacity: 1; stroke-width: 1px;"/></g></g><g class="zerolinelayer"><path class="yzl zl crisp" transform="translate(0,420)" d="M60,0h512" style="stroke: rgb(68, 68, 68); stroke-opacity: 1; stroke-width: 1px;"/></g><path class="xlines-below"/><path class="ylines-below"/><g class="overlines-below"/><g class="xaxislayer-below"/><g class="yaxislayer-below"/><g class="overaxes-below"/><g class="plot" transform="translate(60,25)" clip-path="url(#clip66aa6bxyplot)"><g class="scatterlayer mlayer"><g class="trace scatter trace23d411" style="stroke-miterlimit: 2;"><g class="fills"><g><path class="js-fill" d="M512,395L0,395L0,395L220.57,394.28L221.91,394.2L270.04,393.11L271.37,393.11L336.88,392.37L338.21,392.33L512,391.87" style="fill: rgb(139, 0, 0); fill-opacity: 1; stroke-width: 0;"/></g><g><path class="js-fill" d="M0,395L135.02,394.67L136.36,394.07L160.42,394.02L161.75,390.29L173.79,390.23L175.12,386.6L176.46,384.95L177.8,384.95L180.47,381.76L181.81,381.02L185.82,379.79L187.15,377.9L189.83,374.62L191.16,374.34L192.5,360.71L193.84,357.56L195.17,355.96L196.51,355.59L197.85,343.65L199.19,340.68L200.52,339.49L201.86,335.65L207.21,331.91L208.54,330.07L212.55,327.42L213.89,320.06L217.9,319.26L219.24,316.66L224.58,308.52L225.92,309.56L227.26,308.99L228.6,306.83L233.94,301.55L235.28,301.09L239.29,293.44L240.63,290.89L244.64,286.12L245.97,282.37L247.31,278.16L248.65,277.18L252.66,271.64L253.99,267.78L255.33,262.14L256.67,249.92L260.68,240.2L262.02,235.4L268.7,218.5L270.04,215.07L274.05,199.38L275.38,196.8L278.06,188.87L279.39,187.07L282.07,183.95L283.4,180.45L286.08,176.81L287.42,175.03L288.75,173.9L290.09,170.91L295.44,160.12L296.77,156.65L299.45,154.3L300.78,152.85L302.12,152.8L303.46,150.85L304.79,149.09L306.13,148.62L310.14,140.02L311.48,130.23L312.81,121.71L314.15,103.48L315.49,91.3L316.83,90.15L319.5,85.73L320.84,84.88L335.54,76.93L336.88,75.78L351.58,69.66L352.92,69.38L390.35,57.81L391.69,57.25L409.07,52.87L410.4,52.58L429.12,49.31L430.45,49.16L485.26,44.88L486.6,44.62L498.63,42.73L499.97,42.19L505.32,40.47L506.65,39.67L512,34.88L512,391.87L338.21,392.33L336.88,392.37L271.37,393.11L270.04,393.11L221.91,394.2L220.57,394.28L0,395Z" style="fill: rgb(0, 255, 0); fill-opacity: 1; stroke-width: 0;"/></g></g><g class="errorbars"/><g class="lines"><path class="js-line" d="M0,395L220.57,394.28L221.91,394.2L270.04,393.11L271.37,393.11L336.88,392.37L338.21,392.33L512,391.87" style="vector-effect: non-scaling-stroke; fill: none; stroke: rgb(139, 0, 0); stroke-opacity: 1; stroke-width: 2px; opacity: 1;"/></g><g class="points"/><g class="text"/></g><g class="trace scatter tracec8dc68" style="stroke-miterlimit: 2;"><g class="fills"><g><path class="js-fill" d="M0,395L117.64,394.28L118.98,394.2L132.34,393L133.68,392.61L139.03,390.96L140.37,390.96L141.7,389.7L143.04,389.7L145.71,388.71L147.05,388.69L152.4,387.6L153.73,387.41L156.41,386.23L157.74,384.48L159.08,383.19L160.42,379.33L163.09,374.99L164.43,372L165.77,371.52L167.1,368.67L169.78,362.16L171.11,360.17L172.45,359.26L173.79,355.11L176.46,351.44L177.8,350.73L179.13,350.69L180.47,349.17L181.81,347.13L183.14,346.5L187.15,341.31L188.49,340.38L189.83,339.86L191.16,336.49L193.84,334.47L195.17,331.65L203.2,323.14L204.53,321.91L208.54,319.45L209.88,316.92L211.22,315.83L212.55,311.86L213.89,308.49L215.23,307.47L216.56,272.93L217.9,303.42L224.58,289.94L225.92,288.51L231.27,280.98L232.61,277.07L237.95,262.12L239.29,260.9L240.63,258.82L241.96,255.32L244.64,249.88L245.97,248.4L248.65,242.52L249.98,236.81L252.66,228.39L253.99,226.35L256.67,217.2L258.01,214.07L262.02,198.21L263.35,195.6L266.03,188.16L267.36,181.34L271.37,169.82L272.71,167.72L274.05,163.87L275.38,157.49L278.06,142.67L279.39,138.59L287.42,109.32L288.75,107.43L290.09,103.09L291.43,101.48L296.77,95.79L298.11,94.97L300.78,92.82L302.12,92.17L306.13,88.2L307.47,86.9L308.8,86.55L310.14,84.83L316.83,80.08L318.16,79.82L327.52,74.64L328.86,74.01L331.53,71.42L332.87,70.79L346.23,65.33L347.57,65.13L351.58,63.74L352.92,63.09L370.3,58.14L371.63,57.82L389.01,54.13L390.35,53.65L409.07,50.33L410.4,50.13L442.49,46.81L443.82,46.77L471.9,44.73L473.23,44.34L478.58,43.54L479.92,42.84L491.95,38.24L493.28,37.15L501.31,30.64L502.64,29.36L503.98,28.36L505.32,25.48L506.65,24.85L507.99,23.37L512,19.75L512,34.88L506.65,39.67L505.32,40.47L499.97,42.19L498.63,42.73L486.6,44.62L485.26,44.88L430.45,49.16L429.12,49.31L410.4,52.58L409.07,52.87L391.69,57.25L390.35,57.81L352.92,69.38L351.58,69.66L336.88,75.78L335.54,76.93L320.84,84.88L319.5,85.73L316.83,90.15L315.49,91.3L314.15,103.48L312.81,121.71L311.48,130.23L310.14,140.02L306.13,148.62L304.79,149.09L303.46,150.85L302.12,152.8L300.78,152.85L299.45,154.3L296.77,156.65L295.44,160.12L290.09,170.91L288.75,173.9L287.42,175.03L286.08,176.81L283.4,180.45L282.07,183.95L279.39,187.07L278.06,188.87L275.38,196.8L274.05,199.38L270.04,215.07L268.7,218.5L262.02,235.4L260.68,240.2L256.67,249.92L255.33,262.14L253.99,267.78L252.66,271.64L248.65,277.18L247.31,278.16L245.97,282.37L244.64,286.12L240.63,290.89L239.29,293.44L235.28,301.09L233.94,301.55L228.6,306.83L227.26,308.99L225.92,309.56L224.58,308.52L219.24,316.66L217.9,319.26L213.89,320.06L212.55,327.42L208.54,330.07L207.21,331.91L201.86,335.65L200.52,339.49L199.19,340.68L197.85,343.65L196.51,355.59L195.17,355.96L193.84,357.56L192.5,360.71L191.16,374.34L189.83,374.62L187.15,377.9L185.82,379.79L181.81,381.02L180.47,381.76L177.8,384.95L176.46,384.95L175.12,386.6L173.79,390.23L161.75,390.29L160.42,394.02L136.36,394.07L135.02,394.67L0,395Z" style="fill: rgb(255, 165, 0); fill-opacity: 1; stroke-width: 0;"/></g></g><g class="errorbars"/><g class="lines"><path class="js-line" d="M0,395L135.02,394.67L136.36,394.07L160.42,394.02L161.75,390.29L173.79,390.23L175.12,386.6L176.46,384.95L177.8,384.95L180.47,381.76L181.81,381.02L185.82,379.79L187.15,377.9L189.83,374.62L191.16,374.34L192.5,360.71L193.84,357.56L195.17,355.96L196.51,355.59L197.85,343.65L199.19,340.68L200.52,339.49L201.86,335.65L207.21,331.91L208.54,330.07L212.55,327.42L213.89,320.06L217.9,319.26L219.24,316.66L224.58,308.52L225.92,309.56L227.26,308.99L228.6,306.83L233.94,301.55L235.28,301.09L239.29,293.44L240.63,290.89L244.64,286.12L245.97,282.37L247.31,278.16L248.65,277.18L252.66,271.64L253.99,267.78L255.33,262.14L256.67,249.92L260.68,240.2L262.02,235.4L268.7,218.5L270.04,215.07L274.05,199.38L275.38,196.8L278.06,188.87L279.39,187.07L282.07,183.95L283.4,180.45L286.08,176.81L287.42,175.03L288.75,173.9L290.09,170.91L295.44,160.12L296.77,156.65L299.45,154.3L300.78,152.85L302.12,152.8L303.46,150.85L304.79,149.09L306.13,148.62L310.14,140.02L311.48,130.23L312.81,121.71L314.15,103.48L315.49,91.3L316.83,90.15L319.5,85.73L320.84,84.88L335.54,76.93L336.88,75.78L351.58,69.66L352.92,69.38L390.35,57.81L391.69,57.25L409.07,52.87L410.4,52.58L429.12,49.31L430.45,49.16L485.26,44.88L486.6,44.62L498.63,42.73L499.97,42.19L505.32,40.47L506.65,39.67L512,34.88" style="vector-effect: non-scaling-stroke; fill: none; stroke: rgb(0, 255, 0); stroke-opacity: 1; stroke-width: 2px; opacity: 1;"/></g><g class="points"/><g class="text"/></g><g class="trace scatter trace7627d1" style="stroke-miterlimit: 2;"><g class="fills"/><g class="errorbars"/><g class="lines"><path class="js-line" d="M0,395L117.64,394.28L118.98,394.2L132.34,393L133.68,392.61L139.03,390.96L140.37,390.96L141.7,389.7L143.04,389.7L145.71,388.71L147.05,388.69L152.4,387.6L153.73,387.41L156.41,386.23L157.74,384.48L159.08,383.19L160.42,379.33L163.09,374.99L164.43,372L165.77,371.52L167.1,368.67L169.78,362.16L171.11,360.17L172.45,359.26L173.79,355.11L176.46,351.44L177.8,350.73L179.13,350.69L180.47,349.17L181.81,347.13L183.14,346.5L187.15,341.31L188.49,340.38L189.83,339.86L191.16,336.49L193.84,334.47L195.17,331.65L203.2,323.14L204.53,321.91L208.54,319.45L209.88,316.92L211.22,315.83L212.55,311.86L213.89,308.49L215.23,307.47L216.56,272.93L217.9,303.42L224.58,289.94L225.92,288.51L231.27,280.98L232.61,277.07L237.95,262.12L239.29,260.9L240.63,258.82L241.96,255.32L244.64,249.88L245.97,248.4L248.65,242.52L249.98,236.81L252.66,228.39L253.99,226.35L256.67,217.2L258.01,214.07L262.02,198.21L263.35,195.6L266.03,188.16L267.36,181.34L271.37,169.82L272.71,167.72L274.05,163.87L275.38,157.49L278.06,142.67L279.39,138.59L287.42,109.32L288.75,107.43L290.09,103.09L291.43,101.48L296.77,95.79L298.11,94.97L300.78,92.82L302.12,92.17L306.13,88.2L307.47,86.9L308.8,86.55L310.14,84.83L316.83,80.08L318.16,79.82L327.52,74.64L328.86,74.01L331.53,71.42L332.87,70.79L346.23,65.33L347.57,65.13L351.58,63.74L352.92,63.09L370.3,58.14L371.63,57.82L389.01,54.13L390.35,53.65L409.07,50.33L410.4,50.13L442.49,46.81L443.82,46.77L471.9,44.73L473.23,44.34L478.58,43.54L479.92,42.84L491.95,38.24L493.28,37.15L501.31,30.64L502.64,29.36L503.98,28.36L505.32,25.48L506.65,24.85L507.99,23.37L512,19.75" style="vector-effect: non-scaling-stroke; fill: none; stroke: rgb(255, 165, 0); stroke-opacity: 1; stroke-width: 2px; opacity: 1;"/></g><g class="points"/><g class="text"/></g></g></g><g class="overplot"/><path class="xlines-above crisp" d="M0,0" style="fill: none;"/><path class="ylines-above crisp" d="M0,0" style="fill: none;"/><g class="overlines-above"/><g class="xaxislayer-above"><g class="xtick"><text text-anchor="end" x="0" y="434" transform="translate(60,0) rotate(-45,0,427.5)" style="font-family: serif; font-size: 13px; fill: rgb(68, 68, 68); fill-opacity: 1; white-space: pre; opacity: 1;">Mar-22-20</text></g><g class="xtick"><text text-anchor="end" x="0" y="434" transform="translate(76.03999999999999,0) rotate(-45,0,427.5)" style="font-family: serif; font-size: 13px; fill: rgb(68, 68, 68); fill-opacity: 1; white-space: pre; opacity: 1;">Apr-03-20</text></g><g class="xtick"><text text-anchor="end" x="0" y="434" transform="translate(92.08,0) rotate(-45,0,427.5)" style="font-family: serif; font-size: 13px; fill: rgb(68, 68, 68); fill-opacity: 1; white-space: pre; opacity: 1;">Apr-15-20</text></g><g class="xtick"><text text-anchor="end" x="0" y="434" transform="translate(108.13,0) rotate(-45,0,427.5)" style="font-family: serif; font-size: 13px; fill: rgb(68, 68, 68); fill-opacity: 1; white-space: pre; opacity: 1;">Apr-27-20</text></g><g class="xtick"><text text-anchor="end" x="0" y="434" transform="translate(124.17,0) rotate(-45,0,427.5)" style="font-family: serif; font-size: 13px; fill: rgb(68, 68, 68); fill-opacity: 1; white-space: pre; opacity: 1;">May-09-20</text></g><g class="xtick"><text text-anchor="end" x="0" y="434" transform="translate(140.20999999999998,0) rotate(-45,0,427.5)" style="font-family: serif; font-size: 13px; fill: rgb(68, 68, 68); fill-opacity: 1; white-space: pre; opacity: 1;">May-21-20</text></g><g class="xtick"><text text-anchor="end" x="0" y="434" transform="translate(156.25,0) rotate(-45,0,427.5)" style="font-family: serif; font-size: 13px; fill: rgb(68, 68, 68); fill-opacity: 1; white-space: pre; opacity: 1;">Jun-02-20</text></g><g class="xtick"><text text-anchor="end" x="0" y="434" transform="translate(172.29000000000002,0) rotate(-45,0,427.5)" style="font-family: serif; font-size: 13px; fill: rgb(68, 68, 68); fill-opacity: 1; white-space: pre; opacity: 1;">Jun-14-20</text></g><g class="xtick"><text text-anchor="end" x="0" y="434" transform="translate(188.33,0) rotate(-45,0,427.5)" style="font-family: serif; font-size: 13px; fill: rgb(68, 68, 68); fill-opacity: 1; white-space: pre; opacity: 1;">Jun-26-20</text></g><g class="xtick"><text text-anchor="end" x="0" y="434" transform="translate(204.38,0) rotate(-45,0,427.5)" style="font-family: serif; font-size: 13px; fill: rgb(68, 68, 68); fill-opacity: 1; white-space: pre; opacity: 1;">Jul-08-20</text></g><g class="xtick"><text text-anchor="end" x="0" y="434" transform="translate(220.42,0) rotate(-45,0,427.5)" style="font-family: serif; font-size: 13px; fill: rgb(68, 68, 68); fill-opacity: 1; white-space: pre; opacity: 1;">Jul-20-20</text></g><g class="xtick"><text text-anchor="end" x="0" y="434" transform="translate(236.46,0) rotate(-45,0,427.5)" style="font-family: serif; font-size: 13px; fill: rgb(68, 68, 68); fill-opacity: 1; white-space: pre; opacity: 1;">Aug-01-20</text></g><g class="xtick"><text text-anchor="end" x="0" y="434" transform="translate(252.5,0) rotate(-45,0,427.5)" style="font-family: serif; font-size: 13px; fill: rgb(68, 68, 68); fill-opacity: 1; white-space: pre; opacity: 1;">Aug-13-20</text></g><g class="xtick"><text text-anchor="end" x="0" y="434" transform="translate(268.53999999999996,0) rotate(-45,0,427.5)" style="font-family: serif; font-size: 13px; fill: rgb(68, 68, 68); fill-opacity: 1; white-space: pre; opacity: 1;">Aug-25-20</text></g><g class="xtick"><text text-anchor="end" x="0" y="434" transform="translate(284.58000000000004,0) rotate(-45,0,427.5)" style="font-family: serif; font-size: 13px; fill: rgb(68, 68, 68); fill-opacity: 1; white-space: pre; opacity: 1;">Sep-06-20</text></g><g class="xtick"><text text-anchor="end" x="0" y="434" transform="translate(300.63,0) rotate(-45,0,427.5)" style="font-family: serif; font-size: 13px; fill: rgb(68, 68, 68); fill-opacity: 1; white-space: pre; opacity: 1;">Sep-18-20</text></g><g class="xtick"><text text-anchor="end" x="0" y="434" transform="translate(316.67,0) rotate(-45,0,427.5)" style="font-family: serif; font-size: 13px; fill: rgb(68, 68, 68); fill-opacity: 1; white-space: pre; opacity: 1;">Sep-30-20</text></g><g class="xtick"><text text-anchor="end" x="0" y="434" transform="translate(332.71,0) rotate(-45,0,427.5)" style="font-family: serif; font-size: 13px; fill: rgb(68, 68, 68); fill-opacity: 1; white-space: pre; opacity: 1;">Oct-12-20</text></g><g class="xtick"><text text-anchor="end" x="0" y="434" transform="translate(348.75,0) rotate(-45,0,427.5)" style="font-family: serif; font-size: 13px; fill: rgb(68, 68, 68); fill-opacity: 1; white-space: pre; opacity: 1;">Oct-24-20</text></g><g class="xtick"><text text-anchor="end" x="0" y="434" transform="translate(364.79,0) rotate(-45,0,427.5)" style="font-family: serif; font-size: 13px; fill: rgb(68, 68, 68); fill-opacity: 1; white-space: pre; opacity: 1;">Nov-05-20</text></g><g class="xtick"><text text-anchor="end" x="0" y="434" transform="translate(380.84,0) rotate(-45,0,427.5)" style="font-family: serif; font-size: 13px; fill: rgb(68, 68, 68); fill-opacity: 1; white-space: pre; opacity: 1;">Nov-17-20</text></g><g class="xtick"><text text-anchor="end" x="0" y="434" transform="translate(396.88,0) rotate(-45,0,427.5)" style="font-family: serif; font-size: 13px; fill: rgb(68, 68, 68); fill-opacity: 1; white-space: pre; opacity: 1;">Nov-29-20</text></g><g class="xtick"><text text-anchor="end" x="0" y="434" transform="translate(412.92,0) rotate(-45,0,427.5)" style="font-family: serif; font-size: 13px; fill: rgb(68, 68, 68); fill-opacity: 1; white-space: pre; opacity: 1;">Dec-11-20</text></g><g class="xtick"><text text-anchor="end" x="0" y="434" transform="translate(428.96,0) rotate(-45,0,427.5)" style="font-family: serif; font-size: 13px; fill: rgb(68, 68, 68); fill-opacity: 1; white-space: pre; opacity: 1;">Dec-23-20</text></g><g class="xtick"><text text-anchor="end" x="0" y="434" transform="translate(445,0) rotate(-45,0,427.5)" style="font-family: serif; font-size: 13px; fill: rgb(68, 68, 68); fill-opacity: 1; white-space: pre; opacity: 1;">Jan-04-21</text></g><g class="xtick"><text text-anchor="end" x="0" y="434" transform="translate(461.04,0) rotate(-45,0,427.5)" style="font-family: serif; font-size: 13px; fill: rgb(68, 68, 68); fill-opacity: 1; white-space: pre; opacity: 1;">Jan-16-21</text></g><g class="xtick"><text text-anchor="end" x="0" y="434" transform="translate(477.09,0) rotate(-45,0,427.5)" style="font-family: serif; font-size: 13px; fill: rgb(68, 68, 68); fill-opacity: 1; white-space: pre; opacity: 1;">Jan-28-21</text></g><g class="xtick"><text text-anchor="end" x="0" y="434" transform="translate(493.13,0) rotate(-45,0,427.5)" style="font-family: serif; font-size: 13px; fill: rgb(68, 68, 68); fill-opacity: 1; white-space: pre; opacity: 1;">Feb-09-21</text></g><g class="xtick"><text text-anchor="end" x="0" y="434" transform="translate(509.17,0) rotate(-45,0,427.5)" style="font-family: serif; font-size: 13px; fill: rgb(68, 68, 68); fill-opacity: 1; white-space: pre; opacity: 1;">Feb-21-21</text></g><g class="xtick"><text text-anchor="end" x="0" y="434" transform="translate(525.21,0) rotate(-45,0,427.5)" style="font-family: serif; font-size: 13px; fill: rgb(68, 68, 68); fill-opacity: 1; white-space: pre; opacity: 1;">Mar-05-21</text></g><g class="xtick"><text text-anchor="end" x="0" y="434" transform="translate(541.25,0) rotate(-45,0,427.5)" style="font-family: serif; font-size: 13px; fill: rgb(68, 68, 68); fill-opacity: 1; white-space: pre; opacity: 1;">Mar-17-21</text></g><g class="xtick"><text text-anchor="end" x="0" y="434" transform="translate(557.3,0) rotate(-45,0,427.5)" style="font-family: serif; font-size: 13px; fill: rgb(68, 68, 68); fill-opacity: 1; white-space: pre; opacity: 1;">Mar-29-21</text></g></g><g class="yaxislayer-above"><g class="ytick"><text text-anchor="end" x="59" y="4.199999999999999" transform="translate(0,420)" style="font-family: 'Open Sans', verdana, arial, sans-serif; font-size: 12px; fill: rgb(68, 68, 68); fill-opacity: 1; white-space: pre; opacity: 1;">0</text></g><g class="ytick"><text text-anchor="end" x="59" y="4.199999999999999" style="font-family: 'Open Sans', verdana, arial, sans-serif; font-size: 12px; fill: rgb(68, 68, 68); fill-opacity: 1; white-space: pre; opacity: 1;" transform="translate(0,327.27)">5k</text></g><g class="ytick"><text text-anchor="end" x="59" y="4.199999999999999" style="font-family: 'Open Sans', verdana, arial, sans-serif; font-size: 12px; fill: rgb(68, 68, 68); fill-opacity: 1; white-space: pre; opacity: 1;" transform="translate(0,234.54)">10k</text></g><g class="ytick"><text text-anchor="end" x="59" y="4.199999999999999" style="font-family: 'Open Sans', verdana, arial, sans-serif; font-size: 12px; fill: rgb(68, 68, 68); fill-opacity: 1; white-space: pre; opacity: 1;" transform="translate(0,141.82)">15k</text></g><g class="ytick"><text text-anchor="end" x="59" y="4.199999999999999" style="font-family: 'Open Sans', verdana, arial, sans-serif; font-size: 12px; fill: rgb(68, 68, 68); fill-opacity: 1; white-space: pre; opacity: 1;" transform="translate(0,49.09)">20k</text></g></g><g class="overaxes-above"/></g></g><g class="polarlayer"/><g class="smithlayer"/><g class="ternarylayer"/><g class="geolayer"/><g class="funnelarealayer"/><g class="pielayer"/><g class="iciclelayer"/><g class="treemaplayer"/><g class="sunburstlayer"/><g class="glimages"/><defs id="topdefs-66aa6b"><g class="clips"/><clipPath id="legend66aa6b"><rect width="108" height="67" x="0" y="0"/></clipPath></defs><g class="layer-above"><g class="imagelayer"/><g class="shapelayer"/></g><g class="infolayer"><g class="legend" pointer-events="all" transform="translate(582.24,25)"><rect class="bg" shape-rendering="crispEdges" style="stroke: rgb(68, 68, 68); stroke-opacity: 1; fill: rgb(255, 255, 255); fill-opacity: 1; stroke-width: 0px;" width="108" height="67" x="0" y="0"/><g class="scrollbox" transform="" clip-path="url(#legend66aa6b)"><g class="groups"><g class="traces" transform="translate(0,14.5)" style="opacity: 1;"><text class="legendtext" text-anchor="start" x="40" y="4.680000000000001" style="font-family: 'Open Sans', verdana, arial, sans-serif; font-size: 12px; fill: rgb(68, 68, 68); fill-opacity: 1; white-space: pre;">Active</text><g class="layers"><g class="legendfill"><path class="js-fill" d="M5,-2h30v6h-30z" style="stroke-width: 0; fill: rgb(255, 165, 0); fill-opacity: 1;"/></g><g class="legendlines"><path class="js-line" d="M5,-2h30" style="fill: none; stroke: rgb(255, 165, 0); stroke-opacity: 1; stroke-width: 2px;"/></g><g class="legendsymbols"><g class="legendpoints"/></g></g><rect class="legendtoggle" x="0" y="-9.5" width="102.546875" height="19" style="fill: rgb(0, 0, 0); fill-opacity: 0;"/></g><g class="traces" transform="translate(0,33.5)" style="opacity: 1;"><text class="legendtext" text-anchor="start" x="40" y="4.680000000000001" style="font-family: 'Open Sans', verdana, arial, sans-serif; font-size: 12px; fill: rgb(68, 68, 68); fill-opacity: 1; white-space: pre;">Recovered</text><g class="layers"><g class="legendfill"><path class="js-fill" d="M5,-2h30v6h-30z" style="stroke-width: 0; fill: rgb(0, 255, 0); fill-opacity: 1;"/></g><g class="legendlines"><path class="js-line" d="M5,-2h30" style="fill: none; stroke: rgb(0, 255, 0); stroke-opacity: 1; stroke-width: 2px;"/></g><g class="legendsymbols"><g class="legendpoints"/></g></g><rect class="legendtoggle" x="0" y="-9.5" width="102.546875" height="19" style="fill: rgb(0, 0, 0); fill-opacity: 0;"/></g><g class="traces" transform="translate(0,52.5)" style="opacity: 1;"><text class="legendtext" text-anchor="start" x="40" y="4.680000000000001" style="font-family: 'Open Sans', verdana, arial, sans-serif; font-size: 12px; fill: rgb(68, 68, 68); fill-opacity: 1; white-space: pre;">Deceased</text><g class="layers"><g class="legendfill"><path class="js-fill" d="M5,-2h30v6h-30z" style="stroke-width: 0; fill: rgb(139, 0, 0); fill-opacity: 1;"/></g><g class="legendlines"><path class="js-line" d="M5,-2h30" style="fill: none; stroke: rgb(139, 0, 0); stroke-opacity: 1; stroke-width: 2px;"/></g><g class="legendsymbols"><g class="legendpoints"/></g></g><rect class="legendtoggle" x="0" y="-9.5" width="102.546875" height="19" style="fill: rgb(0, 0, 0); fill-opacity: 0;"/></g></g></g><rect class="scrollbar" rx="20" ry="3" width="0" height="0" style="fill: rgb(128, 139, 164); fill-opacity: 1;" x="0" y="0"/></g><g class="g-gtitle"><text class="gtitle" x="350" y="12.5" text-anchor="middle" dy="0em" style="font-family: serif; font-size: 18px; fill: rgb(68, 68, 68); opacity: 1; font-weight: normal; white-space: pre;">Bengaluru Rural</text></g><g class="g-xtitle" transform="translate(0,19.2626953125)"><text class="xtitle" x="316" y="472" text-anchor="middle" style="font-family: 'Open Sans', verdana, arial, sans-serif; font-size: 14px; fill: rgb(68, 68, 68); opacity: 1; font-weight: normal; white-space: pre;">Date</text></g><g class="g-ytitle" transform="translate(2,0)"><text class="ytitle" transform="rotate(-90,14,222.5)" x="14" y="222.5" text-anchor="middle" style="font-family: serif; font-size: 18px; fill: rgb(0, 0, 0); opacity: 1; font-weight: normal; white-space: pre;">Number of Cases</text></g></g></svg>