<svg class="main-svg" xmlns="http://www.w3.org/2000/svg" xmlns:xlink="http://www.w3.org/1999/xlink" width="700" height="500" style="" viewBox="0 0 700 500"><rect x="0" y="0" width="700" height="500" style="fill: rgb(255, 255, 255); fill-opacity: 1;"/><defs id="defs-b512c8"><g class="clips"><clipPath id="clipb512c8xyplot" class="plotclip"><rect width="512" height="395"/></clipPath><clipPath class="axesclip" id="clipb512c8x"><rect x="60" y="0" width="512" height="500"/></clipPath><clipPath class="axesclip" id="clipb512c8y"><rect x="0" y="25" width="700" height="395"/></clipPath><clipPath class="axesclip" id="clipb512c8xy"><rect x="60" y="25" width="512" height="395"/></clipPath></g><g class="gradients"/><g class="patterns"/></defs><g class="bglayer"/><g class="layer-below"><g class="imagelayer"/><g class="shapelayer"/></g><g class="cartesianlayer"><g class="subplot xy"><g class="layer-subplot"><g class="shapelayer"/><g class="imagelayer"/></g><g class="gridlayer"><g class="x"><path class="xgrid crisp" transform="translate(76.03999999999999,0)" d="M0,25v395" style="stroke: rgb(238, 238, 238); stroke-opacity: 1; stroke-width: 1px;"/><path class="xgrid crisp" transform="translate(92.08,0)" d="M0,25v395" style="stroke: rgb(238, 238, 238); stroke-opacity: 1; stroke-width: 1px;"/><path class="xgrid crisp" transform="translate(108.13,0)" d="M0,25v395" style="stroke: rgb(238, 238, 238); stroke-opacity: 1; stroke-width: 1px;"/><path class="xgrid crisp" transform="translate(124.17,0)" d="M0,25v395" style="stroke: rgb(238, 238, 238); stroke-opacity: 1; stroke-width: 1px;"/><path class="xgrid crisp" transform="translate(140.20999999999998,0)" d="M0,25v395" style="stroke: rgb(238, 238, 238); stroke-opacity: 1; stroke-width: 1px;"/><path class="xgrid crisp" transform="translate(156.25,0)" d="M0,25v395" style="stroke: rgb(238, 238, 238); stroke-opacity: 1; stroke-width: 1px;"/><path class="xgrid crisp" transform="translate(172.29000000000002,0)" d="M0,25v395" style="stroke: rgb(238, 238, 238); stroke-opacity: 1; stroke-width: 1px;"/><path class="xgrid crisp" transform="translate(188.33,0)" d="M0,25v395" style="stroke: rgb(238, 238, 238); stroke-opacity: 1; stroke-width: 1px;"/><path class="xgrid crisp" transform="translate(204.38,0)" d="M0,25v395" style="stroke: rgb(238, 238, 238); stroke-opacity: 1; stroke-width: 1px;"/><path class="xgrid crisp" transform="translate(220.42,0)" d="M0,25v395" style="stroke: rgb(238, 238, 238); stroke-opacity: 1; stroke-width: 1px;"/><path class="xgrid crisp" transform="translate(236.46,0)" d="M0,25v395" style="stroke: rgb(238, 238, 238); stroke-opacity: 1; stroke-width: 1px;"/><path class="xgrid crisp" transform="translate(252.5,0)" d="M0,25v395" style="stroke: rgb(238, 238, 238); stroke-opacity: 1; stroke-width: 1px;"/><path class="xgrid crisp" transform="translate(268.53999999999996,0)" d="M0,25v395" style="stroke: rgb(238, 238, 238); stroke-opacity: 1; stroke-width: 1px;"/><path class="xgrid crisp" transform="translate(284.58000000000004,0)" d="M0,25v395" style="stroke: rgb(238, 238, 238); stroke-opacity: 1; stroke-width: 1px;"/><path class="xgrid crisp" transform="translate(300.63,0)" d="M0,25v395" style="stroke: rgb(238, 238, 238); stroke-opacity: 1; stroke-width: 1px;"/><path class="xgrid crisp" transform="translate(316.67,0)" d="M0,25v395" style="stroke: rgb(238, 238, 238); stroke-opacity: 1; stroke-width: 1px;"/><path class="xgrid crisp" transform="translate(332.71,0)" d="M0,25v395" style="stroke: rgb(238, 238, 238); stroke-opacity: 1; stroke-width: 1px;"/><path class="xgrid crisp" transform="translate(348.75,0)" d="M0,25v395" style="stroke: rgb(238, 238, 238); stroke-opacity: 1; stroke-width: 1px;"/><path class="xgrid crisp" transform="translate(364.79,0)" d="M0,25v395" style="stroke: rgb(238, 238, 238); stroke-opacity: 1; stroke-width: 1px;"/><path class="xgrid crisp" transform="translate(380.84,0)" d="M0,25v395" style="stroke: rgb(238, 238, 238); stroke-opacity: 1; stroke-width: 1px;"/><path class="xgrid crisp" transform="translate(396.88,0)" d="M0,25v395" style="stroke: rgb(238, 238, 238); stroke-opacity: 1; stroke-width: 1px;"/><path class="xgrid crisp" transform="translate(412.92,0)" d="M0,25v395" style="stroke: rgb(238, 238, 238); stroke-opacity: 1; stroke-width: 1px;"/><path class="xgrid crisp" transform="translate(428.96,0)" d="M0,25v395" style="stroke: rgb(238, 238, 238); stroke-opacity: 1; stroke-width: 1px;"/><path class="xgrid crisp" transform="translate(445,0)" d="M0,25v395" style="stroke: rgb(238, 238, 238); stroke-opacity: 1; stroke-width: 1px;"/><path class="xgrid crisp" transform="translate(461.04,0)" d="M0,25v395" style="stroke: rgb(238, 238, 238); stroke-opacity: 1; stroke-width: 1px;"/><path class="xgrid crisp" transform="translate(477.09,0)" d="M0,25v395" style="stroke: rgb(238, 238, 238); stroke-opacity: 1; stroke-width: 1px;"/><path class="xgrid crisp" transform="translate(493.13,0)" d="M0,25v395" style="stroke: rgb(238, 238, 238); stroke-opacity: 1; stroke-width: 1px;"/><path class="xgrid crisp" transform="translate(509.17,0)" d="M0,25v395" style="stroke: rgb(238, 238, 238); stroke-opacity: 1; stroke-width: 1px;"/><path class="xgrid crisp" transform="translate(525.21,0)" d="M0,25v395" style="stroke: rgb(238, 238, 238); stroke-opacity: 1; stroke-width: 1px;"/><path class="xgrid crisp" transform="translate(541.25,0)" d="M0,25v395" style="stroke: rgb(238, 238, 238); stroke-opacity: 1; stroke-width: 1px;"/><path class="xgrid crisp" transform="translate(557.3,0)" d="M0,25v395" style="stroke: rgb(238, 238, 238); stroke-opacity: 1; stroke-width: 1px;"/></g><g class="y"><path class="ygrid crisp" transform="translate(0,349.7)" d="M60,0h512" style="stroke: rgb(238, 238, 238); stroke-opacity: 1; stroke-width: 1px;"/><path class="ygrid crisp" transform="translate(0,279.4)" d="M60,0h512" style="stroke: rgb(238, 238, 238); stroke-opacity: 1; stroke-width: 1px;"/><path class="ygrid crisp" transform="translate(0,209.11)" d="M60,0h512" style="stroke: rgb(238, 238, 238); stroke-opacity: 1; stroke-width: 1px;"/><path class="ygrid crisp" transform="translate(0,138.81)" d="M60,0h512" style="stroke: rgb(238, 238, 238); stroke-opacity: 1; stroke-width: 1px;"/><path class="ygrid crisp" transform="translate(0,68.50999999999999)" d="M60,0h512" style="stroke: rgb(238, 238, 238); stroke-opacity: 1; stroke-width: 1px;"/></g></g><g class="zerolinelayer"><path class="yzl zl crisp" transform="translate(0,420)" d="M60,0h512" style="stroke: rgb(68, 68, 68); stroke-opacity: 1; stroke-width: 1px;"/></g><path class="xlines-below"/><path class="ylines-below"/><g class="overlines-below"/><g class="xaxislayer-below"/><g class="yaxislayer-below"/><g class="overaxes-below"/><g class="plot" transform="translate(60,25)" clip-path="url(#clipb512c8xyplot)"><g class="scatterlayer mlayer"><g class="trace scatter trace53546c" style="stroke-miterlimit: 2;"><g class="fills"><g><path class="js-fill" d="M512,395L0,395L0,395L136.36,394.26L137.69,394.23L148.39,393.14L149.72,393.14L172.45,392.5L173.79,392.43L228.6,389.97L229.93,389.97L306.13,389.24L307.47,389.2L507.99,388.46L509.33,388.43L512,388.36" style="fill: rgb(139, 0, 0); fill-opacity: 1; stroke-width: 0;"/></g><g><path class="js-fill" d="M0,395L76.2,394.44L77.54,394.19L93.58,393.88L94.91,393.38L100.26,393.38L101.6,392.19L109.62,387.65L110.96,387.65L112.29,387.65L113.63,386.39L118.98,385.69L120.31,385.19L121.65,383.08L122.99,383.08L125.66,381.19L127,380.55L128.33,380.52L129.67,378.3L133.68,377.57L135.02,376.69L139.03,376.02L140.37,375L141.7,373.73L143.04,373.59L147.05,373.42L148.39,372.36L151.06,371.63L152.4,371.7L153.73,369.76L155.07,369.59L156.41,368.04L157.74,368.01L159.08,367.23L160.42,364.39L161.75,363.44L163.09,356.79L164.43,356.69L165.77,351.49L168.44,349.48L169.78,346.64L171.11,344.84L172.45,344.81L175.12,340.55L176.46,338.27L177.8,336.69L179.13,333.42L181.81,331.98L183.14,328.46L187.15,325.02L188.49,323.37L192.5,310.96L193.84,308.25L196.51,303.09L197.85,302.77L199.19,300.55L200.52,295.14L201.86,291.38L203.2,285.19L204.53,279.99L205.87,278.38L211.22,264.07L212.55,263.4L213.89,260.34L215.23,259.57L219.24,248.71L220.57,245.37L225.92,240.2L227.26,237.74L231.27,227.62L232.61,226.95L233.94,226.5L235.28,222.66L237.95,217.6L239.29,217.6L240.63,215.74L241.96,211.45L243.3,209.66L244.64,206L247.31,201.86L248.65,200.77L251.32,198.45L252.66,196.34L255.33,190.96L256.67,190.29L259.34,187.66L260.68,184.25L263.35,182.31L264.69,178.38L272.71,170.61L274.05,167.73L276.72,166.64L278.06,164.95L280.73,163.33L282.07,161.58L284.74,158.97L286.08,158.31L295.44,155.46L296.77,155.11L310.14,152.75L311.48,152.37L331.53,150.12L332.87,149.34L362.28,144.99L363.61,144.81L367.62,144.25L368.96,143.83L390.35,140.06L391.69,139.96L418.42,136.44L419.76,136.41L430.45,135.32L431.79,134.93L442.49,133.04L443.82,132.72L454.52,131.8L455.85,131.73L463.87,131L465.21,130.86L471.9,128.92L473.23,128.29L481.25,125.51L482.59,125.09L485.26,123.23L486.6,122.88L490.61,121.54L491.95,118.76L495.96,114.02L497.3,112.4L499.97,110.75L501.31,106.5L506.65,97.71L507.99,91.52L509.33,88.85L510.66,81.86L512,73.95L512,388.36L509.33,388.43L507.99,388.46L307.47,389.2L306.13,389.24L229.93,389.97L228.6,389.97L173.79,392.43L172.45,392.5L149.72,393.14L148.39,393.14L137.69,394.23L136.36,394.26L0,395Z" style="fill: rgb(0, 255, 0); fill-opacity: 1; stroke-width: 0;"/></g></g><g class="errorbars"/><g class="lines"><path class="js-line" d="M0,395L136.36,394.26L137.69,394.23L148.39,393.14L149.72,393.14L172.45,392.5L173.79,392.43L228.6,389.97L229.93,389.97L306.13,389.24L307.47,389.2L507.99,388.46L509.33,388.43L512,388.36" style="vector-effect: non-scaling-stroke; fill: none; stroke: rgb(139, 0, 0); stroke-opacity: 1; stroke-width: 2px; opacity: 1;"/></g><g class="points"/><g class="text"/></g><g class="trace scatter trace9de4f6" style="stroke-miterlimit: 2;"><g class="fills"><g><path class="js-fill" d="M0,395L56.15,394.47L57.48,394.23L69.51,393.56L70.85,393.31L76.2,393.03L77.54,393L84.22,392.01L85.56,392.01L92.24,390.43L93.58,389.27L98.92,388.85L100.26,387.48L102.93,387.2L104.27,385.51L109.62,384.17L110.96,382.7L113.63,381.61L114.97,381.54L118.98,380.55L120.31,377.99L127,376.13L128.33,376.09L136.36,372.26L137.69,371.27L143.04,365.12L144.38,364.1L147.05,362.91L148.39,360.69L151.06,357.71L152.4,356.23L155.07,353.14L156.41,350.71L159.08,346.6L160.42,345.69L164.43,337.36L165.77,334.3L169.78,327.94L171.11,326.57L180.47,304.95L181.81,303.12L184.48,296.72L185.82,295.07L191.16,285.86L192.5,280.84L199.19,263.26L200.52,261.75L204.53,253.31L205.87,251.98L208.54,246.92L209.88,245.44L213.89,239.04L215.23,236.48L216.56,235.42L217.9,233.21L221.91,227.8L223.25,223.61L225.92,219.57L227.26,217.74L228.6,215.67L229.93,212.23L232.61,206.53L233.94,203.65L243.3,190.33L244.64,189.73L253.99,176.41L255.33,173.95L256.67,172.96L258.01,170.71L263.35,165.62L264.69,164.56L267.36,161.61L268.7,161.19L275.38,157.6L276.72,157.25L284.74,155.11L286.08,154.9L292.76,153.74L294.1,153.46L298.11,152.65L299.45,152.47L319.5,149.94L320.84,149.34L346.23,145.3L347.57,145.23L356.93,144.04L358.27,143.65L370.3,141.12L371.63,140.94L385,139.15L386.34,139.08L425.11,134.72L426.44,134.09L438.48,132.12L439.81,132.09L446.5,131.8L447.83,131.28L459.86,129.8L461.2,129.24L467.89,126.25L469.22,126.01L471.9,125.48L473.23,124.78L478.58,122.03L479.92,120.91L487.94,110.33L489.27,107.66L495.96,94.65L497.3,85.97L499.97,76.8L501.31,69.13L505.32,53.49L506.65,44.21L512,19.75L512,73.95L510.66,81.86L509.33,88.85L507.99,91.52L506.65,97.71L501.31,106.5L499.97,110.75L497.3,112.4L495.96,114.02L491.95,118.76L490.61,121.54L486.6,122.88L485.26,123.23L482.59,125.09L481.25,125.51L473.23,128.29L471.9,128.92L465.21,130.86L463.87,131L455.85,131.73L454.52,131.8L443.82,132.72L442.49,133.04L431.79,134.93L430.45,135.32L419.76,136.41L418.42,136.44L391.69,139.96L390.35,140.06L368.96,143.83L367.62,144.25L363.61,144.81L362.28,144.99L332.87,149.34L331.53,150.12L311.48,152.37L310.14,152.75L296.77,155.11L295.44,155.46L286.08,158.31L284.74,158.97L282.07,161.58L280.73,163.33L278.06,164.95L276.72,166.64L274.05,167.73L272.71,170.61L264.69,178.38L263.35,182.31L260.68,184.25L259.34,187.66L256.67,190.29L255.33,190.96L252.66,196.34L251.32,198.45L248.65,200.77L247.31,201.86L244.64,206L243.3,209.66L241.96,211.45L240.63,215.74L239.29,217.6L237.95,217.6L235.28,222.66L233.94,226.5L232.61,226.95L231.27,227.62L227.26,237.74L225.92,240.2L220.57,245.37L219.24,248.71L215.23,259.57L213.89,260.34L212.55,263.4L211.22,264.07L205.87,278.38L204.53,279.99L203.2,285.19L201.86,291.38L200.52,295.14L199.19,300.55L197.85,302.77L196.51,303.09L193.84,308.25L192.5,310.96L188.49,323.37L187.15,325.02L183.14,328.46L181.81,331.98L179.13,333.42L177.8,336.69L176.46,338.27L175.12,340.55L172.45,344.81L171.11,344.84L169.78,346.64L168.44,349.48L165.77,351.49L164.43,356.69L163.09,356.79L161.75,363.44L160.42,364.39L159.08,367.23L157.74,368.01L156.41,368.04L155.07,369.59L153.73,369.76L152.4,371.7L151.06,371.63L148.39,372.36L147.05,373.42L143.04,373.59L141.7,373.73L140.37,375L139.03,376.02L135.02,376.69L133.68,377.57L129.67,378.3L128.33,380.52L127,380.55L125.66,381.19L122.99,383.08L121.65,383.08L120.31,385.19L118.98,385.69L113.63,386.39L112.29,387.65L110.96,387.65L109.62,387.65L101.6,392.19L100.26,393.38L94.91,393.38L93.58,393.88L77.54,394.19L76.2,394.44L0,395Z" style="fill: rgb(255, 165, 0); fill-opacity: 1; stroke-width: 0;"/></g></g><g class="errorbars"/><g class="lines"><path class="js-line" d="M0,395L76.2,394.44L77.54,394.19L93.58,393.88L94.91,393.38L100.26,393.38L101.6,392.19L109.62,387.65L110.96,387.65L112.29,387.65L113.63,386.39L118.98,385.69L120.31,385.19L121.65,383.08L122.99,383.08L125.66,381.19L127,380.55L128.33,380.52L129.67,378.3L133.68,377.57L135.02,376.69L139.03,376.02L140.37,375L141.7,373.73L143.04,373.59L147.05,373.42L148.39,372.36L151.06,371.63L152.4,371.7L153.73,369.76L155.07,369.59L156.41,368.04L157.74,368.01L159.08,367.23L160.42,364.39L161.75,363.44L163.09,356.79L164.43,356.69L165.77,351.49L168.44,349.48L169.78,346.64L171.11,344.84L172.45,344.81L175.12,340.55L176.46,338.27L177.8,336.69L179.13,333.42L181.81,331.98L183.14,328.46L187.15,325.02L188.49,323.37L192.5,310.96L193.84,308.25L196.51,303.09L197.85,302.77L199.19,300.55L200.52,295.14L201.86,291.38L203.2,285.19L204.53,279.99L205.87,278.38L211.22,264.07L212.55,263.4L213.89,260.34L215.23,259.57L219.24,248.71L220.57,245.37L225.92,240.2L227.26,237.74L231.27,227.62L232.61,226.95L233.94,226.5L235.28,222.66L237.95,217.6L239.29,217.6L240.63,215.74L241.96,211.45L243.3,209.66L244.64,206L247.31,201.86L248.65,200.77L251.32,198.45L252.66,196.34L255.33,190.96L256.67,190.29L259.34,187.66L260.68,184.25L263.35,182.31L264.69,178.38L272.71,170.61L274.05,167.73L276.72,166.64L278.06,164.95L280.73,163.33L282.07,161.58L284.74,158.97L286.08,158.31L295.44,155.46L296.77,155.11L310.14,152.75L311.48,152.37L331.53,150.12L332.87,149.34L362.28,144.99L363.61,144.81L367.62,144.25L368.96,143.83L390.35,140.06L391.69,139.96L418.42,136.44L419.76,136.41L430.45,135.32L431.79,134.93L442.49,133.04L443.82,132.72L454.52,131.8L455.85,131.73L463.87,131L465.21,130.86L471.9,128.92L473.23,128.29L481.25,125.51L482.59,125.09L485.26,123.23L486.6,122.88L490.61,121.54L491.95,118.76L495.96,114.02L497.3,112.4L499.97,110.75L501.31,106.5L506.65,97.71L507.99,91.52L509.33,88.85L510.66,81.86L512,73.95" style="vector-effect: non-scaling-stroke; fill: none; stroke: rgb(0, 255, 0); stroke-opacity: 1; stroke-width: 2px; opacity: 1;"/></g><g class="points"/><g class="text"/></g><g class="trace scatter traced44efa" style="stroke-miterlimit: 2;"><g class="fills"/><g class="errorbars"/><g class="lines"><path class="js-line" d="M0,395L56.15,394.47L57.48,394.23L69.51,393.56L70.85,393.31L76.2,393.03L77.54,393L84.22,392.01L85.56,392.01L92.24,390.43L93.58,389.27L98.92,388.85L100.26,387.48L102.93,387.2L104.27,385.51L109.62,384.17L110.96,382.7L113.63,381.61L114.97,381.54L118.98,380.55L120.31,377.99L127,376.13L128.33,376.09L136.36,372.26L137.69,371.27L143.04,365.12L144.38,364.1L147.05,362.91L148.39,360.69L151.06,357.71L152.4,356.23L155.07,353.14L156.41,350.71L159.08,346.6L160.42,345.69L164.43,337.36L165.77,334.3L169.78,327.94L171.11,326.57L180.47,304.95L181.81,303.12L184.48,296.72L185.82,295.07L191.16,285.86L192.5,280.84L199.19,263.26L200.52,261.75L204.53,253.31L205.87,251.98L208.54,246.92L209.88,245.44L213.89,239.04L215.23,236.48L216.56,235.42L217.9,233.21L221.91,227.8L223.25,223.61L225.92,219.57L227.26,217.74L228.6,215.67L229.93,212.23L232.61,206.53L233.94,203.65L243.3,190.33L244.64,189.73L253.99,176.41L255.33,173.95L256.67,172.96L258.01,170.71L263.35,165.62L264.69,164.56L267.36,161.61L268.7,161.19L275.38,157.6L276.72,157.25L284.74,155.11L286.08,154.9L292.76,153.74L294.1,153.46L298.11,152.65L299.45,152.47L319.5,149.94L320.84,149.34L346.23,145.3L347.57,145.23L356.93,144.04L358.27,143.65L370.3,141.12L371.63,140.94L385,139.15L386.34,139.08L425.11,134.72L426.44,134.09L438.48,132.12L439.81,132.09L446.5,131.8L447.83,131.28L459.86,129.8L461.2,129.24L467.89,126.25L469.22,126.01L471.9,125.48L473.23,124.78L478.58,122.03L479.92,120.91L487.94,110.33L489.27,107.66L495.96,94.65L497.3,85.97L499.97,76.8L501.31,69.13L505.32,53.49L506.65,44.21L512,19.75" style="vector-effect: non-scaling-stroke; fill: none; stroke: rgb(255, 165, 0); stroke-opacity: 1; stroke-width: 2px; opacity: 1;"/></g><g class="points"/><g class="text"/></g></g></g><g class="overplot"/><path class="xlines-above crisp" d="M0,0" style="fill: none;"/><path class="ylines-above crisp" d="M0,0" style="fill: none;"/><g class="overlines-above"/><g class="xaxislayer-above"><g class="xtick"><text text-anchor="end" x="0" y="434" transform="translate(60,0) rotate(-45,0,427.5)" style="font-family: serif; font-size: 13px; fill: rgb(68, 68, 68); fill-opacity: 1; white-space: pre; opacity: 1;">Mar-22-20</text></g><g class="xtick"><text text-anchor="end" x="0" y="434" transform="translate(76.03999999999999,0) rotate(-45,0,427.5)" style="font-family: serif; font-size: 13px; fill: rgb(68, 68, 68); fill-opacity: 1; white-space: pre; opacity: 1;">Apr-03-20</text></g><g class="xtick"><text text-anchor="end" x="0" y="434" transform="translate(92.08,0) rotate(-45,0,427.5)" style="font-family: serif; font-size: 13px; fill: rgb(68, 68, 68); fill-opacity: 1; white-space: pre; opacity: 1;">Apr-15-20</text></g><g class="xtick"><text text-anchor="end" x="0" y="434" transform="translate(108.13,0) rotate(-45,0,427.5)" style="font-family: serif; font-size: 13px; fill: rgb(68, 68, 68); fill-opacity: 1; white-space: pre; opacity: 1;">Apr-27-20</text></g><g class="xtick"><text text-anchor="end" x="0" y="434" transform="translate(124.17,0) rotate(-45,0,427.5)" style="font-family: serif; font-size: 13px; fill: rgb(68, 68, 68); fill-opacity: 1; white-space: pre; opacity: 1;">May-09-20</text></g><g class="xtick"><text text-anchor="end" x="0" y="434" transform="translate(140.20999999999998,0) rotate(-45,0,427.5)" style="font-family: serif; font-size: 13px; fill: rgb(68, 68, 68); fill-opacity: 1; white-space: pre; opacity: 1;">May-21-20</text></g><g class="xtick"><text text-anchor="end" x="0" y="434" transform="translate(156.25,0) rotate(-45,0,427.5)" style="font-family: serif; font-size: 13px; fill: rgb(68, 68, 68); fill-opacity: 1; white-space: pre; opacity: 1;">Jun-02-20</text></g><g class="xtick"><text text-anchor="end" x="0" y="434" transform="translate(172.29000000000002,0) rotate(-45,0,427.5)" style="font-family: serif; font-size: 13px; fill: rgb(68, 68, 68); fill-opacity: 1; white-space: pre; opacity: 1;">Jun-14-20</text></g><g class="xtick"><text text-anchor="end" x="0" y="434" transform="translate(188.33,0) rotate(-45,0,427.5)" style="font-family: serif; font-size: 13px; fill: rgb(68, 68, 68); fill-opacity: 1; white-space: pre; opacity: 1;">Jun-26-20</text></g><g class="xtick"><text text-anchor="end" x="0" y="434" transform="translate(204.38,0) rotate(-45,0,427.5)" style="font-family: serif; font-size: 13px; fill: rgb(68, 68, 68); fill-opacity: 1; white-space: pre; opacity: 1;">Jul-08-20</text></g><g class="xtick"><text text-anchor="end" x="0" y="434" transform="translate(220.42,0) rotate(-45,0,427.5)" style="font-family: serif; font-size: 13px; fill: rgb(68, 68, 68); fill-opacity: 1; white-space: pre; opacity: 1;">Jul-20-20</text></g><g class="xtick"><text text-anchor="end" x="0" y="434" transform="translate(236.46,0) rotate(-45,0,427.5)" style="font-family: serif; font-size: 13px; fill: rgb(68, 68, 68); fill-opacity: 1; white-space: pre; opacity: 1;">Aug-01-20</text></g><g class="xtick"><text text-anchor="end" x="0" y="434" transform="translate(252.5,0) rotate(-45,0,427.5)" style="font-family: serif; font-size: 13px; fill: rgb(68, 68, 68); fill-opacity: 1; white-space: pre; opacity: 1;">Aug-13-20</text></g><g class="xtick"><text text-anchor="end" x="0" y="434" transform="translate(268.53999999999996,0) rotate(-45,0,427.5)" style="font-family: serif; font-size: 13px; fill: rgb(68, 68, 68); fill-opacity: 1; white-space: pre; opacity: 1;">Aug-25-20</text></g><g class="xtick"><text text-anchor="end" x="0" y="434" transform="translate(284.58000000000004,0) rotate(-45,0,427.5)" style="font-family: serif; font-size: 13px; fill: rgb(68, 68, 68); fill-opacity: 1; white-space: pre; opacity: 1;">Sep-06-20</text></g><g class="xtick"><text text-anchor="end" x="0" y="434" transform="translate(300.63,0) rotate(-45,0,427.5)" style="font-family: serif; font-size: 13px; fill: rgb(68, 68, 68); fill-opacity: 1; white-space: pre; opacity: 1;">Sep-18-20</text></g><g class="xtick"><text text-anchor="end" x="0" y="434" transform="translate(316.67,0) rotate(-45,0,427.5)" style="font-family: serif; font-size: 13px; fill: rgb(68, 68, 68); fill-opacity: 1; white-space: pre; opacity: 1;">Sep-30-20</text></g><g class="xtick"><text text-anchor="end" x="0" y="434" transform="translate(332.71,0) rotate(-45,0,427.5)" style="font-family: serif; font-size: 13px; fill: rgb(68, 68, 68); fill-opacity: 1; white-space: pre; opacity: 1;">Oct-12-20</text></g><g class="xtick"><text text-anchor="end" x="0" y="434" transform="translate(348.75,0) rotate(-45,0,427.5)" style="font-family: serif; font-size: 13px; fill: rgb(68, 68, 68); fill-opacity: 1; white-space: pre; opacity: 1;">Oct-24-20</text></g><g class="xtick"><text text-anchor="end" x="0" y="434" transform="translate(364.79,0) rotate(-45,0,427.5)" style="font-family: serif; font-size: 13px; fill: rgb(68, 68, 68); fill-opacity: 1; white-space: pre; opacity: 1;">Nov-05-20</text></g><g class="xtick"><text text-anchor="end" x="0" y="434" transform="translate(380.84,0) rotate(-45,0,427.5)" style="font-family: serif; font-size: 13px; fill: rgb(68, 68, 68); fill-opacity: 1; white-space: pre; opacity: 1;">Nov-17-20</text></g><g class="xtick"><text text-anchor="end" x="0" y="434" transform="translate(396.88,0) rotate(-45,0,427.5)" style="font-family: serif; font-size: 13px; fill: rgb(68, 68, 68); fill-opacity: 1; white-space: pre; opacity: 1;">Nov-29-20</text></g><g class="xtick"><text text-anchor="end" x="0" y="434" transform="translate(412.92,0) rotate(-45,0,427.5)" style="font-family: serif; font-size: 13px; fill: rgb(68, 68, 68); fill-opacity: 1; white-space: pre; opacity: 1;">Dec-11-20</text></g><g class="xtick"><text text-anchor="end" x="0" y="434" transform="translate(428.96,0) rotate(-45,0,427.5)" style="font-family: serif; font-size: 13px; fill: rgb(68, 68, 68); fill-opacity: 1; white-space: pre; opacity: 1;">Dec-23-20</text></g><g class="xtick"><text text-anchor="end" x="0" y="434" transform="translate(445,0) rotate(-45,0,427.5)" style="font-family: serif; font-size: 13px; fill: rgb(68, 68, 68); fill-opacity: 1; white-space: pre; opacity: 1;">Jan-04-21</text></g><g class="xtick"><text text-anchor="end" x="0" y="434" transform="translate(461.04,0) rotate(-45,0,427.5)" style="font-family: serif; font-size: 13px; fill: rgb(68, 68, 68); fill-opacity: 1; white-space: pre; opacity: 1;">Jan-16-21</text></g><g class="xtick"><text text-anchor="end" x="0" y="434" transform="translate(477.09,0) rotate(-45,0,427.5)" style="font-family: serif; font-size: 13px; fill: rgb(68, 68, 68); fill-opacity: 1; white-space: pre; opacity: 1;">Jan-28-21</text></g><g class="xtick"><text text-anchor="end" x="0" y="434" transform="translate(493.13,0) rotate(-45,0,427.5)" style="font-family: serif; font-size: 13px; fill: rgb(68, 68, 68); fill-opacity: 1; white-space: pre; opacity: 1;">Feb-09-21</text></g><g class="xtick"><text text-anchor="end" x="0" y="434" transform="translate(509.17,0) rotate(-45,0,427.5)" style="font-family: serif; font-size: 13px; fill: rgb(68, 68, 68); fill-opacity: 1; white-space: pre; opacity: 1;">Feb-21-21</text></g><g class="xtick"><text text-anchor="end" x="0" y="434" transform="translate(525.21,0) rotate(-45,0,427.5)" style="font-family: serif; font-size: 13px; fill: rgb(68, 68, 68); fill-opacity: 1; white-space: pre; opacity: 1;">Mar-05-21</text></g><g class="xtick"><text text-anchor="end" x="0" y="434" transform="translate(541.25,0) rotate(-45,0,427.5)" style="font-family: serif; font-size: 13px; fill: rgb(68, 68, 68); fill-opacity: 1; white-space: pre; opacity: 1;">Mar-17-21</text></g><g class="xtick"><text text-anchor="end" x="0" y="434" transform="translate(557.3,0) rotate(-45,0,427.5)" style="font-family: serif; font-size: 13px; fill: rgb(68, 68, 68); fill-opacity: 1; white-space: pre; opacity: 1;">Mar-29-21</text></g></g><g class="yaxislayer-above"><g class="ytick"><text text-anchor="end" x="59" y="4.199999999999999" transform="translate(0,420)" style="font-family: 'Open Sans', verdana, arial, sans-serif; font-size: 12px; fill: rgb(68, 68, 68); fill-opacity: 1; white-space: pre; opacity: 1;">0</text></g><g class="ytick"><text text-anchor="end" x="59" y="4.199999999999999" style="font-family: 'Open Sans', verdana, arial, sans-serif; font-size: 12px; fill: rgb(68, 68, 68); fill-opacity: 1; white-space: pre; opacity: 1;" transform="translate(0,349.7)">2k</text></g><g class="ytick"><text text-anchor="end" x="59" y="4.199999999999999" style="font-family: 'Open Sans', verdana, arial, sans-serif; font-size: 12px; fill: rgb(68, 68, 68); fill-opacity: 1; white-space: pre; opacity: 1;" transform="translate(0,279.4)">4k</text></g><g class="ytick"><text text-anchor="end" x="59" y="4.199999999999999" style="font-family: 'Open Sans', verdana, arial, sans-serif; font-size: 12px; fill: rgb(68, 68, 68); fill-opacity: 1; white-space: pre; opacity: 1;" transform="translate(0,209.11)">6k</text></g><g class="ytick"><text text-anchor="end" x="59" y="4.199999999999999" style="font-family: 'Open Sans', verdana, arial, sans-serif; font-size: 12px; fill: rgb(68, 68, 68); fill-opacity: 1; white-space: pre; opacity: 1;" transform="translate(0,138.81)">8k</text></g><g class="ytick"><text text-anchor="end" x="59" y="4.199999999999999" style="font-family: 'Open Sans', verdana, arial, sans-serif; font-size: 12px; fill: rgb(68, 68, 68); fill-opacity: 1; white-space: pre; opacity: 1;" transform="translate(0,68.50999999999999)">10k</text></g></g><g class="overaxes-above"/></g></g><g class="polarlayer"/><g class="smithlayer"/><g class="ternarylayer"/><g class="geolayer"/><g class="funnelarealayer"/><g class="pielayer"/><g class="iciclelayer"/><g class="treemaplayer"/><g class="sunburstlayer"/><g class="glimages"/><defs id="topdefs-b512c8"><g class="clips"/><clipPath id="legendb512c8"><rect width="108" height="67" x="0" y="0"/></clipPath></defs><g class="layer-above"><g class="imagelayer"/><g class="shapelayer"/></g><g class="infolayer"><g class="legend" pointer-events="all" transform="translate(582.24,25)"><rect class="bg" shape-rendering="crispEdges" style="stroke: rgb(68, 68, 68); stroke-opacity: 1; fill: rgb(255, 255, 255); fill-opacity: 1; stroke-width: 0px;" width="108" height="67" x="0" y="0"/><g class="scrollbox" transform="" clip-path="url(#legendb512c8)"><g class="groups"><g class="traces" transform="translate(0,14.5)" style="opacity: 1;"><text class="legendtext" text-anchor="start" x="40" y="4.680000000000001" style="font-family: 'Open Sans', verdana, arial, sans-serif; font-size: 12px; fill: rgb(68, 68, 68); fill-opacity: 1; white-space: pre;">Active</text><g class="layers"><g class="legendfill"><path class="js-fill" d="M5,-2h30v6h-30z" style="stroke-width: 0; fill: rgb(255, 165, 0); fill-opacity: 1;"/></g><g class="legendlines"><path class="js-line" d="M5,-2h30" style="fill: none; stroke: rgb(255, 165, 0); stroke-opacity: 1; stroke-width: 2px;"/></g><g class="legendsymbols"><g class="legendpoints"/></g></g><rect class="legendtoggle" x="0" y="-9.5" width="102.546875" height="19" style="fill: rgb(0, 0, 0); fill-opacity: 0;"/></g><g class="traces" transform="translate(0,33.5)" style="opacity: 1;"><text class="legendtext" text-anchor="start" x="40" y="4.680000000000001" style="font-family: 'Open Sans', verdana, arial, sans-serif; font-size: 12px; fill: rgb(68, 68, 68); fill-opacity: 1; white-space: pre;">Recovered</text><g class="layers"><g class="legendfill"><path class="js-fill" d="M5,-2h30v6h-30z" style="stroke-width: 0; fill: rgb(0, 255, 0); fill-opacity: 1;"/></g><g class="legendlines"><path class="js-line" d="M5,-2h30" style="fill: none; stroke: rgb(0, 255, 0); stroke-opacity: 1; stroke-width: 2px;"/></g><g class="legendsymbols"><g class="legendpoints"/></g></g><rect class="legendtoggle" x="0" y="-9.5" width="102.546875" height="19" style="fill: rgb(0, 0, 0); fill-opacity: 0;"/></g><g class="traces" transform="translate(0,52.5)" style="opacity: 1;"><text class="legendtext" text-anchor="start" x="40" y="4.680000000000001" style="font-family: 'Open Sans', verdana, arial, sans-serif; font-size: 12px; fill: rgb(68, 68, 68); fill-opacity: 1; white-space: pre;">Deceased</text><g class="layers"><g class="legendfill"><path class="js-fill" d="M5,-2h30v6h-30z" style="stroke-width: 0; fill: rgb(139, 0, 0); fill-opacity: 1;"/></g><g class="legendlines"><path class="js-line" d="M5,-2h30" style="fill: none; stroke: rgb(139, 0, 0); stroke-opacity: 1; stroke-width: 2px;"/></g><g class="legendsymbols"><g class="legendpoints"/></g></g><rect class="legendtoggle" x="0" y="-9.5" width="102.546875" height="19" style="fill: rgb(0, 0, 0); fill-opacity: 0;"/></g></g></g><rect class="scrollbar" rx="20" ry="3" width="0" height="0" style="fill: rgb(128, 139, 164); fill-opacity: 1;" x="0" y="0"/></g><g class="g-gtitle"><text class="gtitle" x="350" y="12.5" text-anchor="middle" dy="0em" style="font-family: serif; font-size: 18px; fill: rgb(68, 68, 68); opacity: 1; font-weight: normal; white-space: pre;">Bidar</text></g><g class="g-xtitle" transform="translate(0,19.2626953125)"><text class="xtitle" x="316" y="472" text-anchor="middle" style="font-family: 'Open Sans', verdana, arial, sans-serif; font-size: 14px; fill: rgb(68, 68, 68); opacity: 1; font-weight: normal; white-space: pre;">Date</text></g><g class="g-ytitle" transform="translate(2,0)"><text class="ytitle" transform="rotate(-90,14,222.5)" x="14" y="222.5" text-anchor="middle" style="font-family: serif; font-size: 18px; fill: rgb(0, 0, 0); opacity: 1; font-weight: normal; white-space: pre;">Number of Cases</text></g></g></svg>