<svg class="main-svg" xmlns="http://www.w3.org/2000/svg" xmlns:xlink="http://www.w3.org/1999/xlink" width="700" height="500" style="" viewBox="0 0 700 500"><rect x="0" y="0" width="700" height="500" style="fill: rgb(255, 255, 255); fill-opacity: 1;"/><defs id="defs-afd28c"><g class="clips"><clipPath id="clipafd28cxyplot" class="plotclip"><rect width="512" height="395"/></clipPath><clipPath class="axesclip" id="clipafd28cx"><rect x="60" y="0" width="512" height="500"/></clipPath><clipPath class="axesclip" id="clipafd28cy"><rect x="0" y="25" width="700" height="395"/></clipPath><clipPath class="axesclip" id="clipafd28cxy"><rect x="60" y="25" width="512" height="395"/></clipPath></g><g class="gradients"/><g class="patterns"/></defs><g class="bglayer"/><g class="layer-below"><g class="imagelayer"/><g class="shapelayer"/></g><g class="cartesianlayer"><g class="subplot xy"><g class="layer-subplot"><g class="shapelayer"/><g class="imagelayer"/></g><g class="gridlayer"><g class="x"><path class="xgrid crisp" transform="translate(76.03999999999999,0)" d="M0,25v395" style="stroke: rgb(238, 238, 238); stroke-opacity: 1; stroke-width: 1px;"/><path class="xgrid crisp" transform="translate(92.08,0)" d="M0,25v395" style="stroke: rgb(238, 238, 238); stroke-opacity: 1; stroke-width: 1px;"/><path class="xgrid crisp" transform="translate(108.13,0)" d="M0,25v395" style="stroke: rgb(238, 238, 238); stroke-opacity: 1; stroke-width: 1px;"/><path class="xgrid crisp" transform="translate(124.17,0)" d="M0,25v395" style="stroke: rgb(238, 238, 238); stroke-opacity: 1; stroke-width: 1px;"/><path class="xgrid crisp" transform="translate(140.20999999999998,0)" d="M0,25v395" style="stroke: rgb(238, 238, 238); stroke-opacity: 1; stroke-width: 1px;"/><path class="xgrid crisp" transform="translate(156.25,0)" d="M0,25v395" style="stroke: rgb(238, 238, 238); stroke-opacity: 1; stroke-width: 1px;"/><path class="xgrid crisp" transform="translate(172.29000000000002,0)" d="M0,25v395" style="stroke: rgb(238, 238, 238); stroke-opacity: 1; stroke-width: 1px;"/><path class="xgrid crisp" transform="translate(188.33,0)" d="M0,25v395" style="stroke: rgb(238, 238, 238); stroke-opacity: 1; stroke-width: 1px;"/><path class="xgrid crisp" transform="translate(204.38,0)" d="M0,25v395" style="stroke: rgb(238, 238, 238); stroke-opacity: 1; stroke-width: 1px;"/><path class="xgrid crisp" transform="translate(220.42,0)" d="M0,25v395" style="stroke: rgb(238, 238, 238); stroke-opacity: 1; stroke-width: 1px;"/><path class="xgrid crisp" transform="translate(236.46,0)" d="M0,25v395" style="stroke: rgb(238, 238, 238); stroke-opacity: 1; stroke-width: 1px;"/><path class="xgrid crisp" transform="translate(252.5,0)" d="M0,25v395" style="stroke: rgb(238, 238, 238); stroke-opacity: 1; stroke-width: 1px;"/><path class="xgrid crisp" transform="translate(268.53999999999996,0)" d="M0,25v395" style="stroke: rgb(238, 238, 238); stroke-opacity: 1; stroke-width: 1px;"/><path class="xgrid crisp" transform="translate(284.58000000000004,0)" d="M0,25v395" style="stroke: rgb(238, 238, 238); stroke-opacity: 1; stroke-width: 1px;"/><path class="xgrid crisp" transform="translate(300.63,0)" d="M0,25v395" style="stroke: rgb(238, 238, 238); stroke-opacity: 1; stroke-width: 1px;"/><path class="xgrid crisp" transform="translate(316.67,0)" d="M0,25v395" style="stroke: rgb(238, 238, 238); stroke-opacity: 1; stroke-width: 1px;"/><path class="xgrid crisp" transform="translate(332.71,0)" d="M0,25v395" style="stroke: rgb(238, 238, 238); stroke-opacity: 1; stroke-width: 1px;"/><path class="xgrid crisp" transform="translate(348.75,0)" d="M0,25v395" style="stroke: rgb(238, 238, 238); stroke-opacity: 1; stroke-width: 1px;"/><path class="xgrid crisp" transform="translate(364.79,0)" d="M0,25v395" style="stroke: rgb(238, 238, 238); stroke-opacity: 1; stroke-width: 1px;"/><path class="xgrid crisp" transform="translate(380.84,0)" d="M0,25v395" style="stroke: rgb(238, 238, 238); stroke-opacity: 1; stroke-width: 1px;"/><path class="xgrid crisp" transform="translate(396.88,0)" d="M0,25v395" style="stroke: rgb(238, 238, 238); stroke-opacity: 1; stroke-width: 1px;"/><path class="xgrid crisp" transform="translate(412.92,0)" d="M0,25v395" style="stroke: rgb(238, 238, 238); stroke-opacity: 1; stroke-width: 1px;"/><path class="xgrid crisp" transform="translate(428.96,0)" d="M0,25v395" style="stroke: rgb(238, 238, 238); stroke-opacity: 1; stroke-width: 1px;"/><path class="xgrid crisp" transform="translate(445,0)" d="M0,25v395" style="stroke: rgb(238, 238, 238); stroke-opacity: 1; stroke-width: 1px;"/><path class="xgrid crisp" transform="translate(461.04,0)" d="M0,25v395" style="stroke: rgb(238, 238, 238); stroke-opacity: 1; stroke-width: 1px;"/><path class="xgrid crisp" transform="translate(477.09,0)" d="M0,25v395" style="stroke: rgb(238, 238, 238); stroke-opacity: 1; stroke-width: 1px;"/><path class="xgrid crisp" transform="translate(493.13,0)" d="M0,25v395" style="stroke: rgb(238, 238, 238); stroke-opacity: 1; stroke-width: 1px;"/><path class="xgrid crisp" transform="translate(509.17,0)" d="M0,25v395" style="stroke: rgb(238, 238, 238); stroke-opacity: 1; stroke-width: 1px;"/><path class="xgrid crisp" transform="translate(525.21,0)" d="M0,25v395" style="stroke: rgb(238, 238, 238); stroke-opacity: 1; stroke-width: 1px;"/><path class="xgrid crisp" transform="translate(541.25,0)" d="M0,25v395" style="stroke: rgb(238, 238, 238); stroke-opacity: 1; stroke-width: 1px;"/><path class="xgrid crisp" transform="translate(557.3,0)" d="M0,25v395" style="stroke: rgb(238, 238, 238); stroke-opacity: 1; stroke-width: 1px;"/></g><g class="y"><path class="ygrid crisp" transform="translate(0,368.64)" d="M60,0h512" style="stroke: rgb(238, 238, 238); stroke-opacity: 1; stroke-width: 1px;"/><path class="ygrid crisp" transform="translate(0,317.28)" d="M60,0h512" style="stroke: rgb(238, 238, 238); stroke-opacity: 1; stroke-width: 1px;"/><path class="ygrid crisp" transform="translate(0,265.90999999999997)" d="M60,0h512" style="stroke: rgb(238, 238, 238); stroke-opacity: 1; stroke-width: 1px;"/><path class="ygrid crisp" transform="translate(0,214.55)" d="M60,0h512" style="stroke: rgb(238, 238, 238); stroke-opacity: 1; stroke-width: 1px;"/><path class="ygrid crisp" transform="translate(0,163.19)" d="M60,0h512" style="stroke: rgb(238, 238, 238); stroke-opacity: 1; stroke-width: 1px;"/><path class="ygrid crisp" transform="translate(0,111.83)" d="M60,0h512" style="stroke: rgb(238, 238, 238); stroke-opacity: 1; stroke-width: 1px;"/><path class="ygrid crisp" transform="translate(0,60.47)" d="M60,0h512" style="stroke: rgb(238, 238, 238); stroke-opacity: 1; stroke-width: 1px;"/></g></g><g class="zerolinelayer"><path class="yzl zl crisp" transform="translate(0,420)" d="M60,0h512" style="stroke: rgb(68, 68, 68); stroke-opacity: 1; stroke-width: 1px;"/></g><path class="xlines-below"/><path class="ylines-below"/><g class="overlines-below"/><g class="xaxislayer-below"/><g class="yaxislayer-below"/><g class="overaxes-below"/><g class="plot" transform="translate(60,25)" clip-path="url(#clipafd28cxyplot)"><g class="scatterlayer mlayer"><g class="trace scatter trace124b1e" style="stroke-miterlimit: 2;"><g class="fills"><g><path class="js-fill" d="M512,395L0,395L0,395L183.14,394.28L184.48,394.23L195.17,393.51L196.51,393.92L215.23,393.25L216.56,393.15L276.72,390.22L278.06,390.07L295.44,389.25L296.77,389.25L512,388.84" style="fill: rgb(139, 0, 0); fill-opacity: 1; stroke-width: 0;"/></g><g><path class="js-fill" d="M0,395L141.7,394.79L143.04,393.77L149.72,392.43L151.06,390.99L156.41,387.91L157.74,387.91L160.42,385.24L161.75,384.62L168.44,380.82L169.78,379.9L175.12,374.1L176.46,373.33L179.13,369.11L180.47,367.78L185.82,361.56L187.15,353.91L189.83,349.8L191.16,346.21L199.19,329.87L200.52,324.43L201.86,322.58L203.2,322.58L205.87,316.42L207.21,315.18L208.54,314.11L209.88,309.48L213.89,304.5L215.23,303.83L219.24,294.79L220.57,291.3L223.25,282.06L224.58,280.67L225.92,278.82L227.26,275.53L229.93,270.29L231.27,267.01L232.61,262.95L233.94,262.95L236.62,259.15L237.95,259.2L240.63,259.2L241.96,253.86L243.3,251.91L244.64,248.36L245.97,245.02L247.31,245.02L248.65,242.35L249.98,241.99L251.32,240.66L252.66,237.94L259.34,229.61L260.68,228.79L262.02,228.38L263.35,226.84L267.36,201.52L268.7,186.52L270.04,180.92L271.37,179.79L272.71,168.8L274.05,164.39L278.06,156.58L279.39,152.11L282.07,146.31L283.4,139.58L284.74,137.63L286.08,127.82L287.42,119.8L288.75,116.57L292.76,113.02L294.1,107.68L295.44,103.57L296.77,103.01L302.12,95.82L303.46,94.69L304.79,90.94L306.13,90.89L308.8,89.09L310.14,87.8L311.48,87.8L312.81,86.57L315.49,85.29L316.83,84.52L326.18,78.51L327.52,78.2L330.19,76.86L331.53,76.66L335.54,74.76L336.88,74.19L342.22,71.11L343.56,70.75L350.25,68.8L351.58,67.36L354.26,65.56L355.59,64.9L359.6,61.87L360.94,61.25L364.95,59.04L366.29,58.84L370.3,56.83L371.63,55.81L382.33,50.1L383.67,49.75L395.7,45.28L397.03,44.92L415.75,41.84L417.09,41.78L423.77,41.01L425.11,40.81L433.13,39.88L434.46,39.83L451.84,38.34L453.18,38.34L470.56,37.06L471.9,36.65L481.25,35.93L482.59,35.83L491.95,35L493.28,34.44L502.64,33.41L503.98,33.1L512,30.59L512,388.84L296.77,389.25L295.44,389.25L278.06,390.07L276.72,390.22L216.56,393.15L215.23,393.25L196.51,393.92L195.17,393.51L184.48,394.23L183.14,394.28L0,395Z" style="fill: rgb(0, 255, 0); fill-opacity: 1; stroke-width: 0;"/></g></g><g class="errorbars"/><g class="lines"><path class="js-line" d="M0,395L183.14,394.28L184.48,394.23L195.17,393.51L196.51,393.92L215.23,393.25L216.56,393.15L276.72,390.22L278.06,390.07L295.44,389.25L296.77,389.25L512,388.84" style="vector-effect: non-scaling-stroke; fill: none; stroke: rgb(139, 0, 0); stroke-opacity: 1; stroke-width: 2px; opacity: 1;"/></g><g class="points"/><g class="text"/></g><g class="trace scatter tracebdb333" style="stroke-miterlimit: 2;"><g class="fills"><g><path class="js-fill" d="M0,395L127,394.54L128.33,393.97L131.01,393.31L132.34,393.31L133.68,393.31L135.02,392.23L136.36,392.23L137.69,390.99L140.37,389.76L141.7,389.14L147.05,387.76L148.39,386.88L156.41,383.6L157.74,381.85L159.08,380.57L160.42,378.05L167.1,370.5L168.44,369.06L169.78,368.24L171.11,365.57L173.79,362.9L175.12,360.64L181.81,349.29L183.14,344.41L197.85,310.51L199.19,309.43L203.2,294.54L204.53,291.09L208.54,287.55L209.88,284.93L213.89,278.87L215.23,276.1L223.25,260.84L224.58,258.74L225.92,257.71L227.26,255.55L237.95,231.72L239.29,226.17L245.97,209.63L247.31,207.99L248.65,207.12L249.98,204.5L253.99,196.02L255.33,189.76L256.67,187.19L258.01,181.23L259.34,179.18L260.68,169.98L263.35,159.35L264.69,155.29L267.36,146.46L268.7,142.76L278.06,116.1L279.39,113.59L283.4,106.09L284.74,104.39L302.12,84.98L303.46,84.11L306.13,81.85L307.47,81.18L312.81,78.35L314.15,77.74L316.83,76.86L318.16,76.5L324.85,74.35L326.18,73.37L331.53,70.6L332.87,70.19L336.88,68.8L338.21,68.6L342.22,66.59L343.56,65.36L354.26,59.35L355.59,58.37L359.6,56.73L360.94,56.01L366.29,52.42L367.62,52.26L370.3,50.41L371.63,49.8L387.68,44.3L389.01,44.04L402.38,41.63L403.72,41.58L421.1,39.58L422.43,39.37L430.45,38.7L431.79,38.55L442.49,38.03L443.82,37.78L461.2,36.55L462.54,36.08L483.93,33.87L485.26,33.67L499.97,31.46L501.31,30.59L505.32,28.22L506.65,26.68L507.99,26.43L509.33,24.42L512,19.75L512,30.59L503.98,33.1L502.64,33.41L493.28,34.44L491.95,35L482.59,35.83L481.25,35.93L471.9,36.65L470.56,37.06L453.18,38.34L451.84,38.34L434.46,39.83L433.13,39.88L425.11,40.81L423.77,41.01L417.09,41.78L415.75,41.84L397.03,44.92L395.7,45.28L383.67,49.75L382.33,50.1L371.63,55.81L370.3,56.83L366.29,58.84L364.95,59.04L360.94,61.25L359.6,61.87L355.59,64.9L354.26,65.56L351.58,67.36L350.25,68.8L343.56,70.75L342.22,71.11L336.88,74.19L335.54,74.76L331.53,76.66L330.19,76.86L327.52,78.2L326.18,78.51L316.83,84.52L315.49,85.29L312.81,86.57L311.48,87.8L310.14,87.8L308.8,89.09L306.13,90.89L304.79,90.94L303.46,94.69L302.12,95.82L296.77,103.01L295.44,103.57L294.1,107.68L292.76,113.02L288.75,116.57L287.42,119.8L286.08,127.82L284.74,137.63L283.4,139.58L282.07,146.31L279.39,152.11L278.06,156.58L274.05,164.39L272.71,168.8L271.37,179.79L270.04,180.92L268.7,186.52L267.36,201.52L263.35,226.84L262.02,228.38L260.68,228.79L259.34,229.61L252.66,237.94L251.32,240.66L249.98,241.99L248.65,242.35L247.31,245.02L245.97,245.02L244.64,248.36L243.3,251.91L241.96,253.86L240.63,259.2L237.95,259.2L236.62,259.15L233.94,262.95L232.61,262.95L231.27,267.01L229.93,270.29L227.26,275.53L225.92,278.82L224.58,280.67L223.25,282.06L220.57,291.3L219.24,294.79L215.23,303.83L213.89,304.5L209.88,309.48L208.54,314.11L207.21,315.18L205.87,316.42L203.2,322.58L201.86,322.58L200.52,324.43L199.19,329.87L191.16,346.21L189.83,349.8L187.15,353.91L185.82,361.56L180.47,367.78L179.13,369.11L176.46,373.33L175.12,374.1L169.78,379.9L168.44,380.82L161.75,384.62L160.42,385.24L157.74,387.91L156.41,387.91L151.06,390.99L149.72,392.43L143.04,393.77L141.7,394.79L0,395Z" style="fill: rgb(255, 165, 0); fill-opacity: 1; stroke-width: 0;"/></g></g><g class="errorbars"/><g class="lines"><path class="js-line" d="M0,395L141.7,394.79L143.04,393.77L149.72,392.43L151.06,390.99L156.41,387.91L157.74,387.91L160.42,385.24L161.75,384.62L168.44,380.82L169.78,379.9L175.12,374.1L176.46,373.33L179.13,369.11L180.47,367.78L185.82,361.56L187.15,353.91L189.83,349.8L191.16,346.21L199.19,329.87L200.52,324.43L201.86,322.58L203.2,322.58L205.87,316.42L207.21,315.18L208.54,314.11L209.88,309.48L213.89,304.5L215.23,303.83L219.24,294.79L220.57,291.3L223.25,282.06L224.58,280.67L225.92,278.82L227.26,275.53L229.93,270.29L231.27,267.01L232.61,262.95L233.94,262.95L236.62,259.15L237.95,259.2L240.63,259.2L241.96,253.86L243.3,251.91L244.64,248.36L245.97,245.02L247.31,245.02L248.65,242.35L249.98,241.99L251.32,240.66L252.66,237.94L259.34,229.61L260.68,228.79L262.02,228.38L263.35,226.84L267.36,201.52L268.7,186.52L270.04,180.92L271.37,179.79L272.71,168.8L274.05,164.39L278.06,156.58L279.39,152.11L282.07,146.31L283.4,139.58L284.74,137.63L286.08,127.82L287.42,119.8L288.75,116.57L292.76,113.02L294.1,107.68L295.44,103.57L296.77,103.01L302.12,95.82L303.46,94.69L304.79,90.94L306.13,90.89L308.8,89.09L310.14,87.8L311.48,87.8L312.81,86.57L315.49,85.29L316.83,84.52L326.18,78.51L327.52,78.2L330.19,76.86L331.53,76.66L335.54,74.76L336.88,74.19L342.22,71.11L343.56,70.75L350.25,68.8L351.58,67.36L354.26,65.56L355.59,64.9L359.6,61.87L360.94,61.25L364.95,59.04L366.29,58.84L370.3,56.83L371.63,55.81L382.33,50.1L383.67,49.75L395.7,45.28L397.03,44.92L415.75,41.84L417.09,41.78L423.77,41.01L425.11,40.81L433.13,39.88L434.46,39.83L451.84,38.34L453.18,38.34L470.56,37.06L471.9,36.65L481.25,35.93L482.59,35.83L491.95,35L493.28,34.44L502.64,33.41L503.98,33.1L512,30.59" style="vector-effect: non-scaling-stroke; fill: none; stroke: rgb(0, 255, 0); stroke-opacity: 1; stroke-width: 2px; opacity: 1;"/></g><g class="points"/><g class="text"/></g><g class="trace scatter trace42fa80" style="stroke-miterlimit: 2;"><g class="fills"/><g class="errorbars"/><g class="lines"><path class="js-line" d="M0,395L127,394.54L128.33,393.97L131.01,393.31L132.34,393.31L133.68,393.31L135.02,392.23L136.36,392.23L137.69,390.99L140.37,389.76L141.7,389.14L147.05,387.76L148.39,386.88L156.41,383.6L157.74,381.85L159.08,380.57L160.42,378.05L167.1,370.5L168.44,369.06L169.78,368.24L171.11,365.57L173.79,362.9L175.12,360.64L181.81,349.29L183.14,344.41L197.85,310.51L199.19,309.43L203.2,294.54L204.53,291.09L208.54,287.55L209.88,284.93L213.89,278.87L215.23,276.1L223.25,260.84L224.58,258.74L225.92,257.71L227.26,255.55L237.95,231.72L239.29,226.17L245.97,209.63L247.31,207.99L248.65,207.12L249.98,204.5L253.99,196.02L255.33,189.76L256.67,187.19L258.01,181.23L259.34,179.18L260.68,169.98L263.35,159.35L264.69,155.29L267.36,146.46L268.7,142.76L278.06,116.1L279.39,113.59L283.4,106.09L284.74,104.39L302.12,84.98L303.46,84.11L306.13,81.85L307.47,81.18L312.81,78.35L314.15,77.74L316.83,76.86L318.16,76.5L324.85,74.35L326.18,73.37L331.53,70.6L332.87,70.19L336.88,68.8L338.21,68.6L342.22,66.59L343.56,65.36L354.26,59.35L355.59,58.37L359.6,56.73L360.94,56.01L366.29,52.42L367.62,52.26L370.3,50.41L371.63,49.8L387.68,44.3L389.01,44.04L402.38,41.63L403.72,41.58L421.1,39.58L422.43,39.37L430.45,38.7L431.79,38.55L442.49,38.03L443.82,37.78L461.2,36.55L462.54,36.08L483.93,33.87L485.26,33.67L499.97,31.46L501.31,30.59L505.32,28.22L506.65,26.68L507.99,26.43L509.33,24.42L512,19.75" style="vector-effect: non-scaling-stroke; fill: none; stroke: rgb(255, 165, 0); stroke-opacity: 1; stroke-width: 2px; opacity: 1;"/></g><g class="points"/><g class="text"/></g></g></g><g class="overplot"/><path class="xlines-above crisp" d="M0,0" style="fill: none;"/><path class="ylines-above crisp" d="M0,0" style="fill: none;"/><g class="overlines-above"/><g class="xaxislayer-above"><g class="xtick"><text text-anchor="end" x="0" y="434" transform="translate(60,0) rotate(-45,0,427.5)" style="font-family: serif; font-size: 13px; fill: rgb(68, 68, 68); fill-opacity: 1; white-space: pre; opacity: 1;">Mar-22-20</text></g><g class="xtick"><text text-anchor="end" x="0" y="434" transform="translate(76.03999999999999,0) rotate(-45,0,427.5)" style="font-family: serif; font-size: 13px; fill: rgb(68, 68, 68); fill-opacity: 1; white-space: pre; opacity: 1;">Apr-03-20</text></g><g class="xtick"><text text-anchor="end" x="0" y="434" transform="translate(92.08,0) rotate(-45,0,427.5)" style="font-family: serif; font-size: 13px; fill: rgb(68, 68, 68); fill-opacity: 1; white-space: pre; opacity: 1;">Apr-15-20</text></g><g class="xtick"><text text-anchor="end" x="0" y="434" transform="translate(108.13,0) rotate(-45,0,427.5)" style="font-family: serif; font-size: 13px; fill: rgb(68, 68, 68); fill-opacity: 1; white-space: pre; opacity: 1;">Apr-27-20</text></g><g class="xtick"><text text-anchor="end" x="0" y="434" transform="translate(124.17,0) rotate(-45,0,427.5)" style="font-family: serif; font-size: 13px; fill: rgb(68, 68, 68); fill-opacity: 1; white-space: pre; opacity: 1;">May-09-20</text></g><g class="xtick"><text text-anchor="end" x="0" y="434" transform="translate(140.20999999999998,0) rotate(-45,0,427.5)" style="font-family: serif; font-size: 13px; fill: rgb(68, 68, 68); fill-opacity: 1; white-space: pre; opacity: 1;">May-21-20</text></g><g class="xtick"><text text-anchor="end" x="0" y="434" transform="translate(156.25,0) rotate(-45,0,427.5)" style="font-family: serif; font-size: 13px; fill: rgb(68, 68, 68); fill-opacity: 1; white-space: pre; opacity: 1;">Jun-02-20</text></g><g class="xtick"><text text-anchor="end" x="0" y="434" transform="translate(172.29000000000002,0) rotate(-45,0,427.5)" style="font-family: serif; font-size: 13px; fill: rgb(68, 68, 68); fill-opacity: 1; white-space: pre; opacity: 1;">Jun-14-20</text></g><g class="xtick"><text text-anchor="end" x="0" y="434" transform="translate(188.33,0) rotate(-45,0,427.5)" style="font-family: serif; font-size: 13px; fill: rgb(68, 68, 68); fill-opacity: 1; white-space: pre; opacity: 1;">Jun-26-20</text></g><g class="xtick"><text text-anchor="end" x="0" y="434" transform="translate(204.38,0) rotate(-45,0,427.5)" style="font-family: serif; font-size: 13px; fill: rgb(68, 68, 68); fill-opacity: 1; white-space: pre; opacity: 1;">Jul-08-20</text></g><g class="xtick"><text text-anchor="end" x="0" y="434" transform="translate(220.42,0) rotate(-45,0,427.5)" style="font-family: serif; font-size: 13px; fill: rgb(68, 68, 68); fill-opacity: 1; white-space: pre; opacity: 1;">Jul-20-20</text></g><g class="xtick"><text text-anchor="end" x="0" y="434" transform="translate(236.46,0) rotate(-45,0,427.5)" style="font-family: serif; font-size: 13px; fill: rgb(68, 68, 68); fill-opacity: 1; white-space: pre; opacity: 1;">Aug-01-20</text></g><g class="xtick"><text text-anchor="end" x="0" y="434" transform="translate(252.5,0) rotate(-45,0,427.5)" style="font-family: serif; font-size: 13px; fill: rgb(68, 68, 68); fill-opacity: 1; white-space: pre; opacity: 1;">Aug-13-20</text></g><g class="xtick"><text text-anchor="end" x="0" y="434" transform="translate(268.53999999999996,0) rotate(-45,0,427.5)" style="font-family: serif; font-size: 13px; fill: rgb(68, 68, 68); fill-opacity: 1; white-space: pre; opacity: 1;">Aug-25-20</text></g><g class="xtick"><text text-anchor="end" x="0" y="434" transform="translate(284.58000000000004,0) rotate(-45,0,427.5)" style="font-family: serif; font-size: 13px; fill: rgb(68, 68, 68); fill-opacity: 1; white-space: pre; opacity: 1;">Sep-06-20</text></g><g class="xtick"><text text-anchor="end" x="0" y="434" transform="translate(300.63,0) rotate(-45,0,427.5)" style="font-family: serif; font-size: 13px; fill: rgb(68, 68, 68); fill-opacity: 1; white-space: pre; opacity: 1;">Sep-18-20</text></g><g class="xtick"><text text-anchor="end" x="0" y="434" transform="translate(316.67,0) rotate(-45,0,427.5)" style="font-family: serif; font-size: 13px; fill: rgb(68, 68, 68); fill-opacity: 1; white-space: pre; opacity: 1;">Sep-30-20</text></g><g class="xtick"><text text-anchor="end" x="0" y="434" transform="translate(332.71,0) rotate(-45,0,427.5)" style="font-family: serif; font-size: 13px; fill: rgb(68, 68, 68); fill-opacity: 1; white-space: pre; opacity: 1;">Oct-12-20</text></g><g class="xtick"><text text-anchor="end" x="0" y="434" transform="translate(348.75,0) rotate(-45,0,427.5)" style="font-family: serif; font-size: 13px; fill: rgb(68, 68, 68); fill-opacity: 1; white-space: pre; opacity: 1;">Oct-24-20</text></g><g class="xtick"><text text-anchor="end" x="0" y="434" transform="translate(364.79,0) rotate(-45,0,427.5)" style="font-family: serif; font-size: 13px; fill: rgb(68, 68, 68); fill-opacity: 1; white-space: pre; opacity: 1;">Nov-05-20</text></g><g class="xtick"><text text-anchor="end" x="0" y="434" transform="translate(380.84,0) rotate(-45,0,427.5)" style="font-family: serif; font-size: 13px; fill: rgb(68, 68, 68); fill-opacity: 1; white-space: pre; opacity: 1;">Nov-17-20</text></g><g class="xtick"><text text-anchor="end" x="0" y="434" transform="translate(396.88,0) rotate(-45,0,427.5)" style="font-family: serif; font-size: 13px; fill: rgb(68, 68, 68); fill-opacity: 1; white-space: pre; opacity: 1;">Nov-29-20</text></g><g class="xtick"><text text-anchor="end" x="0" y="434" transform="translate(412.92,0) rotate(-45,0,427.5)" style="font-family: serif; font-size: 13px; fill: rgb(68, 68, 68); fill-opacity: 1; white-space: pre; opacity: 1;">Dec-11-20</text></g><g class="xtick"><text text-anchor="end" x="0" y="434" transform="translate(428.96,0) rotate(-45,0,427.5)" style="font-family: serif; font-size: 13px; fill: rgb(68, 68, 68); fill-opacity: 1; white-space: pre; opacity: 1;">Dec-23-20</text></g><g class="xtick"><text text-anchor="end" x="0" y="434" transform="translate(445,0) rotate(-45,0,427.5)" style="font-family: serif; font-size: 13px; fill: rgb(68, 68, 68); fill-opacity: 1; white-space: pre; opacity: 1;">Jan-04-21</text></g><g class="xtick"><text text-anchor="end" x="0" y="434" transform="translate(461.04,0) rotate(-45,0,427.5)" style="font-family: serif; font-size: 13px; fill: rgb(68, 68, 68); fill-opacity: 1; white-space: pre; opacity: 1;">Jan-16-21</text></g><g class="xtick"><text text-anchor="end" x="0" y="434" transform="translate(477.09,0) rotate(-45,0,427.5)" style="font-family: serif; font-size: 13px; fill: rgb(68, 68, 68); fill-opacity: 1; white-space: pre; opacity: 1;">Jan-28-21</text></g><g class="xtick"><text text-anchor="end" x="0" y="434" transform="translate(493.13,0) rotate(-45,0,427.5)" style="font-family: serif; font-size: 13px; fill: rgb(68, 68, 68); fill-opacity: 1; white-space: pre; opacity: 1;">Feb-09-21</text></g><g class="xtick"><text text-anchor="end" x="0" y="434" transform="translate(509.17,0) rotate(-45,0,427.5)" style="font-family: serif; font-size: 13px; fill: rgb(68, 68, 68); fill-opacity: 1; white-space: pre; opacity: 1;">Feb-21-21</text></g><g class="xtick"><text text-anchor="end" x="0" y="434" transform="translate(525.21,0) rotate(-45,0,427.5)" style="font-family: serif; font-size: 13px; fill: rgb(68, 68, 68); fill-opacity: 1; white-space: pre; opacity: 1;">Mar-05-21</text></g><g class="xtick"><text text-anchor="end" x="0" y="434" transform="translate(541.25,0) rotate(-45,0,427.5)" style="font-family: serif; font-size: 13px; fill: rgb(68, 68, 68); fill-opacity: 1; white-space: pre; opacity: 1;">Mar-17-21</text></g><g class="xtick"><text text-anchor="end" x="0" y="434" transform="translate(557.3,0) rotate(-45,0,427.5)" style="font-family: serif; font-size: 13px; fill: rgb(68, 68, 68); fill-opacity: 1; white-space: pre; opacity: 1;">Mar-29-21</text></g></g><g class="yaxislayer-above"><g class="ytick"><text text-anchor="end" x="59" y="4.199999999999999" transform="translate(0,420)" style="font-family: 'Open Sans', verdana, arial, sans-serif; font-size: 12px; fill: rgb(68, 68, 68); fill-opacity: 1; white-space: pre; opacity: 1;">0</text></g><g class="ytick"><text text-anchor="end" x="59" y="4.199999999999999" style="font-family: 'Open Sans', verdana, arial, sans-serif; font-size: 12px; fill: rgb(68, 68, 68); fill-opacity: 1; white-space: pre; opacity: 1;" transform="translate(0,368.64)">1000</text></g><g class="ytick"><text text-anchor="end" x="59" y="4.199999999999999" style="font-family: 'Open Sans', verdana, arial, sans-serif; font-size: 12px; fill: rgb(68, 68, 68); fill-opacity: 1; white-space: pre; opacity: 1;" transform="translate(0,317.28)">2000</text></g><g class="ytick"><text text-anchor="end" x="59" y="4.199999999999999" style="font-family: 'Open Sans', verdana, arial, sans-serif; font-size: 12px; fill: rgb(68, 68, 68); fill-opacity: 1; white-space: pre; opacity: 1;" transform="translate(0,265.90999999999997)">3000</text></g><g class="ytick"><text text-anchor="end" x="59" y="4.199999999999999" style="font-family: 'Open Sans', verdana, arial, sans-serif; font-size: 12px; fill: rgb(68, 68, 68); fill-opacity: 1; white-space: pre; opacity: 1;" transform="translate(0,214.55)">4000</text></g><g class="ytick"><text text-anchor="end" x="59" y="4.199999999999999" style="font-family: 'Open Sans', verdana, arial, sans-serif; font-size: 12px; fill: rgb(68, 68, 68); fill-opacity: 1; white-space: pre; opacity: 1;" transform="translate(0,163.19)">5000</text></g><g class="ytick"><text text-anchor="end" x="59" y="4.199999999999999" style="font-family: 'Open Sans', verdana, arial, sans-serif; font-size: 12px; fill: rgb(68, 68, 68); fill-opacity: 1; white-space: pre; opacity: 1;" transform="translate(0,111.83)">6000</text></g><g class="ytick"><text text-anchor="end" x="59" y="4.199999999999999" style="font-family: 'Open Sans', verdana, arial, sans-serif; font-size: 12px; fill: rgb(68, 68, 68); fill-opacity: 1; white-space: pre; opacity: 1;" transform="translate(0,60.47)">7000</text></g></g><g class="overaxes-above"/></g></g><g class="polarlayer"/><g class="smithlayer"/><g class="ternarylayer"/><g class="geolayer"/><g class="funnelarealayer"/><g class="pielayer"/><g class="iciclelayer"/><g class="treemaplayer"/><g class="sunburstlayer"/><g class="glimages"/><defs id="topdefs-afd28c"><g class="clips"/><clipPath id="legendafd28c"><rect width="108" height="67" x="0" y="0"/></clipPath></defs><g class="layer-above"><g class="imagelayer"/><g class="shapelayer"/></g><g class="infolayer"><g class="legend" pointer-events="all" transform="translate(582.24,25)"><rect class="bg" shape-rendering="crispEdges" style="stroke: rgb(68, 68, 68); stroke-opacity: 1; fill: rgb(255, 255, 255); fill-opacity: 1; stroke-width: 0px;" width="108" height="67" x="0" y="0"/><g class="scrollbox" transform="" clip-path="url(#legendafd28c)"><g class="groups"><g class="traces" transform="translate(0,14.5)" style="opacity: 1;"><text class="legendtext" text-anchor="start" x="40" y="4.680000000000001" style="font-family: 'Open Sans', verdana, arial, sans-serif; font-size: 12px; fill: rgb(68, 68, 68); fill-opacity: 1; white-space: pre;">Active</text><g class="layers"><g class="legendfill"><path class="js-fill" d="M5,-2h30v6h-30z" style="stroke-width: 0; fill: rgb(255, 165, 0); fill-opacity: 1;"/></g><g class="legendlines"><path class="js-line" d="M5,-2h30" style="fill: none; stroke: rgb(255, 165, 0); stroke-opacity: 1; stroke-width: 2px;"/></g><g class="legendsymbols"><g class="legendpoints"/></g></g><rect class="legendtoggle" x="0" y="-9.5" width="102.546875" height="19" style="fill: rgb(0, 0, 0); fill-opacity: 0;"/></g><g class="traces" transform="translate(0,33.5)" style="opacity: 1;"><text class="legendtext" text-anchor="start" x="40" y="4.680000000000001" style="font-family: 'Open Sans', verdana, arial, sans-serif; font-size: 12px; fill: rgb(68, 68, 68); fill-opacity: 1; white-space: pre;">Recovered</text><g class="layers"><g class="legendfill"><path class="js-fill" d="M5,-2h30v6h-30z" style="stroke-width: 0; fill: rgb(0, 255, 0); fill-opacity: 1;"/></g><g class="legendlines"><path class="js-line" d="M5,-2h30" style="fill: none; stroke: rgb(0, 255, 0); stroke-opacity: 1; stroke-width: 2px;"/></g><g class="legendsymbols"><g class="legendpoints"/></g></g><rect class="legendtoggle" x="0" y="-9.5" width="102.546875" height="19" style="fill: rgb(0, 0, 0); fill-opacity: 0;"/></g><g class="traces" transform="translate(0,52.5)" style="opacity: 1;"><text class="legendtext" text-anchor="start" x="40" y="4.680000000000001" style="font-family: 'Open Sans', verdana, arial, sans-serif; font-size: 12px; fill: rgb(68, 68, 68); fill-opacity: 1; white-space: pre;">Deceased</text><g class="layers"><g class="legendfill"><path class="js-fill" d="M5,-2h30v6h-30z" style="stroke-width: 0; fill: rgb(139, 0, 0); fill-opacity: 1;"/></g><g class="legendlines"><path class="js-line" d="M5,-2h30" style="fill: none; stroke: rgb(139, 0, 0); stroke-opacity: 1; stroke-width: 2px;"/></g><g class="legendsymbols"><g class="legendpoints"/></g></g><rect class="legendtoggle" x="0" y="-9.5" width="102.546875" height="19" style="fill: rgb(0, 0, 0); fill-opacity: 0;"/></g></g></g><rect class="scrollbar" rx="20" ry="3" width="0" height="0" style="fill: rgb(128, 139, 164); fill-opacity: 1;" x="0" y="0"/></g><g class="g-gtitle"><text class="gtitle" x="350" y="12.5" text-anchor="middle" dy="0em" style="font-family: serif; font-size: 18px; fill: rgb(68, 68, 68); opacity: 1; font-weight: normal; white-space: pre;">Chamarajanagara</text></g><g class="g-xtitle" transform="translate(0,19.2626953125)"><text class="xtitle" x="316" y="472" text-anchor="middle" style="font-family: 'Open Sans', verdana, arial, sans-serif; font-size: 14px; fill: rgb(68, 68, 68); opacity: 1; font-weight: normal; white-space: pre;">Date</text></g><g class="g-ytitle" transform="translate(2,0)"><text class="ytitle" transform="rotate(-90,14,222.5)" x="14" y="222.5" text-anchor="middle" style="font-family: serif; font-size: 18px; fill: rgb(0, 0, 0); opacity: 1; font-weight: normal; white-space: pre;">Number of Cases</text></g></g></svg>