<svg class="main-svg" xmlns="http://www.w3.org/2000/svg" xmlns:xlink="http://www.w3.org/1999/xlink" width="700" height="500" style="" viewBox="0 0 700 500"><rect x="0" y="0" width="700" height="500" style="fill: rgb(255, 255, 255); fill-opacity: 1;"/><defs id="defs-2bffcd"><g class="clips"><clipPath id="clip2bffcdxyplot" class="plotclip"><rect width="512" height="395"/></clipPath><clipPath class="axesclip" id="clip2bffcdx"><rect x="60" y="0" width="512" height="500"/></clipPath><clipPath class="axesclip" id="clip2bffcdy"><rect x="0" y="25" width="700" height="395"/></clipPath><clipPath class="axesclip" id="clip2bffcdxy"><rect x="60" y="25" width="512" height="395"/></clipPath></g><g class="gradients"/><g class="patterns"/></defs><g class="bglayer"/><g class="layer-below"><g class="imagelayer"/><g class="shapelayer"/></g><g class="cartesianlayer"><g class="subplot xy"><g class="layer-subplot"><g class="shapelayer"/><g class="imagelayer"/></g><g class="gridlayer"><g class="x"><path class="xgrid crisp" transform="translate(76.03999999999999,0)" d="M0,25v395" style="stroke: rgb(238, 238, 238); stroke-opacity: 1; stroke-width: 1px;"/><path class="xgrid crisp" transform="translate(92.08,0)" d="M0,25v395" style="stroke: rgb(238, 238, 238); stroke-opacity: 1; stroke-width: 1px;"/><path class="xgrid crisp" transform="translate(108.13,0)" d="M0,25v395" style="stroke: rgb(238, 238, 238); stroke-opacity: 1; stroke-width: 1px;"/><path class="xgrid crisp" transform="translate(124.17,0)" d="M0,25v395" style="stroke: rgb(238, 238, 238); stroke-opacity: 1; stroke-width: 1px;"/><path class="xgrid crisp" transform="translate(140.20999999999998,0)" d="M0,25v395" style="stroke: rgb(238, 238, 238); stroke-opacity: 1; stroke-width: 1px;"/><path class="xgrid crisp" transform="translate(156.25,0)" d="M0,25v395" style="stroke: rgb(238, 238, 238); stroke-opacity: 1; stroke-width: 1px;"/><path class="xgrid crisp" transform="translate(172.29000000000002,0)" d="M0,25v395" style="stroke: rgb(238, 238, 238); stroke-opacity: 1; stroke-width: 1px;"/><path class="xgrid crisp" transform="translate(188.33,0)" d="M0,25v395" style="stroke: rgb(238, 238, 238); stroke-opacity: 1; stroke-width: 1px;"/><path class="xgrid crisp" transform="translate(204.38,0)" d="M0,25v395" style="stroke: rgb(238, 238, 238); stroke-opacity: 1; stroke-width: 1px;"/><path class="xgrid crisp" transform="translate(220.42,0)" d="M0,25v395" style="stroke: rgb(238, 238, 238); stroke-opacity: 1; stroke-width: 1px;"/><path class="xgrid crisp" transform="translate(236.46,0)" d="M0,25v395" style="stroke: rgb(238, 238, 238); stroke-opacity: 1; stroke-width: 1px;"/><path class="xgrid crisp" transform="translate(252.5,0)" d="M0,25v395" style="stroke: rgb(238, 238, 238); stroke-opacity: 1; stroke-width: 1px;"/><path class="xgrid crisp" transform="translate(268.53999999999996,0)" d="M0,25v395" style="stroke: rgb(238, 238, 238); stroke-opacity: 1; stroke-width: 1px;"/><path class="xgrid crisp" transform="translate(284.58000000000004,0)" d="M0,25v395" style="stroke: rgb(238, 238, 238); stroke-opacity: 1; stroke-width: 1px;"/><path class="xgrid crisp" transform="translate(300.63,0)" d="M0,25v395" style="stroke: rgb(238, 238, 238); stroke-opacity: 1; stroke-width: 1px;"/><path class="xgrid crisp" transform="translate(316.67,0)" d="M0,25v395" style="stroke: rgb(238, 238, 238); stroke-opacity: 1; stroke-width: 1px;"/><path class="xgrid crisp" transform="translate(332.71,0)" d="M0,25v395" style="stroke: rgb(238, 238, 238); stroke-opacity: 1; stroke-width: 1px;"/><path class="xgrid crisp" transform="translate(348.75,0)" d="M0,25v395" style="stroke: rgb(238, 238, 238); stroke-opacity: 1; stroke-width: 1px;"/><path class="xgrid crisp" transform="translate(364.79,0)" d="M0,25v395" style="stroke: rgb(238, 238, 238); stroke-opacity: 1; stroke-width: 1px;"/><path class="xgrid crisp" transform="translate(380.84,0)" d="M0,25v395" style="stroke: rgb(238, 238, 238); stroke-opacity: 1; stroke-width: 1px;"/><path class="xgrid crisp" transform="translate(396.88,0)" d="M0,25v395" style="stroke: rgb(238, 238, 238); stroke-opacity: 1; stroke-width: 1px;"/><path class="xgrid crisp" transform="translate(412.92,0)" d="M0,25v395" style="stroke: rgb(238, 238, 238); stroke-opacity: 1; stroke-width: 1px;"/><path class="xgrid crisp" transform="translate(428.96,0)" d="M0,25v395" style="stroke: rgb(238, 238, 238); stroke-opacity: 1; stroke-width: 1px;"/><path class="xgrid crisp" transform="translate(445,0)" d="M0,25v395" style="stroke: rgb(238, 238, 238); stroke-opacity: 1; stroke-width: 1px;"/><path class="xgrid crisp" transform="translate(461.04,0)" d="M0,25v395" style="stroke: rgb(238, 238, 238); stroke-opacity: 1; stroke-width: 1px;"/><path class="xgrid crisp" transform="translate(477.09,0)" d="M0,25v395" style="stroke: rgb(238, 238, 238); stroke-opacity: 1; stroke-width: 1px;"/><path class="xgrid crisp" transform="translate(493.13,0)" d="M0,25v395" style="stroke: rgb(238, 238, 238); stroke-opacity: 1; stroke-width: 1px;"/><path class="xgrid crisp" transform="translate(509.17,0)" d="M0,25v395" style="stroke: rgb(238, 238, 238); stroke-opacity: 1; stroke-width: 1px;"/><path class="xgrid crisp" transform="translate(525.21,0)" d="M0,25v395" style="stroke: rgb(238, 238, 238); stroke-opacity: 1; stroke-width: 1px;"/><path class="xgrid crisp" transform="translate(541.25,0)" d="M0,25v395" style="stroke: rgb(238, 238, 238); stroke-opacity: 1; stroke-width: 1px;"/><path class="xgrid crisp" transform="translate(557.3,0)" d="M0,25v395" style="stroke: rgb(238, 238, 238); stroke-opacity: 1; stroke-width: 1px;"/></g><g class="y"><path class="ygrid crisp" transform="translate(0,367.48)" d="M60,0h512" style="stroke: rgb(238, 238, 238); stroke-opacity: 1; stroke-width: 1px;"/><path class="ygrid crisp" transform="translate(0,314.96)" d="M60,0h512" style="stroke: rgb(238, 238, 238); stroke-opacity: 1; stroke-width: 1px;"/><path class="ygrid crisp" transform="translate(0,262.44)" d="M60,0h512" style="stroke: rgb(238, 238, 238); stroke-opacity: 1; stroke-width: 1px;"/><path class="ygrid crisp" transform="translate(0,209.92)" d="M60,0h512" style="stroke: rgb(238, 238, 238); stroke-opacity: 1; stroke-width: 1px;"/><path class="ygrid crisp" transform="translate(0,157.4)" d="M60,0h512" style="stroke: rgb(238, 238, 238); stroke-opacity: 1; stroke-width: 1px;"/><path class="ygrid crisp" transform="translate(0,104.88)" d="M60,0h512" style="stroke: rgb(238, 238, 238); stroke-opacity: 1; stroke-width: 1px;"/><path class="ygrid crisp" transform="translate(0,52.370000000000005)" d="M60,0h512" style="stroke: rgb(238, 238, 238); stroke-opacity: 1; stroke-width: 1px;"/></g></g><g class="zerolinelayer"><path class="yzl zl crisp" transform="translate(0,420)" d="M60,0h512" style="stroke: rgb(68, 68, 68); stroke-opacity: 1; stroke-width: 1px;"/></g><path class="xlines-below"/><path class="ylines-below"/><g class="overlines-below"/><g class="xaxislayer-below"/><g class="yaxislayer-below"/><g class="overaxes-below"/><g class="plot" transform="translate(60,25)" clip-path="url(#clip2bffcdxyplot)"><g class="scatterlayer mlayer"><g class="trace scatter trace2c75a0" style="stroke-miterlimit: 2;"><g class="fills"><g><path class="js-fill" d="M512,395L0,395L0,395L167.1,394.26L168.44,394.21L208.54,393.5L209.88,393.45L267.36,392.74L268.7,392.64L510.66,391.9L512,391.88" style="fill: rgb(139, 0, 0); fill-opacity: 1; stroke-width: 0;"/></g><g><path class="js-fill" d="M0,395L92.24,394.4L93.58,393.92L100.26,393.48L101.6,392.98L105.61,392.06L106.95,392.06L110.96,391.64L112.29,391.64L120.31,391.11L121.65,391.11L140.37,390.33L141.7,389.8L148.39,389.14L149.72,389.04L152.4,389.04L153.73,388.07L161.75,386.65L163.09,384.18L168.44,378.85L169.78,378.09L173.79,366.88L175.12,365.8L176.46,365.14L177.8,363.41L179.13,360.99L180.47,360.13L181.81,358.5L183.14,358.11L189.83,351.38L191.16,348.97L193.84,345.24L195.17,339.64L196.51,337.7L197.85,333.42L199.19,330.01L200.52,329.56L203.2,323.81L204.53,323.36L205.87,322.26L207.21,319.4L212.55,310.6L213.89,308L216.56,305.85L217.9,303.67L221.91,298.29L223.25,296L236.62,264.75L237.95,260.47L239.29,259.03L240.63,256.22L244.64,249.23L245.97,247.81L253.99,245.5L255.33,243.88L256.67,243.04L258.01,241.17L260.68,240.12L262.02,238.47L263.35,237.94L264.69,224.55L270.04,199.81L271.37,197.9L274.05,187.84L275.38,184.45L276.72,180.96L278.06,173.84L284.74,151.55L286.08,147.42L291.43,131.09L292.76,125.52L294.1,122.11L295.44,115.73L296.77,113.92L298.11,108.67L300.78,104.46L302.12,103.07L311.48,94.35L312.81,93.85L316.83,92.23L318.16,91.89L328.86,85.53L330.19,85.01L338.21,81.62L339.55,80.67L346.23,78.13L347.57,77.36L354.26,74.55L355.59,73.45L359.6,71.04L360.94,70.35L366.29,66.47L367.62,65.68L376.98,61.24L378.32,60.74L380.99,59.8L382.33,58.12L383.67,57.62L385,54.96L393.02,52.08L394.36,51.58L398.37,49.87L399.71,48.06L406.39,45.04L407.73,44.78L423.77,39.13L425.11,38.89L429.12,37.84L430.45,37.61L451.84,35.27L453.18,35.16L465.21,34.01L466.55,33.93L497.3,29.52L498.63,28.91L512,25.63L512,391.88L510.66,391.9L268.7,392.64L267.36,392.74L209.88,393.45L208.54,393.5L168.44,394.21L167.1,394.26L0,395Z" style="fill: rgb(0, 255, 0); fill-opacity: 1; stroke-width: 0;"/></g></g><g class="errorbars"/><g class="lines"><path class="js-line" d="M0,395L167.1,394.26L168.44,394.21L208.54,393.5L209.88,393.45L267.36,392.74L268.7,392.64L510.66,391.9L512,391.88" style="vector-effect: non-scaling-stroke; fill: none; stroke: rgb(139, 0, 0); stroke-opacity: 1; stroke-width: 2px; opacity: 1;"/></g><g class="points"/><g class="text"/></g><g class="trace scatter trace8cf3f7" style="stroke-miterlimit: 2;"><g class="fills"><g><path class="js-fill" d="M0,394.95L80.21,394.32L81.55,393.08L85.56,391.69L86.89,391.67L102.93,391.06L104.27,391.06L132.34,389.72L133.68,389.38L139.03,388.57L140.37,388.23L144.38,387.12L145.71,386.28L148.39,385.44L149.72,384.42L152.4,382.97L153.73,382.13L157.74,376.49L159.08,372.94L161.75,369.24L163.09,366.35L165.77,362.23L167.1,359.58L173.79,349.83L175.12,348.57L179.13,343.71L180.47,339.22L184.48,331.08L185.82,329.35L195.17,321.53L196.51,318.95L197.85,317.88L199.19,315.72L208.54,301.57L209.88,299.28L220.57,277.44L221.91,272.03L224.58,266.41L225.92,264.25L227.26,262.1L228.6,258.4L231.27,250.57L232.61,247.92L235.28,242.01L236.62,238.07L239.29,231.48L240.63,229.83L247.31,218.4L248.65,217.22L249.98,216.85L251.32,212.55L253.99,204.64L255.33,200.94L259.34,195.06L260.68,188.91L270.04,166.25L271.37,164.81L275.38,154.28L276.72,148.24L279.39,137.89L280.73,135.63L286.08,116.94L287.42,114.1L291.43,109.27L292.76,107.35L295.44,104.44L296.77,100.68L302.12,97.45L303.46,97.27L304.79,94.54L306.13,93.7L307.47,92.23L308.8,92.07L312.81,88.71L314.15,88.08L318.16,85.5L319.5,84.82L342.22,75.79L343.56,75.26L347.57,73.11L348.91,71.8L354.26,67.94L355.59,66.49L360.94,63.42L362.28,62.76L366.29,61.21L367.62,59.69L371.63,58.4L372.97,57.75L379.66,54.39L380.99,53.62L389.01,49.45L390.35,49.24L398.37,44.85L399.71,44.41L417.09,38.89L418.42,38.74L423.77,37.37L425.11,37.29L459.86,33.96L461.2,33.72L473.23,32.09L474.57,31.91L479.92,31.12L481.25,30.7L507.99,24.45L509.33,23.48L510.66,22.87L512,19.75L512,25.63L498.63,28.91L497.3,29.52L466.55,33.93L465.21,34.01L453.18,35.16L451.84,35.27L430.45,37.61L429.12,37.84L425.11,38.89L423.77,39.13L407.73,44.78L406.39,45.04L399.71,48.06L398.37,49.87L394.36,51.58L393.02,52.08L385,54.96L383.67,57.62L382.33,58.12L380.99,59.8L378.32,60.74L376.98,61.24L367.62,65.68L366.29,66.47L360.94,70.35L359.6,71.04L355.59,73.45L354.26,74.55L347.57,77.36L346.23,78.13L339.55,80.67L338.21,81.62L330.19,85.01L328.86,85.53L318.16,91.89L316.83,92.23L312.81,93.85L311.48,94.35L302.12,103.07L300.78,104.46L298.11,108.67L296.77,113.92L295.44,115.73L294.1,122.11L292.76,125.52L291.43,131.09L286.08,147.42L284.74,151.55L278.06,173.84L276.72,180.96L275.38,184.45L274.05,187.84L271.37,197.9L270.04,199.81L264.69,224.55L263.35,237.94L262.02,238.47L260.68,240.12L258.01,241.17L256.67,243.04L255.33,243.88L253.99,245.5L245.97,247.81L244.64,249.23L240.63,256.22L239.29,259.03L237.95,260.47L236.62,264.75L223.25,296L221.91,298.29L217.9,303.67L216.56,305.85L213.89,308L212.55,310.6L207.21,319.4L205.87,322.26L204.53,323.36L203.2,323.81L200.52,329.56L199.19,330.01L197.85,333.42L196.51,337.7L195.17,339.64L193.84,345.24L191.16,348.97L189.83,351.38L183.14,358.11L181.81,358.5L180.47,360.13L179.13,360.99L177.8,363.41L176.46,365.14L175.12,365.8L173.79,366.88L169.78,378.09L168.44,378.85L163.09,384.18L161.75,386.65L153.73,388.07L152.4,389.04L149.72,389.04L148.39,389.14L141.7,389.8L140.37,390.33L121.65,391.11L120.31,391.11L112.29,391.64L110.96,391.64L106.95,392.06L105.61,392.06L101.6,392.98L100.26,393.48L93.58,393.92L92.24,394.4L0,395Z" style="fill: rgb(255, 165, 0); fill-opacity: 1; stroke-width: 0;"/></g></g><g class="errorbars"/><g class="lines"><path class="js-line" d="M0,395L92.24,394.4L93.58,393.92L100.26,393.48L101.6,392.98L105.61,392.06L106.95,392.06L110.96,391.64L112.29,391.64L120.31,391.11L121.65,391.11L140.37,390.33L141.7,389.8L148.39,389.14L149.72,389.04L152.4,389.04L153.73,388.07L161.75,386.65L163.09,384.18L168.44,378.85L169.78,378.09L173.79,366.88L175.12,365.8L176.46,365.14L177.8,363.41L179.13,360.99L180.47,360.13L181.81,358.5L183.14,358.11L189.83,351.38L191.16,348.97L193.84,345.24L195.17,339.64L196.51,337.7L197.85,333.42L199.19,330.01L200.52,329.56L203.2,323.81L204.53,323.36L205.87,322.26L207.21,319.4L212.55,310.6L213.89,308L216.56,305.85L217.9,303.67L221.91,298.29L223.25,296L236.62,264.75L237.95,260.47L239.29,259.03L240.63,256.22L244.64,249.23L245.97,247.81L253.99,245.5L255.33,243.88L256.67,243.04L258.01,241.17L260.68,240.12L262.02,238.47L263.35,237.94L264.69,224.55L270.04,199.81L271.37,197.9L274.05,187.84L275.38,184.45L276.72,180.96L278.06,173.84L284.74,151.55L286.08,147.42L291.43,131.09L292.76,125.52L294.1,122.11L295.44,115.73L296.77,113.92L298.11,108.67L300.78,104.46L302.12,103.07L311.48,94.35L312.81,93.85L316.83,92.23L318.16,91.89L328.86,85.53L330.19,85.01L338.21,81.62L339.55,80.67L346.23,78.13L347.57,77.36L354.26,74.55L355.59,73.45L359.6,71.04L360.94,70.35L366.29,66.47L367.62,65.68L376.98,61.24L378.32,60.74L380.99,59.8L382.33,58.12L383.67,57.62L385,54.96L393.02,52.08L394.36,51.58L398.37,49.87L399.71,48.06L406.39,45.04L407.73,44.78L423.77,39.13L425.11,38.89L429.12,37.84L430.45,37.61L451.84,35.27L453.18,35.16L465.21,34.01L466.55,33.93L497.3,29.52L498.63,28.91L512,25.63" style="vector-effect: non-scaling-stroke; fill: none; stroke: rgb(0, 255, 0); stroke-opacity: 1; stroke-width: 2px; opacity: 1;"/></g><g class="points"/><g class="text"/></g><g class="trace scatter trace20802f" style="stroke-miterlimit: 2;"><g class="fills"/><g class="errorbars"/><g class="lines"><path class="js-line" d="M0,394.95L80.21,394.32L81.55,393.08L85.56,391.69L86.89,391.67L102.93,391.06L104.27,391.06L132.34,389.72L133.68,389.38L139.03,388.57L140.37,388.23L144.38,387.12L145.71,386.28L148.39,385.44L149.72,384.42L152.4,382.97L153.73,382.13L157.74,376.49L159.08,372.94L161.75,369.24L163.09,366.35L165.77,362.23L167.1,359.58L173.79,349.83L175.12,348.57L179.13,343.71L180.47,339.22L184.48,331.08L185.82,329.35L195.17,321.53L196.51,318.95L197.85,317.88L199.19,315.72L208.54,301.57L209.88,299.28L220.57,277.44L221.91,272.03L224.58,266.41L225.92,264.25L227.26,262.1L228.6,258.4L231.27,250.57L232.61,247.92L235.28,242.01L236.62,238.07L239.29,231.48L240.63,229.83L247.31,218.4L248.65,217.22L249.98,216.85L251.32,212.55L253.99,204.64L255.33,200.94L259.34,195.06L260.68,188.91L270.04,166.25L271.37,164.81L275.38,154.28L276.72,148.24L279.39,137.89L280.73,135.63L286.08,116.94L287.42,114.1L291.43,109.27L292.76,107.35L295.44,104.44L296.77,100.68L302.12,97.45L303.46,97.27L304.79,94.54L306.13,93.7L307.47,92.23L308.8,92.07L312.81,88.71L314.15,88.08L318.16,85.5L319.5,84.82L342.22,75.79L343.56,75.26L347.57,73.11L348.91,71.8L354.26,67.94L355.59,66.49L360.94,63.42L362.28,62.76L366.29,61.21L367.62,59.69L371.63,58.4L372.97,57.75L379.66,54.39L380.99,53.62L389.01,49.45L390.35,49.24L398.37,44.85L399.71,44.41L417.09,38.89L418.42,38.74L423.77,37.37L425.11,37.29L459.86,33.96L461.2,33.72L473.23,32.09L474.57,31.91L479.92,31.12L481.25,30.7L507.99,24.45L509.33,23.48L510.66,22.87L512,19.75" style="vector-effect: non-scaling-stroke; fill: none; stroke: rgb(255, 165, 0); stroke-opacity: 1; stroke-width: 2px; opacity: 1;"/></g><g class="points"/><g class="text"/></g></g></g><g class="overplot"/><path class="xlines-above crisp" d="M0,0" style="fill: none;"/><path class="ylines-above crisp" d="M0,0" style="fill: none;"/><g class="overlines-above"/><g class="xaxislayer-above"><g class="xtick"><text text-anchor="end" x="0" y="434" transform="translate(60,0) rotate(-45,0,427.5)" style="font-family: serif; font-size: 13px; fill: rgb(68, 68, 68); fill-opacity: 1; white-space: pre; opacity: 1;">Mar-22-20</text></g><g class="xtick"><text text-anchor="end" x="0" y="434" transform="translate(76.03999999999999,0) rotate(-45,0,427.5)" style="font-family: serif; font-size: 13px; fill: rgb(68, 68, 68); fill-opacity: 1; white-space: pre; opacity: 1;">Apr-03-20</text></g><g class="xtick"><text text-anchor="end" x="0" y="434" transform="translate(92.08,0) rotate(-45,0,427.5)" style="font-family: serif; font-size: 13px; fill: rgb(68, 68, 68); fill-opacity: 1; white-space: pre; opacity: 1;">Apr-15-20</text></g><g class="xtick"><text text-anchor="end" x="0" y="434" transform="translate(108.13,0) rotate(-45,0,427.5)" style="font-family: serif; font-size: 13px; fill: rgb(68, 68, 68); fill-opacity: 1; white-space: pre; opacity: 1;">Apr-27-20</text></g><g class="xtick"><text text-anchor="end" x="0" y="434" transform="translate(124.17,0) rotate(-45,0,427.5)" style="font-family: serif; font-size: 13px; fill: rgb(68, 68, 68); fill-opacity: 1; white-space: pre; opacity: 1;">May-09-20</text></g><g class="xtick"><text text-anchor="end" x="0" y="434" transform="translate(140.20999999999998,0) rotate(-45,0,427.5)" style="font-family: serif; font-size: 13px; fill: rgb(68, 68, 68); fill-opacity: 1; white-space: pre; opacity: 1;">May-21-20</text></g><g class="xtick"><text text-anchor="end" x="0" y="434" transform="translate(156.25,0) rotate(-45,0,427.5)" style="font-family: serif; font-size: 13px; fill: rgb(68, 68, 68); fill-opacity: 1; white-space: pre; opacity: 1;">Jun-02-20</text></g><g class="xtick"><text text-anchor="end" x="0" y="434" transform="translate(172.29000000000002,0) rotate(-45,0,427.5)" style="font-family: serif; font-size: 13px; fill: rgb(68, 68, 68); fill-opacity: 1; white-space: pre; opacity: 1;">Jun-14-20</text></g><g class="xtick"><text text-anchor="end" x="0" y="434" transform="translate(188.33,0) rotate(-45,0,427.5)" style="font-family: serif; font-size: 13px; fill: rgb(68, 68, 68); fill-opacity: 1; white-space: pre; opacity: 1;">Jun-26-20</text></g><g class="xtick"><text text-anchor="end" x="0" y="434" transform="translate(204.38,0) rotate(-45,0,427.5)" style="font-family: serif; font-size: 13px; fill: rgb(68, 68, 68); fill-opacity: 1; white-space: pre; opacity: 1;">Jul-08-20</text></g><g class="xtick"><text text-anchor="end" x="0" y="434" transform="translate(220.42,0) rotate(-45,0,427.5)" style="font-family: serif; font-size: 13px; fill: rgb(68, 68, 68); fill-opacity: 1; white-space: pre; opacity: 1;">Jul-20-20</text></g><g class="xtick"><text text-anchor="end" x="0" y="434" transform="translate(236.46,0) rotate(-45,0,427.5)" style="font-family: serif; font-size: 13px; fill: rgb(68, 68, 68); fill-opacity: 1; white-space: pre; opacity: 1;">Aug-01-20</text></g><g class="xtick"><text text-anchor="end" x="0" y="434" transform="translate(252.5,0) rotate(-45,0,427.5)" style="font-family: serif; font-size: 13px; fill: rgb(68, 68, 68); fill-opacity: 1; white-space: pre; opacity: 1;">Aug-13-20</text></g><g class="xtick"><text text-anchor="end" x="0" y="434" transform="translate(268.53999999999996,0) rotate(-45,0,427.5)" style="font-family: serif; font-size: 13px; fill: rgb(68, 68, 68); fill-opacity: 1; white-space: pre; opacity: 1;">Aug-25-20</text></g><g class="xtick"><text text-anchor="end" x="0" y="434" transform="translate(284.58000000000004,0) rotate(-45,0,427.5)" style="font-family: serif; font-size: 13px; fill: rgb(68, 68, 68); fill-opacity: 1; white-space: pre; opacity: 1;">Sep-06-20</text></g><g class="xtick"><text text-anchor="end" x="0" y="434" transform="translate(300.63,0) rotate(-45,0,427.5)" style="font-family: serif; font-size: 13px; fill: rgb(68, 68, 68); fill-opacity: 1; white-space: pre; opacity: 1;">Sep-18-20</text></g><g class="xtick"><text text-anchor="end" x="0" y="434" transform="translate(316.67,0) rotate(-45,0,427.5)" style="font-family: serif; font-size: 13px; fill: rgb(68, 68, 68); fill-opacity: 1; white-space: pre; opacity: 1;">Sep-30-20</text></g><g class="xtick"><text text-anchor="end" x="0" y="434" transform="translate(332.71,0) rotate(-45,0,427.5)" style="font-family: serif; font-size: 13px; fill: rgb(68, 68, 68); fill-opacity: 1; white-space: pre; opacity: 1;">Oct-12-20</text></g><g class="xtick"><text text-anchor="end" x="0" y="434" transform="translate(348.75,0) rotate(-45,0,427.5)" style="font-family: serif; font-size: 13px; fill: rgb(68, 68, 68); fill-opacity: 1; white-space: pre; opacity: 1;">Oct-24-20</text></g><g class="xtick"><text text-anchor="end" x="0" y="434" transform="translate(364.79,0) rotate(-45,0,427.5)" style="font-family: serif; font-size: 13px; fill: rgb(68, 68, 68); fill-opacity: 1; white-space: pre; opacity: 1;">Nov-05-20</text></g><g class="xtick"><text text-anchor="end" x="0" y="434" transform="translate(380.84,0) rotate(-45,0,427.5)" style="font-family: serif; font-size: 13px; fill: rgb(68, 68, 68); fill-opacity: 1; white-space: pre; opacity: 1;">Nov-17-20</text></g><g class="xtick"><text text-anchor="end" x="0" y="434" transform="translate(396.88,0) rotate(-45,0,427.5)" style="font-family: serif; font-size: 13px; fill: rgb(68, 68, 68); fill-opacity: 1; white-space: pre; opacity: 1;">Nov-29-20</text></g><g class="xtick"><text text-anchor="end" x="0" y="434" transform="translate(412.92,0) rotate(-45,0,427.5)" style="font-family: serif; font-size: 13px; fill: rgb(68, 68, 68); fill-opacity: 1; white-space: pre; opacity: 1;">Dec-11-20</text></g><g class="xtick"><text text-anchor="end" x="0" y="434" transform="translate(428.96,0) rotate(-45,0,427.5)" style="font-family: serif; font-size: 13px; fill: rgb(68, 68, 68); fill-opacity: 1; white-space: pre; opacity: 1;">Dec-23-20</text></g><g class="xtick"><text text-anchor="end" x="0" y="434" transform="translate(445,0) rotate(-45,0,427.5)" style="font-family: serif; font-size: 13px; fill: rgb(68, 68, 68); fill-opacity: 1; white-space: pre; opacity: 1;">Jan-04-21</text></g><g class="xtick"><text text-anchor="end" x="0" y="434" transform="translate(461.04,0) rotate(-45,0,427.5)" style="font-family: serif; font-size: 13px; fill: rgb(68, 68, 68); fill-opacity: 1; white-space: pre; opacity: 1;">Jan-16-21</text></g><g class="xtick"><text text-anchor="end" x="0" y="434" transform="translate(477.09,0) rotate(-45,0,427.5)" style="font-family: serif; font-size: 13px; fill: rgb(68, 68, 68); fill-opacity: 1; white-space: pre; opacity: 1;">Jan-28-21</text></g><g class="xtick"><text text-anchor="end" x="0" y="434" transform="translate(493.13,0) rotate(-45,0,427.5)" style="font-family: serif; font-size: 13px; fill: rgb(68, 68, 68); fill-opacity: 1; white-space: pre; opacity: 1;">Feb-09-21</text></g><g class="xtick"><text text-anchor="end" x="0" y="434" transform="translate(509.17,0) rotate(-45,0,427.5)" style="font-family: serif; font-size: 13px; fill: rgb(68, 68, 68); fill-opacity: 1; white-space: pre; opacity: 1;">Feb-21-21</text></g><g class="xtick"><text text-anchor="end" x="0" y="434" transform="translate(525.21,0) rotate(-45,0,427.5)" style="font-family: serif; font-size: 13px; fill: rgb(68, 68, 68); fill-opacity: 1; white-space: pre; opacity: 1;">Mar-05-21</text></g><g class="xtick"><text text-anchor="end" x="0" y="434" transform="translate(541.25,0) rotate(-45,0,427.5)" style="font-family: serif; font-size: 13px; fill: rgb(68, 68, 68); fill-opacity: 1; white-space: pre; opacity: 1;">Mar-17-21</text></g><g class="xtick"><text text-anchor="end" x="0" y="434" transform="translate(557.3,0) rotate(-45,0,427.5)" style="font-family: serif; font-size: 13px; fill: rgb(68, 68, 68); fill-opacity: 1; white-space: pre; opacity: 1;">Mar-29-21</text></g></g><g class="yaxislayer-above"><g class="ytick"><text text-anchor="end" x="59" y="4.199999999999999" transform="translate(0,420)" style="font-family: 'Open Sans', verdana, arial, sans-serif; font-size: 12px; fill: rgb(68, 68, 68); fill-opacity: 1; white-space: pre; opacity: 1;">0</text></g><g class="ytick"><text text-anchor="end" x="59" y="4.199999999999999" style="font-family: 'Open Sans', verdana, arial, sans-serif; font-size: 12px; fill: rgb(68, 68, 68); fill-opacity: 1; white-space: pre; opacity: 1;" transform="translate(0,367.48)">2k</text></g><g class="ytick"><text text-anchor="end" x="59" y="4.199999999999999" style="font-family: 'Open Sans', verdana, arial, sans-serif; font-size: 12px; fill: rgb(68, 68, 68); fill-opacity: 1; white-space: pre; opacity: 1;" transform="translate(0,314.96)">4k</text></g><g class="ytick"><text text-anchor="end" x="59" y="4.199999999999999" style="font-family: 'Open Sans', verdana, arial, sans-serif; font-size: 12px; fill: rgb(68, 68, 68); fill-opacity: 1; white-space: pre; opacity: 1;" transform="translate(0,262.44)">6k</text></g><g class="ytick"><text text-anchor="end" x="59" y="4.199999999999999" style="font-family: 'Open Sans', verdana, arial, sans-serif; font-size: 12px; fill: rgb(68, 68, 68); fill-opacity: 1; white-space: pre; opacity: 1;" transform="translate(0,209.92)">8k</text></g><g class="ytick"><text text-anchor="end" x="59" y="4.199999999999999" style="font-family: 'Open Sans', verdana, arial, sans-serif; font-size: 12px; fill: rgb(68, 68, 68); fill-opacity: 1; white-space: pre; opacity: 1;" transform="translate(0,157.4)">10k</text></g><g class="ytick"><text text-anchor="end" x="59" y="4.199999999999999" style="font-family: 'Open Sans', verdana, arial, sans-serif; font-size: 12px; fill: rgb(68, 68, 68); fill-opacity: 1; white-space: pre; opacity: 1;" transform="translate(0,104.88)">12k</text></g><g class="ytick"><text text-anchor="end" x="59" y="4.199999999999999" style="font-family: 'Open Sans', verdana, arial, sans-serif; font-size: 12px; fill: rgb(68, 68, 68); fill-opacity: 1; white-space: pre; opacity: 1;" transform="translate(0,52.370000000000005)">14k</text></g></g><g class="overaxes-above"/></g></g><g class="polarlayer"/><g class="smithlayer"/><g class="ternarylayer"/><g class="geolayer"/><g class="funnelarealayer"/><g class="pielayer"/><g class="iciclelayer"/><g class="treemaplayer"/><g class="sunburstlayer"/><g class="glimages"/><defs id="topdefs-2bffcd"><g class="clips"/><clipPath id="legend2bffcd"><rect width="108" height="67" x="0" y="0"/></clipPath></defs><g class="layer-above"><g class="imagelayer"/><g class="shapelayer"/></g><g class="infolayer"><g class="legend" pointer-events="all" transform="translate(582.24,25)"><rect class="bg" shape-rendering="crispEdges" style="stroke: rgb(68, 68, 68); stroke-opacity: 1; fill: rgb(255, 255, 255); fill-opacity: 1; stroke-width: 0px;" width="108" height="67" x="0" y="0"/><g class="scrollbox" transform="" clip-path="url(#legend2bffcd)"><g class="groups"><g class="traces" transform="translate(0,14.5)" style="opacity: 1;"><text class="legendtext" text-anchor="start" x="40" y="4.680000000000001" style="font-family: 'Open Sans', verdana, arial, sans-serif; font-size: 12px; fill: rgb(68, 68, 68); fill-opacity: 1; white-space: pre;">Active</text><g class="layers"><g class="legendfill"><path class="js-fill" d="M5,-2h30v6h-30z" style="stroke-width: 0; fill: rgb(255, 165, 0); fill-opacity: 1;"/></g><g class="legendlines"><path class="js-line" d="M5,-2h30" style="fill: none; stroke: rgb(255, 165, 0); stroke-opacity: 1; stroke-width: 2px;"/></g><g class="legendsymbols"><g class="legendpoints"/></g></g><rect class="legendtoggle" x="0" y="-9.5" width="102.546875" height="19" style="fill: rgb(0, 0, 0); fill-opacity: 0;"/></g><g class="traces" transform="translate(0,33.5)" style="opacity: 1;"><text class="legendtext" text-anchor="start" x="40" y="4.680000000000001" style="font-family: 'Open Sans', verdana, arial, sans-serif; font-size: 12px; fill: rgb(68, 68, 68); fill-opacity: 1; white-space: pre;">Recovered</text><g class="layers"><g class="legendfill"><path class="js-fill" d="M5,-2h30v6h-30z" style="stroke-width: 0; fill: rgb(0, 255, 0); fill-opacity: 1;"/></g><g class="legendlines"><path class="js-line" d="M5,-2h30" style="fill: none; stroke: rgb(0, 255, 0); stroke-opacity: 1; stroke-width: 2px;"/></g><g class="legendsymbols"><g class="legendpoints"/></g></g><rect class="legendtoggle" x="0" y="-9.5" width="102.546875" height="19" style="fill: rgb(0, 0, 0); fill-opacity: 0;"/></g><g class="traces" transform="translate(0,52.5)" style="opacity: 1;"><text class="legendtext" text-anchor="start" x="40" y="4.680000000000001" style="font-family: 'Open Sans', verdana, arial, sans-serif; font-size: 12px; fill: rgb(68, 68, 68); fill-opacity: 1; white-space: pre;">Deceased</text><g class="layers"><g class="legendfill"><path class="js-fill" d="M5,-2h30v6h-30z" style="stroke-width: 0; fill: rgb(139, 0, 0); fill-opacity: 1;"/></g><g class="legendlines"><path class="js-line" d="M5,-2h30" style="fill: none; stroke: rgb(139, 0, 0); stroke-opacity: 1; stroke-width: 2px;"/></g><g class="legendsymbols"><g class="legendpoints"/></g></g><rect class="legendtoggle" x="0" y="-9.5" width="102.546875" height="19" style="fill: rgb(0, 0, 0); fill-opacity: 0;"/></g></g></g><rect class="scrollbar" rx="20" ry="3" width="0" height="0" style="fill: rgb(128, 139, 164); fill-opacity: 1;" x="0" y="0"/></g><g class="g-gtitle"><text class="gtitle" x="350" y="12.5" text-anchor="middle" dy="0em" style="font-family: serif; font-size: 18px; fill: rgb(68, 68, 68); opacity: 1; font-weight: normal; white-space: pre;">Chikkaballapura</text></g><g class="g-xtitle" transform="translate(0,19.2626953125)"><text class="xtitle" x="316" y="472" text-anchor="middle" style="font-family: 'Open Sans', verdana, arial, sans-serif; font-size: 14px; fill: rgb(68, 68, 68); opacity: 1; font-weight: normal; white-space: pre;">Date</text></g><g class="g-ytitle" transform="translate(2,0)"><text class="ytitle" transform="rotate(-90,14,222.5)" x="14" y="222.5" text-anchor="middle" style="font-family: serif; font-size: 18px; fill: rgb(0, 0, 0); opacity: 1; font-weight: normal; white-space: pre;">Number of Cases</text></g></g></svg>