<svg class="main-svg" xmlns="http://www.w3.org/2000/svg" xmlns:xlink="http://www.w3.org/1999/xlink" width="700" height="500" style="" viewBox="0 0 700 500"><rect x="0" y="0" width="700" height="500" style="fill: rgb(255, 255, 255); fill-opacity: 1;"/><defs id="defs-a9bca7"><g class="clips"><clipPath id="clipa9bca7xyplot" class="plotclip"><rect width="620" height="381"/></clipPath><clipPath class="axesclip" id="clipa9bca7x"><rect x="63" y="0" width="620" height="500"/></clipPath><clipPath class="axesclip" id="clipa9bca7y"><rect x="0" y="25" width="700" height="381"/></clipPath><clipPath class="axesclip" id="clipa9bca7xy"><rect x="63" y="25" width="620" height="381"/></clipPath></g><g class="gradients"/><g class="patterns"/></defs><g class="bglayer"/><g class="layer-below"><g class="imagelayer"/><g class="shapelayer"/></g><g class="cartesianlayer"><g class="subplot xy"><g class="layer-subplot"><g class="shapelayer"/><g class="imagelayer"/></g><g class="gridlayer"><g class="x"><path class="xgrid crisp" transform="translate(79.76,0)" d="M0,25v381" style="stroke: rgb(238, 238, 238); stroke-opacity: 1; stroke-width: 1px;"/><path class="xgrid crisp" transform="translate(96.50999999999999,0)" d="M0,25v381" style="stroke: rgb(238, 238, 238); stroke-opacity: 1; stroke-width: 1px;"/><path class="xgrid crisp" transform="translate(113.27000000000001,0)" d="M0,25v381" style="stroke: rgb(238, 238, 238); stroke-opacity: 1; stroke-width: 1px;"/><path class="xgrid crisp" transform="translate(130.03,0)" d="M0,25v381" style="stroke: rgb(238, 238, 238); stroke-opacity: 1; stroke-width: 1px;"/><path class="xgrid crisp" transform="translate(146.78,0)" d="M0,25v381" style="stroke: rgb(238, 238, 238); stroke-opacity: 1; stroke-width: 1px;"/><path class="xgrid crisp" transform="translate(163.54000000000002,0)" d="M0,25v381" style="stroke: rgb(238, 238, 238); stroke-opacity: 1; stroke-width: 1px;"/><path class="xgrid crisp" transform="translate(180.3,0)" d="M0,25v381" style="stroke: rgb(238, 238, 238); stroke-opacity: 1; stroke-width: 1px;"/><path class="xgrid crisp" transform="translate(197.05,0)" d="M0,25v381" style="stroke: rgb(238, 238, 238); stroke-opacity: 1; stroke-width: 1px;"/><path class="xgrid crisp" transform="translate(213.81,0)" d="M0,25v381" style="stroke: rgb(238, 238, 238); stroke-opacity: 1; stroke-width: 1px;"/><path class="xgrid crisp" transform="translate(230.57,0)" d="M0,25v381" style="stroke: rgb(238, 238, 238); stroke-opacity: 1; stroke-width: 1px;"/><path class="xgrid crisp" transform="translate(247.32,0)" d="M0,25v381" style="stroke: rgb(238, 238, 238); stroke-opacity: 1; stroke-width: 1px;"/><path class="xgrid crisp" transform="translate(264.08000000000004,0)" d="M0,25v381" style="stroke: rgb(238, 238, 238); stroke-opacity: 1; stroke-width: 1px;"/><path class="xgrid crisp" transform="translate(280.84000000000003,0)" d="M0,25v381" style="stroke: rgb(238, 238, 238); stroke-opacity: 1; stroke-width: 1px;"/><path class="xgrid crisp" transform="translate(297.59000000000003,0)" d="M0,25v381" style="stroke: rgb(238, 238, 238); stroke-opacity: 1; stroke-width: 1px;"/><path class="xgrid crisp" transform="translate(314.35,0)" d="M0,25v381" style="stroke: rgb(238, 238, 238); stroke-opacity: 1; stroke-width: 1px;"/><path class="xgrid crisp" transform="translate(331.11,0)" d="M0,25v381" style="stroke: rgb(238, 238, 238); stroke-opacity: 1; stroke-width: 1px;"/><path class="xgrid crisp" transform="translate(347.86,0)" d="M0,25v381" style="stroke: rgb(238, 238, 238); stroke-opacity: 1; stroke-width: 1px;"/><path class="xgrid crisp" transform="translate(364.62,0)" d="M0,25v381" style="stroke: rgb(238, 238, 238); stroke-opacity: 1; stroke-width: 1px;"/><path class="xgrid crisp" transform="translate(381.38,0)" d="M0,25v381" style="stroke: rgb(238, 238, 238); stroke-opacity: 1; stroke-width: 1px;"/><path class="xgrid crisp" transform="translate(398.14,0)" d="M0,25v381" style="stroke: rgb(238, 238, 238); stroke-opacity: 1; stroke-width: 1px;"/><path class="xgrid crisp" transform="translate(414.89,0)" d="M0,25v381" style="stroke: rgb(238, 238, 238); stroke-opacity: 1; stroke-width: 1px;"/><path class="xgrid crisp" transform="translate(431.65,0)" d="M0,25v381" style="stroke: rgb(238, 238, 238); stroke-opacity: 1; stroke-width: 1px;"/><path class="xgrid crisp" transform="translate(448.41,0)" d="M0,25v381" style="stroke: rgb(238, 238, 238); stroke-opacity: 1; stroke-width: 1px;"/><path class="xgrid crisp" transform="translate(465.16,0)" d="M0,25v381" style="stroke: rgb(238, 238, 238); stroke-opacity: 1; stroke-width: 1px;"/><path class="xgrid crisp" transform="translate(481.92,0)" d="M0,25v381" style="stroke: rgb(238, 238, 238); stroke-opacity: 1; stroke-width: 1px;"/><path class="xgrid crisp" transform="translate(498.68,0)" d="M0,25v381" style="stroke: rgb(238, 238, 238); stroke-opacity: 1; stroke-width: 1px;"/><path class="xgrid crisp" transform="translate(515.4300000000001,0)" d="M0,25v381" style="stroke: rgb(238, 238, 238); stroke-opacity: 1; stroke-width: 1px;"/><path class="xgrid crisp" transform="translate(532.19,0)" d="M0,25v381" style="stroke: rgb(238, 238, 238); stroke-opacity: 1; stroke-width: 1px;"/><path class="xgrid crisp" transform="translate(548.95,0)" d="M0,25v381" style="stroke: rgb(238, 238, 238); stroke-opacity: 1; stroke-width: 1px;"/><path class="xgrid crisp" transform="translate(565.7,0)" d="M0,25v381" style="stroke: rgb(238, 238, 238); stroke-opacity: 1; stroke-width: 1px;"/><path class="xgrid crisp" transform="translate(582.46,0)" d="M0,25v381" style="stroke: rgb(238, 238, 238); stroke-opacity: 1; stroke-width: 1px;"/><path class="xgrid crisp" transform="translate(599.22,0)" d="M0,25v381" style="stroke: rgb(238, 238, 238); stroke-opacity: 1; stroke-width: 1px;"/><path class="xgrid crisp" transform="translate(615.97,0)" d="M0,25v381" style="stroke: rgb(238, 238, 238); stroke-opacity: 1; stroke-width: 1px;"/><path class="xgrid crisp" transform="translate(632.73,0)" d="M0,25v381" style="stroke: rgb(238, 238, 238); stroke-opacity: 1; stroke-width: 1px;"/><path class="xgrid crisp" transform="translate(649.49,0)" d="M0,25v381" style="stroke: rgb(238, 238, 238); stroke-opacity: 1; stroke-width: 1px;"/><path class="xgrid crisp" transform="translate(666.24,0)" d="M0,25v381" style="stroke: rgb(238, 238, 238); stroke-opacity: 1; stroke-width: 1px;"/></g><g class="y"><path class="ygrid crisp" transform="translate(0,341.13)" d="M63,0h620" style="stroke: rgb(238, 238, 238); stroke-opacity: 1; stroke-width: 1px;"/><path class="ygrid crisp" transform="translate(0,276.27)" d="M63,0h620" style="stroke: rgb(238, 238, 238); stroke-opacity: 1; stroke-width: 1px;"/><path class="ygrid crisp" transform="translate(0,211.4)" d="M63,0h620" style="stroke: rgb(238, 238, 238); stroke-opacity: 1; stroke-width: 1px;"/><path class="ygrid crisp" transform="translate(0,146.54000000000002)" d="M63,0h620" style="stroke: rgb(238, 238, 238); stroke-opacity: 1; stroke-width: 1px;"/><path class="ygrid crisp" transform="translate(0,81.67)" d="M63,0h620" style="stroke: rgb(238, 238, 238); stroke-opacity: 1; stroke-width: 1px;"/></g></g><g class="zerolinelayer"/><path class="xlines-below"/><path class="ylines-below"/><g class="overlines-below"/><g class="xaxislayer-below"/><g class="yaxislayer-below"/><g class="overaxes-below"/><g class="plot" transform="translate(63,25)" clip-path="url(#clipa9bca7xyplot)"><g class="scatterlayer mlayer"><g class="trace scatter trace82c4a6" style="stroke-miterlimit: 2;"><g class="fills"><g><path class="js-fill" d="M620,381L0,381L0,381L50.27,381L67.03,379.7L268.11,379.7L284.86,378.41L301.62,377.11L318.38,377.11L418.92,377.11L435.68,375.81L485.95,375.81L502.7,374.51L586.49,374.51L603.24,369.32L620,366.73" style="fill: rgb(139, 0, 0); fill-opacity: 1; stroke-width: 0;"/></g><g><path class="js-fill" d="M0,381L50.27,381L67.03,379.7L167.57,379.7L184.32,378.41L234.59,378.41L251.35,375.81L268.11,375.81L284.86,374.51L301.62,370.62L318.38,370.62L335.14,370.62L351.89,369.32L368.65,365.43L385.41,362.84L418.92,362.84L435.68,361.54L452.43,360.24L469.19,349.86L485.95,340.78L502.7,334.3L536.22,329.11L552.97,323.92L569.73,304.46L586.49,296.67L603.24,277.22L620,262.94L620,366.73L603.24,369.32L586.49,374.51L502.7,374.51L485.95,375.81L435.68,375.81L418.92,377.11L318.38,377.11L301.62,377.11L284.86,378.41L268.11,379.7L67.03,379.7L50.27,381L0,381Z" style="fill: rgb(0, 255, 0); fill-opacity: 1; stroke-width: 0;"/></g></g><g class="errorbars"/><g class="lines"><path class="js-line" d="M0,381L50.27,381L67.03,379.7L268.11,379.7L284.86,378.41L301.62,377.11L318.38,377.11L418.92,377.11L435.68,375.81L485.95,375.81L502.7,374.51L586.49,374.51L603.24,369.32L620,366.73" style="vector-effect: non-scaling-stroke; fill: none; stroke: rgb(139, 0, 0); stroke-opacity: 1; stroke-width: 2px; opacity: 1;"/></g><g class="points"/><g class="text"/></g><g class="trace scatter trace320662" style="stroke-miterlimit: 2;"><g class="fills"><g><path class="js-fill" d="M0,377.11L16.76,374.51L33.51,374.51L50.27,374.51L67.03,371.92L117.3,371.92L134.05,366.73L150.81,362.84L167.57,361.54L184.32,361.54L201.08,355.05L217.84,348.57L234.59,338.19L251.35,327.81L268.11,314.84L284.86,309.65L301.62,297.97L318.38,282.4L335.14,273.32L351.89,266.84L368.65,249.97L385.41,238.3L402.16,220.13L418.92,214.94L435.68,194.19L452.43,185.11L469.19,169.54L485.95,153.97L502.7,146.19L519.46,125.43L536.22,112.46L552.97,102.08L569.73,80.02L586.49,60.56L603.24,43.7L620,19.05L620,262.94L603.24,277.22L586.49,296.67L569.73,304.46L552.97,323.92L536.22,329.11L502.7,334.3L485.95,340.78L469.19,349.86L452.43,360.24L435.68,361.54L418.92,362.84L385.41,362.84L368.65,365.43L351.89,369.32L335.14,370.62L318.38,370.62L301.62,370.62L284.86,374.51L268.11,375.81L251.35,375.81L234.59,378.41L184.32,378.41L167.57,379.7L67.03,379.7L50.27,381L0,381Z" style="fill: rgb(255, 165, 0); fill-opacity: 1; stroke-width: 0;"/></g></g><g class="errorbars"/><g class="lines"><path class="js-line" d="M0,381L50.27,381L67.03,379.7L167.57,379.7L184.32,378.41L234.59,378.41L251.35,375.81L268.11,375.81L284.86,374.51L301.62,370.62L318.38,370.62L335.14,370.62L351.89,369.32L368.65,365.43L385.41,362.84L418.92,362.84L435.68,361.54L452.43,360.24L469.19,349.86L485.95,340.78L502.7,334.3L536.22,329.11L552.97,323.92L569.73,304.46L586.49,296.67L603.24,277.22L620,262.94" style="vector-effect: non-scaling-stroke; fill: none; stroke: rgb(0, 255, 0); stroke-opacity: 1; stroke-width: 2px; opacity: 1;"/></g><g class="points"/><g class="text"/></g><g class="trace scatter trace30aee6" style="stroke-miterlimit: 2;"><g class="fills"/><g class="errorbars"/><g class="lines"><path class="js-line" d="M0,377.11L16.76,374.51L33.51,374.51L50.27,374.51L67.03,371.92L117.3,371.92L134.05,366.73L150.81,362.84L167.57,361.54L184.32,361.54L201.08,355.05L217.84,348.57L234.59,338.19L251.35,327.81L268.11,314.84L284.86,309.65L301.62,297.97L318.38,282.4L335.14,273.32L351.89,266.84L368.65,249.97L385.41,238.3L402.16,220.13L418.92,214.94L435.68,194.19L452.43,185.11L469.19,169.54L485.95,153.97L502.7,146.19L519.46,125.43L536.22,112.46L552.97,102.08L569.73,80.02L586.49,60.56L603.24,43.7L620,19.05" style="vector-effect: non-scaling-stroke; fill: none; stroke: rgb(255, 165, 0); stroke-opacity: 1; stroke-width: 2px; opacity: 1;"/></g><g class="points"/><g class="text"/></g></g></g><g class="overplot"/><path class="xlines-above crisp" d="M62,406.5H683" style="fill: none; stroke-width: 1px; stroke: rgb(68, 68, 68); stroke-opacity: 1;"/><path class="ylines-above crisp" d="M62.5,25V406" style="fill: none; stroke-width: 1px; stroke: rgb(68, 68, 68); stroke-opacity: 1;"/><g class="overlines-above"/><g class="xaxislayer-above"><g class="xtick"><text text-anchor="end" x="0" y="422.6" transform="translate(63,0) rotate(-45,0,416.1)" style="font-family: serif; font-size: 13px; fill: rgb(68, 68, 68); fill-opacity: 1; white-space: pre; opacity: 1;">Mar-09-2020</text></g><g class="xtick"><text text-anchor="end" x="0" y="422.6" transform="translate(79.76,0) rotate(-45,0,416.1)" style="font-family: serif; font-size: 13px; fill: rgb(68, 68, 68); fill-opacity: 1; white-space: pre; opacity: 1;">Mar-10-2020</text></g><g class="xtick"><text text-anchor="end" x="0" y="422.6" transform="translate(96.50999999999999,0) rotate(-45,0,416.1)" style="font-family: serif; font-size: 13px; fill: rgb(68, 68, 68); fill-opacity: 1; white-space: pre; opacity: 1;">Mar-11-2020</text></g><g class="xtick"><text text-anchor="end" x="0" y="422.6" transform="translate(113.27000000000001,0) rotate(-45,0,416.1)" style="font-family: serif; font-size: 13px; fill: rgb(68, 68, 68); fill-opacity: 1; white-space: pre; opacity: 1;">Mar-12-2020</text></g><g class="xtick"><text text-anchor="end" x="0" y="422.6" transform="translate(130.03,0) rotate(-45,0,416.1)" style="font-family: serif; font-size: 13px; fill: rgb(68, 68, 68); fill-opacity: 1; white-space: pre; opacity: 1;">Mar-13-2020</text></g><g class="xtick"><text text-anchor="end" x="0" y="422.6" transform="translate(146.78,0) rotate(-45,0,416.1)" style="font-family: serif; font-size: 13px; fill: rgb(68, 68, 68); fill-opacity: 1; white-space: pre; opacity: 1;">Mar-14-2020</text></g><g class="xtick"><text text-anchor="end" x="0" y="422.6" transform="translate(163.54000000000002,0) rotate(-45,0,416.1)" style="font-family: serif; font-size: 13px; fill: rgb(68, 68, 68); fill-opacity: 1; white-space: pre; opacity: 1;">Mar-15-2020</text></g><g class="xtick"><text text-anchor="end" x="0" y="422.6" transform="translate(180.3,0) rotate(-45,0,416.1)" style="font-family: serif; font-size: 13px; fill: rgb(68, 68, 68); fill-opacity: 1; white-space: pre; opacity: 1;">Mar-16-2020</text></g><g class="xtick"><text text-anchor="end" x="0" y="422.6" transform="translate(197.05,0) rotate(-45,0,416.1)" style="font-family: serif; font-size: 13px; fill: rgb(68, 68, 68); fill-opacity: 1; white-space: pre; opacity: 1;">Mar-17-2020</text></g><g class="xtick"><text text-anchor="end" x="0" y="422.6" transform="translate(213.81,0) rotate(-45,0,416.1)" style="font-family: serif; font-size: 13px; fill: rgb(68, 68, 68); fill-opacity: 1; white-space: pre; opacity: 1;">Mar-18-2020</text></g><g class="xtick"><text text-anchor="end" x="0" y="422.6" transform="translate(230.57,0) rotate(-45,0,416.1)" style="font-family: serif; font-size: 13px; fill: rgb(68, 68, 68); fill-opacity: 1; white-space: pre; opacity: 1;">Mar-19-2020</text></g><g class="xtick"><text text-anchor="end" x="0" y="422.6" transform="translate(247.32,0) rotate(-45,0,416.1)" style="font-family: serif; font-size: 13px; fill: rgb(68, 68, 68); fill-opacity: 1; white-space: pre; opacity: 1;">Mar-20-2020</text></g><g class="xtick"><text text-anchor="end" x="0" y="422.6" transform="translate(264.08000000000004,0) rotate(-45,0,416.1)" style="font-family: serif; font-size: 13px; fill: rgb(68, 68, 68); fill-opacity: 1; white-space: pre; opacity: 1;">Mar-21-2020</text></g><g class="xtick"><text text-anchor="end" x="0" y="422.6" transform="translate(280.84000000000003,0) rotate(-45,0,416.1)" style="font-family: serif; font-size: 13px; fill: rgb(68, 68, 68); fill-opacity: 1; white-space: pre; opacity: 1;">Mar-22-2020</text></g><g class="xtick"><text text-anchor="end" x="0" y="422.6" transform="translate(297.59000000000003,0) rotate(-45,0,416.1)" style="font-family: serif; font-size: 13px; fill: rgb(68, 68, 68); fill-opacity: 1; white-space: pre; opacity: 1;">Mar-23-2020</text></g><g class="xtick"><text text-anchor="end" x="0" y="422.6" transform="translate(314.35,0) rotate(-45,0,416.1)" style="font-family: serif; font-size: 13px; fill: rgb(68, 68, 68); fill-opacity: 1; white-space: pre; opacity: 1;">Mar-24-2020</text></g><g class="xtick"><text text-anchor="end" x="0" y="422.6" transform="translate(331.11,0) rotate(-45,0,416.1)" style="font-family: serif; font-size: 13px; fill: rgb(68, 68, 68); fill-opacity: 1; white-space: pre; opacity: 1;">Mar-25-2020</text></g><g class="xtick"><text text-anchor="end" x="0" y="422.6" transform="translate(347.86,0) rotate(-45,0,416.1)" style="font-family: serif; font-size: 13px; fill: rgb(68, 68, 68); fill-opacity: 1; white-space: pre; opacity: 1;">Mar-26-2020</text></g><g class="xtick"><text text-anchor="end" x="0" y="422.6" transform="translate(364.62,0) rotate(-45,0,416.1)" style="font-family: serif; font-size: 13px; fill: rgb(68, 68, 68); fill-opacity: 1; white-space: pre; opacity: 1;">Mar-27-2020</text></g><g class="xtick"><text text-anchor="end" x="0" y="422.6" transform="translate(381.38,0) rotate(-45,0,416.1)" style="font-family: serif; font-size: 13px; fill: rgb(68, 68, 68); fill-opacity: 1; white-space: pre; opacity: 1;">Mar-28-2020</text></g><g class="xtick"><text text-anchor="end" x="0" y="422.6" transform="translate(398.14,0) rotate(-45,0,416.1)" style="font-family: serif; font-size: 13px; fill: rgb(68, 68, 68); fill-opacity: 1; white-space: pre; opacity: 1;">Mar-29-2020</text></g><g class="xtick"><text text-anchor="end" x="0" y="422.6" transform="translate(414.89,0) rotate(-45,0,416.1)" style="font-family: serif; font-size: 13px; fill: rgb(68, 68, 68); fill-opacity: 1; white-space: pre; opacity: 1;">Mar-30-2020</text></g><g class="xtick"><text text-anchor="end" x="0" y="422.6" transform="translate(431.65,0) rotate(-45,0,416.1)" style="font-family: serif; font-size: 13px; fill: rgb(68, 68, 68); fill-opacity: 1; white-space: pre; opacity: 1;">Mar-31-2020</text></g><g class="xtick"><text text-anchor="end" x="0" y="422.6" transform="translate(448.41,0) rotate(-45,0,416.1)" style="font-family: serif; font-size: 13px; fill: rgb(68, 68, 68); fill-opacity: 1; white-space: pre; opacity: 1;">Apr-01-2020</text></g><g class="xtick"><text text-anchor="end" x="0" y="422.6" transform="translate(465.16,0) rotate(-45,0,416.1)" style="font-family: serif; font-size: 13px; fill: rgb(68, 68, 68); fill-opacity: 1; white-space: pre; opacity: 1;">Apr-02-2020</text></g><g class="xtick"><text text-anchor="end" x="0" y="422.6" transform="translate(481.92,0) rotate(-45,0,416.1)" style="font-family: serif; font-size: 13px; fill: rgb(68, 68, 68); fill-opacity: 1; white-space: pre; opacity: 1;">Apr-03-2020</text></g><g class="xtick"><text text-anchor="end" x="0" y="422.6" transform="translate(498.68,0) rotate(-45,0,416.1)" style="font-family: serif; font-size: 13px; fill: rgb(68, 68, 68); fill-opacity: 1; white-space: pre; opacity: 1;">Apr-04-2020</text></g><g class="xtick"><text text-anchor="end" x="0" y="422.6" transform="translate(515.4300000000001,0) rotate(-45,0,416.1)" style="font-family: serif; font-size: 13px; fill: rgb(68, 68, 68); fill-opacity: 1; white-space: pre; opacity: 1;">Apr-05-2020</text></g><g class="xtick"><text text-anchor="end" x="0" y="422.6" transform="translate(532.19,0) rotate(-45,0,416.1)" style="font-family: serif; font-size: 13px; fill: rgb(68, 68, 68); fill-opacity: 1; white-space: pre; opacity: 1;">Apr-06-2020</text></g><g class="xtick"><text text-anchor="end" x="0" y="422.6" transform="translate(548.95,0) rotate(-45,0,416.1)" style="font-family: serif; font-size: 13px; fill: rgb(68, 68, 68); fill-opacity: 1; white-space: pre; opacity: 1;">Apr-07-2020</text></g><g class="xtick"><text text-anchor="end" x="0" y="422.6" transform="translate(565.7,0) rotate(-45,0,416.1)" style="font-family: serif; font-size: 13px; fill: rgb(68, 68, 68); fill-opacity: 1; white-space: pre; opacity: 1;">Apr-08-2020</text></g><g class="xtick"><text text-anchor="end" x="0" y="422.6" transform="translate(582.46,0) rotate(-45,0,416.1)" style="font-family: serif; font-size: 13px; fill: rgb(68, 68, 68); fill-opacity: 1; white-space: pre; opacity: 1;">Apr-09-2020</text></g><g class="xtick"><text text-anchor="end" x="0" y="422.6" transform="translate(599.22,0) rotate(-45,0,416.1)" style="font-family: serif; font-size: 13px; fill: rgb(68, 68, 68); fill-opacity: 1; white-space: pre; opacity: 1;">Apr-10-2020</text></g><g class="xtick"><text text-anchor="end" x="0" y="422.6" transform="translate(615.97,0) rotate(-45,0,416.1)" style="font-family: serif; font-size: 13px; fill: rgb(68, 68, 68); fill-opacity: 1; white-space: pre; opacity: 1;">Apr-11-2020</text></g><g class="xtick"><text text-anchor="end" x="0" y="422.6" transform="translate(632.73,0) rotate(-45,0,416.1)" style="font-family: serif; font-size: 13px; fill: rgb(68, 68, 68); fill-opacity: 1; white-space: pre; opacity: 1;">Apr-12-2020</text></g><g class="xtick"><text text-anchor="end" x="0" y="422.6" transform="translate(649.49,0) rotate(-45,0,416.1)" style="font-family: serif; font-size: 13px; fill: rgb(68, 68, 68); fill-opacity: 1; white-space: pre; opacity: 1;">Apr-13-2020</text></g><g class="xtick"><text text-anchor="end" x="0" y="422.6" transform="translate(666.24,0) rotate(-45,0,416.1)" style="font-family: serif; font-size: 13px; fill: rgb(68, 68, 68); fill-opacity: 1; white-space: pre; opacity: 1;">Apr-14-2020</text></g><g class="xtick"><text text-anchor="end" x="0" y="422.6" transform="translate(683,0) rotate(-45,0,416.1)" style="font-family: serif; font-size: 13px; fill: rgb(68, 68, 68); fill-opacity: 1; white-space: pre; opacity: 1;">Apr-15-2020</text></g></g><g class="yaxislayer-above"><g class="ytick"><text text-anchor="end" x="59.4" y="4.55" transform="translate(0,406)" style="font-family: serif; font-size: 13px; fill: rgb(68, 68, 68); fill-opacity: 1; white-space: pre; opacity: 1;">0</text></g><g class="ytick"><text text-anchor="end" x="59.4" y="4.55" style="font-family: serif; font-size: 13px; fill: rgb(68, 68, 68); fill-opacity: 1; white-space: pre; opacity: 1;" transform="translate(0,341.13)">50</text></g><g class="ytick"><text text-anchor="end" x="59.4" y="4.55" style="font-family: serif; font-size: 13px; fill: rgb(68, 68, 68); fill-opacity: 1; white-space: pre; opacity: 1;" transform="translate(0,276.27)">100</text></g><g class="ytick"><text text-anchor="end" x="59.4" y="4.55" style="font-family: serif; font-size: 13px; fill: rgb(68, 68, 68); fill-opacity: 1; white-space: pre; opacity: 1;" transform="translate(0,211.4)">150</text></g><g class="ytick"><text text-anchor="end" x="59.4" y="4.55" style="font-family: serif; font-size: 13px; fill: rgb(68, 68, 68); fill-opacity: 1; white-space: pre; opacity: 1;" transform="translate(0,146.54000000000002)">200</text></g><g class="ytick"><text text-anchor="end" x="59.4" y="4.55" style="font-family: serif; font-size: 13px; fill: rgb(68, 68, 68); fill-opacity: 1; white-space: pre; opacity: 1;" transform="translate(0,81.67)">250</text></g></g><g class="overaxes-above"/></g></g><g class="polarlayer"/><g class="smithlayer"/><g class="ternarylayer"/><g class="geolayer"/><g class="funnelarealayer"/><g class="pielayer"/><g class="iciclelayer"/><g class="treemaplayer"/><g class="sunburstlayer"/><g class="glimages"/><defs id="topdefs-a9bca7"><g class="clips"/></defs><g class="layer-above"><g class="imagelayer"/><g class="shapelayer"/></g><g class="infolayer"><g class="g-gtitle"><text class="gtitle" x="350" y="12.5" text-anchor="middle" dy="0em" style="font-family: serif; font-size: 21px; fill: rgb(68, 68, 68); opacity: 1; font-weight: normal; white-space: pre;">Karnataka- Total Infected</text></g><g class="g-xtitle"/><g class="g-ytitle"/></g></svg>