<svg class="main-svg" xmlns="http://www.w3.org/2000/svg" xmlns:xlink="http://www.w3.org/1999/xlink" width="700" height="500" style="" viewBox="0 0 700 500"><rect x="0" y="0" width="700" height="500" style="fill: rgb(255, 255, 255); fill-opacity: 1;"/><defs id="defs-75e50d"><g class="clips"><clipPath id="clip75e50dxyplot" class="plotclip"><rect width="531" height="386"/></clipPath><clipPath class="axesclip" id="clip75e50dx"><rect x="60" y="0" width="531" height="500"/></clipPath><clipPath class="axesclip" id="clip75e50dy"><rect x="0" y="25" width="700" height="386"/></clipPath><clipPath class="axesclip" id="clip75e50dxy"><rect x="60" y="25" width="531" height="386"/></clipPath></g><g class="gradients"/><g class="patterns"/></defs><g class="bglayer"/><g class="layer-below"><g class="imagelayer"/><g class="shapelayer"/></g><g class="cartesianlayer"><g class="subplot xy"><g class="layer-subplot"><g class="shapelayer"/><g class="imagelayer"/></g><g class="gridlayer"><g class="x"/><g class="y"/></g><g class="zerolinelayer"/><path class="xlines-below"/><path class="ylines-below"/><g class="overlines-below"/><g class="xaxislayer-below"/><g class="yaxislayer-below"/><g class="overaxes-below"/><g class="plot" transform="translate(60,25)" clip-path="url(#clip75e50dxyplot)"><g class="barlayer mlayer"><g class="trace bars" shape-rendering="crispEdges" style="opacity: 1;"><g class="points"><g class="point"><path d="M4.13,367.07V366.33H16.94V367.07Z" style="vector-effect: non-scaling-stroke; opacity: 1; stroke-width: 0px; fill: rgb(145, 9, 10); fill-opacity: 1;"/></g><g class="point"><path d="M20.14,367.07V366.33H32.96V367.07Z" style="vector-effect: non-scaling-stroke; opacity: 1; stroke-width: 0px; fill: rgb(145, 9, 10); fill-opacity: 1;"/></g><g class="point"><path d="M36.16,367.07V366.33H48.97V367.07Z" style="vector-effect: non-scaling-stroke; opacity: 1; stroke-width: 0px; fill: rgb(145, 9, 10); fill-opacity: 1;"/></g><g class="point"><path d="M52.17,367.07V366.7H64.98V367.07Z" style="vector-effect: non-scaling-stroke; opacity: 1; stroke-width: 0px; fill: rgb(145, 9, 10); fill-opacity: 1;"/></g><g class="point"><path d="M68.19,367.07V366.7H81V367.07Z" style="vector-effect: non-scaling-stroke; opacity: 1; stroke-width: 0px; fill: rgb(145, 9, 10); fill-opacity: 1;"/></g><g class="point"><path d="M84.2,367.07V366.7H97.01V367.07Z" style="vector-effect: non-scaling-stroke; opacity: 1; stroke-width: 0px; fill: rgb(145, 9, 10); fill-opacity: 1;"/></g><g class="point"><path d="M100.22,367.07V366.7H113.03V367.07Z" style="vector-effect: non-scaling-stroke; opacity: 1; stroke-width: 0px; fill: rgb(145, 9, 10); fill-opacity: 1;"/></g></g></g><g class="trace bars" shape-rendering="crispEdges" style="opacity: 1;"><g class="points"><g class="point"><path d="M4.13,366.33V19.3H16.94V366.33Z" style="vector-effect: non-scaling-stroke; opacity: 1; stroke-width: 0px; fill: rgb(66, 212, 13); fill-opacity: 1;"/></g><g class="point"><path d="M20.14,366.33V322.41H32.96V366.33Z" style="vector-effect: non-scaling-stroke; opacity: 1; stroke-width: 0px; fill: rgb(66, 212, 13); fill-opacity: 1;"/></g><g class="point"><path d="M36.16,366.33V353.52H48.97V366.33Z" style="vector-effect: non-scaling-stroke; opacity: 1; stroke-width: 0px; fill: rgb(66, 212, 13); fill-opacity: 1;"/></g><g class="point"><path d="M52.17,366.7V260.54H64.98V366.7Z" style="vector-effect: non-scaling-stroke; opacity: 1; stroke-width: 0px; fill: rgb(66, 212, 13); fill-opacity: 1;"/></g><g class="point"><path d="M68.19,366.7V119.97H81V366.7Z" style="vector-effect: non-scaling-stroke; opacity: 1; stroke-width: 0px; fill: rgb(66, 212, 13); fill-opacity: 1;"/></g><g class="point"><path d="M84.2,366.7V248.46H97.01V366.7Z" style="vector-effect: non-scaling-stroke; opacity: 1; stroke-width: 0px; fill: rgb(66, 212, 13); fill-opacity: 1;"/></g><g class="point"><path d="M100.22,366.7V356.82H113.03V366.7Z" style="vector-effect: non-scaling-stroke; opacity: 1; stroke-width: 0px; fill: rgb(66, 212, 13); fill-opacity: 1;"/></g><g class="point"><path d="M116.23,367.07V366.7H129.04V367.07Z" style="vector-effect: non-scaling-stroke; opacity: 1; stroke-width: 0px; fill: rgb(66, 212, 13); fill-opacity: 1;"/></g><g class="point"><path d="M132.24,367.07V257.61H145.06V367.07Z" style="vector-effect: non-scaling-stroke; opacity: 1; stroke-width: 0px; fill: rgb(66, 212, 13); fill-opacity: 1;"/></g><g class="point"><path d="M148.26,367.07V366.33H161.07V367.07Z" style="vector-effect: non-scaling-stroke; opacity: 1; stroke-width: 0px; fill: rgb(66, 212, 13); fill-opacity: 1;"/></g><g class="point"><path d="M164.27,367.07V366.7H177.08V367.07Z" style="vector-effect: non-scaling-stroke; opacity: 1; stroke-width: 0px; fill: rgb(66, 212, 13); fill-opacity: 1;"/></g><g class="point"><path d="M180.29,367.07V366.7H193.1V367.07Z" style="vector-effect: non-scaling-stroke; opacity: 1; stroke-width: 0px; fill: rgb(66, 212, 13); fill-opacity: 1;"/></g><g class="point"><path d="M196.3,367.07V295.32H209.11V367.07Z" style="vector-effect: non-scaling-stroke; opacity: 1; stroke-width: 0px; fill: rgb(66, 212, 13); fill-opacity: 1;"/></g><g class="point"><path d="M212.32,367.07V320.21H225.13V367.07Z" style="vector-effect: non-scaling-stroke; opacity: 1; stroke-width: 0px; fill: rgb(66, 212, 13); fill-opacity: 1;"/></g><g class="point"><path d="M228.33,367.07V341.44H241.14V367.07Z" style="vector-effect: non-scaling-stroke; opacity: 1; stroke-width: 0px; fill: rgb(66, 212, 13); fill-opacity: 1;"/></g><g class="point"><path d="M244.34,367.07V69.45H257.16V367.07Z" style="vector-effect: non-scaling-stroke; opacity: 1; stroke-width: 0px; fill: rgb(66, 212, 13); fill-opacity: 1;"/></g><g class="point"><path d="M260.36,367.07V313.99H273.17V367.07Z" style="vector-effect: non-scaling-stroke; opacity: 1; stroke-width: 0px; fill: rgb(66, 212, 13); fill-opacity: 1;"/></g><g class="point"><path d="M276.37,367.07V348.03H289.18V367.07Z" style="vector-effect: non-scaling-stroke; opacity: 1; stroke-width: 0px; fill: rgb(66, 212, 13); fill-opacity: 1;"/></g><g class="point"><path d="M292.39,367.07V364.87H305.2V367.07Z" style="vector-effect: non-scaling-stroke; opacity: 1; stroke-width: 0px; fill: rgb(66, 212, 13); fill-opacity: 1;"/></g><g class="point"><path d="M308.4,367.07V363.77H321.21V367.07Z" style="vector-effect: non-scaling-stroke; opacity: 1; stroke-width: 0px; fill: rgb(66, 212, 13); fill-opacity: 1;"/></g><g class="point"><path d="M324.42,367.07V366.33H337.23V367.07Z" style="vector-effect: non-scaling-stroke; opacity: 1; stroke-width: 0px; fill: rgb(66, 212, 13); fill-opacity: 1;"/></g><g class="point"><path d="M340.43,367.07V357.91H353.24V367.07Z" style="vector-effect: non-scaling-stroke; opacity: 1; stroke-width: 0px; fill: rgb(66, 212, 13); fill-opacity: 1;"/></g><g class="point"><path d="M356.44,367.07V362.31H369.26V367.07Z" style="vector-effect: non-scaling-stroke; opacity: 1; stroke-width: 0px; fill: rgb(66, 212, 13); fill-opacity: 1;"/></g><g class="point"><path d="M372.46,367.07V360.84H385.27V367.07Z" style="vector-effect: non-scaling-stroke; opacity: 1; stroke-width: 0px; fill: rgb(66, 212, 13); fill-opacity: 1;"/></g><g class="point"><path d="M388.47,367.07V360.84H401.28V367.07Z" style="vector-effect: non-scaling-stroke; opacity: 1; stroke-width: 0px; fill: rgb(66, 212, 13); fill-opacity: 1;"/></g><g class="point"><path d="M404.49,367.07V352.06H417.3V367.07Z" style="vector-effect: non-scaling-stroke; opacity: 1; stroke-width: 0px; fill: rgb(66, 212, 13); fill-opacity: 1;"/></g><g class="point"><path d="M420.5,367.07V364.87H433.31V367.07Z" style="vector-effect: non-scaling-stroke; opacity: 1; stroke-width: 0px; fill: rgb(66, 212, 13); fill-opacity: 1;"/></g><g class="point"><path d="M436.52,367.07V329.36H449.33V367.07Z" style="vector-effect: non-scaling-stroke; opacity: 1; stroke-width: 0px; fill: rgb(66, 212, 13); fill-opacity: 1;"/></g><g class="point"><path d="M452.53,367.07V360.48H465.34V367.07Z" style="vector-effect: non-scaling-stroke; opacity: 1; stroke-width: 0px; fill: rgb(66, 212, 13); fill-opacity: 1;"/></g><g class="point"><path d="M468.54,367.07V354.99H481.36V367.07Z" style="vector-effect: non-scaling-stroke; opacity: 1; stroke-width: 0px; fill: rgb(66, 212, 13); fill-opacity: 1;"/></g><g class="point"><path d="M484.56,367.07V366.7H497.37V367.07Z" style="vector-effect: non-scaling-stroke; opacity: 1; stroke-width: 0px; fill: rgb(66, 212, 13); fill-opacity: 1;"/></g><g class="point"><path d="M500.57,367.07V365.97H513.38V367.07Z" style="vector-effect: non-scaling-stroke; opacity: 1; stroke-width: 0px; fill: rgb(66, 212, 13); fill-opacity: 1;"/></g><g class="point"><path d="M516.59,367.07V366.7H529.4V367.07Z" style="vector-effect: non-scaling-stroke; opacity: 1; stroke-width: 0px; fill: rgb(66, 212, 13); fill-opacity: 1;"/></g></g></g><g class="trace bars" shape-rendering="crispEdges" style="opacity: 1;"><g class="points"><g class="point"><path d="M10.54,367.21V366.92H26.55V367.21Z" style="vector-effect: non-scaling-stroke; opacity: 1; stroke-width: 0px; fill: rgb(242, 169, 12); fill-opacity: 1;"/></g></g></g></g></g><g class="overplot"/><path class="xlines-above crisp" d="M0,0" style="fill: none;"/><path class="ylines-above crisp" d="M0,0" style="fill: none;"/><g class="overlines-above"/><g class="xaxislayer-above"><g class="xtick"><text text-anchor="end" x="0" y="425" transform="translate(70.53999999999999,0) rotate(-45,0,418.5)" style="font-family: serif; font-size: 13px; fill: rgb(0, 0, 0); fill-opacity: 1; white-space: pre; opacity: 1;">Udupi</text></g><g class="xtick"><text text-anchor="end" x="0" y="425" transform="translate(86.55,0) rotate(-45,0,418.5)" style="font-family: serif; font-size: 13px; fill: rgb(0, 0, 0); fill-opacity: 1; white-space: pre; opacity: 1;">Mangalore</text></g><g class="xtick"><text text-anchor="end" x="0" y="425" transform="translate(102.56,0) rotate(-45,0,418.5)" style="font-family: serif; font-size: 13px; fill: rgb(0, 0, 0); fill-opacity: 1; white-space: pre; opacity: 1;">Dharwad</text></g><g class="xtick"><text text-anchor="end" x="0" y="425" transform="translate(118.58,0) rotate(-45,0,418.5)" style="font-family: serif; font-size: 13px; fill: rgb(0, 0, 0); fill-opacity: 1; white-space: pre; opacity: 1;">Bidar</text></g><g class="xtick"><text text-anchor="end" x="0" y="425" transform="translate(134.59,0) rotate(-45,0,418.5)" style="font-family: serif; font-size: 13px; fill: rgb(0, 0, 0); fill-opacity: 1; white-space: pre; opacity: 1;">Yadgir</text></g><g class="xtick"><text text-anchor="end" x="0" y="425" transform="translate(150.61,0) rotate(-45,0,418.5)" style="font-family: serif; font-size: 13px; fill: rgb(0, 0, 0); fill-opacity: 1; white-space: pre; opacity: 1;">Raichur</text></g><g class="xtick"><text text-anchor="end" x="0" y="425" transform="translate(166.62,0) rotate(-45,0,418.5)" style="font-family: serif; font-size: 13px; fill: rgb(0, 0, 0); fill-opacity: 1; white-space: pre; opacity: 1;">Bagalkote</text></g><g class="xtick"><text text-anchor="end" x="0" y="425" transform="translate(182.64,0) rotate(-45,0,418.5)" style="font-family: serif; font-size: 13px; fill: rgb(0, 0, 0); fill-opacity: 1; white-space: pre; opacity: 1;">Nagamangala</text></g><g class="xtick"><text text-anchor="end" x="0" y="425" transform="translate(198.65,0) rotate(-45,0,418.5)" style="font-family: serif; font-size: 13px; fill: rgb(0, 0, 0); fill-opacity: 1; white-space: pre; opacity: 1;">Mandya</text></g><g class="xtick"><text text-anchor="end" x="0" y="425" transform="translate(214.66,0) rotate(-45,0,418.5)" style="font-family: serif; font-size: 13px; fill: rgb(0, 0, 0); fill-opacity: 1; white-space: pre; opacity: 1;">Savanur</text></g><g class="xtick"><text text-anchor="end" x="0" y="425" transform="translate(230.68,0) rotate(-45,0,418.5)" style="font-family: serif; font-size: 13px; fill: rgb(0, 0, 0); fill-opacity: 1; white-space: pre; opacity: 1;">Kamalapur</text></g><g class="xtick"><text text-anchor="end" x="0" y="425" transform="translate(246.69,0) rotate(-45,0,418.5)" style="font-family: serif; font-size: 13px; fill: rgb(0, 0, 0); fill-opacity: 1; white-space: pre; opacity: 1;">Shiggavi</text></g><g class="xtick"><text text-anchor="end" x="0" y="425" transform="translate(262.71000000000004,0) rotate(-45,0,418.5)" style="font-family: serif; font-size: 13px; fill: rgb(0, 0, 0); fill-opacity: 1; white-space: pre; opacity: 1;">Hassan</text></g><g class="xtick"><text text-anchor="end" x="0" y="425" transform="translate(278.72,0) rotate(-45,0,418.5)" style="font-family: serif; font-size: 13px; fill: rgb(0, 0, 0); fill-opacity: 1; white-space: pre; opacity: 1;">Vijayapura</text></g><g class="xtick"><text text-anchor="end" x="0" y="425" transform="translate(294.74,0) rotate(-45,0,418.5)" style="font-family: serif; font-size: 13px; fill: rgb(0, 0, 0); fill-opacity: 1; white-space: pre; opacity: 1;">Karwar</text></g><g class="xtick"><text text-anchor="end" x="0" y="425" transform="translate(310.75,0) rotate(-45,0,418.5)" style="font-family: serif; font-size: 13px; fill: rgb(0, 0, 0); fill-opacity: 1; white-space: pre; opacity: 1;">Kalburgi</text></g><g class="xtick"><text text-anchor="end" x="0" y="425" transform="translate(326.76,0) rotate(-45,0,418.5)" style="font-family: serif; font-size: 13px; fill: rgb(0, 0, 0); fill-opacity: 1; white-space: pre; opacity: 1;">Belgavi</text></g><g class="xtick"><text text-anchor="end" x="0" y="425" transform="translate(342.78,0) rotate(-45,0,418.5)" style="font-family: serif; font-size: 13px; fill: rgb(0, 0, 0); fill-opacity: 1; white-space: pre; opacity: 1;">Shivamogga</text></g><g class="xtick"><text text-anchor="end" x="0" y="425" transform="translate(358.79,0) rotate(-45,0,418.5)" style="font-family: serif; font-size: 13px; fill: rgb(0, 0, 0); fill-opacity: 1; white-space: pre; opacity: 1;">Koppal</text></g><g class="xtick"><text text-anchor="end" x="0" y="425" transform="translate(374.81,0) rotate(-45,0,418.5)" style="font-family: serif; font-size: 13px; fill: rgb(0, 0, 0); fill-opacity: 1; white-space: pre; opacity: 1;">Davangere</text></g><g class="xtick"><text text-anchor="end" x="0" y="425" transform="translate(390.82,0) rotate(-45,0,418.5)" style="font-family: serif; font-size: 13px; fill: rgb(0, 0, 0); fill-opacity: 1; white-space: pre; opacity: 1;">Kodagu</text></g><g class="xtick"><text text-anchor="end" x="0" y="425" transform="translate(406.84,0) rotate(-45,0,418.5)" style="font-family: serif; font-size: 13px; fill: rgb(0, 0, 0); fill-opacity: 1; white-space: pre; opacity: 1;">Mysore</text></g><g class="xtick"><text text-anchor="end" x="0" y="425" transform="translate(422.85,0) rotate(-45,0,418.5)" style="font-family: serif; font-size: 13px; fill: rgb(0, 0, 0); fill-opacity: 1; white-space: pre; opacity: 1;">Gadag</text></g><g class="xtick"><text text-anchor="end" x="0" y="425" transform="translate(438.86,0) rotate(-45,0,418.5)" style="font-family: serif; font-size: 13px; fill: rgb(0, 0, 0); fill-opacity: 1; white-space: pre; opacity: 1;">Chikkamagalur</text></g><g class="xtick"><text text-anchor="end" x="0" y="425" transform="translate(454.88,0) rotate(-45,0,418.5)" style="font-family: serif; font-size: 13px; fill: rgb(0, 0, 0); fill-opacity: 1; white-space: pre; opacity: 1;">Tumkur</text></g><g class="xtick"><text text-anchor="end" x="0" y="425" transform="translate(470.89,0) rotate(-45,0,418.5)" style="font-family: serif; font-size: 13px; fill: rgb(0, 0, 0); fill-opacity: 1; white-space: pre; opacity: 1;">Bellary</text></g><g class="xtick"><text text-anchor="end" x="0" y="425" transform="translate(486.91,0) rotate(-45,0,418.5)" style="font-family: serif; font-size: 13px; fill: rgb(0, 0, 0); fill-opacity: 1; white-space: pre; opacity: 1;">Bangalore-Rural</text></g><g class="xtick"><text text-anchor="end" x="0" y="425" transform="translate(502.92,0) rotate(-45,0,418.5)" style="font-family: serif; font-size: 13px; fill: rgb(0, 0, 0); fill-opacity: 1; white-space: pre; opacity: 1;">Chikballarpur</text></g><g class="xtick"><text text-anchor="end" x="0" y="425" transform="translate(518.94,0) rotate(-45,0,418.5)" style="font-family: serif; font-size: 13px; fill: rgb(0, 0, 0); fill-opacity: 1; white-space: pre; opacity: 1;">Haveri</text></g><g class="xtick"><text text-anchor="end" x="0" y="425" transform="translate(534.95,0) rotate(-45,0,418.5)" style="font-family: serif; font-size: 13px; fill: rgb(0, 0, 0); fill-opacity: 1; white-space: pre; opacity: 1;">Bangalore-Urban</text></g><g class="xtick"><text text-anchor="end" x="0" y="425" transform="translate(550.96,0) rotate(-45,0,418.5)" style="font-family: serif; font-size: 13px; fill: rgb(0, 0, 0); fill-opacity: 1; white-space: pre; opacity: 1;">Chamarajanagar</text></g><g class="xtick"><text text-anchor="end" x="0" y="425" transform="translate(566.98,0) rotate(-45,0,418.5)" style="font-family: serif; font-size: 13px; fill: rgb(0, 0, 0); fill-opacity: 1; white-space: pre; opacity: 1;">Ramanagar</text></g><g class="xtick"><text text-anchor="end" x="0" y="425" transform="translate(582.99,0) rotate(-45,0,418.5)" style="font-family: serif; font-size: 13px; fill: rgb(0, 0, 0); fill-opacity: 1; white-space: pre; opacity: 1;">Kolar</text></g></g><g class="yaxislayer-above"><g class="ytick"><text text-anchor="end" x="59" y="4.55" transform="translate(0,392.07)" style="font-family: serif; font-size: 13px; fill: rgb(0, 0, 0); fill-opacity: 1; white-space: pre; opacity: 1;">Active</text></g></g><g class="overaxes-above"/></g></g><g class="polarlayer"/><g class="smithlayer"/><g class="ternarylayer"/><g class="geolayer"/><g class="funnelarealayer"/><g class="pielayer"/><g class="iciclelayer"/><g class="treemaplayer"/><g class="sunburstlayer"/><g class="glimages"/><defs id="topdefs-75e50d"><g class="clips"/><clipPath id="legend75e50d"><rect width="88" height="67" x="0" y="0"/></clipPath></defs><g class="layer-above"><g class="imagelayer"/><g class="shapelayer"/></g><g class="infolayer"><g class="legend" pointer-events="all" transform="translate(601.62,25)"><rect class="bg" shape-rendering="crispEdges" style="stroke: rgb(68, 68, 68); stroke-opacity: 1; fill: rgb(255, 255, 255); fill-opacity: 1; stroke-width: 0px;" width="88" height="67" x="0" y="0"/><g class="scrollbox" transform="" clip-path="url(#legend75e50d)"><g class="groups"><g class="traces" transform="translate(0,14.5)" style="opacity: 1;"><text class="legendtext" text-anchor="start" x="40" y="4.680000000000001" style="font-family: 'Open Sans', verdana, arial, sans-serif; font-size: 12px; fill: rgb(68, 68, 68); fill-opacity: 1; white-space: pre;">trace 2</text><g class="layers" style="opacity: 1;"><g class="legendfill"/><g class="legendlines"/><g class="legendsymbols"><g class="legendpoints"><path class="legendundefined" d="M6,6H-6V-6H6Z" transform="translate(20,0)" style="stroke-width: 0px; fill: rgb(242, 169, 12); fill-opacity: 1;"/></g></g></g><rect class="legendtoggle" x="0" y="-9.5" width="82.46875" height="19" style="fill: rgb(0, 0, 0); fill-opacity: 0;"/></g><g class="traces" transform="translate(0,33.5)" style="opacity: 1;"><text class="legendtext" text-anchor="start" x="40" y="4.680000000000001" style="font-family: 'Open Sans', verdana, arial, sans-serif; font-size: 12px; fill: rgb(68, 68, 68); fill-opacity: 1; white-space: pre;">trace 1</text><g class="layers" style="opacity: 1;"><g class="legendfill"/><g class="legendlines"/><g class="legendsymbols"><g class="legendpoints"><path class="legendundefined" d="M6,6H-6V-6H6Z" transform="translate(20,0)" style="stroke-width: 0px; fill: rgb(66, 212, 13); fill-opacity: 1;"/></g></g></g><rect class="legendtoggle" x="0" y="-9.5" width="82.46875" height="19" style="fill: rgb(0, 0, 0); fill-opacity: 0;"/></g><g class="traces" transform="translate(0,52.5)" style="opacity: 1;"><text class="legendtext" text-anchor="start" x="40" y="4.680000000000001" style="font-family: 'Open Sans', verdana, arial, sans-serif; font-size: 12px; fill: rgb(68, 68, 68); fill-opacity: 1; white-space: pre;">trace 0</text><g class="layers" style="opacity: 1;"><g class="legendfill"/><g class="legendlines"/><g class="legendsymbols"><g class="legendpoints"><path class="legendundefined" d="M6,6H-6V-6H6Z" transform="translate(20,0)" style="stroke-width: 0px; fill: rgb(145, 9, 10); fill-opacity: 1;"/></g></g></g><rect class="legendtoggle" x="0" y="-9.5" width="82.46875" height="19" style="fill: rgb(0, 0, 0); fill-opacity: 0;"/></g></g></g><rect class="scrollbar" rx="20" ry="3" width="0" height="0" style="fill: rgb(128, 139, 164); fill-opacity: 1;" x="0" y="0"/></g><g class="g-gtitle"><text class="gtitle" x="350" y="12.5" text-anchor="middle" dy="0em" style="font-family: serif; font-size: 17px; fill: rgb(128, 0, 0); opacity: 1; font-weight: normal; white-space: pre;">Histogram for Cluster: From Maharahstra</text></g><g class="g-xtitle"/><g class="g-ytitle"><text class="ytitle" transform="rotate(-90,24,218)" x="24" y="218" text-anchor="middle" style="font-family: serif; font-size: 13px; fill: rgb(0, 0, 0); opacity: 1; font-weight: normal; white-space: pre;">Count</text></g></g></svg>