<svg class="main-svg" xmlns="http://www.w3.org/2000/svg" xmlns:xlink="http://www.w3.org/1999/xlink" width="700" height="500" style="" viewBox="0 0 700 500"><rect x="0" y="0" width="700" height="500" style="fill: rgb(255, 255, 255); fill-opacity: 1;"/><defs id="defs-577119"><g class="clips"><clipPath id="clip577119xyplot" class="plotclip"><rect width="466" height="399"/></clipPath><clipPath class="axesclip" id="clip577119x"><rect x="60" y="0" width="466" height="500"/></clipPath><clipPath class="axesclip" id="clip577119y"><rect x="0" y="25" width="700" height="399"/></clipPath><clipPath class="axesclip" id="clip577119xy"><rect x="60" y="25" width="466" height="399"/></clipPath></g><g class="gradients"/><g class="patterns"/></defs><g class="bglayer"/><g class="layer-below"><g class="imagelayer"/><g class="shapelayer"/></g><g class="cartesianlayer"><g class="subplot xy"><g class="layer-subplot"><g class="shapelayer"/><g class="imagelayer"/></g><g class="gridlayer"><g class="x"><path class="xgrid crisp" transform="translate(87.05,0)" d="M0,25v399" style="stroke: rgb(238, 238, 238); stroke-opacity: 1; stroke-width: 1px;"/><path class="xgrid crisp" transform="translate(120.82,0)" d="M0,25v399" style="stroke: rgb(238, 238, 238); stroke-opacity: 1; stroke-width: 1px;"/><path class="xgrid crisp" transform="translate(154.57999999999998,0)" d="M0,25v399" style="stroke: rgb(238, 238, 238); stroke-opacity: 1; stroke-width: 1px;"/><path class="xgrid crisp" transform="translate(188.35,0)" d="M0,25v399" style="stroke: rgb(238, 238, 238); stroke-opacity: 1; stroke-width: 1px;"/><path class="xgrid crisp" transform="translate(222.11,0)" d="M0,25v399" style="stroke: rgb(238, 238, 238); stroke-opacity: 1; stroke-width: 1px;"/><path class="xgrid crisp" transform="translate(255.88,0)" d="M0,25v399" style="stroke: rgb(238, 238, 238); stroke-opacity: 1; stroke-width: 1px;"/><path class="xgrid crisp" transform="translate(289.64,0)" d="M0,25v399" style="stroke: rgb(238, 238, 238); stroke-opacity: 1; stroke-width: 1px;"/><path class="xgrid crisp" transform="translate(323.41,0)" d="M0,25v399" style="stroke: rgb(238, 238, 238); stroke-opacity: 1; stroke-width: 1px;"/><path class="xgrid crisp" transform="translate(357.17,0)" d="M0,25v399" style="stroke: rgb(238, 238, 238); stroke-opacity: 1; stroke-width: 1px;"/><path class="xgrid crisp" transform="translate(390.94,0)" d="M0,25v399" style="stroke: rgb(238, 238, 238); stroke-opacity: 1; stroke-width: 1px;"/><path class="xgrid crisp" transform="translate(424.7,0)" d="M0,25v399" style="stroke: rgb(238, 238, 238); stroke-opacity: 1; stroke-width: 1px;"/><path class="xgrid crisp" transform="translate(458.47,0)" d="M0,25v399" style="stroke: rgb(238, 238, 238); stroke-opacity: 1; stroke-width: 1px;"/><path class="xgrid crisp" transform="translate(492.23,0)" d="M0,25v399" style="stroke: rgb(238, 238, 238); stroke-opacity: 1; stroke-width: 1px;"/></g><g class="y"><path class="ygrid crisp" transform="translate(0,418.45)" d="M60,0h466" style="stroke: rgb(238, 238, 238); stroke-opacity: 1; stroke-width: 1px;"/><path class="ygrid crisp" transform="translate(0,366.69)" d="M60,0h466" style="stroke: rgb(238, 238, 238); stroke-opacity: 1; stroke-width: 1px;"/><path class="ygrid crisp" transform="translate(0,314.94)" d="M60,0h466" style="stroke: rgb(238, 238, 238); stroke-opacity: 1; stroke-width: 1px;"/><path class="ygrid crisp" transform="translate(0,263.18)" d="M60,0h466" style="stroke: rgb(238, 238, 238); stroke-opacity: 1; stroke-width: 1px;"/><path class="ygrid crisp" transform="translate(0,211.43)" d="M60,0h466" style="stroke: rgb(238, 238, 238); stroke-opacity: 1; stroke-width: 1px;"/><path class="ygrid crisp" transform="translate(0,159.67)" d="M60,0h466" style="stroke: rgb(238, 238, 238); stroke-opacity: 1; stroke-width: 1px;"/><path class="ygrid crisp" transform="translate(0,107.92)" d="M60,0h466" style="stroke: rgb(238, 238, 238); stroke-opacity: 1; stroke-width: 1px;"/><path class="ygrid crisp" transform="translate(0,56.16)" d="M60,0h466" style="stroke: rgb(238, 238, 238); stroke-opacity: 1; stroke-width: 1px;"/></g></g><g class="zerolinelayer"/><path class="xlines-below"/><path class="ylines-below"/><g class="overlines-below"/><g class="xaxislayer-below"/><g class="yaxislayer-below"/><g class="overaxes-below"/><g class="plot" transform="translate(60,25)" clip-path="url(#clip577119xyplot)"><g class="scatterlayer mlayer"><g class="trace scatter trace4f3c9b" style="stroke-miterlimit: 2; opacity: 1;"><g class="fills"/><g class="errorbars"/><g class="lines"/><g class="points"><path class="point" transform="translate(27.05,369.64)" d="M3,0A3,3 0 1,1 0,-3A3,3 0 0,1 3,0Z" style="opacity: 1; stroke-width: 0px; fill: rgb(0, 114, 178); fill-opacity: 1;"/><path class="point" transform="translate(60.82,357.74)" d="M3,0A3,3 0 1,1 0,-3A3,3 0 0,1 3,0Z" style="opacity: 1; stroke-width: 0px; fill: rgb(0, 114, 178); fill-opacity: 1;"/><path class="point" transform="translate(94.58,348.94)" d="M3,0A3,3 0 1,1 0,-3A3,3 0 0,1 3,0Z" style="opacity: 1; stroke-width: 0px; fill: rgb(0, 114, 178); fill-opacity: 1;"/><path class="point" transform="translate(128.35,333.93)" d="M3,0A3,3 0 1,1 0,-3A3,3 0 0,1 3,0Z" style="opacity: 1; stroke-width: 0px; fill: rgb(0, 114, 178); fill-opacity: 1;"/><path class="point" transform="translate(162.11,319.44)" d="M3,0A3,3 0 1,1 0,-3A3,3 0 0,1 3,0Z" style="opacity: 1; stroke-width: 0px; fill: rgb(0, 114, 178); fill-opacity: 1;"/><path class="point" transform="translate(195.88,298.74)" d="M3,0A3,3 0 1,1 0,-3A3,3 0 0,1 3,0Z" style="opacity: 1; stroke-width: 0px; fill: rgb(0, 114, 178); fill-opacity: 1;"/><path class="point" transform="translate(229.64,283.21)" d="M3,0A3,3 0 1,1 0,-3A3,3 0 0,1 3,0Z" style="opacity: 1; stroke-width: 0px; fill: rgb(0, 114, 178); fill-opacity: 1;"/></g><g class="text"/></g><g class="trace scatter tracea84442" style="stroke-miterlimit: 2;"><g class="fills"><g><path class="js-fill" d="M263.41,315.05L297.17,316.61L330.94,320.54L364.7,327.15L398.47,336.28L432.23,348.32L466,363.95L466,27.5L432.23,68.92L398.47,106.94L364.7,142.26L330.94,175.25L297.17,205.77L263.41,234.13Z" style="fill: rgb(0, 158, 115); fill-opacity: 0.2; stroke-width: 0;"/></g></g><g class="errorbars"/><g class="lines"><path class="js-line" d="M263.41,234.13L297.17,205.77L330.94,175.25L364.7,142.26L398.47,106.94L432.23,68.92L466,27.5" style="vector-effect: non-scaling-stroke; fill: none; stroke: rgb(0, 158, 115); stroke-opacity: 0; stroke-width: 2px; opacity: 1;"/></g><g class="points"/><g class="text"/></g><g class="trace scatter tracef9af05" style="stroke-miterlimit: 2;"><g class="fills"/><g class="errorbars"/><g class="lines"><path class="js-line" d="M263.41,315.05L297.17,316.61L330.94,320.54L364.7,327.15L398.47,336.28L432.23,348.32L466,363.95" style="vector-effect: non-scaling-stroke; fill: none; stroke: rgb(0, 158, 115); stroke-opacity: 0; stroke-width: 2px; opacity: 1;"/></g><g class="points"/><g class="text"/></g><g class="trace scatter trace62c72c" style="stroke-miterlimit: 2;"><g class="fills"><g><path class="js-fill" d="M263.41,321.02L297.17,323.78L330.94,329.15L364.7,336.78L398.47,347.18L432.23,360.67L466,377.56L466,19.95L432.23,63.48L398.47,103.57L364.7,140.52L330.94,174.65L297.17,206.48L263.41,235.65Z" style="fill: rgb(213, 94, 0); fill-opacity: 0.2; stroke-width: 0;"/></g></g><g class="errorbars"/><g class="lines"><path class="js-line" d="M263.41,235.65L297.17,206.48L330.94,174.65L364.7,140.52L398.47,103.57L432.23,63.48L466,19.95" style="vector-effect: non-scaling-stroke; fill: none; stroke: rgb(213, 94, 0); stroke-opacity: 0; stroke-width: 2px; opacity: 1;"/></g><g class="points"/><g class="text"/></g><g class="trace scatter tracea47a28" style="stroke-miterlimit: 2;"><g class="fills"/><g class="errorbars"/><g class="lines"><path class="js-line" d="M263.41,321.02L297.17,323.78L330.94,329.15L364.7,336.78L398.47,347.18L432.23,360.67L466,377.56" style="vector-effect: non-scaling-stroke; fill: none; stroke: rgb(213, 94, 0); stroke-opacity: 0; stroke-width: 2px; opacity: 1;"/></g><g class="points"/><g class="text"/></g><g class="trace scatter tracebcc9a1" style="stroke-miterlimit: 2; opacity: 1;"><g class="fills"/><g class="errorbars"/><g class="lines"><path class="js-line" d="M27.05,379.05L94.58,350.74L128.35,338.05L162.11,325.62L195.88,312.11L229.64,295.18L263.41,274.59L398.47,221.61L432.23,208.62L466,195.72" style="vector-effect: non-scaling-stroke; fill: none; stroke: rgb(0, 158, 115); stroke-opacity: 1; stroke-width: 2px; opacity: 1;"/></g><g class="points"/><g class="text"/></g><g class="trace scatter traceb31f71" style="stroke-miterlimit: 2; opacity: 1;"><g class="fills"/><g class="errorbars"/><g class="lines"><path class="js-line" d="M27.05,377.84L128.35,337.06L162.11,324.65L195.88,311.32L229.64,291.52L466,198.75" style="vector-effect: non-scaling-stroke; fill: none; stroke: rgb(213, 94, 0); stroke-opacity: 1; stroke-width: 2px; opacity: 1;"/></g><g class="points"/><g class="text"/></g></g></g><g class="overplot"/><path class="xlines-above crisp" d="M0,0" style="fill: none;"/><path class="ylines-above crisp" d="M0,0" style="fill: none;"/><g class="overlines-above"/><g class="xaxislayer-above"><g class="xtick"><text text-anchor="end" x="0" y="438" transform="translate(87.05,0) rotate(-45,0,431.5)" style="font-family: serif; font-size: 13px; fill: rgb(68, 68, 68); fill-opacity: 1; white-space: pre; opacity: 1;">03-04-21</text></g><g class="xtick"><text text-anchor="end" x="0" y="438" transform="translate(120.82,0) rotate(-45,0,431.5)" style="font-family: serif; font-size: 13px; fill: rgb(68, 68, 68); fill-opacity: 1; white-space: pre; opacity: 1;">04-04-21</text></g><g class="xtick"><text text-anchor="end" x="0" y="438" transform="translate(154.57999999999998,0) rotate(-45,0,431.5)" style="font-family: serif; font-size: 13px; fill: rgb(68, 68, 68); fill-opacity: 1; white-space: pre; opacity: 1;">05-04-21</text></g><g class="xtick"><text text-anchor="end" x="0" y="438" transform="translate(188.35,0) rotate(-45,0,431.5)" style="font-family: serif; font-size: 13px; fill: rgb(68, 68, 68); fill-opacity: 1; white-space: pre; opacity: 1;">06-04-21</text></g><g class="xtick"><text text-anchor="end" x="0" y="438" transform="translate(222.11,0) rotate(-45,0,431.5)" style="font-family: serif; font-size: 13px; fill: rgb(68, 68, 68); fill-opacity: 1; white-space: pre; opacity: 1;">07-04-21</text></g><g class="xtick"><text text-anchor="end" x="0" y="438" transform="translate(255.88,0) rotate(-45,0,431.5)" style="font-family: serif; font-size: 13px; fill: rgb(68, 68, 68); fill-opacity: 1; white-space: pre; opacity: 1;">08-04-21</text></g><g class="xtick"><text text-anchor="end" x="0" y="438" transform="translate(289.64,0) rotate(-45,0,431.5)" style="font-family: serif; font-size: 13px; fill: rgb(68, 68, 68); fill-opacity: 1; white-space: pre; opacity: 1;">09-04-21</text></g><g class="xtick"><text text-anchor="end" x="0" y="438" transform="translate(323.41,0) rotate(-45,0,431.5)" style="font-family: serif; font-size: 13px; fill: rgb(68, 68, 68); fill-opacity: 1; white-space: pre; opacity: 1;">10-04-21</text></g><g class="xtick"><text text-anchor="end" x="0" y="438" transform="translate(357.17,0) rotate(-45,0,431.5)" style="font-family: serif; font-size: 13px; fill: rgb(68, 68, 68); fill-opacity: 1; white-space: pre; opacity: 1;">11-04-21</text></g><g class="xtick"><text text-anchor="end" x="0" y="438" transform="translate(390.94,0) rotate(-45,0,431.5)" style="font-family: serif; font-size: 13px; fill: rgb(68, 68, 68); fill-opacity: 1; white-space: pre; opacity: 1;">12-04-21</text></g><g class="xtick"><text text-anchor="end" x="0" y="438" transform="translate(424.7,0) rotate(-45,0,431.5)" style="font-family: serif; font-size: 13px; fill: rgb(68, 68, 68); fill-opacity: 1; white-space: pre; opacity: 1;">13-04-21</text></g><g class="xtick"><text text-anchor="end" x="0" y="438" transform="translate(458.47,0) rotate(-45,0,431.5)" style="font-family: serif; font-size: 13px; fill: rgb(68, 68, 68); fill-opacity: 1; white-space: pre; opacity: 1;">14-04-21</text></g><g class="xtick"><text text-anchor="end" x="0" y="438" transform="translate(492.23,0) rotate(-45,0,431.5)" style="font-family: serif; font-size: 13px; fill: rgb(68, 68, 68); fill-opacity: 1; white-space: pre; opacity: 1;">15-04-21</text></g><g class="xtick"><text text-anchor="end" x="0" y="438" transform="translate(526,0) rotate(-45,0,431.5)" style="font-family: serif; font-size: 13px; fill: rgb(68, 68, 68); fill-opacity: 1; white-space: pre; opacity: 1;">16-04-21</text></g></g><g class="yaxislayer-above"><g class="ytick"><text text-anchor="end" x="59" y="4.199999999999999" transform="translate(0,418.45)" style="font-family: 'Open Sans', verdana, arial, sans-serif; font-size: 12px; fill: rgb(68, 68, 68); fill-opacity: 1; white-space: pre; opacity: 1;">14.5k</text></g><g class="ytick"><text text-anchor="end" x="59" y="4.199999999999999" style="font-family: 'Open Sans', verdana, arial, sans-serif; font-size: 12px; fill: rgb(68, 68, 68); fill-opacity: 1; white-space: pre; opacity: 1;" transform="translate(0,366.69)">14.6k</text></g><g class="ytick"><text text-anchor="end" x="59" y="4.199999999999999" style="font-family: 'Open Sans', verdana, arial, sans-serif; font-size: 12px; fill: rgb(68, 68, 68); fill-opacity: 1; white-space: pre; opacity: 1;" transform="translate(0,314.94)">14.7k</text></g><g class="ytick"><text text-anchor="end" x="59" y="4.199999999999999" style="font-family: 'Open Sans', verdana, arial, sans-serif; font-size: 12px; fill: rgb(68, 68, 68); fill-opacity: 1; white-space: pre; opacity: 1;" transform="translate(0,263.18)">14.8k</text></g><g class="ytick"><text text-anchor="end" x="59" y="4.199999999999999" style="font-family: 'Open Sans', verdana, arial, sans-serif; font-size: 12px; fill: rgb(68, 68, 68); fill-opacity: 1; white-space: pre; opacity: 1;" transform="translate(0,211.43)">14.9k</text></g><g class="ytick"><text text-anchor="end" x="59" y="4.199999999999999" style="font-family: 'Open Sans', verdana, arial, sans-serif; font-size: 12px; fill: rgb(68, 68, 68); fill-opacity: 1; white-space: pre; opacity: 1;" transform="translate(0,159.67)">15k</text></g><g class="ytick"><text text-anchor="end" x="59" y="4.199999999999999" style="font-family: 'Open Sans', verdana, arial, sans-serif; font-size: 12px; fill: rgb(68, 68, 68); fill-opacity: 1; white-space: pre; opacity: 1;" transform="translate(0,107.92)">15.1k</text></g><g class="ytick"><text text-anchor="end" x="59" y="4.199999999999999" style="font-family: 'Open Sans', verdana, arial, sans-serif; font-size: 12px; fill: rgb(68, 68, 68); fill-opacity: 1; white-space: pre; opacity: 1;" transform="translate(0,56.16)">15.2k</text></g></g><g class="overaxes-above"/></g></g><g class="polarlayer"/><g class="smithlayer"/><g class="ternarylayer"/><g class="geolayer"/><g class="funnelarealayer"/><g class="pielayer"/><g class="iciclelayer"/><g class="treemaplayer"/><g class="sunburstlayer"/><g class="glimages"/><defs id="topdefs-577119"><g class="clips"/><clipPath id="legend577119"><rect width="155" height="67" x="0" y="0"/></clipPath></defs><g class="layer-above"><g class="imagelayer"/><g class="shapelayer"/></g><g class="infolayer"><g class="legend" pointer-events="all" transform="translate(535.3199999999999,25)"><rect class="bg" shape-rendering="crispEdges" style="stroke: rgb(68, 68, 68); stroke-opacity: 1; fill: rgb(255, 255, 255); fill-opacity: 1; stroke-width: 0px;" width="155" height="67" x="0" y="0"/><g class="scrollbox" transform="" clip-path="url(#legend577119)"><g class="groups"><g class="traces" transform="translate(0,14.5)" style="opacity: 1;"><text class="legendtext" text-anchor="start" x="40" y="4.680000000000001" style="font-family: 'Open Sans', verdana, arial, sans-serif; font-size: 12px; fill: rgb(68, 68, 68); fill-opacity: 1; white-space: pre;">Observed Data</text><g class="layers" style="opacity: 1;"><g class="legendfill"/><g class="legendlines"/><g class="legendsymbols"><g class="legendpoints"><path class="scatterpts" transform="translate(20,0)" d="M3,0A3,3 0 1,1 0,-3A3,3 0 0,1 3,0Z" style="opacity: 1; stroke-width: 0px; fill: rgb(0, 114, 178); fill-opacity: 1;"/></g></g></g><rect class="legendtoggle" x="0" y="-9.5" width="149.046875" height="19" style="fill: rgb(0, 0, 0); fill-opacity: 0;"/></g><g class="traces" transform="translate(0,33.5)" style="opacity: 1;"><text class="legendtext" text-anchor="start" x="40" y="4.680000000000001" style="font-family: 'Open Sans', verdana, arial, sans-serif; font-size: 12px; fill: rgb(68, 68, 68); fill-opacity: 1; white-space: pre;">IISC-ISI Prediction 1</text><g class="layers" style="opacity: 1;"><g class="legendfill"/><g class="legendlines"><path class="js-line" d="M5,0h30" style="fill: none; stroke: rgb(0, 158, 115); stroke-opacity: 1; stroke-width: 2px;"/></g><g class="legendsymbols"><g class="legendpoints"/></g></g><rect class="legendtoggle" x="0" y="-9.5" width="149.046875" height="19" style="fill: rgb(0, 0, 0); fill-opacity: 0;"/></g><g class="traces" transform="translate(0,52.5)" style="opacity: 1;"><text class="legendtext" text-anchor="start" x="40" y="4.680000000000001" style="font-family: 'Open Sans', verdana, arial, sans-serif; font-size: 12px; fill: rgb(68, 68, 68); fill-opacity: 1; white-space: pre;">IISC-ISI Prediction 2</text><g class="layers" style="opacity: 1;"><g class="legendfill"/><g class="legendlines"><path class="js-line" d="M5,0h30" style="fill: none; stroke: rgb(213, 94, 0); stroke-opacity: 1; stroke-width: 2px;"/></g><g class="legendsymbols"><g class="legendpoints"/></g></g><rect class="legendtoggle" x="0" y="-9.5" width="149.046875" height="19" style="fill: rgb(0, 0, 0); fill-opacity: 0;"/></g></g></g><rect class="scrollbar" rx="20" ry="3" width="0" height="0" style="fill: rgb(128, 139, 164); fill-opacity: 1;" x="0" y="0"/></g><g class="g-gtitle"><text class="gtitle" x="350" y="12.5" text-anchor="middle" dy="0em" style="font-family: serif; font-size: 18px; fill: rgb(68, 68, 68); opacity: 1; font-weight: normal; white-space: pre;">Raichur</text></g><g class="g-xtitle" transform="translate(0,1.9267578125)"><text class="xtitle" x="293" y="488" text-anchor="middle" style="font-family: serif; font-size: 18px; fill: rgb(0, 0, 0); opacity: 1; font-weight: normal; white-space: pre;">Dates</text></g><g class="g-ytitle" transform="translate(2,0)"><text class="ytitle" transform="rotate(-90,14,224.5)" x="14" y="224.5" text-anchor="middle" style="font-family: serif; font-size: 18px; fill: rgb(0, 0, 0); opacity: 1; font-weight: normal; white-space: pre;">Infected Cases-Linear Scale</text></g></g></svg>